<svg width="1850" height="439" viewBox="0 0 1850 439" fill="none" xmlns="http://www.w3.org/2000/svg">
<g opacity="0.14">
<path d="M1136.55 321.212L1138.34 321.212L1138.34 165.231L1136.55 165.231L1136.55 321.212Z" fill="url(#paint0_linear_16_5432)"/>
<path d="M1164.85 267.317L1166.65 267.317L1166.65 179.248L1164.85 179.248L1164.85 267.317Z" fill="#070417"/>
<path d="M1193.1 263.242L1194.9 263.242L1194.9 165.72L1193.1 165.72L1193.1 263.242Z" fill="url(#paint1_linear_16_5432)"/>
<path d="M1221.35 246.4L1223.15 246.4L1223.15 152.952L1221.35 152.952L1221.35 246.4Z" fill="#070417"/>
<path d="M1249.6 191.907L1251.4 191.907L1251.4 133.502L1249.6 133.502L1249.6 191.907Z" fill="#070417"/>
<path d="M1277.85 321.484L1279.65 321.484L1279.65 27.2329L1277.85 27.2329L1277.85 321.484Z" fill="#070417"/>
<path d="M1840.1 294.251L1841.89 294.251L1841.89 -3.05176e-05L1840.1 -3.06847e-05L1840.1 294.251Z" fill="#070417"/>
<path d="M1306.16 239.717L1307.95 239.717L1307.95 165.556L1306.16 165.556L1306.16 239.717Z" fill="url(#paint2_linear_16_5432)"/>
<path d="M1334.41 317.409L1336.21 317.409L1336.21 132.904L1334.41 132.904L1334.41 317.409Z" fill="#070417"/>
<path d="M1362.66 439L1364.46 439L1364.46 148.443L1362.66 148.443L1362.66 439Z" fill="#070417"/>
<path d="M1390.91 323.179L1392.71 323.179L1392.71 274.553L1390.91 274.553L1390.91 323.179Z" fill="#070417"/>
<path d="M1419.16 337.196L1420.96 337.196L1420.96 292.754L1419.16 292.754L1419.16 337.196Z" fill="#070417"/>
<path d="M938.57 214.845L940.365 214.845L940.365 170.403L938.57 170.403L938.57 214.845Z" fill="#070417"/>
<path d="M1447.41 336.4L1449.21 336.4L1449.21 274.355L1447.41 274.355L1447.41 336.4Z" fill="url(#paint3_linear_16_5432)"/>
<path d="M966.822 214.9L968.617 214.9L968.617 152.855L966.822 152.855L966.822 214.9Z" fill="url(#paint4_linear_16_5432)"/>
<path d="M1475.72 309.452L1477.51 309.452L1477.51 219.698L1475.72 219.698L1475.72 309.452Z" fill="url(#paint5_linear_16_5432)"/>
<path d="M995.127 187.951L996.922 187.951L996.922 98.1979L995.127 98.1979L995.127 187.951Z" fill="url(#paint6_linear_16_5432)"/>
<path d="M1503.97 323.523L1505.76 323.523L1505.76 235.074L1503.97 235.074L1503.97 323.523Z" fill="#070417"/>
<path d="M1023.38 230.24L1025.17 230.24L1025.17 141.79L1023.38 141.79L1023.38 230.24Z" fill="#070417"/>
<path d="M1532.22 325.805L1534.01 325.805L1534.01 205.899L1532.22 205.899L1532.22 325.805Z" fill="#070417"/>
<path d="M1051.63 279.549L1053.42 279.549L1053.42 159.643L1051.63 159.643L1051.63 279.549Z" fill="#070417"/>
<path d="M1560.47 257.784L1562.26 257.784L1562.26 164.716L1560.47 164.716L1560.47 257.784Z" fill="url(#paint7_linear_16_5432)"/>
<path d="M1079.88 239.745L1081.67 239.745L1081.67 146.678L1079.88 146.678L1079.88 239.745Z" fill="url(#paint8_linear_16_5432)"/>
<path d="M1588.72 227.305L1590.51 227.305L1590.51 148.526L1588.72 148.526L1588.72 227.305Z" fill="#070417"/>
<path d="M1108.13 256.294L1109.92 256.294L1109.92 177.516L1108.13 177.516L1108.13 256.294Z" fill="#070417"/>
<path d="M1128.49 266.829L1146.46 266.829L1146.46 219.561L1128.49 219.561L1128.49 266.829Z" fill="url(#paint9_linear_16_5432)"/>
<path d="M1156.74 236.621L1174.7 236.621L1174.7 209.945L1156.74 209.945L1156.74 236.621Z" fill="#070417"/>
<path d="M1184.99 229.231L1202.96 229.231L1202.96 199.676L1184.99 199.676L1184.99 229.231Z" fill="url(#paint10_linear_16_5432)"/>
<path d="M1213.24 213.856L1231.21 213.856L1231.21 185.55L1213.24 185.55L1213.24 213.856Z" fill="#070417"/>
<path d="M1241.55 171.533L1259.51 171.533L1259.51 153.822L1241.55 153.822L1241.55 171.533Z" fill="#070417"/>
<path d="M1269.8 236.62L1287.76 236.62L1287.76 112.096L1269.8 112.096L1269.8 236.62Z" fill="#070417"/>
<path d="M1832.04 209.388L1850 209.388L1850 84.8632L1832.04 84.8632L1832.04 209.388Z" fill="#070417"/>
<path d="M1298.05 213.856L1316.01 213.856L1316.01 191.363L1298.05 191.363L1298.05 213.856Z" fill="url(#paint11_linear_16_5432)"/>
<path d="M1326.3 253.136L1344.26 253.136L1344.26 197.231L1326.3 197.231L1326.3 253.136Z" fill="#070417"/>
<path d="M1354.55 337.728L1372.51 337.728L1372.51 249.659L1354.55 249.659L1354.55 337.728Z" fill="#070417"/>
<path d="M1382.8 306.228L1400.76 306.228L1400.76 291.505L1382.8 291.505L1382.8 306.228Z" fill="#070417"/>
<path d="M1411.1 320.861L1429.07 320.861L1429.07 307.387L1411.1 307.387L1411.1 320.861Z" fill="#070417"/>
<path d="M930.514 199.361L948.477 199.361L948.477 185.887L930.514 185.887L930.514 199.361Z" fill="#070417"/>
<path d="M1439.35 314.776L1457.32 314.776L1457.32 295.978L1439.35 295.978L1439.35 314.776Z" fill="url(#paint12_linear_16_5432)"/>
<path d="M958.764 193.276L976.727 193.276L976.727 174.478L958.764 174.478L958.764 193.276Z" fill="url(#paint13_linear_16_5432)"/>
<path d="M1467.6 278.157L1485.57 278.157L1485.57 250.938L1467.6 250.938L1467.6 278.157Z" fill="url(#paint14_linear_16_5432)"/>
<path d="M987.016 156.657L1004.98 156.657L1004.98 129.438L987.016 129.438L987.016 156.657Z" fill="url(#paint15_linear_16_5432)"/>
<path d="M1495.85 292.664L1513.82 292.664L1513.82 265.879L1495.85 265.879L1495.85 292.664Z" fill="#070417"/>
<path d="M1015.27 199.38L1033.23 199.38L1033.23 172.596L1015.27 172.596L1015.27 199.38Z" fill="#070417"/>
<path d="M1524.1 284.025L1542.07 284.025L1542.07 247.678L1524.1 247.678L1524.1 284.025Z" fill="#070417"/>
<path d="M1043.51 237.77L1061.48 237.77L1061.48 201.423L1043.51 201.423L1043.51 237.77Z" fill="#070417"/>
<path d="M1552.36 225.348L1570.32 225.348L1570.32 197.151L1552.36 197.151L1552.36 225.348Z" fill="url(#paint16_linear_16_5432)"/>
<path d="M1071.77 207.31L1089.73 207.31L1089.73 179.113L1071.77 179.113L1071.77 207.31Z" fill="url(#paint17_linear_16_5432)"/>
<path d="M1580.66 199.814L1598.62 199.814L1598.62 175.963L1580.66 175.963L1580.66 199.814Z" fill="#070417"/>
<path d="M1100.07 228.804L1118.03 228.804L1118.03 204.953L1100.07 204.953L1100.07 228.804Z" fill="#070417"/>
</g>
<g opacity="0.14">
<path d="M1811.28 176.416L1813.07 176.416L1813.07 20.4344L1811.28 20.4344L1811.28 176.416Z" fill="url(#paint18_linear_16_5432)"/>
<path d="M1613.3 155.15L1615.1 155.15L1615.1 110.708L1613.3 110.708L1613.3 155.15Z" fill="#070417"/>
<path d="M1641.55 155.205L1643.35 155.205L1643.35 93.1597L1641.55 93.1597L1641.55 155.205Z" fill="url(#paint19_linear_16_5432)"/>
<path d="M1669.86 128.256L1671.65 128.256L1671.65 38.5031L1669.86 38.5031L1669.86 128.256Z" fill="url(#paint20_linear_16_5432)"/>
<path d="M1698.11 170.544L1699.9 170.544L1699.9 82.0951L1698.11 82.0951L1698.11 170.544Z" fill="#070417"/>
<path d="M1726.36 219.854L1728.15 219.854L1728.15 99.9481L1726.36 99.9481L1726.36 219.854Z" fill="#070417"/>
<path d="M1754.61 180.05L1756.4 180.05L1756.4 86.9824L1754.61 86.9824L1754.61 180.05Z" fill="url(#paint21_linear_16_5432)"/>
<path d="M1782.86 196.6L1784.65 196.6L1784.65 117.821L1782.86 117.821L1782.86 196.6Z" fill="#070417"/>
<path d="M1803.22 122.032L1821.19 122.032L1821.19 74.7646L1803.22 74.7646L1803.22 122.032Z" fill="url(#paint22_linear_16_5432)"/>
<path d="M1605.24 139.666L1623.21 139.666L1623.21 126.192L1605.24 126.192L1605.24 139.666Z" fill="#070417"/>
<path d="M1633.5 133.581L1651.46 133.581L1651.46 114.782L1633.5 114.782L1633.5 133.581Z" fill="url(#paint23_linear_16_5432)"/>
<path d="M1661.75 96.9619L1679.71 96.9619L1679.71 69.7426L1661.75 69.7426L1661.75 96.9619Z" fill="url(#paint24_linear_16_5432)"/>
<path d="M1690 139.686L1707.96 139.686L1707.96 112.901L1690 112.901L1690 139.686Z" fill="#070417"/>
<path d="M1718.25 178.074L1736.21 178.074L1736.21 141.727L1718.25 141.727L1718.25 178.074Z" fill="#070417"/>
<path d="M1746.5 147.615L1764.46 147.615L1764.46 119.417L1746.5 119.417L1746.5 147.615Z" fill="url(#paint25_linear_16_5432)"/>
<path d="M1774.8 169.108L1792.76 169.108L1792.76 145.258L1774.8 145.258L1774.8 169.108Z" fill="#070417"/>
</g>
<g opacity="0.14">
<path d="M206.035 321.212L207.83 321.212L207.83 165.231L206.035 165.231L206.035 321.212Z" fill="url(#paint26_linear_16_5432)"/>
<path d="M234.339 267.317L236.135 267.317L236.135 179.248L234.339 179.248L234.339 267.317Z" fill="#070417"/>
<path d="M262.589 263.242L264.385 263.242L264.385 165.72L262.589 165.72L262.589 263.242Z" fill="url(#paint27_linear_16_5432)"/>
<path d="M290.839 246.4L292.635 246.4L292.635 152.952L290.839 152.952L290.839 246.4Z" fill="#070417"/>
<path d="M319.089 191.907L320.885 191.907L320.885 133.502L319.089 133.502L319.089 191.907Z" fill="#070417"/>
<path d="M347.342 388.395L349.137 388.395L349.137 94.143L347.342 94.143L347.342 388.395Z" fill="#070417"/>
<path d="M909.582 294.251L911.377 294.251L911.377 -3.05176e-05L909.582 -3.06847e-05L909.582 294.251Z" fill="#070417"/>
<path d="M375.646 239.717L377.441 239.717L377.441 165.556L375.646 165.556L375.646 239.717Z" fill="url(#paint28_linear_16_5432)"/>
<path d="M403.896 317.409L405.691 317.409L405.691 132.904L403.896 132.904L403.896 317.409Z" fill="#070417"/>
<path d="M432.146 439L433.941 439L433.941 148.443L432.146 148.443L432.146 439Z" fill="#070417"/>
<path d="M460.398 323.179L462.193 323.179L462.193 274.553L460.398 274.553L460.398 323.179Z" fill="#070417"/>
<path d="M488.646 337.196L490.441 337.196L490.441 292.754L488.646 292.754L488.646 337.196Z" fill="#070417"/>
<path d="M8.05625 214.845L9.85156 214.845L9.85157 170.403L8.05625 170.403L8.05625 214.845Z" fill="#070417"/>
<path d="M516.896 336.4L518.691 336.4L518.691 274.355L516.896 274.355L516.896 336.4Z" fill="url(#paint29_linear_16_5432)"/>
<path d="M36.3062 214.9L38.1016 214.9L38.1016 152.855L36.3063 152.855L36.3062 214.9Z" fill="url(#paint30_linear_16_5432)"/>
<path d="M545.203 309.452L546.998 309.452L546.998 219.698L545.203 219.698L545.203 309.452Z" fill="url(#paint31_linear_16_5432)"/>
<path d="M64.6109 187.951L66.4062 187.951L66.4063 98.1979L64.6109 98.1979L64.6109 187.951Z" fill="url(#paint32_linear_16_5432)"/>
<path d="M573.453 323.523L575.248 323.523L575.248 235.074L573.453 235.074L573.453 323.523Z" fill="#070417"/>
<path d="M92.8648 230.24L94.6602 230.24L94.6602 141.79L92.8648 141.79L92.8648 230.24Z" fill="#070417"/>
<path d="M601.703 325.805L603.498 325.805L603.498 205.899L601.703 205.899L601.703 325.805Z" fill="#070417"/>
<path d="M121.115 279.549L122.91 279.549L122.91 159.643L121.115 159.643L121.115 279.549Z" fill="#070417"/>
<path d="M629.953 257.784L631.748 257.784L631.748 164.716L629.953 164.716L629.953 257.784Z" fill="url(#paint33_linear_16_5432)"/>
<path d="M149.365 239.745L151.16 239.745L151.16 146.678L149.365 146.678L149.365 239.745Z" fill="url(#paint34_linear_16_5432)"/>
<path d="M658.203 227.305L659.998 227.305L659.998 148.526L658.203 148.526L658.203 227.305Z" fill="#070417"/>
<path d="M177.615 256.294L179.41 256.294L179.41 177.516L177.615 177.516L177.615 256.294Z" fill="#070417"/>
<path d="M197.979 266.829L215.941 266.829L215.941 219.561L197.979 219.561L197.979 266.829Z" fill="url(#paint35_linear_16_5432)"/>
<path d="M226.229 236.621L244.191 236.621L244.191 209.945L226.229 209.945L226.229 236.621Z" fill="#070417"/>
<path d="M254.479 229.231L272.441 229.231L272.441 199.676L254.479 199.676L254.479 229.231Z" fill="url(#paint36_linear_16_5432)"/>
<path d="M282.729 213.856L300.691 213.856L300.691 185.55L282.729 185.55L282.729 213.856Z" fill="#070417"/>
<path d="M311.034 171.533L328.996 171.533L328.996 153.822L311.034 153.822L311.034 171.533Z" fill="#070417"/>
<path d="M339.284 303.531L357.246 303.531L357.246 179.006L339.284 179.006L339.284 303.531Z" fill="#070417"/>
<path d="M901.524 209.388L919.486 209.388L919.486 84.8632L901.524 84.8632L901.524 209.388Z" fill="#070417"/>
<path d="M367.534 213.856L385.496 213.856L385.496 191.363L367.534 191.363L367.534 213.856Z" fill="url(#paint37_linear_16_5432)"/>
<path d="M395.784 253.136L413.746 253.136L413.746 197.231L395.784 197.231L395.784 253.136Z" fill="#070417"/>
<path d="M424.035 337.728L441.998 337.728L441.998 249.659L424.035 249.659L424.035 337.728Z" fill="#070417"/>
<path d="M452.285 306.228L470.248 306.228L470.248 291.505L452.285 291.505L452.285 306.228Z" fill="#070417"/>
<path d="M480.59 320.861L498.553 320.861L498.553 307.387L480.59 307.387L480.59 320.861Z" fill="#070417"/>
<path d="M0.0022583 199.361L17.9648 199.361L17.9648 185.887L0.00225941 185.887L0.0022583 199.361Z" fill="#070417"/>
<path d="M508.84 314.776L526.803 314.776L526.803 295.978L508.84 295.978L508.84 314.776Z" fill="url(#paint38_linear_16_5432)"/>
<path d="M28.2523 193.276L46.2148 193.276L46.2148 174.478L28.2523 174.478L28.2523 193.276Z" fill="url(#paint39_linear_16_5432)"/>
<path d="M537.09 278.157L555.053 278.157L555.053 250.938L537.09 250.938L537.09 278.157Z" fill="url(#paint40_linear_16_5432)"/>
<path d="M56.5023 156.657L74.4648 156.657L74.4648 129.438L56.5023 129.438L56.5023 156.657Z" fill="url(#paint41_linear_16_5432)"/>
<path d="M565.34 292.664L583.303 292.664L583.303 265.879L565.34 265.879L565.34 292.664Z" fill="#070417"/>
<path d="M84.7523 199.38L102.715 199.38L102.715 172.596L84.7523 172.596L84.7523 199.38Z" fill="#070417"/>
<path d="M593.592 284.025L611.555 284.025L611.555 247.678L593.592 247.678L593.592 284.025Z" fill="#070417"/>
<path d="M113.002 237.77L130.965 237.77L130.965 201.423L113.002 201.423L113.002 237.77Z" fill="#070417"/>
<path d="M621.842 225.348L639.805 225.348L639.805 197.151L621.842 197.151L621.842 225.348Z" fill="url(#paint42_linear_16_5432)"/>
<path d="M141.252 207.31L159.215 207.31L159.215 179.113L141.252 179.113L141.252 207.31Z" fill="url(#paint43_linear_16_5432)"/>
<path d="M650.147 199.814L668.109 199.814L668.109 175.963L650.147 175.963L650.147 199.814Z" fill="#070417"/>
<path d="M169.557 228.804L187.52 228.804L187.52 204.953L169.557 204.953L169.557 228.804Z" fill="#070417"/>
</g>
<g opacity="0.14">
<path d="M880.765 176.416L882.561 176.416L882.561 20.4344L880.765 20.4344L880.765 176.416Z" fill="url(#paint44_linear_16_5432)"/>
<path d="M682.789 155.15L684.584 155.15L684.584 110.708L682.789 110.708L682.789 155.15Z" fill="#070417"/>
<path d="M711.039 155.205L712.834 155.205L712.834 93.1597L711.039 93.1597L711.039 155.205Z" fill="url(#paint45_linear_16_5432)"/>
<path d="M739.343 128.256L741.139 128.256L741.139 38.5031L739.343 38.5031L739.343 128.256Z" fill="url(#paint46_linear_16_5432)"/>
<path d="M767.593 170.544L769.389 170.544L769.389 82.0951L767.593 82.0951L767.593 170.544Z" fill="#070417"/>
<path d="M795.843 219.854L797.639 219.854L797.639 99.9481L795.843 99.9481L795.843 219.854Z" fill="#070417"/>
<path d="M824.095 180.05L825.891 180.05L825.891 86.9824L824.095 86.9824L824.095 180.05Z" fill="url(#paint47_linear_16_5432)"/>
<path d="M852.343 196.6L854.139 196.6L854.139 117.821L852.343 117.821L852.343 196.6Z" fill="#070417"/>
<path d="M872.709 122.032L890.672 122.032L890.672 74.7646L872.709 74.7646L872.709 122.032Z" fill="url(#paint48_linear_16_5432)"/>
<path d="M674.731 139.666L692.693 139.666L692.693 126.192L674.731 126.192L674.731 139.666Z" fill="#070417"/>
<path d="M702.983 133.581L720.945 133.581L720.945 114.782L702.983 114.782L702.983 133.581Z" fill="url(#paint49_linear_16_5432)"/>
<path d="M731.233 96.9619L749.195 96.9619L749.195 69.7426L731.233 69.7426L731.233 96.9619Z" fill="url(#paint50_linear_16_5432)"/>
<path d="M759.483 139.686L777.445 139.686L777.445 112.901L759.483 112.901L759.483 139.686Z" fill="#070417"/>
<path d="M787.733 178.074L805.695 178.074L805.695 141.727L787.733 141.727L787.733 178.074Z" fill="#070417"/>
<path d="M815.983 147.615L833.945 147.615L833.945 119.417L815.983 119.417L815.983 147.615Z" fill="url(#paint51_linear_16_5432)"/>
<path d="M844.287 169.108L862.25 169.108L862.25 145.258L844.287 145.258L844.287 169.108Z" fill="#070417"/>
</g>
<defs>
<linearGradient id="paint0_linear_16_5432" x1="1138.34" y1="243.252" x2="1136.55" y2="243.252" gradientUnits="userSpaceOnUse">
<stop stop-color="#8F4DED"/>
<stop offset="1" stop-color="#6D43E1"/>
</linearGradient>
<linearGradient id="paint1_linear_16_5432" x1="1194.9" y1="214.5" x2="1193.1" y2="214.5" gradientUnits="userSpaceOnUse">
<stop stop-color="#8F4DED"/>
<stop offset="1" stop-color="#6D43E1"/>
</linearGradient>
<linearGradient id="paint2_linear_16_5432" x1="1307.95" y1="202.651" x2="1306.16" y2="202.651" gradientUnits="userSpaceOnUse">
<stop stop-color="#8F4DED"/>
<stop offset="1" stop-color="#6D43E1"/>
</linearGradient>
<linearGradient id="paint3_linear_16_5432" x1="1449.21" y1="305.389" x2="1447.41" y2="305.389" gradientUnits="userSpaceOnUse">
<stop stop-color="#8F4DED"/>
<stop offset="1" stop-color="#6D43E1"/>
</linearGradient>
<linearGradient id="paint4_linear_16_5432" x1="968.617" y1="183.889" x2="966.822" y2="183.889" gradientUnits="userSpaceOnUse">
<stop stop-color="#8F4DED"/>
<stop offset="1" stop-color="#6D43E1"/>
</linearGradient>
<linearGradient id="paint5_linear_16_5432" x1="1477.51" y1="264.592" x2="1475.72" y2="264.592" gradientUnits="userSpaceOnUse">
<stop stop-color="#8F4DED"/>
<stop offset="1" stop-color="#6D43E1"/>
</linearGradient>
<linearGradient id="paint6_linear_16_5432" x1="996.922" y1="143.092" x2="995.126" y2="143.092" gradientUnits="userSpaceOnUse">
<stop stop-color="#8F4DED"/>
<stop offset="1" stop-color="#6D43E1"/>
</linearGradient>
<linearGradient id="paint7_linear_16_5432" x1="1562.26" y1="211.268" x2="1560.47" y2="211.268" gradientUnits="userSpaceOnUse">
<stop stop-color="#8F4DED"/>
<stop offset="1" stop-color="#6D43E1"/>
</linearGradient>
<linearGradient id="paint8_linear_16_5432" x1="1081.67" y1="193.229" x2="1079.88" y2="193.229" gradientUnits="userSpaceOnUse">
<stop stop-color="#8F4DED"/>
<stop offset="1" stop-color="#6D43E1"/>
</linearGradient>
<linearGradient id="paint9_linear_16_5432" x1="1146.46" y1="243.204" x2="1128.49" y2="243.204" gradientUnits="userSpaceOnUse">
<stop stop-color="#8F4DED"/>
<stop offset="1" stop-color="#6D43E1"/>
</linearGradient>
<linearGradient id="paint10_linear_16_5432" x1="1202.96" y1="214.459" x2="1184.99" y2="214.459" gradientUnits="userSpaceOnUse">
<stop stop-color="#8F4DED"/>
<stop offset="1" stop-color="#6D43E1"/>
</linearGradient>
<linearGradient id="paint11_linear_16_5432" x1="1316.01" y1="202.614" x2="1298.04" y2="202.614" gradientUnits="userSpaceOnUse">
<stop stop-color="#8F4DED"/>
<stop offset="1" stop-color="#6D43E1"/>
</linearGradient>
<linearGradient id="paint12_linear_16_5432" x1="1457.32" y1="305.38" x2="1439.35" y2="305.38" gradientUnits="userSpaceOnUse">
<stop stop-color="#8F4DED"/>
<stop offset="1" stop-color="#6D43E1"/>
</linearGradient>
<linearGradient id="paint13_linear_16_5432" x1="976.727" y1="183.88" x2="958.761" y2="183.88" gradientUnits="userSpaceOnUse">
<stop stop-color="#8F4DED"/>
<stop offset="1" stop-color="#6D43E1"/>
</linearGradient>
<linearGradient id="paint14_linear_16_5432" x1="1485.57" y1="264.553" x2="1467.6" y2="264.553" gradientUnits="userSpaceOnUse">
<stop stop-color="#8F4DED"/>
<stop offset="1" stop-color="#6D43E1"/>
</linearGradient>
<linearGradient id="paint15_linear_16_5432" x1="1004.98" y1="143.053" x2="987.013" y2="143.053" gradientUnits="userSpaceOnUse">
<stop stop-color="#8F4DED"/>
<stop offset="1" stop-color="#6D43E1"/>
</linearGradient>
<linearGradient id="paint16_linear_16_5432" x1="1570.32" y1="211.255" x2="1552.35" y2="211.255" gradientUnits="userSpaceOnUse">
<stop stop-color="#8F4DED"/>
<stop offset="1" stop-color="#6D43E1"/>
</linearGradient>
<linearGradient id="paint17_linear_16_5432" x1="1089.73" y1="193.217" x2="1071.76" y2="193.217" gradientUnits="userSpaceOnUse">
<stop stop-color="#8F4DED"/>
<stop offset="1" stop-color="#6D43E1"/>
</linearGradient>
<linearGradient id="paint18_linear_16_5432" x1="1813.07" y1="98.4553" x2="1811.28" y2="98.4553" gradientUnits="userSpaceOnUse">
<stop stop-color="#8F4DED"/>
<stop offset="1" stop-color="#6D43E1"/>
</linearGradient>
<linearGradient id="paint19_linear_16_5432" x1="1643.35" y1="124.194" x2="1641.55" y2="124.194" gradientUnits="userSpaceOnUse">
<stop stop-color="#8F4DED"/>
<stop offset="1" stop-color="#6D43E1"/>
</linearGradient>
<linearGradient id="paint20_linear_16_5432" x1="1671.65" y1="83.397" x2="1669.86" y2="83.397" gradientUnits="userSpaceOnUse">
<stop stop-color="#8F4DED"/>
<stop offset="1" stop-color="#6D43E1"/>
</linearGradient>
<linearGradient id="paint21_linear_16_5432" x1="1756.4" y1="133.534" x2="1754.61" y2="133.534" gradientUnits="userSpaceOnUse">
<stop stop-color="#8F4DED"/>
<stop offset="1" stop-color="#6D43E1"/>
</linearGradient>
<linearGradient id="paint22_linear_16_5432" x1="1821.19" y1="98.4073" x2="1803.22" y2="98.4073" gradientUnits="userSpaceOnUse">
<stop stop-color="#8F4DED"/>
<stop offset="1" stop-color="#6D43E1"/>
</linearGradient>
<linearGradient id="paint23_linear_16_5432" x1="1651.46" y1="124.185" x2="1633.49" y2="124.185" gradientUnits="userSpaceOnUse">
<stop stop-color="#8F4DED"/>
<stop offset="1" stop-color="#6D43E1"/>
</linearGradient>
<linearGradient id="paint24_linear_16_5432" x1="1679.71" y1="83.3575" x2="1661.74" y2="83.3575" gradientUnits="userSpaceOnUse">
<stop stop-color="#8F4DED"/>
<stop offset="1" stop-color="#6D43E1"/>
</linearGradient>
<linearGradient id="paint25_linear_16_5432" x1="1764.46" y1="133.522" x2="1746.49" y2="133.522" gradientUnits="userSpaceOnUse">
<stop stop-color="#8F4DED"/>
<stop offset="1" stop-color="#6D43E1"/>
</linearGradient>
<linearGradient id="paint26_linear_16_5432" x1="207.83" y1="243.252" x2="206.034" y2="243.252" gradientUnits="userSpaceOnUse">
<stop stop-color="#8F4DED"/>
<stop offset="1" stop-color="#6D43E1"/>
</linearGradient>
<linearGradient id="paint27_linear_16_5432" x1="264.385" y1="214.5" x2="262.589" y2="214.5" gradientUnits="userSpaceOnUse">
<stop stop-color="#8F4DED"/>
<stop offset="1" stop-color="#6D43E1"/>
</linearGradient>
<linearGradient id="paint28_linear_16_5432" x1="377.441" y1="202.651" x2="375.646" y2="202.651" gradientUnits="userSpaceOnUse">
<stop stop-color="#8F4DED"/>
<stop offset="1" stop-color="#6D43E1"/>
</linearGradient>
<linearGradient id="paint29_linear_16_5432" x1="518.691" y1="305.389" x2="516.896" y2="305.389" gradientUnits="userSpaceOnUse">
<stop stop-color="#8F4DED"/>
<stop offset="1" stop-color="#6D43E1"/>
</linearGradient>
<linearGradient id="paint30_linear_16_5432" x1="38.1016" y1="183.889" x2="36.3059" y2="183.889" gradientUnits="userSpaceOnUse">
<stop stop-color="#8F4DED"/>
<stop offset="1" stop-color="#6D43E1"/>
</linearGradient>
<linearGradient id="paint31_linear_16_5432" x1="546.998" y1="264.592" x2="545.202" y2="264.592" gradientUnits="userSpaceOnUse">
<stop stop-color="#8F4DED"/>
<stop offset="1" stop-color="#6D43E1"/>
</linearGradient>
<linearGradient id="paint32_linear_16_5432" x1="66.4063" y1="143.092" x2="64.6106" y2="143.092" gradientUnits="userSpaceOnUse">
<stop stop-color="#8F4DED"/>
<stop offset="1" stop-color="#6D43E1"/>
</linearGradient>
<linearGradient id="paint33_linear_16_5432" x1="631.748" y1="211.268" x2="629.952" y2="211.268" gradientUnits="userSpaceOnUse">
<stop stop-color="#8F4DED"/>
<stop offset="1" stop-color="#6D43E1"/>
</linearGradient>
<linearGradient id="paint34_linear_16_5432" x1="151.16" y1="193.229" x2="149.365" y2="193.229" gradientUnits="userSpaceOnUse">
<stop stop-color="#8F4DED"/>
<stop offset="1" stop-color="#6D43E1"/>
</linearGradient>
<linearGradient id="paint35_linear_16_5432" x1="215.941" y1="243.204" x2="197.976" y2="243.204" gradientUnits="userSpaceOnUse">
<stop stop-color="#8F4DED"/>
<stop offset="1" stop-color="#6D43E1"/>
</linearGradient>
<linearGradient id="paint36_linear_16_5432" x1="272.441" y1="214.459" x2="254.476" y2="214.459" gradientUnits="userSpaceOnUse">
<stop stop-color="#8F4DED"/>
<stop offset="1" stop-color="#6D43E1"/>
</linearGradient>
<linearGradient id="paint37_linear_16_5432" x1="385.496" y1="202.614" x2="367.53" y2="202.614" gradientUnits="userSpaceOnUse">
<stop stop-color="#8F4DED"/>
<stop offset="1" stop-color="#6D43E1"/>
</linearGradient>
<linearGradient id="paint38_linear_16_5432" x1="526.803" y1="305.38" x2="508.837" y2="305.38" gradientUnits="userSpaceOnUse">
<stop stop-color="#8F4DED"/>
<stop offset="1" stop-color="#6D43E1"/>
</linearGradient>
<linearGradient id="paint39_linear_16_5432" x1="46.2148" y1="183.88" x2="28.2492" y2="183.88" gradientUnits="userSpaceOnUse">
<stop stop-color="#8F4DED"/>
<stop offset="1" stop-color="#6D43E1"/>
</linearGradient>
<linearGradient id="paint40_linear_16_5432" x1="555.053" y1="264.553" x2="537.087" y2="264.553" gradientUnits="userSpaceOnUse">
<stop stop-color="#8F4DED"/>
<stop offset="1" stop-color="#6D43E1"/>
</linearGradient>
<linearGradient id="paint41_linear_16_5432" x1="74.4648" y1="143.053" x2="56.4992" y2="143.053" gradientUnits="userSpaceOnUse">
<stop stop-color="#8F4DED"/>
<stop offset="1" stop-color="#6D43E1"/>
</linearGradient>
<linearGradient id="paint42_linear_16_5432" x1="639.805" y1="211.255" x2="621.839" y2="211.255" gradientUnits="userSpaceOnUse">
<stop stop-color="#8F4DED"/>
<stop offset="1" stop-color="#6D43E1"/>
</linearGradient>
<linearGradient id="paint43_linear_16_5432" x1="159.215" y1="193.217" x2="141.249" y2="193.217" gradientUnits="userSpaceOnUse">
<stop stop-color="#8F4DED"/>
<stop offset="1" stop-color="#6D43E1"/>
</linearGradient>
<linearGradient id="paint44_linear_16_5432" x1="882.561" y1="98.4553" x2="880.765" y2="98.4553" gradientUnits="userSpaceOnUse">
<stop stop-color="#8F4DED"/>
<stop offset="1" stop-color="#6D43E1"/>
</linearGradient>
<linearGradient id="paint45_linear_16_5432" x1="712.834" y1="124.194" x2="711.038" y2="124.194" gradientUnits="userSpaceOnUse">
<stop stop-color="#8F4DED"/>
<stop offset="1" stop-color="#6D43E1"/>
</linearGradient>
<linearGradient id="paint46_linear_16_5432" x1="741.139" y1="83.397" x2="739.343" y2="83.397" gradientUnits="userSpaceOnUse">
<stop stop-color="#8F4DED"/>
<stop offset="1" stop-color="#6D43E1"/>
</linearGradient>
<linearGradient id="paint47_linear_16_5432" x1="825.891" y1="133.534" x2="824.095" y2="133.534" gradientUnits="userSpaceOnUse">
<stop stop-color="#8F4DED"/>
<stop offset="1" stop-color="#6D43E1"/>
</linearGradient>
<linearGradient id="paint48_linear_16_5432" x1="890.672" y1="98.4073" x2="872.706" y2="98.4073" gradientUnits="userSpaceOnUse">
<stop stop-color="#8F4DED"/>
<stop offset="1" stop-color="#6D43E1"/>
</linearGradient>
<linearGradient id="paint49_linear_16_5432" x1="720.945" y1="124.185" x2="702.98" y2="124.185" gradientUnits="userSpaceOnUse">
<stop stop-color="#8F4DED"/>
<stop offset="1" stop-color="#6D43E1"/>
</linearGradient>
<linearGradient id="paint50_linear_16_5432" x1="749.195" y1="83.3575" x2="731.23" y2="83.3575" gradientUnits="userSpaceOnUse">
<stop stop-color="#8F4DED"/>
<stop offset="1" stop-color="#6D43E1"/>
</linearGradient>
<linearGradient id="paint51_linear_16_5432" x1="833.945" y1="133.522" x2="815.98" y2="133.522" gradientUnits="userSpaceOnUse">
<stop stop-color="#8F4DED"/>
<stop offset="1" stop-color="#6D43E1"/>
</linearGradient>
</defs>
</svg>
