<svg width="199" height="95" viewBox="0 0 199 95" fill="none" xmlns="http://www.w3.org/2000/svg">
<path d="M33.8659 81.8894C52.2523 81.8894 67.1575 66.9843 67.1575 48.5978C67.1575 30.2113 52.2523 15.3062 33.8659 15.3062C15.4794 15.3062 0.574219 30.2113 0.574219 48.5978C0.574219 66.9843 15.4794 81.8894 33.8659 81.8894Z" fill="#627EEA"/>
<path d="M34.9023 23.6284V42.0845L50.5016 49.0549L34.9023 23.6284Z" fill="white" fill-opacity="0.602"/>
<path d="M34.9021 23.6284L19.3008 49.0549L34.9021 42.0845V23.6284Z" fill="white"/>
<path d="M34.9023 61.0163V73.5568L50.512 51.9609L34.9023 61.0163Z" fill="white" fill-opacity="0.602"/>
<path d="M34.9021 73.5568V61.0142L19.3008 51.9609L34.9021 73.5568Z" fill="white"/>
<path d="M34.9023 58.113L50.5016 49.0556L34.9023 42.0894V58.113Z" fill="white" fill-opacity="0.2"/>
<path d="M19.3008 49.0556L34.9021 58.113V42.0894L19.3008 49.0556Z" fill="white" fill-opacity="0.602"/>
<path d="M164.952 81.8894C183.338 81.8894 198.243 66.9843 198.243 48.5978C198.243 30.2113 183.338 15.3062 164.952 15.3062C146.565 15.3062 131.66 30.2113 131.66 48.5978C131.66 66.9843 146.565 81.8894 164.952 81.8894Z" fill="#26A17B"/>
<path fill-rule="evenodd" clip-rule="evenodd" d="M168.952 51.4753V51.4711C168.723 51.4878 167.543 51.5585 164.911 51.5585C162.809 51.5585 161.33 51.4961 160.81 51.4711V51.4774C152.72 51.1215 146.682 49.7129 146.682 48.0275C146.682 46.3442 152.72 44.9355 160.81 44.5735V50.0749C161.338 50.1124 162.853 50.2019 164.946 50.2019C167.458 50.2019 168.717 50.0978 168.952 50.077V44.5777C177.025 44.9376 183.049 46.3463 183.049 48.0275C183.049 49.7129 177.025 51.1174 168.952 51.4753ZM168.952 44.0055V39.0825H180.217V31.5752H149.545V39.0825H160.81V44.0034C151.655 44.4237 144.77 46.2381 144.77 48.4104C144.77 50.5826 151.655 52.395 160.81 52.8173V68.5934H168.952V52.8132C178.092 52.3929 184.961 50.5806 184.961 48.4104C184.961 46.2402 178.092 44.4278 168.952 44.0055Z" fill="white"/>
<path d="M144.185 47.5571C144.185 72.8608 123.673 93.3735 98.3691 93.3735C73.0654 93.3735 52.5527 72.8608 52.5527 47.5571C52.5527 22.2534 73.0654 1.74072 98.3691 1.74072C123.673 1.74072 144.185 22.2534 144.185 47.5571Z" fill="#F7931A" stroke="white" stroke-width="2"/>
<path d="M119.404 41.7641C120.323 35.6311 115.65 32.3335 109.265 30.1331L111.337 21.8232L106.281 20.565L104.262 28.6555C102.933 28.3219 101.57 28.0118 100.209 27.7016L102.243 19.5585L97.1866 18.2974L95.115 26.6043C94.0148 26.3527 92.9322 26.1069 91.8847 25.8436L91.8905 25.8172L84.9149 24.0763L83.5689 29.4777C83.5689 29.4777 87.323 30.338 87.244 30.3906C89.2922 30.9027 89.6609 32.2574 89.5994 33.3342L87.2411 42.7999C87.3815 42.835 87.5629 42.8877 87.7677 42.9667L87.2323 42.835L83.9259 56.0957C83.6742 56.7161 83.0393 57.6495 81.6055 57.2954C81.6582 57.3686 77.9305 56.3796 77.9305 56.3796L75.4199 62.1672L82.0035 63.8087C83.2266 64.116 84.4262 64.4378 85.6054 64.7392L83.5133 73.1427L88.5665 74.4009L90.6382 66.091C92.0193 66.4626 93.3594 66.8079 94.6702 67.1356L92.6045 75.4104L97.6606 76.6686L99.7527 68.2826C108.379 69.9153 114.863 69.257 117.593 61.4562C119.793 55.177 117.484 51.5516 112.946 49.1903C116.253 48.4296 118.74 46.2555 119.404 41.7641ZM107.846 57.9684C106.287 64.2506 95.709 60.8535 92.2797 60.002L95.0594 48.8685C98.4887 49.7258 109.482 51.42 107.846 57.9684ZM109.412 41.6734C107.987 47.3879 99.1851 44.4824 96.3322 43.7713L98.8486 33.6765C101.701 34.3876 110.898 35.7131 109.412 41.6734Z" fill="white"/>
</svg>
