<svg width="131" height="102" viewBox="0 0 131 102" fill="none" xmlns="http://www.w3.org/2000/svg">
<path d="M24.1472 100.915V94.2123C24.1472 91.6483 22.5854 89.9694 19.9044 89.9694C18.5638 89.9694 17.1061 90.4119 16.104 91.8696C15.3231 90.6462 14.2038 89.9694 12.5249 89.9694C11.4056 89.9694 10.2863 90.3078 9.40129 91.5312V90.1906H7.05859V100.915H9.40129V94.9932C9.40129 93.093 10.4034 92.1949 11.9652 92.1949C13.527 92.1949 14.3079 93.1971 14.3079 94.9932V100.915H16.6506V94.9932C16.6506 93.093 17.7699 92.1949 19.2146 92.1949C20.7764 92.1949 21.5573 93.1971 21.5573 94.9932V100.915H24.1472ZM58.8972 90.1906H55.0968V86.9499H52.7541V90.1906H50.6327V92.3121H52.7541V97.2317C52.7541 99.6916 53.7563 101.136 56.4374 101.136C57.4395 101.136 58.5588 100.798 59.3397 100.355L58.6629 98.338C57.9861 98.7805 57.2052 98.8976 56.6456 98.8976C55.5263 98.8976 55.0838 98.2209 55.0838 97.1146V92.3121H58.8842V90.1906H58.8972ZM78.784 89.9564C77.4435 89.9564 76.5455 90.6331 75.9858 91.5182V90.1776H73.6431V100.902H75.9858V94.863C75.9858 93.08 76.7667 92.0648 78.2244 92.0648C78.6669 92.0648 79.2265 92.1819 79.6821 92.286L80.3588 90.0475C79.8903 89.9564 79.2266 89.9564 78.784 89.9564ZM48.7325 91.0757C47.6132 90.2948 46.0514 89.9564 44.3725 89.9564C41.6914 89.9564 39.9084 91.2969 39.9084 93.4183C39.9084 95.2014 41.2489 96.2166 43.5916 96.5419L44.7109 96.6591C45.9343 96.8803 46.6111 97.2187 46.6111 97.7784C46.6111 98.5593 45.713 99.1189 44.1512 99.1189C42.5894 99.1189 41.353 98.5593 40.5721 97.9996L39.4528 99.7827C40.6762 100.681 42.3552 101.123 44.0341 101.123C47.1577 101.123 48.9538 99.6655 48.9538 97.6612C48.9538 95.761 47.4961 94.7589 45.2705 94.4205L44.1512 94.3034C43.1491 94.1862 42.3682 93.965 42.3682 93.3012C42.3682 92.5203 43.1491 92.0778 44.3855 92.0778C45.726 92.0778 47.0666 92.6374 47.7434 92.9758L48.7325 91.0757ZM111.061 89.9564C109.721 89.9564 108.823 90.6331 108.263 91.5182V90.1776H105.92V100.902H108.263V94.863C108.263 93.08 109.044 92.0648 110.501 92.0648C110.944 92.0648 111.504 92.1819 111.959 92.286L112.636 90.0735C112.18 89.9564 111.517 89.9564 111.061 89.9564ZM81.1267 95.5528C81.1267 98.7935 83.3653 101.136 86.8273 101.136C88.3891 101.136 89.5084 100.798 90.6277 99.9128L89.5084 98.0126C88.6103 98.6894 87.7253 99.0148 86.7102 99.0148C84.81 99.0148 83.4694 97.6742 83.4694 95.5528C83.4694 93.5355 84.81 92.1949 86.7102 92.0908C87.7123 92.0908 88.6103 92.4292 89.5084 93.093L90.6277 91.1928C89.5084 90.2947 88.3891 89.9694 86.8273 89.9694C83.3653 89.9564 81.1267 92.3121 81.1267 95.5528ZM102.797 95.5528V90.1906H100.454V91.5312C99.6731 90.529 98.5538 89.9694 97.0961 89.9694C94.0766 89.9694 91.7339 92.3121 91.7339 95.5528C91.7339 98.7935 94.0766 101.136 97.0961 101.136C98.6579 101.136 99.7772 100.577 100.454 99.5744V100.915H102.797V95.5528ZM94.1938 95.5528C94.1938 93.6526 95.4172 92.0908 97.4345 92.0908C99.3347 92.0908 100.675 93.5485 100.675 95.5528C100.675 97.453 99.3347 99.0148 97.4345 99.0148C95.4302 98.8976 94.1938 97.44 94.1938 95.5528ZM66.1595 89.9564C63.0359 89.9564 60.7974 92.1949 60.7974 95.5398C60.7974 98.8976 63.0359 101.123 66.2767 101.123C67.8385 101.123 69.4003 100.681 70.6367 99.6655L69.5174 97.9866C68.6194 98.6634 67.5001 99.1059 66.3938 99.1059C64.9361 99.1059 63.4915 98.4291 63.1531 96.5419H71.0792C71.0792 96.2035 71.0792 95.9823 71.0792 95.6439C71.1833 92.1949 69.166 89.9564 66.1595 89.9564ZM66.1595 91.9737C67.6172 91.9737 68.6194 92.8717 68.8406 94.5376H63.2572C63.4785 93.093 64.4806 91.9737 66.1595 91.9737ZM124.362 95.5528V85.9478H122.02V91.5312C121.239 90.529 120.12 89.9694 118.662 89.9694C115.642 89.9694 113.3 92.3121 113.3 95.5528C113.3 98.7935 115.642 101.136 118.662 101.136C120.224 101.136 121.343 100.577 122.02 99.5744V100.915H124.362V95.5528ZM115.76 95.5528C115.76 93.6526 116.983 92.0908 119 92.0908C120.9 92.0908 122.241 93.5485 122.241 95.5528C122.241 97.453 120.9 99.0148 119 99.0148C116.983 98.8976 115.76 97.44 115.76 95.5528ZM37.3314 95.5528V90.1906H34.9887V91.5312C34.2078 90.529 33.0885 89.9694 31.6308 89.9694C28.6114 89.9694 26.2687 92.3121 26.2687 95.5528C26.2687 98.7935 28.6114 101.136 31.6308 101.136C33.1926 101.136 34.3119 100.577 34.9887 99.5744V100.915H37.3314V95.5528ZM28.6244 95.5528C28.6244 93.6526 29.8478 92.0908 31.8651 92.0908C33.7653 92.0908 35.1058 93.5485 35.1058 95.5528C35.1058 97.453 33.7653 99.0148 31.8651 99.0148C29.8478 98.8976 28.6244 97.44 28.6244 95.5528Z" fill="black"/>
<path d="M83.1456 8.74316H47.9531V71.9698H83.1456V8.74316Z" fill="#FF5A00"/>
<path d="M50.2953 40.3564C50.2953 27.5106 56.3342 16.1095 65.6009 8.74302C58.781 3.38086 50.1781 0.140137 40.7944 0.140137C18.5648 0.140137 0.578125 18.1268 0.578125 40.3564C0.578125 62.5859 18.5648 80.5726 40.7944 80.5726C50.1781 80.5726 58.781 77.3319 65.6009 71.9697C56.3212 64.7074 50.2953 53.2021 50.2953 40.3564Z" fill="#EB001B"/>
<path d="M130.624 40.3564C130.624 62.5859 112.638 80.5726 90.4081 80.5726C81.0243 80.5726 72.4214 77.3319 65.6016 71.9697C74.9853 64.5902 80.9072 53.2021 80.9072 40.3564C80.9072 27.5106 74.8682 16.1095 65.6016 8.74302C72.4084 3.38086 81.0113 0.140137 90.3951 0.140137C112.638 0.140137 130.624 18.2439 130.624 40.3564Z" fill="#F79E1B"/>
</svg>
