<svg width="92" height="92" viewBox="0 0 92 92" fill="none" xmlns="http://www.w3.org/2000/svg">
<path fill-rule="evenodd" clip-rule="evenodd" d="M46.4886 0.0356445C71.6236 0.0356445 91.9995 20.4109 91.9995 45.5458C91.9995 70.6807 71.6236 91.0559 46.4886 91.0559C21.3545 91.0559 0.978516 70.6807 0.978516 45.5458C0.978516 20.4109 21.3545 0.0356445 46.4886 0.0356445Z" fill="#F01010"/>
<path fill-rule="evenodd" clip-rule="evenodd" d="M44.5522 30.7906H40.6966C40.0655 30.7188 39.2945 30.7188 38.5243 30.65C38.3149 30.7188 38.2424 30.9319 38.1721 31.2116C38.1025 31.4927 38.1721 31.7028 38.3149 31.9122L39.1554 31.9833C40.2046 32.1912 40.9755 32.402 41.469 32.6144C41.9581 32.8933 42.3073 33.3846 42.4494 34.0158C42.5892 34.6469 42.6588 35.4867 42.5892 36.5395C42.5175 38.0112 42.4494 39.7625 42.3791 41.7957C42.3073 43.8312 42.1682 45.9332 42.0269 48.1078C41.8886 51.4691 41.5867 59.659 40.6729 62.0836C40.4613 62.6445 40.1121 62.9959 39.6911 63.209C39.199 63.4162 38.636 63.6271 37.9353 63.6996L36.8107 63.8394C36.6013 63.9778 36.5302 64.1909 36.6013 64.5416C36.6013 64.7524 36.6708 64.9611 36.8817 65.1727C37.7932 65.1031 38.636 65.0321 39.549 64.9611H45.0967C46.1481 65.0321 47.0619 65.1031 47.9039 65.1727C48.1155 65.0321 48.2554 64.822 48.2554 64.5416C48.2554 64.2589 48.1858 64.0495 47.9734 63.8394L46.009 63.6996C45.3757 63.6271 44.8844 63.488 44.5344 63.209C44.3583 63.0662 44.217 62.8709 44.1119 62.6326C43.6976 61.636 43.6887 59.9498 43.7102 58.9028C43.7553 56.7298 43.782 54.5574 43.8508 52.3836C43.9211 50.2106 43.9913 48.3157 44.0602 46.7042C44.1282 45.2326 44.2725 43.6884 44.3406 42.1465C44.4109 40.606 44.4797 39.0618 44.5522 37.5199H44.6913C45.2529 38.7111 45.8144 39.9031 46.305 41.2349C46.8666 42.4979 47.4267 43.7602 47.986 44.9529L52.6836 54.9747C53.1068 55.819 53.5959 56.8703 54.1553 58.1319C54.7879 59.4637 55.4168 60.7245 55.9791 61.986C56.2758 62.6541 56.5325 63.28 56.7501 63.869C56.8063 63.869 57.1992 65.1609 57.2428 65.3111C57.5129 65.5848 57.9554 65.5782 58.2262 65.3111C58.662 64.2663 59.117 63.209 59.6238 62.1983C60.9519 59.218 62.337 56.3717 63.9011 53.5053L68.4582 44.4616C68.8096 43.6884 69.1588 42.8471 69.6494 41.9371C70.1407 40.956 70.6305 40.0444 71.0522 39.2734C71.4022 38.4314 71.6819 37.8713 71.821 37.6605H71.892L72.0341 59.3253C72.1021 60.4455 72.0341 61.2831 71.9638 61.9149C71.9075 62.4166 71.7662 62.8931 71.2846 63.138C71.0019 63.488 70.4411 63.6271 69.5288 63.6996L67.9839 63.8394C67.8433 63.9778 67.7738 64.1909 67.8433 64.5416C67.8433 64.7524 67.9143 64.9611 68.1259 65.1727C69.1773 65.1031 70.299 65.0321 71.3526 64.9611H77.3924C78.4438 65.0321 79.4966 65.1031 80.5525 65.1727C80.7633 65.0321 80.8321 64.822 80.8321 64.5416C80.9017 64.2589 80.8321 64.0495 80.6923 63.8394L79.0068 63.6996C78.2344 63.6271 77.6728 63.4162 77.3199 63.0655C76.9729 62.7155 76.691 62.2938 76.6207 61.7322C76.5489 61.1018 76.4786 60.3271 76.4786 59.4859C76.3351 56.8777 76.2374 54.2274 76.1693 51.6134C76.0983 48.8055 75.9577 46.1441 75.8889 43.6225V36.9598C75.8889 35.7678 75.9577 34.857 76.0983 34.1549C76.2411 33.5252 76.5911 32.9651 77.0801 32.6144C77.5722 32.334 78.412 32.1216 79.5336 31.9833L80.5865 31.9122C80.7278 31.7717 80.7966 31.5615 80.7278 31.2116C80.7278 30.9999 80.6568 30.7906 80.517 30.65C79.675 30.7188 78.833 30.7188 78.0627 30.7906H74.2774C73.6448 30.7188 72.9427 30.7188 72.0341 30.65C71.9638 31.8397 71.5428 33.1745 70.9116 34.7172C70.1407 36.3264 69.2306 38.2931 68.1089 40.606L63.1997 50.4895C61.9271 53.1805 60.7677 55.7413 59.208 58.2924H59.0682C57.8274 55.9514 56.6835 53.5223 55.5581 51.1221L49.6005 39.2024C48.8302 37.5199 48.1281 35.9091 47.5672 34.4368C47.076 32.9651 46.8666 31.7028 46.9361 30.65C46.0956 30.7188 45.3232 30.7188 44.5522 30.7906ZM15.7858 57.4401C15.7858 59.2254 15.7155 60.5846 15.5727 61.5154C15.4314 63.3178 14.2417 63.9082 12.5643 64.0236L11.49 64.1664C11.1445 64.5135 11.1711 65.2652 11.5647 65.5249C13.78 65.3873 15.7829 65.3096 18.0055 65.3096C20.3754 65.3096 22.5847 65.4139 24.9472 65.5249C25.09 65.3821 25.164 65.1675 25.235 64.8819C25.235 64.5246 25.164 64.3078 25.0197 64.1664L23.588 64.0236C22.4427 63.9497 21.6562 63.7351 21.227 63.377C21.2011 63.3585 21.1752 63.3392 21.1501 63.3193C20.7172 62.9597 20.4072 62.4107 20.277 61.5598C20.1349 60.6305 20.0632 59.2735 20.1349 57.4904V52.4835C18.5619 52.556 17.1332 52.4835 15.8458 52.2697L15.7858 57.4401ZM11.1992 31.3307C11.1289 31.6155 11.2725 31.8294 11.4871 32.0454L13.3457 32.257C14.1307 32.331 14.7034 32.5441 15.06 32.9022C15.4166 33.1871 15.6327 33.6887 15.703 34.4738C15.7755 35.2595 15.8458 36.4056 15.8458 37.9039V48.4814C17.2752 48.5532 18.704 48.5532 20.1349 48.4814V33.9018C20.0632 33.3306 20.1349 32.9022 20.277 32.5441C20.348 32.331 20.6344 32.1135 20.991 32.0454C21.4201 31.9736 22.1363 31.9736 23.0649 31.9736C25.7796 32.0454 27.8528 32.7587 29.3533 34.2599C30.7828 35.7589 31.4967 37.8329 31.4967 40.4077C31.5707 42.6932 30.9981 44.6229 29.7832 46.1937C28.711 47.5543 27.1388 48.5532 24.9938 49.0534C22.9221 49.5543 19.9921 49.7688 16.0603 49.6956C12.6294 49.6283 8.9137 49.4122 4.83984 48.9838C9.34358 49.9124 12.7012 50.5546 14.8469 50.7684C18.3466 51.1998 21.7775 51.1258 24.9938 50.6279C26.6371 50.4111 28.1384 49.9842 29.4968 49.484C30.7828 48.9128 32.0702 48.1263 33.4279 47.1955C34.2136 46.625 34.9284 45.6928 35.5728 44.4801C36.0737 43.3362 36.3586 41.9785 36.4289 40.3337C36.3586 38.5461 35.9295 36.9776 35.1444 35.6176C34.3572 34.2599 33.4279 33.1871 32.2122 32.4035C30.9981 31.6873 29.4968 31.1139 27.7817 30.7565C26.1377 30.4717 24.2073 30.3281 21.9928 30.3281C19.8479 30.3281 17.9182 30.3281 16.2039 30.3992C14.4881 30.4717 12.9158 30.5427 11.5566 30.6855C11.3435 30.8298 11.1992 31.0436 11.1992 31.3307Z" fill="white"/>
</svg>
