<svg width="131" height="43" viewBox="0 0 131 43" fill="none" xmlns="http://www.w3.org/2000/svg">
<path d="M57.1498 42.2312H46.6152L53.2043 1.48926H63.7383L57.1498 42.2312Z" fill="#00579F"/>
<path d="M95.3392 2.48504C93.2613 1.66068 89.9656 0.750488 85.8905 0.750488C75.4872 0.750488 68.1613 6.29804 68.1164 14.2294C68.03 20.0811 73.3615 23.3313 77.3491 25.2824C81.4248 27.2762 82.8102 28.5775 82.8102 30.3547C82.7687 33.0841 79.5168 34.3423 76.4838 34.3423C72.2779 34.3423 70.0244 33.6936 66.5996 32.1751L65.2124 31.5242L63.7383 40.6698C66.209 41.7955 70.7611 42.7944 75.4872 42.8382C86.5409 42.8382 93.7371 37.3764 93.8224 28.9243C93.8644 24.2864 91.0492 20.7326 84.9797 17.8287C81.2952 15.9645 79.0387 14.7075 79.0387 12.8001C79.0819 11.0662 80.9472 9.29015 85.1064 9.29015C88.5312 9.20316 91.0474 10.0264 92.9537 10.8501L93.9065 11.2828L95.3392 2.48504Z" fill="#00579F"/>
<path d="M109.34 27.7978C110.207 25.4572 113.546 16.3985 113.546 16.3985C113.502 16.4855 114.411 14.0147 114.932 12.498L115.668 16.0085C115.668 16.0085 117.663 25.7608 118.096 27.7978C116.45 27.7978 111.421 27.7978 109.34 27.7978ZM122.343 1.48926H114.195C111.682 1.48926 109.773 2.22548 108.689 4.86964L93.041 42.2306H104.095C104.095 42.2306 105.914 37.2021 106.306 36.1191C107.518 36.1191 118.271 36.1191 119.831 36.1191C120.134 37.5495 121.088 42.2306 121.088 42.2306H130.842L122.343 1.48926Z" fill="#00579F"/>
<path d="M37.8156 1.48926L27.4988 29.2714L26.3714 23.6368C24.464 17.1353 18.4821 10.0715 11.8066 6.55925L21.2565 42.188H32.3965L48.9551 1.48926H37.8156Z" fill="#00579F"/>
<path d="M17.9194 1.48926H0.970271L0.796875 2.31246C14.0183 5.69342 22.7745 13.8431 26.3721 23.6386L22.6875 4.91399C22.0809 2.31189 20.2168 1.57509 17.9194 1.48926Z" fill="#FAA61A"/>
</svg>
