<svg width="110" height="44" viewBox="0 0 110 44" fill="none" xmlns="http://www.w3.org/2000/svg">
<path d="M36.419 0.500605C38.5822 0.500605 40.261 0.952604 41.5201 1.85659C42.747 2.76058 43.3604 4.14885 43.3927 5.98912C43.3927 6.89311 43.199 7.7971 42.7793 8.60423C42.4241 9.3468 41.8107 9.96022 41.0681 10.3154V10.4445C41.9076 10.8319 42.6178 11.4453 43.1344 12.2525C43.4573 12.7368 43.6833 13.2533 43.8447 13.8022C44.0384 14.4479 44.1352 15.1582 44.103 15.8362C44.1352 16.8693 43.9093 17.8701 43.4895 18.7741C43.1021 19.6135 42.4887 20.3238 41.7784 20.8727C41.0359 21.4538 40.1964 21.8735 39.2924 22.1318C38.3562 22.4224 37.3553 22.5515 36.3868 22.5515H24.5703V0.436035H36.419V0.500605ZM30.2525 8.63652H35.4505C36.0962 8.70109 36.7096 8.50738 37.1939 8.08767C37.5167 7.73253 37.7105 7.24825 37.6782 6.76397C37.6782 6.31197 37.5167 5.85998 37.1939 5.50484C36.7096 5.08513 36.0639 4.89142 35.4505 4.95599H30.2525V8.63652ZM30.2525 18.1284H35.5151C36.3222 18.193 37.1293 17.967 37.7427 17.4504C38.1947 16.9661 38.4207 16.3527 38.3885 15.6747C38.453 14.9322 38.1625 14.2219 37.6136 13.7376C37.0002 13.2856 36.2576 13.0596 35.5151 13.0919H30.2525V18.1284Z" fill="#010202"/>
<path d="M49.4934 22.6149H43.4883L51.3013 0.531738H57.1127L65.1195 22.6149H58.7915L57.7261 18.773H50.5911L49.4934 22.6149ZM54.1747 6.31082H54.0456L51.7533 14.5113H56.4347L54.1747 6.31082Z" fill="#010202"/>
<path d="M71.7704 9.54088H71.6412V22.6165H65.959V0.500977H72.2546L79.7771 12.834H79.9063V0.500977H85.5885V22.6165H79.874L71.7704 9.54088Z" fill="#010202"/>
<path d="M93.4997 0.500977V8.24947L100.764 0.500977H108.254L99.3433 8.92746L108.771 22.6165H101.636L95.1139 12.8017L93.4674 14.3837V22.6165H87.7852V0.500977H93.4997Z" fill="#010202"/>
<path d="M11.9464 26.0049V29.7177H8.07214V42.7287H3.9719V29.7177H0.0976562V26.0049H11.9464Z" fill="#010202"/>
<path d="M21.794 26.0049C22.3751 26.0049 22.9885 26.134 23.5051 26.36C24.0216 26.586 24.5059 26.9412 24.8611 27.3932C25.2485 27.8452 25.5391 28.3617 25.7328 28.9429C25.9588 29.5563 26.0556 30.202 26.0556 30.8477C26.0879 31.8163 25.8296 32.7525 25.3453 33.5919C24.8611 34.3668 24.1831 34.9479 23.3759 35.3354L26.4108 42.7287H22.0522L19.534 35.9165H16.2409V42.7287H12.1406V26.0049H21.794ZM20.5671 32.4297C20.9545 32.462 21.342 32.3005 21.568 31.9777C21.794 31.6871 21.8908 31.332 21.8908 30.9768C21.8908 30.8154 21.8585 30.6217 21.8262 30.4603C21.794 30.2988 21.6971 30.1374 21.6002 29.976C21.5034 29.8468 21.342 29.7177 21.1805 29.6208C20.9868 29.524 20.7931 29.4594 20.5671 29.4917H16.2732V32.4297H20.5671Z" fill="#010202"/>
<path d="M29.67 42.7287H25.3438L30.9614 26.0049H35.1585L40.9053 42.7287H36.3531L35.5782 39.823H30.4448L29.67 42.7287ZM33.06 30.3957H32.9954L31.3488 36.5945H34.7065L33.06 30.3957Z" fill="#010202"/>
<path d="M45.1033 32.8494H45.0065V42.7287H40.9062V26.0049H45.4262L50.8501 35.3354H50.947V26.0049H55.0472V42.7287H50.9147L45.1033 32.8494Z" fill="#010202"/>
<path d="M62.0531 43.1492C61.1491 43.1815 60.2452 43.0524 59.3735 42.7941C58.6632 42.5681 58.0175 42.2452 57.4363 41.8255C56.9198 41.4058 56.4678 40.9216 56.1449 40.3081C55.8221 39.6947 55.5638 39.049 55.4023 38.4033L59.3089 36.8213C59.3412 37.6607 59.664 38.4356 60.2452 39.0167C60.8586 39.5333 61.6334 39.7916 62.4083 39.7593C62.6343 39.7593 62.8603 39.727 63.0863 39.6947C63.3123 39.6624 63.506 39.5979 63.6997 39.4687C63.8934 39.3719 64.0225 39.2104 64.1517 39.0167C64.2808 38.823 64.3454 38.5647 64.3454 38.3387C64.3454 38.1127 64.3131 37.8867 64.2485 37.6607C64.1517 37.4347 64.0225 37.241 63.8611 37.1119C63.6351 36.9182 63.3768 36.7567 63.0863 36.6276C62.6666 36.4339 62.2468 36.3047 61.8271 36.1756C60.9231 35.9173 60.0514 35.5945 59.212 35.2393C58.534 34.9488 57.9206 34.5613 57.3395 34.077C56.8552 33.6573 56.4678 33.1408 56.2095 32.5596C55.9512 31.9139 55.8221 31.2359 55.8221 30.5579C55.8221 29.8154 55.9835 29.0728 56.3063 28.4271C56.6292 27.8137 57.0812 27.2648 57.6623 26.8451C58.2757 26.3931 58.9537 26.0703 59.6963 25.8766C60.5357 25.6506 61.4074 25.5537 62.2791 25.5537C63.054 25.5537 63.8611 25.6183 64.6037 25.812C65.2171 25.9734 65.7982 26.2317 66.3148 26.5868C66.7991 26.9097 67.2188 27.3294 67.5416 27.8137C67.8968 28.3625 68.1551 28.9114 68.3811 29.5248L64.862 31.0745C64.7328 30.4288 64.41 29.8477 63.958 29.3957C62.9894 28.75 61.7626 28.7177 60.7617 29.2988C60.4711 29.5248 60.3097 29.8477 60.2774 30.2028C60.2774 30.4288 60.3097 30.6225 60.4066 30.8162C60.5034 31.0099 60.6649 31.2036 60.8586 31.3328C61.1169 31.5265 61.4074 31.6879 61.7303 31.7848C62.2146 31.9785 62.6666 32.1076 63.1508 32.2368C63.9257 32.4628 64.7005 32.6888 65.3785 32.9148C66.0242 33.1408 66.6377 33.4636 67.1865 33.8833C67.7031 34.303 68.1228 34.8196 68.4134 35.4008C68.7362 36.1433 68.8976 36.9827 68.8653 37.7899C68.8976 38.597 68.7039 39.3719 68.3488 40.1144C67.9936 40.7601 67.5094 41.3413 66.8959 41.761C66.2502 42.213 65.5077 42.5681 64.7328 42.7618C63.8288 43.0524 62.9248 43.1815 62.0531 43.1492Z" fill="#010202"/>
<path d="M73.2545 32.2037H79.6148V35.9165H73.2545V42.7287H69.1543V26.0049H81.5519V29.7177H73.2545V32.2037Z" fill="#010202"/>
<path d="M81.875 26.0049H94.2726V29.7177H85.9752V31.9777H93.2395V35.6905H85.9752V39.0482H94.4986V42.761H81.875V26.0049Z" fill="#010202"/>
<path d="M104.444 26.0049C105.025 26.0049 105.639 26.134 106.155 26.36C106.672 26.586 107.156 26.9412 107.511 27.3932C107.899 27.8452 108.189 28.3617 108.383 28.9429C108.609 29.5563 108.706 30.202 108.706 30.8477C108.738 31.8163 108.48 32.7525 107.996 33.5919C107.511 34.3668 106.833 34.9479 106.026 35.3354L109.061 42.7287H104.703L102.184 35.9165H98.8913V42.7287H94.791V26.0049H104.444ZM103.218 32.4297C103.605 32.462 103.992 32.3005 104.218 31.9777C104.444 31.6871 104.541 31.332 104.541 30.9768C104.541 30.8154 104.509 30.6217 104.477 30.4603C104.444 30.2988 104.347 30.1374 104.251 29.976C104.154 29.8468 103.992 29.7177 103.831 29.6208C103.637 29.524 103.443 29.4594 103.218 29.4917H98.9235V32.4297H103.218Z" fill="#010202"/>
<path d="M22.3738 0.500977H0V4.98865H22.3738V0.500977Z" fill="#010202"/>
<path d="M22.3738 8.92725H0V13.4149H22.3738V8.92725Z" fill="#010202"/>
<path d="M22.3738 18.1602H0V22.6478H22.3738V18.1602Z" fill="#010202"/>
</svg>
