<svg width="260" height="52" viewBox="0 0 260 52" fill="none" xmlns="http://www.w3.org/2000/svg">
<path d="M43.7211 40.263L54.3485 19.6426H59.8605L63.8656 12.1478H58.7105L62.0812 6.99272H68.069L72.5103 0.449707H18.6593L51.5727 4.41517L50.7399 5.84274L6.68364 6.19963L47.3296 10.7599L46.4969 12.2668L41.7383 12.1478L40.1918 15.3202L16.7559 15.2012L41.7383 19.7615L40.747 21.8632L0.140625 21.546L38.6849 26.7011L32.2212 37.5664L9.14223 37.3285L43.7211 40.263Z" fill="#EE993C"/>
<path d="M84.2085 10.4805C65.7691 10.5598 61.2088 19.7597 61.2088 19.7597L71.7173 20.3545C71.7173 20.3545 72.8673 17.42 78.181 17.0235C83.4551 16.6269 82.2258 19.4028 82.2258 19.4028C82.3844 21.1476 78.181 23.5268 66.9191 24.3596C55.6572 25.1923 52.2072 32.2112 52.2072 32.2112C52.2072 32.2112 49.3918 36.7715 54.7848 40.2611C60.1778 43.7507 72.907 36.8508 72.907 36.8508L72.5501 40.2611H84.2085L83.9706 37.4456L92.8929 20.3545C98.6032 10.7184 84.2085 10.4805 84.2085 10.4805ZM66.3639 34.9474C65.4519 34.8284 64.6588 34.2733 64.3812 33.4009C64.1036 32.5285 64.3019 31.2992 66.4432 30.1095C67.276 29.6337 68.2277 29.3164 69.1794 29.1182L78.4189 27.0958C78.3793 27.1354 73.8587 35.7801 66.3639 34.9474Z" fill="#EE993C"/>
<path d="M88.2129 31.9755L100.585 31.0635C100.585 31.0635 100.625 36.1789 107.247 34.3548C107.247 34.3548 111.53 33.4427 110.578 30.2307C110.261 29.16 108.833 28.5256 104.352 29.0014C101.537 29.3187 98.9196 28.3273 98.9196 28.3273C98.9196 28.3273 93.1301 25.8687 95.9455 20.1981C98.7214 14.5275 105.978 11.9103 105.978 11.9103C115.138 8.7379 122.395 10.3637 126.004 12.3068C129.573 14.2499 127.154 18.0567 127.154 18.0567L115.813 18.8102C115.813 18.8102 115.892 15.5982 111.332 16.7085C106.097 17.9774 107.009 21.1895 111.569 21.3084C114.583 21.3877 121.761 21.6257 123.624 25.8687C125.488 30.1118 118.866 38.0823 107.604 40.5013C96.3421 42.8806 89.6801 39.5892 88.2525 36.2979V31.9755H88.2129Z" fill="#EE993C"/>
<path d="M179.419 10.6395H175.136C169.822 10.4015 167.324 15.4773 167.324 15.4773H166.451V11.2739H161.653L154.079 37.4856L150.867 51.1665H165.143L168.355 36.7322C171.408 41.5701 178.427 41.2528 178.427 41.2528C188.896 39.5873 189.649 29.3961 189.649 29.3961V21.1876C187.786 11.8291 179.419 10.6395 179.419 10.6395ZM178.348 25.1531C178.348 26.9772 177.872 28.8013 176.96 30.4271C176.762 30.7444 176.643 30.903 176.643 30.903C176.643 30.903 175.096 32.8064 171.924 32.6478C170.853 32.6081 170.02 32.1719 169.346 31.6168C168.157 30.5857 167.482 28.9996 167.482 27.4134V22.972C167.482 21.4652 168.117 20.0376 169.267 19.0859C170.219 18.3325 171.448 17.9359 173.351 17.9359C174.462 17.9359 175.413 18.3721 176.167 18.9669C177.594 20.1169 178.348 21.9014 178.348 23.7255V25.1531Z" fill="#5075AA"/>
<path d="M161.615 11.2758C156.46 8.93622 144.722 10.4828 144.722 10.4828C144.722 10.4828 134.253 11.9896 132.231 19.6033C132.072 20.2378 132.35 20.9516 132.945 21.2292C133.539 21.5464 134.491 21.7843 136.117 21.7843C138.655 21.7843 139.091 19.9999 139.091 19.9999C139.091 19.9999 139.765 15.0827 148.965 15.4396C158.165 15.7965 158.205 17.1051 158.006 18.2551C157.768 19.4051 155.111 22.4981 155.111 22.4981L137.188 23.8464C133.976 24.0843 130.843 25.036 128.107 26.7412C125.212 28.5256 122.317 31.3411 121.881 35.5445C121.683 37.5669 122.753 39.51 124.617 40.3427C124.974 40.5013 125.331 40.6203 125.767 40.7789C127.076 41.1754 128.424 41.3341 129.812 41.2944L153.248 40.422L163.241 20.1585C163.241 20.1188 166.77 13.6155 161.615 11.2758ZM145.396 29.1601C145.039 29.6756 144.603 30.0721 144.127 30.3497L143.651 38.36H135.126L140.4 29.5566C139.963 28.5653 140.122 27.1774 140.955 26.0274C142.065 24.4412 143.969 23.8464 145.198 24.7188C146.427 25.5912 146.506 27.5739 145.396 29.1601Z" fill="#EE993C"/>
<path d="M225.22 35.3066V19.643C225.299 16.5103 223.118 13.7741 223.118 13.7741C223.118 13.7741 218.875 9.09484 206.741 9.25346C194.606 9.41207 191.791 18.5723 191.791 18.5723L203.053 19.6826C204.084 17.1844 205.551 15.5982 209.318 15.8361C213.085 16.0741 213.76 18.8895 213.561 20.3568C213.323 21.824 202.775 22.855 196.351 24.2826C189.927 25.7101 190.8 32.6497 190.8 32.6497C190.8 32.6497 192.584 39.9461 201.11 40.1048C209.636 40.2634 214.077 35.8617 214.077 35.8617C214.394 37.2893 215.782 38.4393 215.782 38.4393H226.727L225.22 35.3066ZM213.799 27.2567C213.799 31.8169 209.636 35.3462 205.155 34.3945C204.996 34.3548 204.877 34.3152 204.718 34.2755C204.718 34.2755 201.784 33.1652 202.974 30.2704C203.529 28.9222 204.718 27.9308 206.146 27.5342C206.82 27.3756 207.653 27.1774 208.605 27.1377C209.913 27.0584 211.222 26.8205 212.411 26.305C213.165 25.9877 213.76 25.6308 213.76 25.3136V27.2567H213.799Z" fill="#5075AA"/>
<path d="M223.555 10.6406H235.967L242.232 29.318L248.299 10.6406H259.839L246.594 44.2281C246.594 44.2281 244.81 51.128 232.755 50.5728H166.254L167.88 44.0298L231.367 43.9505C231.367 43.9505 237.434 43.5936 236.562 38.1213L223.555 10.6406Z" fill="#5075AA"/>
</svg>
