<svg width="131" height="102" viewBox="0 0 131 102" fill="none" xmlns="http://www.w3.org/2000/svg">
<path d="M128.811 65.0884V63.5278H128.421L127.966 64.5682L127.51 63.5278H127.12V65.0884H127.38V63.918L127.836 64.9583H128.161L128.616 63.918V65.0884H128.811ZM126.21 65.0884V63.7879H126.73V63.5278H125.43V63.7879H125.95V65.0884H126.21Z" fill="#00A2E5"/>
<path d="M82.5796 71.7856H47.4023V8.5835H82.5796V71.7856Z" fill="#7375CF"/>
<path d="M49.6774 40.1841C49.6774 27.3746 55.6595 15.9306 65.0227 8.583C58.1954 3.18611 49.5473 0 40.1841 0C18.0113 0 0 18.0113 0 40.1841C0 62.3568 18.0113 80.3681 40.1841 80.3681C49.5473 80.3681 58.1954 77.182 65.0227 71.7851C55.6595 64.4375 49.6774 52.9935 49.6774 40.1841Z" fill="#EB001B"/>
<path d="M130.046 40.1841C130.046 62.3568 112.035 80.3681 89.8621 80.3681C80.4988 80.3681 71.8508 77.182 65.0234 71.7851C74.3867 64.4375 80.3688 52.9935 80.3688 40.1841C80.3688 27.3746 74.3867 15.9306 65.0234 8.583C71.8508 3.18611 80.4988 0 89.8621 0C112.035 0 130.046 18.0113 130.046 40.1841Z" fill="#00A2E5"/>
<path d="M94.4129 89.6659C94.868 89.6659 95.5833 89.731 96.0384 89.926L95.3232 92.1368C94.803 91.9417 94.3478 91.8767 93.8927 91.8767C92.3972 91.8767 91.6169 92.852 91.6169 94.6077V100.59H89.2761V89.926H91.5519V91.2265C92.2021 90.2511 93.1124 89.6659 94.4129 89.6659ZM85.8299 92.0068H82.0585V96.8184C82.0585 97.8588 82.4487 98.5741 83.6191 98.5741C84.2043 98.5741 84.9846 98.379 85.6998 97.9888L86.3501 100.005C85.6348 100.525 84.4644 100.85 83.424 100.85C80.6931 100.85 79.7177 99.3543 79.7177 96.8835V92.0068H77.572V89.861H79.7177V86.6099H82.0585V89.861H85.8299V92.0068ZM56.1145 94.2825C56.3746 92.722 57.2849 91.6816 58.9755 91.6816C60.471 91.6816 61.4463 92.592 61.7064 94.2825H56.1145ZM64.1123 95.2579C64.1123 91.9417 62.0315 89.6659 59.0405 89.6659C55.9194 89.6659 53.7086 91.9417 53.7086 95.2579C53.7086 98.6391 55.9844 100.85 59.1705 100.85C60.7961 100.85 62.2266 100.46 63.5271 99.3543L62.3567 97.6637C61.4463 98.379 60.341 98.7691 59.2356 98.7691C57.74 98.7691 56.3746 98.0539 56.0494 96.1682H63.9822C64.0473 95.8431 64.1123 95.583 64.1123 95.2579ZM74.3208 92.657C73.6706 92.2668 72.3702 91.7467 71.0047 91.7467C69.7042 91.7467 68.989 92.2018 68.989 92.9821C68.989 93.6973 69.7693 93.8924 70.8096 94.0225L71.915 94.1525C74.2558 94.4776 75.6213 95.453 75.6213 97.3386C75.6213 99.3543 73.8657 100.85 70.7446 100.85C68.989 100.85 67.3634 100.395 66.128 99.4844L67.2334 97.6637C68.0136 98.2489 69.184 98.7691 70.8096 98.7691C72.3702 98.7691 73.2155 98.314 73.2155 97.4687C73.2155 96.8835 72.6302 96.5583 71.3298 96.3633L70.2244 96.2332C67.8186 95.9081 66.5181 94.8027 66.5181 93.1121C66.5181 90.9664 68.2737 89.6659 70.9397 89.6659C72.6302 89.6659 74.1908 90.0561 75.2962 90.7713L74.3208 92.657ZM102.931 91.8117C102.476 91.8117 102.021 91.8767 101.63 92.0718C101.24 92.2668 100.85 92.4619 100.59 92.787C100.33 93.1121 100.07 93.4372 99.8748 93.8924C99.6797 94.2825 99.6147 94.8027 99.6147 95.2579C99.6147 95.7781 99.6797 96.2332 99.8748 96.6234C100.07 97.0135 100.265 97.4036 100.59 97.7288C100.915 98.0539 101.24 98.2489 101.63 98.444C102.021 98.6391 102.476 98.7041 102.931 98.7041C103.386 98.7041 103.841 98.6391 104.231 98.444C104.621 98.2489 105.012 98.0539 105.272 97.7288C105.597 97.4036 105.792 97.0785 105.987 96.6234C106.182 96.2332 106.247 95.713 106.247 95.2579C106.247 94.7377 106.182 94.2825 105.987 93.8924C105.792 93.5023 105.597 93.1121 105.272 92.787C104.947 92.4619 104.621 92.2668 104.231 92.0718C103.841 91.9417 103.386 91.8117 102.931 91.8117ZM102.931 89.6659C103.776 89.6659 104.556 89.796 105.207 90.1211C105.922 90.3812 106.507 90.7713 107.027 91.2915C107.547 91.8117 107.938 92.3969 108.263 93.0471C108.523 93.7624 108.718 94.4776 108.718 95.2579C108.718 96.0382 108.588 96.8184 108.263 97.4687C108.003 98.1839 107.547 98.7691 107.027 99.2243C106.507 99.7445 105.922 100.135 105.207 100.395C104.491 100.655 103.711 100.85 102.931 100.85C102.086 100.85 101.305 100.72 100.655 100.395C99.9398 100.135 99.3546 99.7445 98.8344 99.2243C98.3142 98.7041 97.9241 98.1189 97.599 97.4687C97.3389 96.7534 97.1438 96.0382 97.1438 95.2579C97.1438 94.4776 97.2739 93.6973 97.599 93.0471C97.8591 92.3319 98.3142 91.7467 98.8344 91.2915C99.3546 90.7713 99.9398 90.3812 100.655 90.1211C101.305 89.796 102.086 89.6659 102.931 89.6659ZM42.5897 95.2579C42.5897 93.3722 43.8252 91.8117 45.8409 91.8117C47.7916 91.8117 49.027 93.3072 49.027 95.2579C49.027 97.2086 47.7265 98.6391 45.8409 98.6391C43.8252 98.6391 42.5897 97.1435 42.5897 95.2579ZM51.2378 95.2579V89.926H48.8969V91.2265C48.1817 90.2511 47.0763 89.6659 45.5158 89.6659C42.5247 89.6659 40.1839 92.0068 40.1839 95.2579C40.1839 98.509 42.5247 100.85 45.5158 100.85C47.0113 100.85 48.1167 100.265 48.8969 99.2893V100.59H51.2378V95.2579ZM38.1682 100.59V93.8924C38.1682 91.3565 36.5426 89.6659 33.9417 89.6659C32.5762 89.6659 31.1457 90.0561 30.1704 91.5516C29.4552 90.3812 28.2847 89.6659 26.6592 89.6659C25.5538 89.6659 24.3834 89.991 23.5381 91.2265V89.926H21.1973V100.59H23.5381V94.6727C23.5381 92.8521 24.5784 91.8117 26.139 91.8117C27.6995 91.8117 28.4798 92.787 28.4798 94.6077V100.525H30.8206V94.6077C30.8206 92.787 31.926 91.7467 33.4215 91.7467C34.9821 91.7467 35.7624 92.722 35.7624 94.5426V100.46H38.1682V100.59Z" fill="black"/>
<path d="M111.19 99.745V100.005H111.45C111.515 100.005 111.58 100.005 111.58 99.9401C111.645 99.9401 111.645 99.8751 111.645 99.8101C111.645 99.745 111.645 99.745 111.58 99.745C111.58 99.745 111.515 99.68 111.45 99.68H111.19V99.745ZM111.45 99.615C111.58 99.615 111.645 99.615 111.71 99.68C111.775 99.745 111.84 99.8101 111.84 99.9401C111.84 100.005 111.84 100.07 111.775 100.135C111.71 100.2 111.645 100.2 111.515 100.2L111.84 100.59H111.58L111.255 100.2H111.19V100.59H110.995V99.615H111.45ZM111.385 100.915C111.515 100.915 111.58 100.915 111.71 100.85C111.84 100.785 111.905 100.72 111.97 100.655C112.035 100.59 112.1 100.525 112.165 100.395C112.23 100.265 112.23 100.2 112.23 100.07C112.23 99.9401 112.23 99.8751 112.165 99.745C112.1 99.615 112.035 99.55 111.97 99.4849C111.905 99.4199 111.84 99.3549 111.71 99.2899C111.645 99.2248 111.515 99.2249 111.385 99.2249C111.255 99.2249 111.19 99.2248 111.06 99.2899C110.93 99.3549 110.864 99.4199 110.799 99.4849C110.734 99.55 110.669 99.68 110.604 99.745C110.539 99.8751 110.539 99.9401 110.539 100.07C110.539 100.2 110.539 100.265 110.604 100.395C110.669 100.525 110.734 100.59 110.799 100.655C110.864 100.72 110.995 100.785 111.06 100.85C111.19 100.915 111.255 100.915 111.385 100.915ZM111.385 99.0298C111.515 99.0298 111.645 99.0298 111.775 99.0948C111.905 99.1598 112.035 99.2248 112.1 99.2899C112.165 99.3549 112.295 99.4849 112.36 99.615C112.425 99.745 112.425 99.8751 112.425 100.005C112.425 100.135 112.425 100.265 112.36 100.395C112.295 100.525 112.23 100.655 112.1 100.72C111.97 100.785 111.905 100.915 111.775 100.98C111.645 101.045 111.515 101.045 111.385 101.045C111.255 101.045 111.06 101.045 110.93 100.98C110.799 100.915 110.669 100.85 110.604 100.72C110.539 100.655 110.409 100.525 110.344 100.395C110.279 100.265 110.279 100.135 110.279 100.005C110.279 99.8751 110.279 99.745 110.344 99.615C110.409 99.4849 110.474 99.3549 110.604 99.2899C110.669 99.2248 110.799 99.0948 110.93 99.0948C111.06 99.0298 111.255 99.0298 111.385 99.0298Z" fill="black"/>
</svg>
