<svg width="179" height="93" viewBox="0 0 179 93" fill="none" xmlns="http://www.w3.org/2000/svg">
<mask id="mask0_1509_37798" style="mask-type:alpha" maskUnits="userSpaceOnUse" x="0" y="-1" width="179" height="94">
<path d="M175.879 92.2136C176.752 92.4753 177.624 92.6498 178.497 92.9116C178.409 92.9988 177.537 92.7371 175.879 92.2136Z" fill="url(#paint0_linear_1509_37798)"/>
<path d="M45.1041 81.92C53.1304 32.0176 20.5019 9.50914 16.1398 6.71739L15.6163 -0.000244141H15.1801V10.556V11.9519V30.5345V37.6011V87.9397C5.23452 90.6442 0 92.9998 0 92.9998H8.02627C79.303 68.8337 160.438 88.2014 175.793 92.3018C120.656 77.1217 75.7261 77.7324 45.1041 81.92ZM19.8039 40.5673H36.3799C36.4672 40.9163 36.6416 41.178 36.7289 41.527H19.8039V40.5673ZM19.9784 54.0026H39.6079C39.6951 54.3515 39.6951 54.6133 39.7824 54.9622H19.9784V54.0026ZM39.9568 76.3365H20.2402V75.3769H40.0441C40.0441 75.8131 39.9568 76.0748 39.9568 76.3365ZM20.1529 70.0551H40.3931C40.3931 70.4041 40.3931 70.6658 40.3058 71.0148H20.2402L20.1529 70.0551ZM40.4803 68.3103H20.1529V67.3506H40.4803C40.4803 67.6996 40.4803 68.0485 40.4803 68.3103ZM40.4803 65.693H20.1529V64.7333H40.5675C40.4803 64.9951 40.4803 65.344 40.4803 65.693ZM40.4803 62.9885H20.0657V62.0288H40.3931C40.3931 62.3778 40.4803 62.6395 40.4803 62.9885ZM40.3058 72.7596C40.3058 73.1086 40.2186 73.3703 40.2186 73.7193H20.2402V72.7596H40.3058ZM20.3274 79.3028V78.0814H39.6951C39.6079 78.8665 39.5206 79.3028 39.5206 79.3028H20.3274ZM20.0657 60.284V59.3243H40.2186C40.2186 59.6733 40.3058 59.935 40.3058 60.284H20.0657ZM20.0657 57.5795V56.6198H40.0441C40.0441 56.9688 40.1313 57.2305 40.1313 57.5795H20.0657ZM19.8912 48.5936H38.561C38.6482 48.9425 38.7355 49.2043 38.7355 49.5532H19.8912V48.5936ZM19.8912 46.8487V45.8891H37.9503C38.0375 46.238 38.1248 46.4998 38.212 46.8487H19.8912ZM37.2523 43.2718C37.3396 43.6208 37.4268 43.8825 37.5141 44.2315H19.8912V43.2718H37.2523ZM39.1717 51.2981C39.2589 51.647 39.2589 51.9088 39.3462 52.2577H19.9784V51.2981H39.1717ZM43.3593 81.7455L43.8827 82.0945C43.7083 82.0945 43.5338 82.1817 43.3593 82.1817V81.7455ZM19.455 14.8309C24.7767 19.7165 28.8771 25.0382 31.8433 30.5345H19.6295L19.455 14.8309ZM35.2458 37.6011C35.4203 38.0373 35.5947 38.3862 35.682 38.8225H19.8039V37.6011H35.2458Z" fill="url(#paint1_linear_1509_37798)"/>
<path d="M59.1586 11.949V14.3045H53.5751V18.4049H58.9841V20.7604H53.5751V28.2632H51.1323V11.949H59.1586Z" fill="url(#paint2_linear_1509_37798)"/>
<path d="M62.1231 19.19C63.17 18.1431 64.3914 17.6196 65.9617 17.6196C67.5321 17.6196 68.7535 18.1431 69.8004 19.19C70.8473 20.2369 71.3707 21.5455 71.3707 23.1159C71.3707 24.6862 70.8473 25.9949 69.8004 27.0418C68.7535 28.0887 67.5321 28.6121 65.9617 28.6121C64.3914 28.6121 63.17 28.0887 62.1231 27.0418C61.0762 25.9949 60.5527 24.6862 60.5527 23.1159C60.5527 21.5455 61.0762 20.2369 62.1231 19.19ZM63.7807 25.5587C64.3041 26.1693 65.0893 26.4311 65.9617 26.4311C66.8342 26.4311 67.6193 26.1693 68.1428 25.5587C68.6662 24.948 68.928 24.1628 68.928 23.2031C68.928 22.069 68.6662 21.2838 68.0555 20.7603C67.4449 20.2369 66.7469 19.8879 65.9617 19.8879C65.0893 19.8879 64.3914 20.1496 63.8679 20.7603C63.2572 21.2838 62.9955 22.1562 62.9955 23.2031C62.9955 24.1628 63.2572 24.948 63.7807 25.5587Z" fill="url(#paint3_linear_1509_37798)"/>
<path d="M73.7275 28.2636V17.969H76.0831V18.9287C76.3448 18.5797 76.6938 18.318 77.0427 18.0562C77.3917 17.7945 77.9152 17.7073 78.4386 17.7073C79.1365 17.7073 79.7472 17.8818 80.2707 18.2307L79.3983 20.3245C79.0493 20.0628 78.6131 19.9756 78.1769 19.9756C77.5662 19.9756 77.0427 20.1501 76.6938 20.499C76.2576 20.9352 76.0831 21.7204 76.0831 22.8546V28.1763H73.7275V28.2636Z" fill="url(#paint4_linear_1509_37798)"/>
<path d="M88.0368 24.7733L90.0434 25.9075C89.6072 26.6926 88.9965 27.3906 88.2986 27.8268C87.5134 28.3502 86.5537 28.612 85.3323 28.612C83.9365 28.612 82.8023 28.1757 81.9299 27.3033C80.9702 26.2564 80.4468 24.9478 80.4468 23.3774C80.4468 21.7198 80.9702 20.2367 82.0171 19.1898C82.8896 18.2302 84.0237 17.7939 85.4196 17.7939C86.7282 17.7939 87.7751 18.2302 88.6475 19.1026C89.6072 20.0622 90.0434 21.5454 90.0434 23.4647V23.7264H82.8023C82.8896 24.5988 83.1513 25.2968 83.6747 25.8202C84.1109 26.2564 84.7216 26.5181 85.5068 26.5181C86.1175 26.5181 86.641 26.3437 87.0772 25.9947C87.4261 25.6457 87.7751 25.2095 88.0368 24.7733ZM82.9768 21.7198H87.6879C87.6006 21.1091 87.3389 20.6729 86.9899 20.324C86.5537 19.975 86.0303 19.7133 85.4196 19.7133C84.7216 19.7133 84.1982 19.975 83.762 20.4112C83.3258 20.7602 83.064 21.1964 82.9768 21.7198Z" fill="url(#paint5_linear_1509_37798)"/>
<path d="M90.5693 28.2645L95.0187 22.681L91.4418 17.97H94.2335L96.5018 20.9362L98.7701 17.97H101.649L97.8977 22.681L102.173 28.2645H99.3808L96.5018 24.4259L93.5356 28.2645H90.5693Z" fill="url(#paint6_linear_1509_37798)"/>
<path d="M117.789 14.3048H114.125V28.2635H111.682V14.3048H108.018V11.9492H117.789V14.3048Z" fill="url(#paint7_linear_1509_37798)"/>
<path d="M119.003 28.2636V17.969H121.358V18.9287C121.62 18.5797 121.969 18.318 122.318 18.0562C122.667 17.7945 123.191 17.7073 123.714 17.7073C124.412 17.7073 125.023 17.8818 125.546 18.2307L124.586 20.4118C124.237 20.1501 123.801 20.0628 123.365 20.0628C122.754 20.0628 122.231 20.2373 121.882 20.5863C121.446 21.0225 121.271 21.8077 121.271 22.9418V28.2636H119.003Z" fill="url(#paint8_linear_1509_37798)"/>
<path d="M133.839 19.1897V17.9683H136.194V28.2629H133.839V27.216C133.054 28.1756 132.007 28.6118 130.785 28.6118C129.302 28.6118 128.081 28.0884 127.209 27.0415C126.336 25.9946 125.9 24.6859 125.9 23.2028C125.9 21.5452 126.336 20.2366 127.296 19.2769C128.255 18.3173 129.39 17.7938 130.785 17.7938C132.094 17.7066 133.054 18.1428 133.839 19.1897ZM131.134 19.8876C130.262 19.8876 129.651 20.2366 129.128 20.8473C128.604 21.458 128.343 22.2432 128.343 23.2028C128.343 24.0752 128.604 24.8604 129.128 25.5584C129.651 26.2563 130.349 26.518 131.134 26.518C131.92 26.518 132.618 26.2563 133.141 25.6456C133.664 25.0349 133.926 24.2497 133.926 23.2901C133.926 22.2432 133.664 21.3707 133.141 20.8473C132.53 20.1493 131.92 19.8876 131.134 19.8876Z" fill="url(#paint9_linear_1509_37798)"/>
<path d="M60.9856 37.5996L59.5025 38.5593C59.2408 38.0358 58.8918 37.6868 58.5429 37.3379C58.0194 36.9889 57.4087 36.8144 56.6235 36.8144C55.7511 36.8144 55.1404 37.0761 54.617 37.5124C54.0935 37.9486 53.8318 38.5593 53.8318 39.3444C53.8318 39.8679 54.0063 40.3913 54.4425 40.7403C54.7914 41.0893 55.4021 41.4382 56.1873 41.7872L57.7577 42.4852C58.9791 43.0086 59.8515 43.5321 60.3749 43.9683C61.1601 44.7534 61.5963 45.7131 61.5963 46.9345C61.5963 48.4176 61.0729 49.639 60.1132 50.5114C59.0663 51.4711 57.8449 51.9073 56.2746 51.9073C54.7914 51.9073 53.5701 51.4711 52.6104 50.5987C51.8252 49.9007 51.3018 48.9411 51.04 47.7197L52.8721 47.1962C52.9594 47.9814 53.3083 48.6793 53.919 49.29C54.5297 49.9007 55.3149 50.1625 56.3618 50.1625C57.4087 50.1625 58.2811 49.8135 58.8918 49.2028C59.5025 48.5921 59.7642 47.8069 59.7642 46.9345C59.7642 46.1493 59.5025 45.5386 58.8918 45.0152C58.5429 44.7534 57.9322 44.3172 56.8853 43.881L55.4021 43.1831C54.3552 42.7469 53.6573 42.3107 53.1338 41.8745C52.3487 41.1765 51.9997 40.3041 51.9997 39.2572C51.9997 38.0358 52.4359 36.9889 53.3083 36.2037C54.1808 35.4185 55.3149 35.0696 56.7108 35.0696C57.7577 35.0696 58.6301 35.3313 59.4153 35.7675C60.026 36.2037 60.5494 36.8144 60.9856 37.5996Z" fill="url(#paint10_linear_1509_37798)"/>
<path d="M66.3059 41.439V47.2842C66.3059 48.3311 66.4804 49.029 66.8293 49.4652C67.2655 49.9887 67.8762 50.2504 68.6614 50.2504C69.4466 50.2504 70.0573 49.9887 70.4935 49.4652C70.8425 49.029 71.0169 48.3311 71.0169 47.2842V41.439H72.849V47.4587C72.849 48.8545 72.5001 49.8142 71.8894 50.5121C71.1042 51.3846 69.97 51.7335 68.6614 51.7335C67.3528 51.7335 66.3059 51.2973 65.4335 50.5121C64.8228 49.8142 64.561 48.8545 64.561 47.4587V41.439H66.3059Z" fill="url(#paint11_linear_1509_37798)"/>
<path d="M76.2524 51.4708V41.438H78.0845V42.4849C78.6952 41.6125 79.5676 41.1763 80.7018 41.1763C81.9232 41.1763 82.8828 41.6997 83.5808 42.8339C84.2787 41.787 85.3256 41.1763 86.7215 41.1763C88.9898 41.1763 90.1239 42.4849 90.1239 45.1022V51.4708H88.2918V45.3639C88.2918 44.8404 88.2918 44.4915 88.2046 44.1425C88.1174 43.7935 87.9429 43.5318 87.6811 43.1828C87.4194 42.8339 86.9832 42.7466 86.4598 42.7466C84.8894 42.7466 84.1042 43.7935 84.1042 45.8873V51.4708H82.2721V45.5384C82.2721 43.7063 81.6614 42.7466 80.3528 42.7466C78.7825 42.7466 78.0845 43.7935 78.0845 45.9746V51.4708H76.2524Z" fill="url(#paint12_linear_1509_37798)"/>
<path d="M93.4409 51.4708V41.438H95.273V42.4849C95.8837 41.6125 96.7561 41.1763 97.8903 41.1763C99.1116 41.1763 100.071 41.6997 100.769 42.8339C101.467 41.787 102.514 41.1763 103.91 41.1763C106.178 41.1763 107.312 42.4849 107.312 45.1022V51.4708H105.48V45.3639C105.48 44.8404 105.48 44.4915 105.393 44.1425C105.306 43.7935 105.131 43.5318 104.87 43.1828C104.608 42.8339 104.172 42.7466 103.648 42.7466C102.078 42.7466 101.293 43.7935 101.293 45.8873V51.4708H99.4606V45.5384C99.4606 43.7063 98.8499 42.7466 97.5413 42.7466C95.9709 42.7466 95.273 43.7935 95.273 45.9746V51.4708H93.4409Z" fill="url(#paint13_linear_1509_37798)"/>
<path d="M110.624 38.472C110.362 38.2103 110.275 37.9485 110.275 37.5996C110.275 37.2506 110.362 36.9889 110.624 36.7271C110.886 36.4654 111.147 36.3782 111.496 36.3782C111.845 36.3782 112.194 36.4654 112.369 36.7271C112.543 36.9889 112.718 37.2506 112.718 37.5996C112.718 37.9485 112.63 38.2103 112.369 38.472C112.107 38.7337 111.845 38.821 111.496 38.821C111.235 38.821 110.886 38.7337 110.624 38.472ZM110.624 41.4382H112.456V51.471H110.624V41.4382Z" fill="url(#paint14_linear_1509_37798)"/>
<path d="M119.525 43.008H117.693V51.4704H115.861V43.008H114.727V41.4376H115.861V37.7734H117.693V41.4376H119.525V43.008Z" fill="url(#paint15_linear_1509_37798)"/>
<path d="M52.002 74.8519V58.7122H55.4044C58.0217 58.7122 60.0282 59.3228 61.5986 60.6315C63.5179 62.2018 64.4776 64.2084 64.4776 66.8257C64.4776 69.3557 63.5179 71.4495 61.5113 73.0198C60.7262 73.7178 59.8537 74.154 58.8941 74.4157C57.9344 74.6774 56.8003 74.8519 55.3172 74.8519H52.002ZM53.834 60.3698V73.1071H55.4916C57.4982 73.1071 59.0686 72.5836 60.2899 71.624C61.7731 70.4026 62.5582 68.745 62.5582 66.7384C62.5582 64.8191 61.9475 63.2487 60.6389 62.1146C59.3303 60.9804 57.6727 60.3698 55.4916 60.3698H53.834Z" fill="url(#paint16_linear_1509_37798)"/>
<path d="M69.1885 64.8196V70.6648C69.1885 71.7117 69.363 72.4096 69.712 72.8458C70.1482 73.3693 70.7589 73.631 71.5441 73.631C72.3292 73.631 72.9399 73.3693 73.3761 72.8458C73.7251 72.4096 73.8996 71.7117 73.8996 70.6648V64.8196H75.7317V70.8393C75.7317 72.2351 75.3827 73.1948 74.772 73.8927C73.9868 74.7652 72.8527 75.1141 71.5441 75.1141C70.2354 75.1141 69.1885 74.6779 68.3161 73.8927C67.7054 73.1948 67.3564 72.2351 67.3564 70.8393V64.8196H69.1885Z" fill="url(#paint17_linear_1509_37798)"/>
<path d="M80.876 73.4573V74.8532H79.0439V57.1431H80.876V66.129C81.8357 64.9949 82.9698 64.4714 84.453 64.4714C86.0233 64.4714 87.2447 64.9948 88.2044 66.0418C89.0768 67.0887 89.6002 68.31 89.6002 69.7932C89.6002 71.2763 89.164 72.4977 88.2044 73.5446C87.3319 74.5915 86.1106 75.1149 84.5402 75.1149C83.0571 75.1149 81.8357 74.5042 80.876 73.4573ZM84.2785 73.5446C85.3254 73.5446 86.1106 73.1956 86.7212 72.4977C87.3319 71.7997 87.6809 70.9273 87.6809 69.8804C87.6809 68.7463 87.3319 67.7866 86.634 67.0887C85.9361 66.3907 85.1509 66.0418 84.2785 66.0418C83.406 66.0418 82.5336 66.3907 81.8357 67.0887C81.1378 67.7866 80.7888 68.659 80.7888 69.7932C80.7888 70.8401 81.1378 71.7125 81.7484 72.4104C82.4464 73.1956 83.2316 73.5446 84.2785 73.5446Z" fill="url(#paint18_linear_1509_37798)"/>
<path d="M100.333 66.2155V64.8196H102.165V74.8524H100.333V73.4565C99.4602 74.5907 98.2388 75.1141 96.7557 75.1141C95.3598 75.1141 94.1384 74.6779 93.1788 73.7183C92.2191 72.7586 91.6084 71.45 91.6084 69.7924C91.6084 68.1348 92.1318 66.8262 93.0915 65.9537C94.0512 64.9941 95.2726 64.5579 96.6684 64.5579C98.2388 64.5579 99.4602 65.0813 100.333 66.2155ZM96.9302 66.1282C95.9705 66.1282 95.1853 66.4772 94.4874 67.0879C93.7895 67.6986 93.5277 68.6582 93.5277 69.7924C93.5277 70.9265 93.8767 71.7989 94.4874 72.4969C95.0981 73.1948 95.9705 73.5438 97.0174 73.5438C98.0643 73.5438 98.9367 73.1948 99.5474 72.4969C100.158 71.7989 100.507 70.9265 100.507 69.8796C100.507 68.6582 100.158 67.7858 99.4602 67.0879C98.675 66.3899 97.8898 66.1282 96.9302 66.1282Z" fill="url(#paint19_linear_1509_37798)"/>
<path d="M105.477 61.8538C105.216 61.5921 105.128 61.3304 105.128 60.9814C105.128 60.6324 105.216 60.3707 105.477 60.109C105.739 59.8473 106.001 59.76 106.35 59.76C106.699 59.76 107.048 59.8473 107.222 60.109C107.484 60.3707 107.571 60.6324 107.571 60.9814C107.571 61.3304 107.484 61.5921 107.222 61.8538C106.961 62.1155 106.699 62.2028 106.35 62.2028C106.088 62.2028 105.739 62.1155 105.477 61.8538ZM105.477 64.82H107.309V74.8529H105.477V64.82Z" fill="url(#paint20_linear_1509_37798)"/>
<path d="M126.937 75.0263H116.032L122.139 68.2214C123.186 67.0872 123.797 66.3021 124.146 65.8658C124.756 64.9934 125.105 64.2082 125.105 63.4231C125.105 62.4634 124.756 61.7655 124.146 61.1548C123.535 60.5441 122.75 60.2824 121.703 60.2824C120.482 60.2824 119.522 60.7186 118.911 61.6782C118.562 62.2017 118.388 62.8124 118.388 63.5976H116.556C116.643 62.2017 117.079 61.1548 117.777 60.2824C118.824 59.1482 120.133 58.6248 121.79 58.6248C123.273 58.6248 124.495 59.061 125.542 60.0206C126.501 60.8931 127.025 62.1144 127.025 63.5103C127.025 64.5572 126.589 65.7786 125.716 67C125.28 67.6107 124.495 68.4831 123.448 69.7045L119.958 73.5432H127.025V75.0263H126.937Z" fill="url(#paint21_linear_1509_37798)"/>
<path d="M135.664 75.2886C133.919 75.2886 132.523 74.5034 131.389 72.8458C130.255 71.2754 129.731 69.2689 129.731 66.9133C129.731 64.5578 130.255 62.5512 131.389 60.9809C132.523 59.4105 134.006 58.5381 135.664 58.5381C137.322 58.5381 138.805 59.3233 139.939 60.9809C141.073 62.5512 141.596 64.5578 141.596 66.9133C141.596 69.2689 141.073 71.2754 139.939 72.8458C138.805 74.5034 137.322 75.2886 135.664 75.2886ZM135.664 60.2829C134.53 60.2829 133.57 60.8936 132.785 62.115C132 63.3364 131.564 64.994 131.564 67.0006C131.564 69.0071 132 70.6647 132.785 71.8861C133.57 73.1075 134.53 73.7182 135.664 73.7182C136.798 73.7182 137.758 73.1075 138.543 71.8861C139.328 70.6647 139.764 69.0071 139.764 67.0006C139.764 64.994 139.328 63.3364 138.543 62.115C137.758 60.8064 136.798 60.2829 135.664 60.2829Z" fill="url(#paint22_linear_1509_37798)"/>
<path d="M154.855 75.0263H143.95L150.057 68.2214C151.104 67.0872 151.714 66.3021 152.063 65.8658C152.674 64.9934 153.023 64.2082 153.023 63.4231C153.023 62.4634 152.674 61.7655 152.063 61.1548C151.453 60.5441 150.667 60.2824 149.62 60.2824C148.399 60.2824 147.439 60.7186 146.829 61.6782C146.48 62.2017 146.305 62.8124 146.305 63.5976H144.473C144.56 62.2017 144.997 61.1548 145.695 60.2824C146.741 59.1482 148.05 58.6248 149.708 58.6248C151.191 58.6248 152.412 59.061 153.459 60.0206C154.419 60.8931 154.942 62.1144 154.942 63.5103C154.942 64.5572 154.506 65.7786 153.634 67C153.197 67.6107 152.412 68.4831 151.365 69.7045L147.876 73.5432H154.942V75.0263H154.855Z" fill="url(#paint23_linear_1509_37798)"/>
<path d="M160.091 62.8129H158.259C158.346 61.9405 158.608 61.1554 159.044 60.4574C159.917 59.236 161.225 58.5381 162.97 58.5381C164.453 58.5381 165.587 58.9743 166.46 59.8467C167.332 60.7191 167.681 61.766 167.681 62.9002C167.681 64.5578 166.983 65.7792 165.5 66.4771C165.762 66.5644 165.936 66.6516 166.111 66.8261C166.285 67.0006 166.547 67.1751 166.896 67.4368C167.158 67.6985 167.42 68.1347 167.594 68.6582C167.769 69.1816 167.856 69.7051 167.856 70.403C167.856 71.8861 167.332 73.0203 166.373 73.8927C165.413 74.7651 164.192 75.2013 162.708 75.2013C161.749 75.2013 160.789 74.9396 159.917 74.5034C159.044 74.0672 158.434 73.3692 157.997 72.4096C157.736 71.8861 157.648 71.3627 157.648 70.752H159.481C159.568 71.4499 159.742 71.9734 160.091 72.4096C160.702 73.1948 161.487 73.631 162.708 73.631C163.668 73.631 164.453 73.282 165.064 72.6713C165.675 72.0606 166.024 71.2754 166.024 70.403C166.024 69.0944 165.5 68.1347 164.366 67.6985C163.843 67.4368 163.145 67.3495 162.447 67.3495V65.7792C163.145 65.8664 163.843 65.6919 164.366 65.4302C165.326 64.994 165.762 64.1216 165.762 63.0747C165.762 62.2895 165.5 61.5916 165.064 61.0681C164.628 60.5447 163.843 60.2829 162.883 60.2829C161.923 60.2829 161.225 60.6319 160.702 61.2426C160.353 61.6788 160.091 62.2023 160.091 62.8129Z" fill="url(#paint24_linear_1509_37798)"/>
<path d="M146.475 13.6956V19.1918C145.777 18.2321 144.73 17.7087 143.509 17.7087C142.113 17.7087 140.979 18.2321 140.019 19.1918C139.06 20.1515 138.624 21.4601 138.624 23.1177C138.624 24.6008 139.06 25.9094 139.932 26.9563C140.805 28.0033 142.026 28.5267 143.509 28.5267C144.73 28.5267 145.777 28.0905 146.563 27.1308V28.1777H148.918V13.6956H146.475ZM145.777 25.5605C145.254 26.1712 144.556 26.4329 143.771 26.4329C142.898 26.4329 142.288 26.0839 141.764 25.4732C141.241 24.8625 140.979 24.0774 140.979 23.1177C140.979 22.158 141.241 21.3729 141.764 20.7622C142.288 20.1515 142.986 19.8025 143.771 19.8025C144.556 19.8025 145.254 20.0642 145.777 20.6749C146.301 21.2856 146.563 22.0708 146.563 23.1177C146.563 24.1646 146.301 25.037 145.777 25.5605Z" fill="url(#paint25_linear_1509_37798)"/>
<path d="M156.16 17.7092C154.851 17.7092 153.717 18.1454 152.757 19.1051C151.71 20.2392 151.187 21.6351 151.187 23.2927C151.187 24.8631 151.71 26.2589 152.67 27.2186C153.543 28.091 154.677 28.5272 156.073 28.5272C157.294 28.5272 158.254 28.2655 159.039 27.7421C159.737 27.3059 160.26 26.6952 160.696 25.8227L158.69 24.6886C158.428 25.1248 158.079 25.561 157.73 25.8227C157.294 26.1717 156.77 26.3462 156.16 26.3462C155.375 26.3462 154.764 26.0845 154.328 25.6483C153.804 25.1248 153.543 24.4269 153.455 23.5544H160.696V23.2927C160.696 21.3734 160.26 19.9775 159.301 18.9306C158.515 18.1454 157.468 17.7092 156.16 17.7092ZM153.717 21.7224C153.804 21.1989 154.066 20.7627 154.415 20.4137C154.851 19.9775 155.375 19.7158 156.073 19.7158C156.683 19.7158 157.207 19.8903 157.643 20.3265C157.992 20.6755 158.254 21.1117 158.341 21.7224H153.717Z" fill="url(#paint26_linear_1509_37798)"/>
<path d="M166.545 18.0582C166.196 18.2327 165.847 18.5817 165.586 18.9306V17.971H163.23V28.2655H165.586V22.9438C165.586 21.8096 165.76 21.0244 166.196 20.5882C166.545 20.2392 167.069 20.0648 167.679 20.0648C168.116 20.0648 168.465 20.152 168.901 20.4137L169.86 18.2327C169.337 17.8837 168.726 17.7092 168.028 17.7092C167.418 17.7092 166.894 17.7965 166.545 18.0582Z" fill="url(#paint27_linear_1509_37798)"/>
<path d="M176.396 23.2055C176.134 22.9438 175.611 22.5948 175 22.2458L173.779 21.6351C173.691 21.5479 173.517 21.5479 173.43 21.4606C173.342 21.3734 173.255 21.3734 173.168 21.2862C173.081 21.2862 173.081 21.1989 172.993 21.1989C172.732 21.0244 172.644 20.8499 172.644 20.5882C172.644 20.4137 172.732 20.2392 172.819 20.0648C172.993 19.8903 173.255 19.803 173.517 19.803C174.128 19.803 174.564 20.0648 174.913 20.6755L176.658 19.5413C176.396 19.0179 175.96 18.5816 175.523 18.2327C175 17.8837 174.389 17.7092 173.691 17.7092C172.644 17.7092 171.859 18.0582 171.249 18.6689C170.725 19.2796 170.376 19.9775 170.376 20.8499C170.376 21.5479 170.638 22.0713 171.074 22.5948C171.336 22.8565 171.772 23.1182 172.47 23.4672L173.342 23.9034C173.779 24.0779 174.128 24.3396 174.389 24.5141C174.564 24.7758 174.738 25.0376 174.738 25.2993C174.738 25.6483 174.651 25.91 174.389 26.0845C174.128 26.3462 173.866 26.4334 173.43 26.4334C172.993 26.4334 172.644 26.3462 172.383 26.0845C172.208 25.91 172.034 25.561 171.859 25.1248L169.94 26.0845C170.202 26.8696 170.638 27.4803 171.249 28.0038C171.772 28.44 172.557 28.7017 173.43 28.7017C174.651 28.7017 175.611 28.3528 176.221 27.5676C176.832 26.9569 177.094 26.1717 177.094 25.212C177.181 24.3396 176.919 23.6417 176.396 23.2055Z" fill="url(#paint28_linear_1509_37798)"/>
</mask>
<g mask="url(#mask0_1509_37798)">
<rect x="-3.77051" y="-3.14209" width="186" height="98.6554" fill="url(#paint29_linear_1509_37798)"/>
</g>
<defs>
<linearGradient id="paint0_linear_1509_37798" x1="175.879" y1="92.5707" x2="178.497" y2="92.5707" gradientUnits="userSpaceOnUse">
<stop stop-color="#8F4DED"/>
<stop offset="1" stop-color="#6D43E1"/>
</linearGradient>
<linearGradient id="paint1_linear_1509_37798" x1="0" y1="46.4818" x2="175.822" y2="46.4818" gradientUnits="userSpaceOnUse">
<stop stop-color="#8F4DED"/>
<stop offset="1" stop-color="#6D43E1"/>
</linearGradient>
<linearGradient id="paint2_linear_1509_37798" x1="51.1323" y1="20.103" x2="59.16" y2="20.103" gradientUnits="userSpaceOnUse">
<stop stop-color="#8F4DED"/>
<stop offset="1" stop-color="#6D43E1"/>
</linearGradient>
<linearGradient id="paint3_linear_1509_37798" x1="60.5527" y1="23.1138" x2="71.3726" y2="23.1138" gradientUnits="userSpaceOnUse">
<stop stop-color="#8F4DED"/>
<stop offset="1" stop-color="#6D43E1"/>
</linearGradient>
<linearGradient id="paint4_linear_1509_37798" x1="73.7275" y1="22.9834" x2="80.2718" y2="22.9834" gradientUnits="userSpaceOnUse">
<stop stop-color="#8F4DED"/>
<stop offset="1" stop-color="#6D43E1"/>
</linearGradient>
<linearGradient id="paint5_linear_1509_37798" x1="80.4468" y1="23.2009" x2="90.045" y2="23.2009" gradientUnits="userSpaceOnUse">
<stop stop-color="#8F4DED"/>
<stop offset="1" stop-color="#6D43E1"/>
</linearGradient>
<linearGradient id="paint6_linear_1509_37798" x1="90.5693" y1="23.1153" x2="102.174" y2="23.1153" gradientUnits="userSpaceOnUse">
<stop stop-color="#8F4DED"/>
<stop offset="1" stop-color="#6D43E1"/>
</linearGradient>
<linearGradient id="paint7_linear_1509_37798" x1="108.018" y1="20.1032" x2="117.791" y2="20.1032" gradientUnits="userSpaceOnUse">
<stop stop-color="#8F4DED"/>
<stop offset="1" stop-color="#6D43E1"/>
</linearGradient>
<linearGradient id="paint8_linear_1509_37798" x1="119.003" y1="22.9834" x2="125.547" y2="22.9834" gradientUnits="userSpaceOnUse">
<stop stop-color="#8F4DED"/>
<stop offset="1" stop-color="#6D43E1"/>
</linearGradient>
<linearGradient id="paint9_linear_1509_37798" x1="125.9" y1="23.1953" x2="136.196" y2="23.1953" gradientUnits="userSpaceOnUse">
<stop stop-color="#8F4DED"/>
<stop offset="1" stop-color="#6D43E1"/>
</linearGradient>
<linearGradient id="paint10_linear_1509_37798" x1="51.04" y1="43.4852" x2="61.5981" y2="43.4852" gradientUnits="userSpaceOnUse">
<stop stop-color="#8F4DED"/>
<stop offset="1" stop-color="#6D43E1"/>
</linearGradient>
<linearGradient id="paint11_linear_1509_37798" x1="64.561" y1="46.5843" x2="72.8504" y2="46.5843" gradientUnits="userSpaceOnUse">
<stop stop-color="#8F4DED"/>
<stop offset="1" stop-color="#6D43E1"/>
</linearGradient>
<linearGradient id="paint12_linear_1509_37798" x1="76.2524" y1="46.3216" x2="90.1263" y2="46.3216" gradientUnits="userSpaceOnUse">
<stop stop-color="#8F4DED"/>
<stop offset="1" stop-color="#6D43E1"/>
</linearGradient>
<linearGradient id="paint13_linear_1509_37798" x1="93.4409" y1="46.3216" x2="107.315" y2="46.3216" gradientUnits="userSpaceOnUse">
<stop stop-color="#8F4DED"/>
<stop offset="1" stop-color="#6D43E1"/>
</linearGradient>
<linearGradient id="paint14_linear_1509_37798" x1="110.275" y1="43.9217" x2="112.718" y2="43.9217" gradientUnits="userSpaceOnUse">
<stop stop-color="#8F4DED"/>
<stop offset="1" stop-color="#6D43E1"/>
</linearGradient>
<linearGradient id="paint15_linear_1509_37798" x1="114.727" y1="44.6193" x2="119.526" y2="44.6193" gradientUnits="userSpaceOnUse">
<stop stop-color="#8F4DED"/>
<stop offset="1" stop-color="#6D43E1"/>
</linearGradient>
<linearGradient id="paint16_linear_1509_37798" x1="52.002" y1="66.7789" x2="64.4797" y2="66.7789" gradientUnits="userSpaceOnUse">
<stop stop-color="#8F4DED"/>
<stop offset="1" stop-color="#6D43E1"/>
</linearGradient>
<linearGradient id="paint17_linear_1509_37798" x1="67.3564" y1="69.9649" x2="75.7331" y2="69.9649" gradientUnits="userSpaceOnUse">
<stop stop-color="#8F4DED"/>
<stop offset="1" stop-color="#6D43E1"/>
</linearGradient>
<linearGradient id="paint18_linear_1509_37798" x1="79.0439" y1="66.1255" x2="89.602" y2="66.1255" gradientUnits="userSpaceOnUse">
<stop stop-color="#8F4DED"/>
<stop offset="1" stop-color="#6D43E1"/>
</linearGradient>
<linearGradient id="paint19_linear_1509_37798" x1="91.6084" y1="69.834" x2="102.166" y2="69.834" gradientUnits="userSpaceOnUse">
<stop stop-color="#8F4DED"/>
<stop offset="1" stop-color="#6D43E1"/>
</linearGradient>
<linearGradient id="paint20_linear_1509_37798" x1="105.128" y1="67.3035" x2="107.572" y2="67.3035" gradientUnits="userSpaceOnUse">
<stop stop-color="#8F4DED"/>
<stop offset="1" stop-color="#6D43E1"/>
</linearGradient>
<linearGradient id="paint21_linear_1509_37798" x1="116.032" y1="66.8223" x2="127.027" y2="66.8223" gradientUnits="userSpaceOnUse">
<stop stop-color="#8F4DED"/>
<stop offset="1" stop-color="#6D43E1"/>
</linearGradient>
<linearGradient id="paint22_linear_1509_37798" x1="129.731" y1="66.9101" x2="141.598" y2="66.9101" gradientUnits="userSpaceOnUse">
<stop stop-color="#8F4DED"/>
<stop offset="1" stop-color="#6D43E1"/>
</linearGradient>
<linearGradient id="paint23_linear_1509_37798" x1="143.95" y1="66.8223" x2="154.944" y2="66.8223" gradientUnits="userSpaceOnUse">
<stop stop-color="#8F4DED"/>
<stop offset="1" stop-color="#6D43E1"/>
</linearGradient>
<linearGradient id="paint24_linear_1509_37798" x1="157.648" y1="66.8665" x2="167.857" y2="66.8665" gradientUnits="userSpaceOnUse">
<stop stop-color="#8F4DED"/>
<stop offset="1" stop-color="#6D43E1"/>
</linearGradient>
<linearGradient id="paint25_linear_1509_37798" x1="138.624" y1="21.1083" x2="148.92" y2="21.1083" gradientUnits="userSpaceOnUse">
<stop stop-color="#8F4DED"/>
<stop offset="1" stop-color="#6D43E1"/>
</linearGradient>
<linearGradient id="paint26_linear_1509_37798" x1="151.187" y1="23.1161" x2="160.698" y2="23.1161" gradientUnits="userSpaceOnUse">
<stop stop-color="#8F4DED"/>
<stop offset="1" stop-color="#6D43E1"/>
</linearGradient>
<linearGradient id="paint27_linear_1509_37798" x1="163.23" y1="22.9853" x2="169.861" y2="22.9853" gradientUnits="userSpaceOnUse">
<stop stop-color="#8F4DED"/>
<stop offset="1" stop-color="#6D43E1"/>
</linearGradient>
<linearGradient id="paint28_linear_1509_37798" x1="169.94" y1="23.2034" x2="177.112" y2="23.2034" gradientUnits="userSpaceOnUse">
<stop stop-color="#8F4DED"/>
<stop offset="1" stop-color="#6D43E1"/>
</linearGradient>
<linearGradient id="paint29_linear_1509_37798" x1="92.0861" y1="-21.0932" x2="59.0706" y2="109.84" gradientUnits="userSpaceOnUse">
<stop offset="0.04" stop-color="#C19859"/>
<stop offset="0.11" stop-color="#D0B07A"/>
<stop offset="0.28" stop-color="#F1E6C4"/>
<stop offset="0.36" stop-color="#FAF5D7"/>
<stop offset="0.37" stop-color="#D2BC8C"/>
<stop offset="0.38" stop-color="#B28F4F"/>
<stop offset="0.39" stop-color="#885400"/>
<stop offset="0.44" stop-color="#8C5804"/>
<stop offset="0.5" stop-color="#986410"/>
<stop offset="0.55" stop-color="#AD7924"/>
<stop offset="0.59" stop-color="#C18C37"/>
<stop offset="0.6" stop-color="#CA9740"/>
<stop offset="0.65" stop-color="#E6BC5F"/>
<stop offset="0.68" stop-color="#F8D372"/>
<stop offset="0.7" stop-color="#FFDC7A"/>
<stop offset="0.87" stop-color="#D09F47"/>
<stop offset="0.92" stop-color="#C18C37"/>
</linearGradient>
</defs>
</svg>
