<svg width="170" height="104" viewBox="0 0 170 104" fill="none" xmlns="http://www.w3.org/2000/svg">
<path fill-rule="evenodd" clip-rule="evenodd" d="M117.237 37.2553L125.32 25.8647L125.256 25.8011L107.563 0.347204L107.499 0.283569H97.9521L115.709 25.8011L100.983 46.6726H100.944L98.3645 50.3831L96.8064 52.5913H96.8297L95.7245 54.1815L90.4418 46.6726H80.8312L90.8873 61.0541L79.8765 76.7082H89.4871L95.7245 67.9266L101.898 76.7082H111.509L100.498 61.0541L110.554 46.6726H110.554L117.237 37.2553ZM136.013 10.7816L126.275 24.654L121.501 17.8451L126.466 10.7816H136.013ZM19.094 11.6115H0V42.1562H8.01947V29.9383H17.821V23.1931H8.01947V18.2296H19.094V11.6115ZM66.1288 34.011L70.8386 42.1562H80.0037L73.5754 31.0838C75.8667 28.9838 77.2033 25.9294 77.2033 22.8113C77.2033 16.5751 72.1752 11.6115 66.0015 11.6115H53.1449V42.0926H61.1643V34.011H66.1288ZM66.1288 27.1384H61.1643V18.4205H66.1288H66.447C68.8656 18.4841 70.7113 20.5204 70.6477 22.9385C70.584 25.3566 68.5473 27.2021 66.1288 27.1384ZM34.751 35.4744H32.9053C31.6323 35.4744 30.614 34.4562 30.614 33.1835V20.5202C30.614 19.2475 31.6323 18.2294 32.9053 18.2294H34.751V11.675C26.3497 12.1204 19.8577 19.3112 20.3669 27.7746C20.8124 35.4744 26.9861 41.647 34.751 42.0924V35.4744ZM35.6421 18.293V11.675C43.407 12.0568 49.5807 18.293 50.0262 25.9928C50.4717 34.3926 44.0434 41.647 35.6421 42.156V35.538H37.4878C38.7608 35.538 39.7791 34.5199 39.7791 33.2472V20.5839C39.7791 19.3112 38.7608 18.293 37.4878 18.293H35.6421ZM82.5496 11.6115H101.516V18.2296H90.5691V23.1931H100.307V29.9383H90.5691V35.6018H101.516V42.1562H82.5496V11.6115ZM114.118 25.801L111.382 29.6827L107.754 34.8371H104.508L110.872 25.801L104.89 17.2103H108.136L114.118 25.801ZM128.248 29.6835H128.184L126.338 27.0108L121.565 33.7561L127.42 42.1559H136.967L128.248 29.6835ZM77.6488 46.6726H59.0004V76.7082H77.6488V70.2811H66.8925V64.7449H76.4395V58.1269H66.8925V53.227H77.6488V46.6726ZM126.784 46.6726H114.118V76.7082H122.01V68.7539H126.911C132.83 68.6266 137.604 63.7904 137.668 57.8723C137.731 51.7634 132.894 46.7363 126.784 46.6726ZM126.911 61.945H122.01V53.3543H126.911H127.229C129.584 53.4179 131.43 55.4542 131.367 57.8087C131.303 60.1632 129.266 62.0086 126.911 61.945ZM154.916 46.6726C163.19 46.6726 169.936 53.3543 170 61.6268C170 69.8993 163.317 76.6446 155.043 76.7082C146.769 76.7082 140.022 70.0266 139.959 61.7541C139.959 53.4815 146.642 46.7363 154.916 46.6726ZM154.916 54.5633C150.97 54.5633 147.724 57.7451 147.724 61.7541C147.724 65.6994 150.906 68.9448 154.916 68.9448C158.862 68.9448 162.108 65.763 162.108 61.7541C162.108 57.7451 158.926 54.5633 154.916 54.5633ZM138.495 93.8913H135.694L137.095 89.3732L138.495 93.8913ZM78.0944 88.0971H77.0124V96.306H78.0944C78.9854 96.306 79.6855 95.9878 80.1947 95.3515C80.7039 94.7151 80.8948 93.7606 80.8948 92.4879V91.9152C80.8948 90.6425 80.6402 89.688 80.1947 89.0516C79.7492 88.4153 79.0491 88.0971 78.0944 88.0971ZM119.401 89.688C119.401 90.1334 119.274 90.5152 118.955 90.7698C118.637 91.0243 118.128 91.1516 117.492 91.0879H115.837V88.0971H117.428C118.128 88.0971 118.637 88.2244 118.955 88.4789C119.274 88.7335 119.401 89.1153 119.401 89.688ZM118.001 93.1909H115.837V96.309H117.873C118.446 96.309 118.892 96.1817 119.21 95.9272C119.528 95.6726 119.656 95.2908 119.656 94.8454C119.656 93.7636 119.083 93.1909 118.001 93.1909ZM59.0004 103.181V80.9725H169.936V103.181H59.0004ZM83.4407 95.6721C83.9498 94.7812 84.2044 93.6994 84.2044 92.4903V91.854C84.2044 90.7086 83.9498 89.6268 83.4407 88.6722C82.9315 87.7177 82.1677 86.9541 81.2767 86.445C80.322 85.936 79.3036 85.6814 78.158 85.6814H73.9573V98.7265H78.2216C79.3673 98.7265 80.3856 98.4084 81.2767 97.8993C82.2314 97.3902 82.9315 96.6266 83.4407 95.6721ZM102.726 96.7539C103.171 95.9902 103.362 95.163 103.362 94.2085H103.298V85.8087H100.18V94.3357C100.18 95.0994 99.9888 95.6721 99.6705 96.0539C99.3523 96.3721 98.8431 96.563 98.2067 96.563C96.9337 96.563 96.2973 95.7993 96.2336 94.3994V85.7451H93.0513V94.3357C93.0513 95.7357 93.5605 96.8811 94.4515 97.7084C95.3426 98.5356 96.6155 98.9174 98.2067 98.9174C99.2887 98.9174 100.18 98.7265 100.943 98.3447C101.707 98.0266 102.344 97.4538 102.726 96.7539ZM117.937 98.7265C119.528 98.7265 120.738 98.4084 121.565 97.772C122.392 97.1357 122.774 96.1811 122.838 94.9085C122.838 94.2085 122.647 93.6358 122.265 93.1267C121.883 92.6176 121.374 92.2994 120.674 92.1085C121.31 91.854 121.756 91.5358 122.074 91.0267C122.392 90.5813 122.52 90.0086 122.52 89.3086C122.52 88.1632 122.074 87.2723 121.183 86.6359C120.292 85.9996 119.019 85.6814 117.364 85.6814H112.654V98.7265H117.937ZM139.259 96.3084L140.022 98.7265H143.332L138.495 85.6814H135.567L130.794 98.7265H134.167L134.931 96.3084H139.259ZM151.924 98.7265H155.043V85.6814H151.924V98.7265Z" fill="url(#paint0_linear_1302_14343)"/>
<defs>
<linearGradient id="paint0_linear_1302_14343" x1="87.6109" y1="-18.4393" x2="49.0122" y2="115.7" gradientUnits="userSpaceOnUse">
<stop offset="0.04" stop-color="#C19859"/>
<stop offset="0.11" stop-color="#D0B07A"/>
<stop offset="0.28" stop-color="#F1E6C4"/>
<stop offset="0.36" stop-color="#FAF5D7"/>
<stop offset="0.37" stop-color="#D2BC8C"/>
<stop offset="0.38" stop-color="#B28F4F"/>
<stop offset="0.39" stop-color="#885400"/>
<stop offset="0.44" stop-color="#8C5804"/>
<stop offset="0.5" stop-color="#986410"/>
<stop offset="0.55" stop-color="#AD7924"/>
<stop offset="0.59" stop-color="#C18C37"/>
<stop offset="0.6" stop-color="#CA9740"/>
<stop offset="0.65" stop-color="#E6BC5F"/>
<stop offset="0.68" stop-color="#F8D372"/>
<stop offset="0.7" stop-color="#FFDC7A"/>
<stop offset="0.87" stop-color="#D09F47"/>
<stop offset="0.92" stop-color="#C18C37"/>
</linearGradient>
</defs>
</svg>
