<svg width="241" height="61" viewBox="0 0 241 61" fill="none" xmlns="http://www.w3.org/2000/svg">
<path d="M240.665 0.104215C240.632 0.0706509 240.6 0.0390611 240.567 0.00549694C240.652 -0.0142467 240.685 0.0193175 240.665 0.104215Z" fill="#FEFEFE"/>
<path d="M0.104045 0.00549694C0.0705356 0.0370867 0.0370262 0.0706509 0.00548797 0.104215C-0.0142234 0.0193175 0.0192859 -0.0142467 0.104045 0.00549694Z" fill="#FEFEFE"/>
<path d="M0.00524383 60.8965C0.0387532 60.93 0.0702915 60.9616 0.103801 60.9952C0.0190418 61.0149 -0.0144676 60.9814 0.00524383 60.8965Z" fill="#FEFEFE"/>
<path d="M203.916 6.62763C213.996 6.62763 224.077 6.63948 234.155 6.61776C236.617 6.61184 238.77 8.62569 238.762 11.2437C238.742 18.4679 238.754 25.694 238.754 32.9182C238.754 35.1512 238.756 37.3842 238.754 39.6173C238.752 41.795 237.654 43.3705 235.616 44.1247C235.149 44.2965 234.656 44.3419 234.165 44.3419C213.989 44.3439 193.812 44.3458 173.635 44.3419C170.996 44.3419 169.047 42.3616 169.047 39.7239C169.047 30.2489 169.064 20.7759 169.035 11.3009C169.027 8.67505 171.118 6.60394 173.726 6.61184C183.789 6.6454 193.853 6.62566 203.916 6.62566V6.62763ZM215.429 25.4058C215.429 30.5766 215.429 35.7475 215.429 40.9203C215.429 41.6074 215.694 41.8739 216.376 41.8759C217.491 41.8799 218.609 41.8996 219.725 41.872C222.673 41.7989 225.63 42.0734 228.573 41.6884C229.787 41.5304 230.946 41.2066 231.953 40.4781C233.513 39.3507 234.027 37.6765 234.138 35.8916C234.272 33.6981 234.228 31.4928 234.155 29.2953C234.116 28.087 233.621 27.0485 232.697 26.237C232.251 25.8441 231.764 25.5183 231.206 25.3051C231.092 25.2617 230.992 25.1906 230.982 25.0682C230.974 24.9714 231.084 24.9675 231.161 24.9398C233.306 24.1442 234.141 22.9734 234.183 20.6969C234.195 20.0414 234.205 19.382 234.183 18.7265C234.126 17.0582 234.321 15.3859 233.994 13.7215C233.686 12.1578 232.971 10.912 231.557 10.1144C229.998 9.23379 228.275 9.00871 226.537 8.98502C223.19 8.93961 219.841 8.9712 216.492 8.9712C215.607 8.9712 215.429 9.14889 215.429 10.0393C215.429 15.1608 215.429 20.2823 215.429 25.4058ZM174.055 25.4255C174.055 30.5154 174.055 35.6053 174.055 40.6953C174.055 41.6489 174.294 41.8759 175.25 41.8759C177.302 41.8759 179.354 41.8759 181.406 41.8759C182.273 41.8759 182.543 41.6054 182.543 40.7308C182.543 37.0683 182.543 33.4079 182.543 29.7454C182.543 28.4621 182.543 28.4799 183.83 28.4641C184.256 28.4582 184.348 28.6062 184.347 29.0031C184.333 32.3358 184.339 35.6685 184.339 39.0032C184.339 39.6113 184.325 40.2194 184.345 40.8256C184.368 41.5028 184.684 41.868 185.267 41.87C187.516 41.8799 189.765 41.8779 192.014 41.87C192.456 41.87 192.749 41.6528 192.84 41.1869C192.885 40.9578 192.895 40.7328 192.895 40.5018C192.895 30.4365 192.895 20.3712 192.895 10.3059C192.895 10.0433 192.905 9.78266 192.815 9.526C192.694 9.17851 192.475 8.96923 192.097 8.96923C189.783 8.96923 187.467 8.96923 185.153 8.96923C184.8 8.96923 184.581 9.15087 184.459 9.48454C184.36 9.75305 184.337 10.0255 184.337 10.3059C184.339 13.5734 184.337 16.841 184.337 20.1086C184.337 21.3919 184.337 21.3741 183.046 21.3919C182.62 21.3978 182.531 21.2478 182.533 20.8549C182.547 17.9151 182.541 14.9772 182.541 12.0374C182.541 11.299 182.547 10.5586 182.539 9.82018C182.531 9.28513 182.218 8.96923 181.682 8.96923C179.432 8.96528 177.183 8.96528 174.934 8.96923C174.378 8.96923 174.099 9.24366 174.065 9.80636C174.049 10.0512 174.053 10.298 174.053 10.5448C174.053 15.5044 174.053 20.462 174.053 25.4216L174.055 25.4255ZM213.478 22.1027C213.478 22.1027 213.492 22.1027 213.498 22.1027C213.498 18.0315 213.498 13.9584 213.498 9.88731C213.498 9.23972 213.289 8.97712 212.739 8.97515C210.44 8.96725 208.142 8.97318 205.844 8.9712C205.489 8.9712 205.274 9.14692 205.124 9.46282C205.012 9.70172 205.026 9.94061 205.026 10.1854C205.026 17.7374 205.026 25.2893 205.026 32.8432C205.026 33.0564 205.036 33.2717 205.016 33.4829C204.967 34.0436 204.419 34.4069 203.879 34.249C203.431 34.1167 203.228 33.7889 203.228 33.1769C203.228 26.1837 203.228 19.1885 203.228 12.1953C203.228 11.4392 203.24 10.6849 203.222 9.92877C203.208 9.26341 202.903 8.97515 202.248 8.97515C200.212 8.97318 198.178 9.00082 196.142 8.96528C194.863 8.94356 194.725 9.19825 194.729 10.4046C194.746 17.842 194.742 25.2794 194.73 32.7169C194.73 33.9212 194.813 35.1058 195.154 36.2648C195.619 37.8541 196.4 39.2421 197.713 40.2984C198.895 41.25 200.222 41.866 201.726 42.1267C203.672 42.4643 205.601 42.4742 207.5 41.9016C211.436 40.717 213.279 37.7633 213.433 34.2707C213.612 30.2232 213.474 26.162 213.474 22.1066L213.478 22.1027Z" fill="#D74C3A"/>
<path d="M4.33765 22.2348C4.33765 17.1449 4.33765 12.053 4.33765 6.96313C4.33765 6.4827 4.58404 6.24249 5.07682 6.24249C8.67218 6.24249 12.2675 6.20893 15.8629 6.25631C17.5699 6.27803 19.2473 6.5268 20.8124 7.32642C22.4958 8.18724 23.4577 9.58509 23.9347 11.3462C24.4926 13.4055 24.5261 15.5003 24.1121 17.5872C23.8066 19.1311 23.0221 20.4164 21.7724 21.3997C21.3269 21.7511 21.3269 21.7689 21.8098 22.0512C23.5878 23.0956 24.4295 24.7225 24.7449 26.6949C24.9873 28.2152 24.9637 29.7295 24.7449 31.2517C24.2915 34.3969 22.5372 36.8648 19.2572 37.7888C18.2066 38.085 17.1422 38.2311 16.058 38.2331C12.3641 38.241 8.67021 38.237 4.9763 38.2351C4.3475 38.2351 4.33962 38.2291 4.33962 37.6033C4.33962 32.4798 4.33962 27.3563 4.33962 22.2328L4.33765 22.2348ZM10.121 28.768C10.121 29.9171 10.1249 31.0661 10.119 32.2152C10.119 32.4739 10.1407 32.6595 10.4797 32.6535C12.3996 32.6239 14.3215 32.7404 16.2354 32.5943C17.4438 32.5015 18.3938 31.9072 18.7723 30.6772C19.0719 29.7078 19.0798 28.7127 18.9261 27.7058C18.6363 25.8045 17.3669 24.9101 15.4884 24.9298C13.8484 24.9456 12.2064 24.9417 10.5664 24.9259C10.2274 24.9219 10.1072 25.0206 10.1131 25.3701C10.1328 26.5014 10.121 27.6347 10.121 28.768ZM10.121 15.6602C10.121 16.7757 10.1269 17.8912 10.117 19.0067C10.1151 19.2891 10.184 19.4214 10.4994 19.4194C12.1887 19.4075 13.8799 19.451 15.5692 19.3977C16.6829 19.3621 17.5916 18.8903 18.0686 17.7984C18.5614 16.6711 18.6028 15.4805 18.3347 14.3255C17.9247 12.5466 16.9983 11.8971 15.171 11.8971C13.6454 11.8971 12.1197 11.9069 10.594 11.8892C10.2314 11.8852 10.1072 11.9918 10.1131 12.363C10.1328 13.4627 10.121 14.5625 10.121 15.6602Z" fill="#080A0B"/>
<path d="M116.724 29.1708C114.854 29.1708 112.983 29.1787 111.111 29.1649C110.714 29.1609 110.549 29.2537 110.59 29.694C110.639 30.237 110.728 30.7681 110.904 31.2814C111.377 32.6654 112.54 33.0485 113.809 33.1551C115.345 33.2834 116.89 33.24 118.429 33.1274C119.653 33.0386 120.887 33.0425 122.102 32.8273C122.364 32.7819 122.492 32.8609 122.494 33.161C122.504 34.4562 122.519 35.7514 122.561 37.0446C122.573 37.3921 122.443 37.5421 122.123 37.627C120.793 37.9844 119.45 38.2845 118.092 38.4977C116.683 38.7169 115.26 38.8551 113.833 38.8195C111.964 38.7721 110.153 38.4859 108.536 37.4315C107.091 36.4898 106.258 35.1156 105.717 33.5302C104.819 30.8865 104.821 28.1481 104.901 25.4057C104.957 23.5143 105.242 21.6584 105.863 19.8577C107.066 16.373 109.494 14.4816 113.166 14.1933C115.313 14.0235 117.391 14.2624 119.275 15.3878C121.075 16.4618 122.072 18.1341 122.654 20.0966C123.434 22.7245 123.263 25.38 122.92 28.0434C122.914 28.0928 122.894 28.1382 122.888 28.1876C122.8 28.8418 122.418 29.1688 121.743 29.1688C120.069 29.1688 118.394 29.1688 116.72 29.1688L116.724 29.1708ZM114.059 24.3415C115.11 24.3415 116.161 24.3257 117.211 24.3494C117.611 24.3573 117.741 24.2112 117.694 23.8321C117.619 23.23 117.603 22.6179 117.485 22.0256C117.31 21.147 117.04 20.2901 116.174 19.8242C115.122 19.2575 114 19.2733 112.875 19.5438C111.867 19.7867 111.247 20.4579 110.909 21.4254C110.632 22.227 110.606 23.0641 110.497 23.8914C110.446 24.2744 110.572 24.3474 110.906 24.3455C111.956 24.3356 113.007 24.3415 114.057 24.3415H114.059Z" fill="#080A0B"/>
<path d="M82.8146 26.4479C82.8146 22.7539 82.8146 19.0598 82.8146 15.3658C82.8146 14.9328 83.0287 14.7162 83.4571 14.7162C84.9178 14.7162 86.3803 14.738 87.839 14.7044C88.318 14.6945 88.4579 14.8663 88.4047 15.2967C88.3968 15.3619 88.4047 15.427 88.4047 15.4941C88.3948 15.8416 88.4836 15.9522 88.8305 15.737C89.5677 15.2829 90.3226 14.8466 91.1564 14.5899C93.3542 13.9147 95.5185 13.8969 97.5626 15.0835C98.8281 15.8179 99.5259 17.0124 100.007 18.355C100.724 20.357 100.951 22.4419 100.969 24.5446C101.004 28.9119 100.973 33.2792 100.99 37.6465C100.992 38.1302 100.845 38.2546 100.377 38.2467C98.8675 38.2191 97.3576 38.225 95.8477 38.2447C95.4161 38.2506 95.286 38.1045 95.2879 37.6741C95.3017 33.372 95.2958 29.0718 95.2958 24.7697C95.2958 23.7647 95.1874 22.7756 94.8957 21.8082C94.5251 20.5781 93.6736 19.9029 92.3766 19.8476C91.1052 19.7943 89.9146 20.1378 88.7437 20.5841C88.5565 20.6551 88.4875 20.7756 88.4776 20.9513C88.4678 21.1152 88.4697 21.279 88.4697 21.4429C88.4697 26.8112 88.4697 32.1795 88.4697 37.5478C88.4697 38.0045 88.2431 38.2335 87.7897 38.2348C86.3291 38.2348 84.8665 38.2151 83.4079 38.2467C82.9151 38.2566 82.8047 38.0868 82.8067 37.6267C82.8224 33.8992 82.8165 30.1735 82.8165 26.4459L82.8146 26.4479Z" fill="#090A0B"/>
<path d="M47.192 26.5093C47.192 30.2192 47.1842 33.929 47.2019 37.6388C47.2039 38.1107 47.0777 38.2568 46.5987 38.2469C45.1223 38.2173 43.644 38.2232 42.1676 38.2449C41.7241 38.2509 41.5447 38.1265 41.5664 37.6605C41.594 37.0643 41.523 37.0307 41.0184 37.3288C39.4258 38.2686 37.7345 38.8807 35.858 38.8234C34.3639 38.778 32.919 38.5332 31.7245 37.5263C30.5832 36.5648 30.0096 35.2715 29.6666 33.8678C29.1167 31.6229 29.0339 29.3267 29.0319 27.0286C29.026 23.1371 29.0319 19.2476 29.0319 15.3562C29.0319 14.7165 29.0319 14.7165 29.6844 14.7165C31.1292 14.7165 32.5721 14.7165 34.0169 14.7165C34.4611 14.7165 34.6838 14.9475 34.6852 15.4095C34.6852 19.6445 34.6694 23.8795 34.697 28.1145C34.7029 29.0938 34.7167 30.0809 34.9256 31.0504C35.2292 32.4541 35.8067 32.9833 37.2161 33.1017C38.6412 33.2222 39.9737 32.8273 41.2964 32.3791C41.4895 32.314 41.5723 32.158 41.5723 31.9566C41.5723 31.7769 41.5723 31.5953 41.5723 31.4156C41.5723 26.0967 41.5723 20.7778 41.5723 15.4588C41.5723 14.9626 41.8266 14.7145 42.3352 14.7145C43.7623 14.7145 45.1913 14.7342 46.6184 14.7026C47.0757 14.6928 47.1999 14.829 47.198 15.2792C47.1822 19.0225 47.1881 22.764 47.1881 26.5074L47.192 26.5093Z" fill="#090A0B"/>
<path d="M161.958 16.7087C161.958 17.8559 161.946 19.0049 161.966 20.152C161.972 20.537 161.834 20.6417 161.471 20.5923C160.237 20.4225 159.003 20.2547 157.766 20.1165C156.2 19.9428 154.633 19.8026 153.056 19.998C152.71 20.0415 152.38 20.1441 152.079 20.3041C151.556 20.5805 151.375 21.0583 151.42 21.6269C151.474 22.2982 151.895 22.699 152.477 22.9201C153.535 23.3248 154.645 23.5381 155.757 23.7454C157.275 24.0277 158.743 24.4482 160.091 25.238C161.436 26.0238 162.151 27.2281 162.419 28.7089C162.778 30.6734 162.711 32.63 162.057 34.5353C161.377 36.5136 159.963 37.7397 157.986 38.326C155.706 39.0032 153.388 38.8808 151.064 38.5886C149.55 38.3991 148.058 38.097 146.566 37.7811C146.213 37.7061 146.098 37.5501 146.124 37.2164C146.236 35.7278 146.284 34.2371 146.286 32.7465C146.286 32.3852 146.471 32.3951 146.723 32.4266C147.91 32.5806 149.094 32.7386 150.283 32.8807C151.864 33.0703 153.447 33.2065 155.039 33.0308C155.404 32.9893 155.753 32.8946 156.082 32.7583C156.599 32.5451 156.926 32.1739 156.965 31.5717C157.009 30.8985 156.808 30.3713 156.191 30.0614C155.333 29.6309 154.397 29.4355 153.463 29.2775C151.923 29.0169 150.395 28.7089 148.972 28.0633C147.186 27.2518 146.215 25.7888 145.941 23.8796C145.696 22.1777 145.742 20.4818 146.274 18.8213C146.96 16.6791 148.466 15.38 150.541 14.6949C152.536 14.0374 154.578 14.1421 156.624 14.4047C158.284 14.6179 159.92 14.9614 161.562 15.2694C161.903 15.3326 162.051 15.4767 162.029 15.8223C162.011 16.1164 162.025 16.4126 162.025 16.7087C162.003 16.7087 161.98 16.7087 161.958 16.7087Z" fill="#090A0B"/>
<path d="M67.3887 16.8234C67.3887 17.9389 67.3749 19.0524 67.3966 20.168C67.4044 20.5727 67.229 20.6359 66.886 20.5905C65.6679 20.4266 64.4497 20.2588 63.2276 20.1206C61.6625 19.9449 60.0955 19.8067 58.5185 19.9922C58.1854 20.0317 57.87 20.1304 57.5783 20.2627C57.1131 20.474 56.8687 20.8748 56.847 21.398C56.8214 21.9942 57.0579 22.472 57.5763 22.7485C58.4062 23.1907 59.3247 23.3822 60.2413 23.5599C62.0883 23.9173 63.9293 24.2727 65.5772 25.2776C66.9097 26.0891 67.5976 27.2954 67.8618 28.7742C68.1653 30.4722 68.1239 32.1701 67.6962 33.8503C67.0969 36.1958 65.6344 37.6865 63.3045 38.3558C61.1776 38.9678 59.0251 38.881 56.8667 38.6421C55.2208 38.4604 53.5966 38.1347 51.9783 37.7812C51.6136 37.7003 51.5289 37.5246 51.5545 37.2028C51.6688 35.7477 51.7122 34.2886 51.7102 32.8295C51.7102 32.4663 51.8324 32.3774 52.1695 32.4228C53.3542 32.5867 54.5408 32.7466 55.7274 32.8868C57.2925 33.0724 58.8576 33.2086 60.4365 33.0369C60.8011 32.9974 61.154 32.9125 61.4812 32.7782C61.9878 32.5709 62.3485 32.2214 62.3918 31.6114C62.4391 30.9243 62.2578 30.3715 61.6073 30.0595C60.6986 29.6232 59.719 29.4218 58.7334 29.256C57.2117 28.9993 55.6978 28.6854 54.3003 28.022C52.5894 27.2085 51.6393 25.7712 51.3751 23.9193C51.1327 22.2193 51.1682 20.5214 51.6925 18.859C52.2996 16.93 53.5887 15.6427 55.4317 14.8925C57.4876 14.0553 59.6303 14.1126 61.7768 14.3673C63.5351 14.5766 65.2697 14.9359 67.0063 15.2755C67.3197 15.3367 67.4715 15.4631 67.4577 15.7928C67.4419 16.1363 67.4537 16.4818 67.4537 16.8273C67.432 16.8273 67.4104 16.8273 67.3867 16.8273L67.3887 16.8234Z" fill="#090A0B"/>
<path d="M142.324 16.6099C142.245 17.7886 142.241 18.9712 142.265 20.1519C142.273 20.533 142.138 20.6435 141.772 20.5942C140.554 20.4263 139.336 20.2605 138.115 20.1243C136.568 19.9525 135.017 19.8044 133.456 19.99C133.191 20.0216 132.943 20.0828 132.691 20.1638C132.141 20.3434 131.782 20.687 131.723 21.2753C131.658 21.9367 131.883 22.4678 132.504 22.7818C133.331 23.2003 134.23 23.382 135.127 23.5597C136.844 23.9012 138.551 24.2408 140.122 25.0878C141.577 25.8716 142.412 27.078 142.706 28.6555C143.075 30.6338 143.014 32.6082 142.349 34.5292C141.66 36.5233 140.24 37.7514 138.24 38.3358C135.987 38.9952 133.704 38.8748 131.414 38.5964C129.866 38.4088 128.342 38.1008 126.821 37.7711C126.513 37.704 126.409 37.5658 126.421 37.2716C126.482 35.7474 126.541 34.2252 126.584 32.701C126.594 32.3475 126.803 32.4009 127.016 32.4285C128.301 32.5924 129.582 32.7819 130.869 32.9201C132.352 33.0781 133.838 33.2103 135.334 33.0327C135.699 32.9892 136.046 32.8905 136.377 32.7602C136.895 32.5549 137.224 32.1797 137.264 31.5756C137.307 30.9043 137.108 30.3673 136.485 30.0672C135.579 29.6288 134.599 29.4176 133.613 29.2517C132.092 28.9971 130.58 28.6792 129.178 28.0217C127.515 27.2418 126.553 25.8558 126.265 24.073C125.955 22.146 126.001 20.219 126.734 18.3631C127.487 16.4539 128.942 15.3206 130.83 14.6928C132.742 14.0551 134.707 14.1321 136.671 14.367C138.413 14.5763 140.13 14.9278 141.851 15.2673C142.184 15.3325 142.347 15.4707 142.326 15.8202C142.31 16.0828 142.322 16.3453 142.322 16.6079L142.324 16.6099Z" fill="#090A0B"/>
<path d="M72.0148 26.511C72.0148 22.7853 72.0226 19.0578 72.0049 15.3321C72.0029 14.8425 72.1212 14.6885 72.6317 14.7003C74.1416 14.7378 75.6515 14.724 77.1614 14.7063C77.5576 14.7023 77.7074 14.8148 77.7074 15.2334C77.6976 22.736 77.6976 30.2386 77.7074 37.7411C77.7074 38.1439 77.5478 38.2505 77.1831 38.2486C75.6397 38.2387 74.0963 38.2288 72.5549 38.2545C72.1074 38.2624 72.0049 38.1123 72.0069 37.6898C72.0207 33.9642 72.0148 30.2366 72.0148 26.511Z" fill="#0A0C0D"/>
<path d="M13.8284 45.7116C13.6116 45.8044 13.5741 45.99 13.519 46.1519C12.5176 49.0621 11.5242 51.9763 10.5189 54.8865C10.4479 55.0918 10.4381 55.4097 10.1897 55.4472C9.75802 55.5143 9.2948 55.5637 8.87889 55.4097C8.73894 55.3584 8.67586 55.0563 8.60884 54.8589C7.60159 51.9151 6.60025 48.9713 5.59694 46.0275C5.5516 45.8933 5.51415 45.6879 5.33675 45.7314C5.15935 45.7748 5.23425 45.9841 5.23425 46.1203C5.23031 49.1589 5.23425 52.1954 5.22439 55.234C5.22439 55.4413 5.36632 55.7671 5.07656 55.8381C4.71781 55.927 4.32358 55.9329 3.96089 55.8144C3.82488 55.769 3.86628 55.5854 3.86628 55.4571C3.86628 51.8282 3.86825 48.1993 3.86036 44.5705C3.86036 44.1973 4.00229 44.0788 4.35709 44.0946C4.83214 44.1144 5.30915 44.1065 5.7842 44.0966C6.10746 44.0887 6.30064 44.219 6.40511 44.5329C7.11472 46.6613 7.83615 48.7857 8.54971 50.9121C8.82172 51.7196 9.08586 52.5291 9.34999 53.3366C9.39138 53.463 9.40912 53.613 9.56879 53.6288C9.75802 53.6466 9.74028 53.4689 9.7797 53.3544C10.4972 51.23 11.2147 49.1036 11.9282 46.9772C12.2042 46.1539 12.4762 45.3306 12.7423 44.5033C12.8212 44.2585 12.9769 44.1716 13.2213 44.1736C13.7141 44.1795 14.2088 44.1993 14.6977 44.1677C15.1294 44.14 15.2634 44.2921 15.2614 44.7264C15.2457 47.994 15.2536 51.2616 15.2536 54.5291C15.2536 54.7266 15.2536 54.924 15.2536 55.1195C15.2536 55.8756 15.2516 55.8421 14.5203 55.8835C13.9999 55.9132 13.8974 55.7217 13.9014 55.2379C13.923 52.2487 13.9132 49.2615 13.9092 46.2724C13.9092 46.0868 13.9585 45.8874 13.8284 45.7077V45.7116Z" fill="#D75342"/>
<path d="M72.0148 8.57796C72.0148 7.65988 72.0286 6.73983 72.0069 5.82175C71.9991 5.46834 72.1252 5.37752 72.4603 5.38147C74.051 5.39529 75.6437 5.39529 77.2344 5.38147C77.601 5.37752 77.7114 5.50585 77.7075 5.86914C77.6917 7.6737 77.6917 9.47827 77.7075 11.2848C77.7114 11.6461 77.605 11.7764 77.2364 11.7745C75.6279 11.7606 74.0214 11.7606 72.413 11.7745C72.07 11.7784 72.005 11.6362 72.0089 11.3342C72.0227 10.4161 72.0148 9.49604 72.0148 8.57796Z" fill="#0A0C0D"/>
<path d="M55.4845 49.9587C55.4845 48.1857 55.4924 46.4127 55.4786 44.6397C55.4747 44.2449 55.5851 44.0889 56.0069 44.0928C58.0411 44.1106 60.0773 44.1106 62.1115 44.0928C62.6141 44.0889 62.7127 44.3298 62.7127 44.7641C62.7127 45.2044 62.557 45.3841 62.1056 45.3801C60.5306 45.3643 58.9537 45.3861 57.3788 45.3663C56.9688 45.3624 56.8328 45.4986 56.8426 45.9053C56.8663 46.8727 56.8702 47.8422 56.8426 48.8096C56.8308 49.2341 56.9432 49.3822 57.3887 49.3723C58.6522 49.3427 59.9157 49.3802 61.1792 49.3525C61.6187 49.3427 61.6601 49.5539 61.6443 49.8935C61.6305 50.2232 61.7015 50.551 61.1693 50.5391C59.89 50.5115 58.6088 50.5391 57.3295 50.5233C56.9688 50.5194 56.8387 50.6339 56.8446 51.0011C56.8643 52.0673 56.8663 53.1354 56.8446 54.2016C56.8367 54.5886 56.957 54.7169 57.3492 54.7129C58.9577 54.6952 60.5661 54.7208 62.1746 54.6971C62.6358 54.6912 62.7186 54.8827 62.7166 55.2855C62.7127 55.6764 62.6575 55.8897 62.1844 55.8837C60.1167 55.862 58.049 55.8679 55.9813 55.8818C55.5969 55.8837 55.4747 55.7673 55.4786 55.3744C55.4983 53.5698 55.4865 51.7632 55.4865 49.9587H55.4845Z" fill="#D75342"/>
<path d="M36.8124 49.8208C36.8124 51.6589 36.8144 53.499 36.8085 55.3372C36.8085 55.5306 36.9031 55.8406 36.5936 55.8505C36.2408 55.8623 35.7756 56.0736 35.5489 55.7064C35.3557 55.3905 35.2217 55.4931 35.0068 55.5859C34.0548 56.0005 33.0731 56.194 32.0383 55.965C30.9187 55.7162 30.3411 54.9265 30.1125 53.8919C29.7892 52.4348 29.7557 50.9561 30.1775 49.5088C30.623 47.9767 31.6184 47.262 33.2249 47.2225C33.8182 47.2067 34.4056 47.2423 34.9851 47.3706C35.3695 47.4575 35.5213 47.339 35.5095 46.9264C35.4858 46.0399 35.5272 45.1514 35.4937 44.2669C35.472 43.7279 35.7835 43.7437 36.1521 43.7496C36.5088 43.7536 36.8301 43.7062 36.8222 44.2551C36.7966 46.111 36.8124 47.9649 36.8124 49.8208ZM35.539 51.4872C35.539 50.6658 35.5272 49.8445 35.545 49.0251C35.5528 48.6994 35.4267 48.5454 35.1172 48.4842C34.4667 48.3538 33.8123 48.344 33.1559 48.3854C32.3458 48.4387 31.6677 48.956 31.4647 49.7339C31.1257 51.0252 31.1099 52.3322 31.4529 53.6274C31.6855 54.506 32.2275 54.8653 33.148 54.891C33.8577 54.9087 34.5062 54.6975 35.1527 54.4546C35.4267 54.352 35.5528 54.1664 35.5469 53.8505C35.5272 53.0627 35.541 52.2749 35.541 51.4872H35.539Z" fill="#D74F3E"/>
<path d="M27.9482 49.8583C27.9482 51.6806 27.9502 53.5029 27.9443 55.3253C27.9443 55.5188 28.0428 55.8287 27.7393 55.8465C27.3845 55.8682 26.9193 56.0657 26.6906 55.7123C26.4975 55.4161 26.3772 55.4793 26.1525 55.578C25.1867 56.0005 24.1912 56.198 23.1386 55.9531C22.0407 55.6965 21.4789 54.9126 21.2523 53.8998C20.9231 52.4269 20.8935 50.9323 21.3252 49.4693C21.7628 47.9866 22.7365 47.2778 24.3016 47.2225C24.8949 47.2008 25.4843 47.2245 26.0638 47.3587C26.4817 47.4555 26.665 47.3587 26.6492 46.8869C26.6197 46.0181 26.6571 45.1455 26.6335 44.2768C26.6216 43.8602 26.7793 43.7358 27.1815 43.7457C27.9502 43.7634 27.9502 43.7437 27.9502 44.492C27.9502 46.2807 27.9502 48.0715 27.9502 49.8602L27.9482 49.8583ZM26.6749 51.4457C26.6749 50.6579 26.6552 49.8682 26.6828 49.0824C26.6966 48.6816 26.5329 48.5236 26.1643 48.4624C25.5454 48.3597 24.9245 48.342 24.2996 48.3834C23.4836 48.4367 22.8095 48.9441 22.6025 49.724C22.2595 51.0153 22.2457 52.3223 22.5848 53.6175C22.8154 54.4961 23.3594 54.8653 24.272 54.889C24.9817 54.9087 25.6302 54.6994 26.2767 54.4566C26.5487 54.3559 26.6867 54.1762 26.6788 53.8583C26.6591 53.0548 26.6729 52.2492 26.6729 51.4457H26.6749Z" fill="#D74F3E"/>
<path d="M70.5838 52.1443C70.5838 52.8669 70.5917 53.5895 70.5799 54.3102C70.574 54.7228 70.7218 55.019 71.1377 55.1216C71.7074 55.2618 71.528 55.6843 71.4728 56.0279C71.4097 56.4109 71.0766 56.2431 70.8697 56.2214C70.5976 56.1937 70.2744 56.1503 70.0773 55.9884C69.5746 55.5757 69.0937 55.7021 68.5733 55.8976C67.8755 56.1602 67.1501 56.253 66.4031 56.247C64.9286 56.2332 64.0534 55.3941 63.9923 53.9114C63.9234 52.2233 64.7907 51.2618 66.4799 51.1433C67.2802 51.088 68.0726 50.9281 68.8788 50.9301C69.0128 50.9301 69.1331 50.8926 69.208 50.7583C69.618 50.0179 68.9557 48.6536 68.1298 48.5944C67.5917 48.5569 67.0476 48.5826 66.5075 48.6102C66.0167 48.6359 65.5298 48.7188 65.039 48.7464C64.8439 48.7583 64.5285 48.8985 64.5305 48.5016C64.5305 48.1857 64.3728 47.781 64.9089 47.702C65.7683 47.5776 66.6218 47.4157 67.4951 47.4118C68.0056 47.4098 68.5082 47.4276 69.005 47.5776C69.7816 47.8126 70.2625 48.3121 70.438 49.1038C70.4912 49.3447 70.5661 49.5855 70.572 49.8284C70.5898 50.6004 70.5779 51.3704 70.5779 52.1423H70.5838V52.1443ZM69.2553 53.3427C69.2553 52.9992 69.2435 52.6537 69.2592 52.3102C69.273 52.0179 69.1745 51.8817 68.865 51.9133C68.0509 51.9962 67.2309 52.0377 66.4228 52.1562C65.6796 52.2647 65.2401 52.9854 65.3288 53.8304C65.4273 54.7603 65.8373 55.1907 66.6869 55.1749C67.3413 55.1631 67.9859 55.0446 68.6206 54.8768C69.0739 54.7584 69.344 54.5511 69.2592 54.0298C69.2238 53.8067 69.2533 53.5718 69.2533 53.3427H69.2553Z" fill="#D75241"/>
<path d="M46.8259 52.1939C46.0374 52.1939 45.249 52.2018 44.4625 52.19C44.155 52.186 44.0308 52.2709 44.0328 52.6105C44.0426 54.1229 44.7325 54.8613 46.2385 54.8988C47.1413 54.9225 48.044 54.9126 48.9409 54.7942C49.1656 54.7646 49.3687 54.7468 49.3509 55.0331C49.3332 55.3134 49.55 55.7636 49.1045 55.8228C47.776 56.0005 46.4435 56.2058 45.0952 55.9452C43.8593 55.7044 43.1832 54.9028 42.9053 53.7537C42.5643 52.344 42.5958 50.9225 43.0098 49.5207C43.4198 48.1347 44.3777 47.335 45.8186 47.2304C46.9855 47.1455 48.1052 47.3015 48.8956 48.2906C49.6013 49.1732 49.7175 50.2452 49.6683 51.3213C49.6269 52.192 49.5796 52.19 48.7004 52.19C48.0776 52.19 47.4527 52.19 46.8298 52.19L46.8259 52.1939ZM46.1577 51.1396C46.7648 51.1396 47.3719 51.1396 47.979 51.1396C48.1564 51.1396 48.3752 51.1692 48.3653 50.8948C48.3358 50.1051 48.3279 49.2956 47.6341 48.7388C46.9304 48.1741 46.1104 48.259 45.3357 48.492C44.2516 48.8178 43.9973 50.1426 44.0249 50.9106C44.0328 51.1495 44.2181 51.1377 44.3836 51.1396C44.975 51.1396 45.5663 51.1396 46.1557 51.1396H46.1577Z" fill="#D75241"/>
<path d="M75.6182 56.2448C74.9047 56.3237 74.1221 56.0848 73.3219 56.0217C72.766 55.9782 72.9059 55.5794 72.9217 55.2141C72.9395 54.8015 73.1563 54.841 73.448 54.8706C74.3922 54.9673 75.3304 55.1352 76.2864 55.0799C77.0907 55.0345 77.5933 54.7442 77.7825 54.1796C78.0585 53.3563 77.6879 52.7106 76.8423 52.5053C75.9356 52.2862 74.9954 52.2329 74.1044 51.9308C73.2647 51.6445 72.8429 51.064 72.7956 50.2328C72.6714 48.1124 73.8225 47.6662 75.295 47.4569C76.3614 47.3048 77.4179 47.5279 78.4744 47.6583C79.0815 47.7333 78.8805 48.1894 78.8864 48.527C78.8923 48.9495 78.5789 48.7915 78.3502 48.7836C77.5637 48.756 76.795 48.5605 76.0026 48.5803C75.6379 48.5902 75.2871 48.6257 74.9382 48.7363C74.3981 48.908 74.0709 49.2733 74.0729 49.7925C74.0729 50.3019 74.3094 50.6455 74.816 50.8192C75.5335 51.068 76.2943 51.1015 77.0138 51.3187C77.3114 51.4076 77.6189 51.4668 77.9107 51.5714C78.5966 51.8182 79.0145 52.2842 79.1269 53.0325C79.4206 54.9752 78.3818 56.2171 76.4067 56.2467C76.178 56.2507 75.9474 56.2467 75.6202 56.2467L75.6182 56.2448Z" fill="#D75241"/>
<path d="M82.6609 51.5621C82.6609 52.3321 82.6392 53.1041 82.6668 53.8741C82.6984 54.7843 83.1025 55.1318 84.0131 55.0943C84.2418 55.0844 84.4724 55.0884 84.701 55.0686C85.3535 55.0114 85.5368 55.2206 85.4146 55.8741C85.385 56.0321 85.2944 56.0953 85.1564 56.1249C84.3798 56.2907 83.5952 56.344 82.8127 56.2019C82.1149 56.0755 81.6753 55.6175 81.5236 54.9383C81.4211 54.4783 81.3205 54.0123 81.3245 53.5306C81.3343 52.1209 81.3186 50.7092 81.3343 49.2995C81.3383 48.9106 81.2456 48.7349 80.8159 48.7506C80.1438 48.7743 79.9427 48.4742 80.1142 47.8089C80.1477 47.6746 80.2147 47.6095 80.3448 47.6016C80.4592 47.5956 80.5735 47.5937 80.6878 47.5917C81.1123 47.5864 81.3251 47.3646 81.3265 46.9263C81.3265 46.4505 81.3403 45.9747 81.3225 45.4989C81.3107 45.1672 81.423 45.0013 81.7719 45.027C81.9355 45.0388 82.0991 45.0369 82.2627 45.027C82.5348 45.0132 82.6451 45.1277 82.6373 45.4041C82.6235 45.8622 82.6333 46.3222 82.6333 46.7822C82.6353 47.6786 82.5564 47.5838 83.4651 47.5897C83.9402 47.5917 84.4172 47.6114 84.8922 47.5838C85.3712 47.5562 85.3594 47.8484 85.3653 48.184C85.3712 48.5414 85.3338 48.7921 84.8725 48.7645C84.3324 48.7349 83.7884 48.7901 83.2503 48.7487C82.7319 48.7072 82.5998 48.9125 82.6254 49.3963C82.6629 50.1169 82.6353 50.8395 82.6353 51.5602C82.6432 51.5602 82.6511 51.5602 82.659 51.5602L82.6609 51.5621Z" fill="#D75342"/>
<path d="M40.5533 49.7594C40.5533 51.6114 40.5336 53.4653 40.5652 55.3153C40.575 55.8503 40.3306 55.8918 39.9127 55.8799C39.5264 55.8701 39.2327 55.9036 39.2366 55.339C39.2603 51.6508 39.2583 47.9627 39.2366 44.2746C39.2346 43.7416 39.4515 43.6685 39.9107 43.6606C40.4055 43.6507 40.5671 43.8028 40.5592 44.3003C40.5356 46.1187 40.5494 47.939 40.5494 49.7594H40.5533Z" fill="#D74C3A"/>
<path d="M17.8537 51.6351C17.8537 50.3715 17.8635 49.1059 17.8478 47.8423C17.8438 47.4948 17.9641 47.3606 18.3031 47.3922C18.449 47.406 18.5988 47.4001 18.7466 47.3922C19.0304 47.3783 19.1664 47.4889 19.1664 47.793C19.1605 50.3537 19.1605 52.9164 19.1664 55.4772C19.1664 55.7793 19.0304 55.8918 18.7466 55.878C18.6165 55.8721 18.4825 55.8661 18.3524 55.878C17.9719 55.9194 17.8379 55.7753 17.8458 55.3785C17.8714 54.1307 17.8556 52.8829 17.8556 51.6351H17.8537Z" fill="#D75342"/>
<path d="M19.1608 44.7602C19.1608 45.548 18.875 45.7632 18.1004 45.5638C17.9959 45.5381 17.8875 45.4947 17.8835 45.396C17.8658 45.005 17.8658 44.6121 17.8717 44.2192C17.8717 44.1047 17.9762 44.0613 18.0826 44.0534C18.1969 44.0455 18.3113 44.0435 18.4256 44.0416C18.9157 44.0376 19.1608 44.2765 19.1608 44.7582V44.7602Z" fill="#D75342"/>
<path d="M215.427 25.4057C215.427 20.2842 215.427 15.1627 215.427 10.0393C215.427 9.15081 215.605 8.97312 216.49 8.97114C219.839 8.97114 223.188 8.93955 226.535 8.98496C228.273 9.00866 229.996 9.23373 231.555 10.1143C232.966 10.9119 233.684 12.1578 233.991 13.7215C234.319 15.3858 234.124 17.0581 234.181 18.7265C234.202 19.382 234.193 20.0394 234.181 20.6969C234.139 22.9733 233.304 24.1421 231.159 24.9398C231.084 24.9674 230.972 24.9714 230.98 25.0681C230.989 25.1886 231.09 25.2596 231.204 25.305C231.76 25.5183 232.247 25.844 232.694 26.2369C233.617 27.0484 234.112 28.0869 234.153 29.2952C234.226 31.4927 234.269 33.6981 234.135 35.8916C234.025 37.6764 233.51 39.3507 231.951 40.478C230.944 41.2066 229.783 41.5284 228.571 41.6883C225.628 42.0733 222.671 41.8008 219.722 41.8719C218.607 41.8996 217.491 41.8798 216.373 41.8759C215.693 41.8739 215.429 41.6054 215.427 40.9203C215.427 35.7494 215.427 30.5786 215.427 25.4057ZM223.881 31.1393C223.881 31.8955 223.891 32.6497 223.878 33.4039C223.872 33.7178 223.976 33.8678 224.301 33.8382C224.465 33.8224 224.631 33.8323 224.794 33.8224C225.36 33.7849 225.691 33.4473 225.693 32.8767C225.701 31.7276 225.689 30.5786 225.699 29.4295C225.701 29.08 225.541 28.847 225.275 28.6476C224.968 28.4186 224.617 28.4996 224.278 28.4739C223.974 28.4502 223.874 28.5805 223.879 28.8747C223.893 29.6289 223.883 30.3851 223.883 31.1393H223.881ZM223.881 19.2122C223.881 19.6722 223.878 20.1302 223.881 20.5903C223.889 21.4787 223.765 21.3879 224.711 21.3859C225.336 21.3859 225.687 21.0384 225.693 20.4205C225.701 19.5833 225.701 18.7462 225.693 17.9091C225.687 17.3839 225.372 17.0621 224.847 17.0246C224.668 17.0107 224.487 17.0246 224.307 17.0088C223.986 16.9811 223.87 17.1213 223.878 17.4392C223.893 18.0295 223.881 18.6199 223.881 19.2122Z" fill="#FEFDFD"/>
<path d="M174.053 25.427C174.053 20.4674 174.053 15.5098 174.053 10.5502C174.053 10.3034 174.051 10.0566 174.065 9.81177C174.098 9.24908 174.378 8.97662 174.934 8.97464C177.183 8.97069 179.432 8.97069 181.681 8.97464C182.218 8.97464 182.533 9.29054 182.539 9.82559C182.549 10.564 182.541 11.3024 182.541 12.0428C182.541 14.9826 182.547 17.9205 182.533 20.8603C182.533 21.2532 182.62 21.4032 183.045 21.3973C184.337 21.3815 184.337 21.3973 184.337 20.114C184.337 16.8464 184.337 13.5789 184.337 10.3113C184.337 10.0309 184.36 9.76044 184.459 9.48995C184.581 9.15431 184.8 8.97464 185.153 8.97464C187.467 8.97267 189.783 8.97267 192.097 8.97464C192.475 8.97464 192.694 9.18392 192.814 9.53141C192.903 9.78808 192.895 10.0487 192.895 10.3113C192.895 20.3766 192.895 30.4419 192.895 40.5072C192.895 40.7362 192.885 40.9633 192.84 41.1923C192.749 41.6582 192.456 41.8734 192.014 41.8754C189.765 41.8833 187.516 41.8853 185.267 41.8754C184.683 41.8734 184.368 41.5082 184.344 40.831C184.325 40.2248 184.338 39.6167 184.338 39.0086C184.338 35.6759 184.333 32.3432 184.346 29.0085C184.346 28.6136 184.256 28.4655 183.83 28.4695C182.543 28.4853 182.543 28.4675 182.543 29.7509C182.543 33.4133 182.543 37.0738 182.543 40.7362C182.543 41.6108 182.275 41.8794 181.405 41.8813C179.353 41.8813 177.302 41.8813 175.25 41.8813C174.292 41.8813 174.055 41.6543 174.055 40.7007C174.051 35.6108 174.055 30.5209 174.055 25.4309L174.053 25.427Z" fill="#FEFCFC"/>
<path d="M213.478 22.1045C213.478 26.1598 213.615 30.2211 213.436 34.2686C213.282 37.7612 211.439 40.7148 207.503 41.8995C205.605 42.4701 203.675 42.4622 201.73 42.1245C200.226 41.8639 198.899 41.2479 197.716 40.2963C196.405 39.242 195.625 37.852 195.158 36.2627C194.819 35.1037 194.732 33.9191 194.734 32.7147C194.746 25.2773 194.748 17.8399 194.732 10.4025C194.73 9.19613 194.866 8.94144 196.145 8.96316C198.179 8.99869 200.216 8.97105 202.252 8.97303C202.906 8.97303 203.212 9.26326 203.226 9.92664C203.241 10.6809 203.232 11.437 203.232 12.1932C203.232 19.1864 203.232 26.1816 203.232 33.1748C203.232 33.7868 203.433 34.1165 203.882 34.2468C204.422 34.4048 204.968 34.0415 205.019 33.4808C205.039 33.2695 205.029 33.0543 205.029 32.8411C205.029 25.2892 205.029 17.7372 205.029 10.1833C205.029 9.94046 205.013 9.69959 205.128 9.46069C205.278 9.1448 205.492 8.96908 205.847 8.96908C208.146 8.96908 210.444 8.96513 212.742 8.97303C213.292 8.97303 213.501 9.23759 213.501 9.88518C213.501 13.9563 213.501 18.0294 213.501 22.1006C213.495 22.1006 213.487 22.1006 213.481 22.1006L213.478 22.1045Z" fill="#FEFDFC"/>
<path d="M223.882 31.1388C223.882 30.3826 223.89 29.6284 223.878 28.8742C223.872 28.58 223.972 28.4497 224.276 28.4734C224.615 28.4991 224.966 28.4182 225.273 28.6472C225.539 28.8466 225.701 29.0796 225.697 29.429C225.689 30.5781 225.697 31.7272 225.691 32.8763C225.687 33.4469 225.358 33.7845 224.792 33.822C224.629 33.8338 224.463 33.822 224.3 33.8378C223.972 33.8674 223.87 33.7173 223.876 33.4034C223.89 32.6492 223.88 31.893 223.88 31.1388H223.882Z" fill="#D74C3A"/>
<path d="M223.881 19.2117C223.881 18.6213 223.893 18.029 223.877 17.4387C223.869 17.1208 223.986 16.9807 224.307 17.0083C224.486 17.0241 224.668 17.0103 224.847 17.0241C225.371 17.0616 225.687 17.3834 225.693 17.9086C225.703 18.7457 225.701 19.5829 225.693 20.42C225.687 21.038 225.338 21.3835 224.711 21.3855C223.765 21.3855 223.889 21.4782 223.881 20.5898C223.877 20.1298 223.881 19.6717 223.881 19.2117Z" fill="#D74C3A"/>
</svg>
