<svg width="284" height="47" viewBox="0 0 284 47" fill="none" xmlns="http://www.w3.org/2000/svg">
<path d="M81.0417 17.8963V14.1797H61.8086V32.3732H81.0417V28.6565H66.4869V24.9658H81.0417V21.587H66.4869V17.8963H81.0417Z" fill="#2D3748"/>
<path d="M103.984 32.3732H109.156L99.7471 14.1797H93.4314L84.0488 32.3732H89.1949L91.1442 28.5006H102.034L103.984 32.3732ZM92.8856 25.0178L96.6022 17.6364L100.293 25.0178H92.8856Z" fill="#2D3748"/>
<path d="M133.09 20.8593C133.09 16.8047 130.257 14.1797 126.125 14.1797H111.83V32.3732H116.508V27.5129H124.046L126.983 32.3732H132.493L129.14 26.9671C131.583 26.0054 133.09 23.8223 133.09 20.8593ZM116.508 18.1043H124.825C126.229 18.1043 128.412 18.1043 128.412 20.8593C128.412 23.5883 126.229 23.5883 124.825 23.5883H116.508V18.1043Z" fill="#2D3748"/>
<path d="M154.951 14.1797V27.8508L142.527 14.1797H136.186V32.3732H140.864V18.728L153.261 32.3732H159.629V14.1797H154.951Z" fill="#2D3748"/>
<path d="M182.51 18.1043V14.1797H163.277V32.3732H167.955V26.6812H180.951V22.7306H167.955V18.1043H182.51Z" fill="#2D3748"/>
<path d="M196.217 32.6332C204.196 32.6332 207.653 29.2804 207.653 23.2506C207.653 17.2467 204.196 13.9199 196.217 13.9199C188.211 13.9199 184.781 17.2207 184.781 23.2506C184.781 29.3063 188.211 32.6332 196.217 32.6332ZM196.217 28.7086C191.356 28.7086 189.459 26.9932 189.459 23.2506C189.459 19.5339 191.331 17.8445 196.217 17.8445C201.102 17.8445 202.974 19.5599 202.974 23.2506C202.974 26.9672 201.077 28.7086 196.217 28.7086Z" fill="#2D3748"/>
<path d="M232.176 20.8593C232.176 16.8047 229.344 14.1797 225.211 14.1797H210.916V32.3732H215.594V27.5129H223.131L226.068 32.3732H231.579L228.226 26.9671C230.668 26.0054 232.176 23.8223 232.176 20.8593ZM215.594 18.1043H223.911C225.315 18.1043 227.497 18.1043 227.497 20.8593C227.497 23.5883 225.315 23.5883 223.911 23.5883H215.594V18.1043Z" fill="#2D3748"/>
<path d="M254.499 17.8963V14.1797H235.266V32.3732H254.499V28.6565H239.944V24.9658H254.499V21.587H239.944V17.8963H254.499Z" fill="#2D3748"/>
<path d="M257.176 32.3732H263.621L270.587 26.1353L277.527 32.3732H283.998L273.758 23.2764L283.998 14.1797H277.527L270.587 20.4174L263.621 14.1797H257.176L267.417 23.2764L257.176 32.3732Z" fill="#2D3748"/>
<g clip-path="url(#clip0_1559_16367)">
<path d="M0 0H33.4914V9.21897H24.0726H20.6999H12.7012V18.4804H33.4838V27.7107H12.7192V36.922H46.1793V46.1793H0V0Z" fill="#088A7E"/>
<path d="M33.4782 0H46.1807V18.6682V36.922H12.7107V27.7068H33.4782V18.4804H12.7017V9.21877H33.4782V0Z" fill="#4FD1C5"/>
</g>
<defs>
<clipPath id="clip0_1559_16367">
<rect width="47.3338" height="46.1793" fill="white"/>
</clipPath>
</defs>
</svg>
