<svg width="180" height="83" viewBox="0 0 180 83" fill="none" xmlns="http://www.w3.org/2000/svg">
<path d="M13.4922 79.0293V69.3428H15.0537L17.0342 74.3066C17.1696 74.6621 17.3431 75.1445 17.5547 75.7539C17.7663 76.3548 17.889 76.6976 17.9229 76.7822H17.9736C18.016 76.6553 18.3249 75.8301 18.9004 74.3066L20.8555 69.3428H22.4424V79.0293H21.2109V73.9258C21.2109 73.1133 21.2575 72.1315 21.3506 70.9805H21.2998L20.7412 72.5293L18.4688 78.3691H17.4658L15.1934 72.5293L14.6094 70.9678H14.5586C14.6686 72.2881 14.7236 73.2741 14.7236 73.9258V79.0293H13.4922Z" fill="#002D3B"/>
<path d="M25.245 77.1758C25.245 77.4805 25.372 77.7386 25.6259 77.9502C25.8798 78.1618 26.2225 78.2676 26.6542 78.2676C27.2297 78.2676 27.7164 78.0814 28.1141 77.709C28.5204 77.3366 28.7235 76.8584 28.7235 76.2744V75.4111C28.385 75.4958 27.8348 75.5973 27.0731 75.7158C25.8544 75.9189 25.245 76.4056 25.245 77.1758ZM24.0516 77.2773C24.0516 75.9655 25.0461 75.1572 27.035 74.8525C27.8983 74.7171 28.4611 74.6071 28.7235 74.5225V74.1289C28.7235 73.7227 28.5796 73.3926 28.2919 73.1387C28.0126 72.8848 27.6148 72.7578 27.0985 72.7578C26.6923 72.7578 26.2987 72.8551 25.9179 73.0498C25.5455 73.236 25.2323 73.4857 24.9784 73.7988L24.2294 73.1641C24.5764 72.7493 24.9996 72.4193 25.4989 72.1738C25.9983 71.9284 26.523 71.8057 27.0731 71.8057C28.9605 71.8057 29.9042 72.7367 29.9042 74.5986V79.0293H28.7616V77.9756C28.6177 78.3226 28.3427 78.623 27.9364 78.877C27.5302 79.1309 27.052 79.2578 26.5018 79.2578C25.7317 79.2578 25.1307 79.0758 24.6991 78.7119C24.2675 78.3395 24.0516 77.8613 24.0516 77.2773Z" fill="#002D3B"/>
<path d="M31.7293 79.0293V69H32.9226V75.2969L35.7664 72.0342H37.3025L34.7761 74.8525L37.5437 79.0293H36.1218L34.0144 75.6777L32.9226 76.8965V79.0293H31.7293Z" fill="#002D3B"/>
<path d="M37.7057 75.4873C37.7057 74.387 38.0062 73.4984 38.6071 72.8213C39.208 72.1442 39.9782 71.8057 40.9176 71.8057C41.8571 71.8057 42.6061 72.14 43.1647 72.8086C43.7317 73.4772 44.0153 74.332 44.0153 75.373C44.0153 75.5085 44.0068 75.6947 43.9899 75.9316H38.9118C38.9118 76.5749 39.0937 77.1292 39.4577 77.5947C39.8301 78.0518 40.3379 78.2803 40.9811 78.2803C41.8444 78.2803 42.4749 77.9079 42.8727 77.1631L43.8756 77.4805C43.6556 77.9967 43.2959 78.4242 42.7965 78.7627C42.3056 79.0928 41.6963 79.2578 40.9684 79.2578C39.9951 79.2578 39.208 78.915 38.6071 78.2295C38.0062 77.5355 37.7057 76.6214 37.7057 75.4873ZM38.9371 75.0557H42.8092C42.8092 74.4209 42.6399 73.8835 42.3014 73.4434C41.9629 73.0033 41.5016 72.7832 40.9176 72.7832C40.3252 72.7832 39.8512 73.0117 39.4957 73.4688C39.1403 73.9173 38.9541 74.4463 38.9371 75.0557Z" fill="#002D3B"/>
<path d="M48.6811 79.0293V69.3428H49.9125V79.0293H48.6811Z" fill="#002D3B"/>
<path d="M51.2679 73.0371V72.0342H52.4485V69.8506H53.6419V72.0342H55.3938V73.0371H53.6419V76.9092C53.6419 77.307 53.718 77.5905 53.8704 77.7598C54.0227 77.929 54.2639 78.0137 54.594 78.0137H55.4065V79.0293H54.4417C53.1129 79.0293 52.4485 78.3564 52.4485 77.0107V73.0371H51.2679Z" fill="#002D3B"/>
<path d="M59.958 79.0293V69.3428H61.1895V73.5322H65.6582V69.3428H66.8897V79.0293H65.6582V74.5605H61.1895V79.0293H59.958Z" fill="#002D3B"/>
<path d="M69.705 77.1758C69.705 77.4805 69.832 77.7386 70.0859 77.9502C70.3398 78.1618 70.6825 78.2676 71.1142 78.2676C71.6897 78.2676 72.1764 78.0814 72.5741 77.709C72.9804 77.3366 73.1835 76.8584 73.1835 76.2744V75.4111C72.845 75.4958 72.2948 75.5973 71.5331 75.7158C70.3144 75.9189 69.705 76.4056 69.705 77.1758ZM68.5116 77.2773C68.5116 75.9655 69.5061 75.1572 71.495 74.8525C72.3583 74.7171 72.9211 74.6071 73.1835 74.5225V74.1289C73.1835 73.7227 73.0396 73.3926 72.7519 73.1387C72.4726 72.8848 72.0748 72.7578 71.5585 72.7578C71.1523 72.7578 70.7587 72.8551 70.3779 73.0498C70.0055 73.236 69.6923 73.4857 69.4384 73.7988L68.6894 73.1641C69.0364 72.7493 69.4596 72.4193 69.9589 72.1738C70.4583 71.9284 70.983 71.8057 71.5331 71.8057C73.4205 71.8057 74.3642 72.7367 74.3642 74.5986V79.0293H73.2216V77.9756C73.0777 78.3226 72.8027 78.623 72.3964 78.877C71.9902 79.1309 71.512 79.2578 70.9618 79.2578C70.1917 79.2578 69.5907 79.0758 69.1591 78.7119C68.7275 78.3395 68.5116 77.8613 68.5116 77.2773Z" fill="#002D3B"/>
<path d="M77.3445 75.5254C77.3445 76.3464 77.5053 77.0065 77.827 77.5059C78.157 78.0052 78.6141 78.2549 79.198 78.2549C79.7482 78.2549 80.201 78.0137 80.5564 77.5312C80.9204 77.0404 81.1023 76.3717 81.1023 75.5254C81.1023 74.7214 80.9288 74.0697 80.5818 73.5703C80.2433 73.0625 79.782 72.8086 79.198 72.8086C78.6395 72.8086 78.1909 73.0625 77.8523 73.5703C77.5138 74.0781 77.3445 74.7298 77.3445 75.5254ZM76.1639 82.0127V72.0342H77.3064V73.1768C77.5011 72.7705 77.7762 72.4404 78.1316 72.1865C78.4956 71.9326 78.9061 71.8057 79.3631 71.8057C80.2179 71.8057 80.9204 72.1442 81.4705 72.8213C82.0291 73.4899 82.3084 74.3913 82.3084 75.5254C82.3084 76.7441 82.0122 77.6709 81.4197 78.3057C80.8357 78.9404 80.1502 79.2578 79.3631 79.2578C78.8637 79.2578 78.4406 79.1351 78.0936 78.8896C77.7465 78.6357 77.4969 78.3268 77.3445 77.9629V82.0127H76.1639Z" fill="#002D3B"/>
<path d="M84.9206 75.5254C84.9206 76.3464 85.0814 77.0065 85.403 77.5059C85.7331 78.0052 86.1901 78.2549 86.7741 78.2549C87.3242 78.2549 87.777 78.0137 88.1325 77.5312C88.4964 77.0404 88.6784 76.3717 88.6784 75.5254C88.6784 74.7214 88.5049 74.0697 88.1579 73.5703C87.8194 73.0625 87.3581 72.8086 86.7741 72.8086C86.2155 72.8086 85.7669 73.0625 85.4284 73.5703C85.0899 74.0781 84.9206 74.7298 84.9206 75.5254ZM83.7399 82.0127V72.0342H84.8825V73.1768C85.0772 72.7705 85.3522 72.4404 85.7077 72.1865C86.0716 71.9326 86.4821 71.8057 86.9391 71.8057C87.794 71.8057 88.4964 72.1442 89.0466 72.8213C89.6052 73.4899 89.8845 74.3913 89.8845 75.5254C89.8845 76.7441 89.5882 77.6709 88.9958 78.3057C88.4118 78.9404 87.7262 79.2578 86.9391 79.2578C86.4398 79.2578 86.0166 79.1351 85.6696 78.8896C85.3226 78.6357 85.0729 78.3268 84.9206 77.9629V82.0127H83.7399Z" fill="#002D3B"/>
<path d="M90.7955 75.4873C90.7955 74.387 91.0959 73.4984 91.6968 72.8213C92.2978 72.1442 93.0679 71.8057 94.0074 71.8057C94.9468 71.8057 95.6959 72.14 96.2545 72.8086C96.8215 73.4772 97.105 74.332 97.105 75.373C97.105 75.5085 97.0966 75.6947 97.0797 75.9316H92.0015C92.0015 76.5749 92.1835 77.1292 92.5474 77.5947C92.9198 78.0518 93.4276 78.2803 94.0709 78.2803C94.9341 78.2803 95.5647 77.9079 95.9625 77.1631L96.9654 77.4805C96.7453 77.9967 96.3856 78.4242 95.8863 78.7627C95.3954 79.0928 94.786 79.2578 94.0582 79.2578C93.0849 79.2578 92.2978 78.915 91.6968 78.2295C91.0959 77.5355 90.7955 76.6214 90.7955 75.4873ZM92.0269 75.0557H95.899C95.899 74.4209 95.7297 73.8835 95.3912 73.4434C95.0526 73.0033 94.5914 72.7832 94.0074 72.7832C93.4149 72.7832 92.941 73.0117 92.5855 73.4688C92.23 73.9173 92.0438 74.4463 92.0269 75.0557Z" fill="#002D3B"/>
<path d="M98.435 79.0293V72.0342H99.603V73.126H99.6157C99.7257 72.8128 99.9669 72.5166 100.339 72.2373C100.72 71.9495 101.186 71.8057 101.736 71.8057C102.404 71.8057 102.946 72.013 103.361 72.4277C103.784 72.8424 103.996 73.5365 103.996 74.5098V79.0293H102.789V74.7002C102.789 73.4391 102.349 72.8086 101.469 72.8086C100.97 72.8086 100.538 73.016 100.174 73.4307C99.8188 73.8369 99.6411 74.3278 99.6411 74.9033V79.0293H98.435Z" fill="#002D3B"/>
<path d="M0 76.2969V75H7.5V76.2969H0Z" fill="#002D3B"/>
<path d="M0 2.89132H14.3626V6.69288H9.58398V22.0865H4.79199V6.69288H0V2.89132Z" fill="#002D3B"/>
<path d="M31.829 22.0865H27.344V14.5503C27.344 13.2207 27.0993 12.2301 26.6098 11.5787C26.1293 10.9183 25.3684 10.5881 24.3273 10.5881C23.2772 10.5881 22.4452 10.9451 21.8312 11.659C21.2172 12.3818 20.9102 13.3456 20.9102 14.5503V22.0865H16.4252V1.52598H20.9102V9.00861C21.3106 8.30363 21.9424 7.75481 22.8056 7.36216C23.6777 6.96952 24.701 6.77319 25.8757 6.77319C28.0114 6.77319 29.5375 7.43355 30.4541 8.75428C31.3707 10.075 31.829 12.007 31.829 14.5503V22.0865Z" fill="#002D3B"/>
<path d="M41.807 6.77319C43.0172 6.77319 44.1385 6.97844 45.1707 7.38894C46.203 7.79943 47.0839 8.3884 47.8136 9.15585C48.5433 9.9233 49.0862 10.8871 49.4421 12.0472C49.807 13.1984 49.9405 14.4611 49.8426 15.8353H38.203C38.4254 16.7277 38.8704 17.4461 39.5378 17.9905C40.1874 18.5259 40.9438 18.7936 41.807 18.7936C43.3287 18.7936 44.4588 18.0574 45.1974 16.5849L49.015 18.4456C48.3209 19.6681 47.3287 20.6185 46.0383 21.2967C44.748 21.9749 43.3376 22.314 41.807 22.314C39.5289 22.314 37.6023 21.6358 36.0272 20.2794C35.253 19.6191 34.6479 18.7936 34.2119 17.8031C33.7758 16.8125 33.5578 15.7283 33.5578 14.5503C33.5578 13.3724 33.7758 12.2881 34.2119 11.2976C34.6479 10.2981 35.253 9.46819 36.0272 8.80783C37.6201 7.4514 39.5467 6.77319 41.807 6.77319ZM44.1562 11.0834C43.5066 10.5569 42.7235 10.2936 41.807 10.2936C40.8726 10.2936 40.0895 10.5569 39.4577 11.0834C38.817 11.6099 38.3943 12.3372 38.1896 13.2653H45.4243C45.2108 12.355 44.7881 11.6278 44.1562 11.0834Z" fill="#002D3B"/>
<path d="M58.3459 22.0865V2.89132H71.7474V6.69288H63.1245V10.7354H70.9198V14.5503H63.1245V18.2849H72.1612V22.0865H58.3459Z" fill="#002D3B"/>
<path d="M94.4462 6.77319C96.5375 6.77319 98.0102 7.46925 98.8645 8.86137C99.6476 10.1553 100.039 12.0516 100.039 14.5503V22.0865H95.5541V14.5503C95.5541 11.9089 94.6376 10.5881 92.8044 10.5881C91.7989 10.5881 91.0158 10.9406 90.4551 11.6456C89.9034 12.3506 89.6276 13.3188 89.6276 14.5503V22.0865H85.1426V14.5503C85.1426 11.9089 84.2349 10.5881 82.4196 10.5881C81.414 10.5881 80.6309 10.9406 80.0703 11.6456C79.5186 12.3506 79.2427 13.3188 79.2427 14.5503V22.0865H74.7577V7.01413H79.0425L79.2427 9.00861C80.0169 7.51833 81.6231 6.77319 84.0614 6.77319C86.5352 6.77319 88.1682 7.80389 88.9602 9.8653C89.9835 7.80389 91.8122 6.77319 94.4462 6.77319Z" fill="#002D3B"/>
<path d="M104.558 5.2606C103.828 5.2606 103.21 5.00181 102.702 4.48423C102.186 3.96664 101.928 3.34644 101.928 2.62361C101.928 1.90078 102.186 1.28057 102.702 0.762988C103.21 0.254329 103.828 0 104.558 0C105.27 0 105.884 0.254329 106.4 0.762988C106.907 1.28949 107.161 1.9097 107.161 2.62361C107.161 3.33751 106.907 3.95772 106.4 4.48423C105.884 5.00181 105.27 5.2606 104.558 5.2606ZM102.302 22.0865V7.01413H106.787V22.0865H102.302Z" fill="#002D3B"/>
<path d="M109.263 22.0865V7.01413H113.548L113.748 8.79444C114.255 8.08053 114.901 7.56741 115.684 7.25508C116.476 6.93382 117.486 6.77319 118.714 6.77319V10.5881C117.103 10.5881 115.871 10.9362 115.016 11.6322C114.171 12.3283 113.748 13.301 113.748 14.5503V22.0865H109.263Z" fill="#002D3B"/>
<path d="M126.116 6.77319C127.29 6.77319 128.314 6.96952 129.186 7.36216C130.067 7.75481 130.712 8.30363 131.121 9.00861L131.308 7.01413H135.593V22.0865H131.308L131.121 20.0786C130.329 21.5689 128.661 22.314 126.116 22.314C124.843 22.3408 123.668 22.024 122.592 21.3637C121.515 20.7033 120.661 19.7708 120.029 18.566C119.397 17.3613 119.09 16.0227 119.108 14.5503C119.099 13.4438 119.277 12.4041 119.642 11.4314C120.007 10.4498 120.505 9.61989 121.137 8.94168C121.769 8.25455 122.516 7.71912 123.379 7.33539C124.251 6.94274 125.163 6.75534 126.116 6.77319ZM124.687 17.4015C125.408 18.1422 126.298 18.5125 127.357 18.5125C128.407 18.5125 129.301 18.1422 130.04 17.4015C130.761 16.6697 131.121 15.7193 131.121 14.5503C131.121 13.3813 130.761 12.4264 130.04 11.6858C129.31 10.954 128.416 10.5881 127.357 10.5881C126.298 10.5881 125.408 10.954 124.687 11.6858C123.967 12.4264 123.606 13.3813 123.606 14.5503C123.606 15.7193 123.967 16.6697 124.687 17.4015Z" fill="#002D3B"/>
<path d="M139.644 7.01413V3.64092H144.116V7.01413H147.666V10.5078H144.116V16.5314C144.116 17.6023 144.521 18.2225 145.331 18.392C145.945 18.5883 146.723 18.5928 147.666 18.4054V22.0865C146.634 22.2382 145.669 22.314 144.77 22.314C142.937 22.314 141.624 21.8589 140.832 20.9487C140.04 20.0295 139.644 18.6107 139.644 16.692V10.5078H137.709V7.01413H139.644Z" fill="#002D3B"/>
<path d="M156.977 6.77319C158.187 6.77319 159.309 6.97844 160.341 7.38894C161.373 7.79943 162.254 8.3884 162.984 9.15585C163.713 9.9233 164.256 10.8871 164.612 12.0472C164.977 13.1984 165.111 14.4611 165.013 15.8353H153.373C153.596 16.7277 154.04 17.4461 154.708 17.9905C155.357 18.5259 156.114 18.7936 156.977 18.7936C158.499 18.7936 159.629 18.0574 160.367 16.5849L164.185 18.4456C163.491 19.6681 162.499 20.6185 161.208 21.2967C159.918 21.9749 158.508 22.314 156.977 22.314C154.699 22.314 152.772 21.6358 151.197 20.2794C150.423 19.6191 149.818 18.7936 149.382 17.8031C148.946 16.8125 148.728 15.7283 148.728 14.5503C148.728 13.3724 148.946 12.2881 149.382 11.2976C149.818 10.2981 150.423 9.46819 151.197 8.80783C152.79 7.4514 154.717 6.77319 156.977 6.77319ZM159.326 11.0834C158.677 10.5569 157.894 10.2936 156.977 10.2936C156.043 10.2936 155.26 10.5569 154.628 11.0834C153.987 11.6099 153.564 12.3372 153.36 13.2653H160.594C160.381 12.355 159.958 11.6278 159.326 11.0834Z" fill="#002D3B"/>
<path d="M179.609 11.0834L175.124 11.3243C175.053 10.9138 174.835 10.5703 174.47 10.2936C174.105 10.0081 173.665 9.8653 173.149 9.8653C172.517 9.8653 172.018 9.98577 171.654 10.2267C171.289 10.4587 171.106 10.7889 171.106 11.2173C171.106 11.4939 171.213 11.7393 171.427 11.9535C171.649 12.1676 171.925 12.3327 172.254 12.4487C172.557 12.5558 172.962 12.6763 173.469 12.8102C175.053 13.1939 176.285 13.5553 177.166 13.8944C177.691 14.0907 178.123 14.3049 178.461 14.5369C179.538 15.2598 180.05 16.2548 179.996 17.5219C179.943 19.0658 179.333 20.2526 178.168 21.0826C177.002 21.9036 175.347 22.314 173.202 22.314C171.129 22.314 169.482 21.9169 168.263 21.1227C167.044 20.3374 166.377 19.1996 166.261 17.7094L170.733 17.3747C170.839 17.9191 171.12 18.3519 171.574 18.6731C172.036 18.9944 172.579 19.155 173.202 19.155C173.878 19.155 174.426 19.0212 174.844 18.7534C175.271 18.4857 175.485 18.1243 175.485 17.6692C175.485 16.7947 174.426 16.1254 172.308 15.6613C171.249 15.3936 170.519 15.1973 170.119 15.0724C169.522 14.885 168.997 14.6797 168.543 14.4566C168.045 14.2246 167.671 13.9569 167.422 13.6535C166.888 13.0199 166.621 12.181 166.621 11.1369C166.621 9.71806 167.195 8.63827 168.343 7.89759C169.5 7.14799 171.137 6.77319 173.255 6.77319C175.186 6.77319 176.704 7.14353 177.807 7.88421C178.911 8.61596 179.511 9.68236 179.609 11.0834Z" fill="#002D3B"/>
<path d="M0 35.5773H14.3626V39.3788H9.58398V54.7724H4.79199V39.3788H0V35.5773Z" fill="#002D3B"/>
<path d="M18.5208 37.9465C17.7911 37.9465 17.1727 37.6878 16.6654 37.1702C16.1493 36.6526 15.8913 36.0324 15.8913 35.3096C15.8913 34.5867 16.1493 33.9665 16.6654 33.4489C17.1727 32.9403 17.7911 32.6859 18.5208 32.6859C19.2327 32.6859 19.8468 32.9403 20.3629 33.4489C20.8701 33.9754 21.1237 34.5956 21.1237 35.3096C21.1237 36.0235 20.8701 36.6437 20.3629 37.1702C19.8468 37.6878 19.2327 37.9465 18.5208 37.9465ZM16.265 54.7724V39.7001H20.75V54.7724H16.265Z" fill="#002D3B"/>
<path d="M42.9149 39.4591C45.0061 39.4591 46.4788 40.1552 47.3331 41.5473C48.1162 42.8413 48.5078 44.7376 48.5078 47.2363V54.7724H44.0228V47.2363C44.0228 44.5948 43.1062 43.2741 41.273 43.2741C40.2675 43.2741 39.4844 43.6266 38.9238 44.3316C38.372 45.0365 38.0962 46.0048 38.0962 47.2363V54.7724H33.6112V47.2363C33.6112 44.5948 32.7035 43.2741 30.8882 43.2741C29.8826 43.2741 29.0995 43.6266 28.5389 44.3316C27.9872 45.0365 27.7113 46.0048 27.7113 47.2363V54.7724H23.2263V39.7001H27.5111L27.7113 41.6946C28.4855 40.2043 30.0917 39.4591 32.53 39.4591C35.0039 39.4591 36.6368 40.4898 37.4288 42.5512C38.4521 40.4898 40.2808 39.4591 42.9149 39.4591Z" fill="#002D3B"/>
<path d="M58.4858 39.4591C59.696 39.4591 60.8172 39.6644 61.8495 40.0749C62.8818 40.4854 63.7627 41.0744 64.4924 41.8418C65.2221 42.6093 65.765 43.573 66.1209 44.7331C66.4858 45.8843 66.6192 47.147 66.5214 48.5213H54.8818C55.1042 49.4137 55.5492 50.132 56.2166 50.6764C56.8662 51.2118 57.6226 51.4795 58.4858 51.4795C60.0075 51.4795 61.1376 50.7433 61.8762 49.2709L65.6938 51.1315C64.9997 52.3541 64.0075 53.3045 62.7171 53.9827C61.4268 54.6609 60.0164 55 58.4858 55C56.2077 55 54.2811 54.3218 52.706 52.9654C51.9318 52.305 51.3267 51.4795 50.8907 50.489C50.4546 49.4985 50.2366 48.4142 50.2366 47.2363C50.2366 46.0583 50.4546 44.9741 50.8907 43.9835C51.3267 42.9841 51.9318 42.1541 52.706 41.4938C54.2989 40.1374 56.2255 39.4591 58.4858 39.4591ZM60.835 43.7694C60.1854 43.2428 59.4023 42.9796 58.4858 42.9796C57.5514 42.9796 56.7683 43.2428 56.1365 43.7694C55.4958 44.2959 55.0731 45.0232 54.8684 45.9512H62.1031C61.8896 45.041 61.4669 44.3137 60.835 43.7694Z" fill="#002D3B"/>
<path d="M81.1178 43.7694L76.6329 44.0103C76.5617 43.5998 76.3437 43.2562 75.9788 42.9796C75.614 42.694 75.1735 42.5512 74.6573 42.5512C74.0255 42.5512 73.5272 42.6717 73.1623 42.9127C72.7975 43.1447 72.6151 43.4749 72.6151 43.9032C72.6151 44.1798 72.7218 44.4253 72.9354 44.6394C73.1579 44.8536 73.4338 45.0187 73.763 45.1347C74.0656 45.2418 74.4705 45.3623 74.9777 45.4961C76.5617 45.8798 77.7942 46.2413 78.6751 46.5804C79.2002 46.7767 79.6317 46.9909 79.9699 47.2229C81.0467 47.9457 81.5583 48.9407 81.5049 50.2079C81.4515 51.7517 80.842 52.9386 79.6762 53.7685C78.5105 54.5895 76.8553 55 74.7107 55C72.6373 55 70.991 54.6029 69.7719 53.8087C68.5528 53.0234 67.8854 51.8856 67.7697 50.3953L72.2413 50.0607C72.3481 50.605 72.6284 51.0378 73.0823 51.3591C73.545 51.6803 74.0878 51.841 74.7107 51.841C75.387 51.841 75.9343 51.7071 76.3525 51.4394C76.7797 51.1717 76.9933 50.8103 76.9933 50.3551C76.9933 49.4806 75.9343 48.8113 73.8164 48.3473C72.7574 48.0796 72.0277 47.8832 71.6273 47.7583C71.0311 47.5709 70.5061 47.3657 70.0522 47.1426C69.5539 46.9105 69.1801 46.6428 68.931 46.3394C68.397 45.7058 68.1301 44.867 68.1301 43.8229C68.1301 42.404 68.7041 41.3242 69.852 40.5835C71.0088 39.8339 72.6462 39.4591 74.7641 39.4591C76.6952 39.4591 78.2124 39.8295 79.3158 40.5702C80.4193 41.3019 81.02 42.3683 81.1178 43.7694Z" fill="#002D3B"/>
</svg>
