<svg width="262" height="42" viewBox="0 0 262 42" fill="none" xmlns="http://www.w3.org/2000/svg">
<path d="M120.369 3.98047C121.166 3.98047 121.859 4.27514 122.449 4.86447C123.073 5.4538 123.385 6.1818 123.385 7.04847C123.385 7.91514 123.073 8.66047 122.449 9.28447C121.859 9.8738 121.166 10.1685 120.369 10.1685H110.905V15.9925H119.329C120.195 15.9925 120.941 16.2871 121.565 16.8765C122.189 17.4311 122.501 18.1938 122.501 19.1645C122.501 19.9965 122.189 20.7245 121.565 21.3485C120.941 21.9378 120.195 22.2325 119.329 22.2325H110.905V33.9325C110.905 35.9778 109.865 37.0005 107.785 37.0005C105.739 37.0005 104.717 35.9778 104.717 33.9325V7.04847C104.717 6.1818 104.994 5.4538 105.549 4.86447C106.138 4.27514 106.883 3.98047 107.785 3.98047H120.369Z" fill="#3861AF"/>
<path d="M135.427 19.9965C134.63 19.9965 133.902 20.1525 133.243 20.4645C132.584 20.7765 132.012 21.2098 131.527 21.7645C131.076 22.2845 130.712 22.9085 130.435 23.6365C130.158 24.3298 130.019 25.0578 130.019 25.8205C130.019 26.6178 130.158 27.3631 130.435 28.0565C130.712 28.7498 131.076 29.3565 131.527 29.8765C132.012 30.3965 132.584 30.8125 133.243 31.1245C133.902 31.4365 134.63 31.5925 135.427 31.5925C137.022 31.5925 138.322 31.0378 139.327 29.9285C140.332 28.7845 140.835 27.4151 140.835 25.8205C140.835 25.0578 140.696 24.3298 140.419 23.6365C140.176 22.9085 139.812 22.2845 139.327 21.7645C138.842 21.2098 138.27 20.7765 137.611 20.4645C136.952 20.1525 136.224 19.9965 135.427 19.9965ZM146.659 34.6085C146.659 35.4058 146.364 36.0991 145.775 36.6885C145.186 37.2431 144.51 37.5205 143.747 37.5205C142.291 37.5205 141.407 36.7405 141.095 35.1805C140.402 36.0818 139.535 36.6885 138.495 37.0005C137.455 37.2778 136.432 37.4165 135.427 37.4165C133.832 37.4165 132.342 37.1218 130.955 36.5325C129.603 35.9085 128.424 35.0765 127.419 34.0365C126.414 32.9965 125.616 31.7831 125.027 30.3965C124.472 28.9751 124.195 27.4498 124.195 25.8205C124.195 24.1565 124.472 22.6311 125.027 21.2445C125.582 19.8231 126.344 18.5925 127.315 17.5525C128.286 16.5125 129.412 15.6978 130.695 15.1085C132.012 14.5191 133.434 14.2245 134.959 14.2245C136.276 14.2245 137.455 14.4151 138.495 14.7965C139.57 15.1431 140.454 15.7325 141.147 16.5645C141.39 15.7671 141.736 15.2125 142.187 14.9005C142.672 14.5538 143.21 14.3805 143.799 14.3805C144.7 14.3805 145.394 14.6751 145.879 15.2645C146.399 15.8191 146.659 16.5298 146.659 17.3965V34.6085Z" fill="#3861AF"/>
<path d="M163.208 14.9005C164.214 14.9005 164.942 15.2298 165.392 15.8885C165.843 16.5125 166.068 17.1711 166.068 17.8645C166.068 18.1071 166.016 18.3671 165.912 18.6445C165.843 18.8871 165.67 19.1991 165.392 19.5805L157.436 31.1765H164.144C166.155 31.1765 167.16 32.1645 167.16 34.1405C167.16 36.0471 166.155 37.0005 164.144 37.0005H152.808C151.699 37.0005 150.867 36.7405 150.312 36.2205C149.758 35.6658 149.48 34.9205 149.48 33.9845C149.48 33.2911 149.74 32.5458 150.26 31.7485L157.748 20.6725H152.652C150.607 20.6725 149.584 19.7191 149.584 17.8125C149.584 15.8711 150.607 14.9005 152.652 14.9005H163.208Z" fill="#3861AF"/>
<path d="M183.509 14.9005C184.514 14.9005 185.242 15.2298 185.693 15.8885C186.143 16.5125 186.369 17.1711 186.369 17.8645C186.369 18.1071 186.317 18.3671 186.213 18.6445C186.143 18.8871 185.97 19.1991 185.693 19.5805L177.737 31.1765H184.445C186.455 31.1765 187.461 32.1645 187.461 34.1405C187.461 36.0471 186.455 37.0005 184.445 37.0005H173.109C171.999 37.0005 171.167 36.7405 170.613 36.2205C170.058 35.6658 169.781 34.9205 169.781 33.9845C169.781 33.2911 170.041 32.5458 170.561 31.7485L178.049 20.6725H172.953C170.907 20.6725 169.885 19.7191 169.885 17.8125C169.885 15.8711 170.907 14.9005 172.953 14.9005H183.509Z" fill="#3861AF"/>
<path d="M200.949 19.9965C200.152 19.9965 199.424 20.1525 198.765 20.4645C198.106 20.7765 197.534 21.2098 197.049 21.7645C196.598 22.2845 196.234 22.9085 195.957 23.6365C195.68 24.3298 195.541 25.0578 195.541 25.8205C195.541 26.6178 195.68 27.3631 195.957 28.0565C196.234 28.7498 196.598 29.3565 197.049 29.8765C197.534 30.3965 198.106 30.8125 198.765 31.1245C199.424 31.4365 200.152 31.5925 200.949 31.5925C202.544 31.5925 203.844 31.0378 204.849 29.9285C205.854 28.7845 206.357 27.4151 206.357 25.8205C206.357 25.0578 206.218 24.3298 205.941 23.6365C205.698 22.9085 205.334 22.2845 204.849 21.7645C204.364 21.2098 203.792 20.7765 203.133 20.4645C202.474 20.1525 201.746 19.9965 200.949 19.9965ZM212.181 34.6085C212.181 35.4058 211.886 36.0991 211.297 36.6885C210.708 37.2431 210.032 37.5205 209.269 37.5205C207.813 37.5205 206.929 36.7405 206.617 35.1805C205.924 36.0818 205.057 36.6885 204.017 37.0005C202.977 37.2778 201.954 37.4165 200.949 37.4165C199.354 37.4165 197.864 37.1218 196.477 36.5325C195.125 35.9085 193.946 35.0765 192.941 34.0365C191.936 32.9965 191.138 31.7831 190.549 30.3965C189.994 28.9751 189.717 27.4498 189.717 25.8205C189.717 24.1565 189.994 22.6311 190.549 21.2445C191.104 19.8231 191.866 18.5925 192.837 17.5525C193.808 16.5125 194.934 15.6978 196.217 15.1085C197.534 14.5191 198.956 14.2245 200.481 14.2245C201.798 14.2245 202.977 14.4151 204.017 14.7965C205.092 15.1431 205.976 15.7325 206.669 16.5645C206.912 15.7671 207.258 15.2125 207.709 14.9005C208.194 14.5538 208.732 14.3805 209.321 14.3805C210.222 14.3805 210.916 14.6751 211.401 15.2645C211.921 15.8191 212.181 16.5298 212.181 17.3965V34.6085Z" fill="#3861AF"/>
<path d="M214.638 25.8205C214.638 24.1565 214.933 22.6311 215.522 21.2445C216.146 19.8231 216.978 18.5925 218.018 17.5525C219.058 16.5125 220.272 15.6978 221.658 15.1085C223.08 14.5191 224.605 14.2245 226.234 14.2245C227.17 14.2245 228.158 14.3631 229.198 14.6405C230.273 14.8831 231.261 15.2471 232.162 15.7325C233.098 16.1831 233.861 16.7378 234.45 17.3965C235.04 18.0551 235.334 18.7831 235.334 19.5805C235.334 20.3778 235.022 21.0711 234.398 21.6605C233.809 22.2151 233.116 22.4925 232.318 22.4925C231.798 22.4925 231.365 22.3711 231.018 22.1285C230.672 21.8511 230.29 21.5565 229.874 21.2445C229.493 20.9325 229.025 20.6551 228.47 20.4125C227.916 20.1351 227.17 19.9965 226.234 19.9965C225.437 19.9965 224.692 20.1525 223.998 20.4645C223.305 20.7765 222.698 21.2098 222.178 21.7645C221.658 22.2845 221.242 22.9085 220.93 23.6365C220.618 24.3298 220.462 25.0578 220.462 25.8205C220.462 26.6178 220.618 27.3631 220.93 28.0565C221.242 28.7498 221.658 29.3565 222.178 29.8765C222.698 30.3965 223.305 30.8125 223.998 31.1245C224.692 31.4365 225.437 31.5925 226.234 31.5925C227.17 31.5925 227.916 31.4365 228.47 31.1245C229.025 30.7778 229.528 30.4138 229.978 30.0325C230.429 29.6165 230.862 29.2525 231.278 28.9405C231.694 28.5938 232.249 28.4205 232.942 28.4205C233.774 28.4205 234.485 28.6978 235.074 29.2525C235.698 29.8071 236.01 30.3791 236.01 30.9685C236.01 31.8698 235.698 32.7191 235.074 33.5165C234.485 34.2791 233.705 34.9551 232.734 35.5445C231.798 36.1338 230.741 36.6018 229.562 36.9485C228.418 37.2605 227.309 37.4165 226.234 37.4165C224.605 37.4165 223.08 37.1218 221.658 36.5325C220.272 35.9085 219.058 35.0765 218.018 34.0365C216.978 32.9965 216.146 31.7831 215.522 30.3965C214.933 28.9751 214.638 27.4498 214.638 25.8205Z" fill="#3861AF"/>
<path d="M249.531 19.9965C248.733 19.9965 247.988 20.1525 247.295 20.4645C246.601 20.7765 245.995 21.1925 245.475 21.7125C244.955 22.2325 244.539 22.8565 244.227 23.5845C243.915 24.2778 243.759 25.0231 243.759 25.8205C243.759 26.6178 243.915 27.3631 244.227 28.0565C244.539 28.7498 244.955 29.3565 245.475 29.8765C245.995 30.3965 246.601 30.8125 247.295 31.1245C247.988 31.4365 248.733 31.5925 249.531 31.5925C250.293 31.5925 251.021 31.4365 251.715 31.1245C252.443 30.8125 253.067 30.3965 253.587 29.8765C254.107 29.3565 254.523 28.7498 254.835 28.0565C255.147 27.3631 255.303 26.6178 255.303 25.8205C255.303 25.0231 255.147 24.2778 254.835 23.5845C254.523 22.8565 254.107 22.2325 253.587 21.7125C253.067 21.1925 252.443 20.7765 251.715 20.4645C251.021 20.1525 250.293 19.9965 249.531 19.9965ZM237.935 25.8205C237.935 24.1565 238.229 22.6311 238.819 21.2445C239.443 19.8231 240.275 18.5925 241.315 17.5525C242.355 16.5125 243.568 15.6978 244.955 15.1085C246.376 14.5191 247.901 14.2245 249.531 14.2245C251.125 14.2245 252.616 14.5191 254.003 15.1085C255.424 15.6978 256.655 16.5125 257.695 17.5525C258.769 18.5925 259.619 19.8231 260.243 21.2445C260.867 22.6311 261.179 24.1565 261.179 25.8205C261.179 27.4498 260.867 28.9751 260.243 30.3965C259.619 31.7831 258.769 32.9965 257.695 34.0365C256.655 35.0765 255.424 35.9085 254.003 36.5325C252.616 37.1218 251.125 37.4165 249.531 37.4165C247.901 37.4165 246.376 37.1218 244.955 36.5325C243.568 35.9085 242.355 35.0765 241.315 34.0365C240.275 32.9965 239.443 31.7831 238.819 30.3965C238.229 28.9751 237.935 27.4498 237.935 25.8205Z" fill="#3861AF"/>
<circle opacity="0.3" cx="21" cy="21" r="21" fill="#3861AF"/>
<circle cx="39" cy="21" r="21" fill="#3861AF" fill-opacity="0.8"/>
<circle cx="57" cy="21" r="21" fill="#3861AF"/>
</svg>
