<svg width="180" height="79" viewBox="0 0 180 79" fill="none" xmlns="http://www.w3.org/2000/svg">
<path d="M20.2233 42.2354L24.6693 54.1834H24.7513L28.9323 42.2354H33.9633L34.7433 44.4184L33.9633 44.5044C33.8486 44.5028 33.7349 44.5266 33.6305 44.5741C33.526 44.6217 33.4334 44.6918 33.3593 44.7794C33.2849 44.8674 33.2307 44.9707 33.2005 45.082C33.1702 45.1932 33.1647 45.3098 33.1843 45.4234L34.0023 58.9854L35.4213 59.0714L36.2013 61.3414H29.4433V59.1584L30.3123 59.0714C30.8573 59.0444 30.9393 58.7854 30.9123 58.0664L30.3943 47.2924H30.3393L25.8973 58.3494L23.3873 59.1854L19.0993 47.3784H19.0453L18.4483 58.9854L19.8403 59.0714V61.3414H13.0703L13.8503 59.1584L14.6683 59.0714C15.1873 58.9854 15.3783 58.8124 15.4053 58.0944L16.2783 44.5914L14.8323 44.5044L15.6123 42.2344H20.2223L20.2233 42.2354ZM39.2173 61.3404L39.9703 59.1854L40.6033 59.0994C41.2103 59.0124 41.3153 58.7064 41.5003 58.2074L45.7683 44.6774L44.4153 44.5044L45.1693 42.2344H50.1453L55.6033 58.9544L56.5643 59.0714L57.3173 61.3414H50.6913V59.1854L51.5613 59.0714C52.0623 59.0124 52.2213 58.7264 52.0363 58.1804L51.2833 55.9104H45.2553L44.3063 58.9854L45.6513 59.0714V61.3414L39.2173 61.3404ZM45.8133 53.4884H50.7703L48.3443 45.3564H48.2653L45.8133 53.4884ZM70.4823 58.0334V53.6224L69.1223 53.5124L68.3323 51.3484H75.4183L75.0323 53.4284L74.3023 53.5124C73.8423 53.5954 73.6263 53.7624 73.6263 54.3154V59.6204C72.1123 60.7004 69.8683 61.3404 67.4933 61.3404C62.2753 61.3404 59.3293 58.2644 59.3293 51.8304C59.3293 44.6754 63.4383 42.2354 68.1113 42.2354C70.2743 42.2354 72.3593 42.7054 73.5453 43.3454V45.8384L70.9263 46.8584V46.0544C70.9263 45.5814 70.8723 45.3614 70.4403 45.2214C69.7211 45.0648 68.9863 44.991 68.2503 45.0014C64.4423 45.0014 62.7393 47.5784 62.7393 51.6814C62.7393 56.0894 64.1453 58.6964 67.5743 58.6964C68.5835 58.7184 69.5824 58.4907 70.4823 58.0334ZM94.6613 60.5004L91.5163 61.3404L83.5463 47.4604H83.4923V58.9854L84.9833 59.0714V61.3414H78.4353L79.2093 59.1854L79.6823 59.0714C80.1423 58.9854 80.3323 58.8674 80.3323 58.2864V44.5914L78.5283 44.5044L79.3023 42.2344H83.7053L91.4513 55.8794H91.5053V44.5914L90.0143 44.5044V42.2344H96.5353L95.7413 44.4184L95.3313 44.5044C94.8163 44.5914 94.6533 44.7044 94.6533 45.3644L94.6613 60.5004ZM100.558 61.3404L101.346 59.1854L101.6 59.0994C102.22 59.0124 102.327 58.7064 102.516 58.2074L106.875 44.6774L105.482 44.5044L106.252 42.2344H111.333L116.908 58.9544L117.888 59.0714L118.658 61.3414H111.883V59.1854L112.773 59.0714C113.283 59.0124 113.445 58.7264 113.257 58.1804L112.487 55.9104H106.332L105.367 58.9854L106.737 59.0714V61.3414H100.557L100.558 61.3404ZM106.902 53.4884H111.964L109.487 45.3564H109.406L106.902 53.4884ZM124.533 44.7844H121.996C121.444 44.7844 121.306 45.0444 121.306 45.5304V46.6104L118.658 45.6764V42.2354H133.742V45.6754L131.07 46.6184V45.5704C131.07 45.0794 130.96 44.7844 130.38 44.7844H127.899V58.9844L129.452 59.0704L130.26 61.3404H122.119L122.907 59.1844L123.747 59.0704C124.381 59.0394 124.534 58.8394 124.534 58.1794V44.7844H124.533ZM138.558 59.1964L138.788 59.1094C139.522 59.0234 139.658 58.9094 139.658 58.1314V44.6194L138.612 44.5064L137.834 42.2354H150.615V45.7274L147.978 46.5684V45.1184C147.978 44.5724 147.811 44.7924 147.266 44.7924H142.972V50.2534H149.476V52.8984H142.972V58.7914H147.546C148.087 58.7914 148.196 58.5914 148.196 58.0054V57.7694L150.837 56.9444V61.3414H137.764L138.558 59.1964ZM162.437 55.9004C162.437 54.1284 160.976 53.4924 159.027 52.9664C156.51 52.2994 153.889 51.2204 153.889 47.6654C153.889 44.2844 156.402 42.2354 160.218 42.2354C161.961 42.2174 163.688 42.5634 165.283 43.2504V45.9004L162.658 46.8104V45.9914C162.658 45.5184 162.603 45.2984 162.17 45.1584C161.535 45.0176 160.888 44.9439 160.237 44.9384C158.803 44.9384 157.314 45.4654 157.314 47.2944C157.314 49.1234 158.776 49.5924 160.86 50.2584C163.35 51.0884 165.92 51.9744 165.92 55.6314C165.92 59.2894 163.54 61.3414 159.209 61.3414C157.341 61.3414 155.342 61.0914 153.854 60.3984V57.6794L156.475 56.7184V57.5704C156.475 58.0434 156.556 58.2634 156.962 58.4034C157.662 58.5734 158.38 58.6564 159.1 58.6534C160.867 58.6454 162.437 58.0624 162.437 55.9004Z" fill="#231F20"/>
<path d="M180 78.436H0V0H180V78.436ZM3.956 74.334H176.044V4.102H3.956V74.334Z" fill="#231F20"/>
<path d="M15.084 15.0842H27.15V16.2742H16.377V23.0702H25.283V24.2862H16.381V33.1842H15.084V15.0842ZM37.207 15.0842H38.212V33.1842H37.207V15.0842ZM50.28 15.0842H51.373L63.115 30.9302V15.0842H64.358V33.1842H63.287L51.533 17.3072V33.1842H50.291L50.28 15.0842ZM82.394 15.0842H83.555L91.508 33.1842H90.2L87.878 27.9422H78.04L75.718 33.1842H74.413L82.394 15.0842ZM87.425 26.8002L82.975 16.7532L78.493 26.8032L87.425 26.8002ZM102.57 15.0842H103.678L115.406 30.9302V15.0842H116.648V33.1842H115.578L103.815 17.3072V33.1842H102.57V15.0842ZM127.71 24.6442C127.71 19.0732 131.51 15.0862 136.449 15.0862C138.206 15.0461 139.933 15.5535 141.389 16.5382V17.9392C139.959 16.9037 138.237 16.3494 136.472 16.3562C132.292 16.3562 128.982 19.8492 128.982 24.6442C128.982 29.4382 132.296 32.9592 136.495 32.9592C138.438 32.9831 140.321 32.2923 141.788 31.0182V32.4702C140.258 33.6408 138.371 34.247 136.445 34.1862C131.54 34.2012 127.71 30.2142 127.71 24.6442ZM152.85 15.0842H164.52V16.2742H154.09V22.8382H162.71V24.0622H154.09V31.9912H164.916V33.1842H152.85V15.0842Z" fill="#231F20"/>
</svg>
