<svg width="207" height="28" viewBox="0 0 207 28" fill="none" xmlns="http://www.w3.org/2000/svg">
<path d="M8.436 24.51C9.60133 24.662 10.7033 25.0293 11.742 25.612V27.056H0V25.612C0.405333 25.384 0.836 25.1813 1.292 25.004C1.748 24.8013 2.22933 24.6367 2.736 24.51V3.002C2.15333 2.87533 1.634 2.71067 1.178 2.508C0.747333 2.30533 0.354667 2.10267 0 1.9V0.455998H19.874C19.874 0.962666 19.8487 1.52 19.798 2.128C19.7473 2.71067 19.684 3.31867 19.608 3.952C19.5573 4.56 19.4813 5.168 19.38 5.776C19.304 6.35867 19.2153 6.90333 19.114 7.41H17.556L15.808 2.926H8.436V12.92H13.87L15.352 10.298H16.53C16.7073 11.59 16.7833 12.92 16.758 14.288C16.7327 15.656 16.6567 16.91 16.53 18.05H15.352L13.87 15.39H8.436V24.51Z" fill="#003988"/>
<path d="M21.8194 13.756C21.8194 11.78 22.0981 9.956 22.6554 8.284C23.2128 6.58667 24.0361 5.13 25.1254 3.914C26.2148 2.67267 27.5574 1.71 29.1534 1.026C30.7494 0.341999 32.5861 0 34.6634 0C36.7408 0 38.5774 0.341999 40.1734 1.026C41.7694 1.71 43.0994 2.67267 44.1634 3.914C45.2528 5.13 46.0761 6.58667 46.6334 8.284C47.1908 9.956 47.4694 11.78 47.4694 13.756C47.4694 15.732 47.1908 17.5687 46.6334 19.266C46.0761 20.938 45.2528 22.3947 44.1634 23.636C43.0994 24.852 41.7694 25.802 40.1734 26.486C38.5774 27.17 36.7408 27.512 34.6634 27.512C32.5861 27.512 30.7494 27.17 29.1534 26.486C27.5574 25.802 26.2148 24.852 25.1254 23.636C24.0361 22.3947 23.2128 20.938 22.6554 19.266C22.0981 17.5687 21.8194 15.732 21.8194 13.756ZM28.2794 13.756C28.2794 15.3773 28.4061 16.8847 28.6594 18.278C28.9128 19.646 29.3054 20.8367 29.8374 21.85C30.3948 22.838 31.0914 23.6233 31.9274 24.206C32.7888 24.7633 33.8148 25.042 35.0054 25.042C36.0948 25.042 37.0194 24.7633 37.7794 24.206C38.5394 23.6233 39.1601 22.838 39.6414 21.85C40.1228 20.8367 40.4648 19.646 40.6674 18.278C40.8954 16.8847 41.0094 15.3773 41.0094 13.756C41.0094 12.1347 40.8828 10.64 40.6294 9.272C40.4014 7.87867 40.0214 6.688 39.4894 5.7C38.9828 4.68667 38.2988 3.90133 37.4374 3.344C36.6014 2.76133 35.5754 2.47 34.3594 2.47C33.1941 2.47 32.2188 2.76133 31.4334 3.344C30.6481 3.90133 30.0148 4.68667 29.5334 5.7C29.0774 6.688 28.7481 7.87867 28.5454 9.272C28.3681 10.64 28.2794 12.1347 28.2794 13.756Z" fill="#003988"/>
<path d="M57.8019 24.51C58.3845 24.6367 58.9039 24.8013 59.3599 25.004C59.8159 25.2067 60.2592 25.4093 60.6899 25.612V27.056H48.9859V25.612C49.5432 25.308 50.0752 25.08 50.5819 24.928C51.0885 24.7507 51.5952 24.6113 52.1019 24.51V3.002C50.8352 2.72333 49.7965 2.356 48.9859 1.9V0.455998H53.0139C53.5205 0.455998 54.0905 0.443332 54.7239 0.417999C55.3825 0.392666 56.0665 0.367333 56.7759 0.342C57.4852 0.291332 58.2072 0.253333 58.9419 0.228C59.6765 0.177334 60.3859 0.152 61.0699 0.152C62.4632 0.152 63.7425 0.316667 64.9079 0.645999C66.0985 0.95 67.1119 1.41867 67.9479 2.052C68.8092 2.68533 69.4679 3.48333 69.9239 4.446C70.4052 5.38333 70.6459 6.48533 70.6459 7.752C70.6459 9.576 70.2025 11.0707 69.3159 12.236C68.4292 13.4013 67.2132 14.2753 65.6679 14.858C66.6812 16.454 67.7579 18.088 68.8979 19.76C70.0379 21.4067 71.2412 23.0027 72.5079 24.548L74.3319 25.764V27.056H67.9859L66.3519 25.802C65.1865 24.4087 64.1479 22.8 63.2359 20.976C62.3492 19.1267 61.5639 17.3153 60.8799 15.542H57.8019V24.51ZM59.7019 2.622C58.9165 2.622 58.2832 2.698 57.8019 2.85V13.452H60.0439C61.3359 13.452 62.4379 12.996 63.3499 12.084C64.2619 11.1467 64.7179 9.766 64.7179 7.942C64.7179 7.00467 64.5912 6.20667 64.3379 5.548C64.0845 4.864 63.7299 4.30667 63.2739 3.876C62.8179 3.44533 62.2859 3.12867 61.6779 2.926C61.0699 2.72333 60.4112 2.622 59.7019 2.622Z" fill="#003988"/>
<path d="M74.722 27.056V25.612C75.2033 25.3333 75.71 25.0927 76.242 24.89C76.7993 24.6873 77.3313 24.5607 77.838 24.51V3.002C77.3313 2.90067 76.7993 2.76133 76.242 2.584C75.6846 2.38133 75.178 2.15333 74.722 1.9V0.455998H80.84C81.8026 0.455998 82.7146 0.417999 83.576 0.342C84.4373 0.265999 85.4253 0.228 86.54 0.228C87.756 0.228 88.934 0.316666 90.074 0.493999C91.214 0.671333 92.2273 0.987999 93.114 1.444C94.0006 1.9 94.71 2.546 95.242 3.382C95.774 4.19267 96.04 5.244 96.04 6.536C96.04 7.34667 95.888 8.10667 95.584 8.816C95.3053 9.5 94.9 10.108 94.368 10.64C93.8613 11.172 93.2533 11.6153 92.544 11.97C91.86 12.3247 91.1126 12.578 90.302 12.73V12.882C91.1126 12.9833 91.9233 13.1733 92.734 13.452C93.57 13.7307 94.3173 14.136 94.976 14.668C95.6346 15.2 96.1666 15.8713 96.572 16.682C97.0026 17.4673 97.218 18.4047 97.218 19.494C97.218 20.862 96.914 22.04 96.306 23.028C95.698 24.016 94.8746 24.8267 93.836 25.46C92.8226 26.0933 91.6573 26.562 90.34 26.866C89.0226 27.1447 87.6546 27.284 86.236 27.284C85.704 27.284 85.1213 27.2713 84.488 27.246C83.8546 27.2207 83.2213 27.1953 82.588 27.17C81.9546 27.1447 81.334 27.1193 80.726 27.094C80.1433 27.0687 79.6493 27.056 79.2439 27.056H74.722ZM86.198 24.814C87.794 24.814 89.048 24.3453 89.96 23.408C90.872 22.4453 91.3279 21.1787 91.3279 19.608C91.3279 18.6453 91.176 17.86 90.872 17.252C90.568 16.6187 90.15 16.1247 89.618 15.77C89.086 15.39 88.4526 15.1367 87.718 15.01C86.9833 14.858 86.1853 14.782 85.324 14.782H83.31V24.548C83.6646 24.624 84.0319 24.6873 84.4119 24.738C84.8173 24.7887 85.4126 24.814 86.198 24.814ZM84.526 12.312C84.9566 12.312 85.3873 12.2993 85.818 12.274C86.2486 12.2233 86.654 12.1727 87.034 12.122C88.022 11.7167 88.82 11.096 89.428 10.26C90.036 9.39867 90.34 8.42333 90.34 7.334C90.34 5.738 89.922 4.57267 89.086 3.838C88.25 3.078 87.1733 2.698 85.8559 2.698C85.2986 2.698 84.8173 2.71067 84.4119 2.736C84.0066 2.76133 83.6393 2.79933 83.31 2.85V12.312H84.526Z" fill="#003988"/>
<path d="M110.876 27.056H99.0197V25.612C100.033 25.0547 101.059 24.6873 102.098 24.51V3.002C101.591 2.926 101.059 2.78667 100.502 2.584C99.9444 2.38133 99.4504 2.15333 99.0197 1.9V0.455998H110.876V1.9C110.42 2.17867 109.913 2.41933 109.356 2.622C108.824 2.79933 108.304 2.926 107.798 3.002V24.51C108.304 24.6113 108.824 24.7507 109.356 24.928C109.913 25.1053 110.42 25.3333 110.876 25.612V27.056Z" fill="#003988"/>
<path d="M129.878 0.455998H139.302V1.9C138.821 2.28 138.289 2.622 137.706 2.926C137.124 3.20467 136.579 3.42 136.072 3.572V27.512H132.842L119.428 8.132L117.908 5.206H117.794L118.136 8.246V24.092C118.643 24.2187 119.2 24.434 119.808 24.738C120.442 25.0167 120.974 25.308 121.404 25.612V27.056H112.018V25.612C112.474 25.308 112.968 25.0293 113.5 24.776C114.058 24.4973 114.628 24.2693 115.21 24.092V3.344C114.704 3.14133 114.197 2.91333 113.69 2.66C113.184 2.40667 112.728 2.14067 112.322 1.862V0.455998H120.53L131.436 16.264L133.184 19.532H133.336L133.146 16.264V3.572C132.538 3.36933 131.943 3.12867 131.36 2.85C130.803 2.546 130.309 2.22933 129.878 1.9V0.455998Z" fill="#003988"/>
<path d="M140.777 13.756C140.777 11.78 141.056 9.956 141.613 8.284C142.171 6.58667 142.994 5.13 144.083 3.914C145.173 2.67267 146.515 1.71 148.111 1.026C149.707 0.341999 151.544 0 153.621 0C155.699 0 157.535 0.341999 159.131 1.026C160.727 1.71 162.057 2.67267 163.121 3.914C164.211 5.13 165.034 6.58667 165.591 8.284C166.149 9.956 166.427 11.78 166.427 13.756C166.427 15.732 166.149 17.5687 165.591 19.266C165.034 20.938 164.211 22.3947 163.121 23.636C162.057 24.852 160.727 25.802 159.131 26.486C157.535 27.17 155.699 27.512 153.621 27.512C151.544 27.512 149.707 27.17 148.111 26.486C146.515 25.802 145.173 24.852 144.083 23.636C142.994 22.3947 142.171 20.938 141.613 19.266C141.056 17.5687 140.777 15.732 140.777 13.756ZM147.237 13.756C147.237 15.3773 147.364 16.8847 147.617 18.278C147.871 19.646 148.263 20.8367 148.795 21.85C149.353 22.838 150.049 23.6233 150.885 24.206C151.747 24.7633 152.773 25.042 153.963 25.042C155.053 25.042 155.977 24.7633 156.737 24.206C157.497 23.6233 158.118 22.838 158.599 21.85C159.081 20.8367 159.423 19.646 159.625 18.278C159.853 16.8847 159.967 15.3773 159.967 13.756C159.967 12.1347 159.841 10.64 159.587 9.272C159.359 7.87867 158.979 6.688 158.447 5.7C157.941 4.68667 157.257 3.90133 156.395 3.344C155.559 2.76133 154.533 2.47 153.317 2.47C152.152 2.47 151.177 2.76133 150.391 3.344C149.606 3.90133 148.973 4.68667 148.491 5.7C148.035 6.688 147.706 7.87867 147.503 9.272C147.326 10.64 147.237 12.1347 147.237 13.756Z" fill="#003988"/>
<path d="M169.305 26.202C169.305 25.902 169.4 25.662 169.59 25.482C169.78 25.302 170.025 25.212 170.325 25.212C170.635 25.212 170.885 25.302 171.075 25.482C171.265 25.662 171.36 25.902 171.36 26.202C171.36 26.492 171.265 26.727 171.075 26.907C170.885 27.087 170.635 27.177 170.325 27.177C170.025 27.177 169.78 27.087 169.59 26.907C169.4 26.727 169.305 26.492 169.305 26.202Z" fill="#003988"/>
<path d="M180.934 24.327H181.324C181.374 24.607 181.419 24.962 181.459 25.392C181.499 25.812 181.509 26.222 181.489 26.622C181.339 26.742 181.159 26.842 180.949 26.922C180.739 26.992 180.514 27.052 180.274 27.102C180.044 27.152 179.804 27.187 179.554 27.207C179.314 27.227 179.084 27.237 178.864 27.237C178.024 27.237 177.274 27.132 176.614 26.922C175.954 26.702 175.394 26.372 174.934 25.932C174.484 25.492 174.134 24.932 173.884 24.252C173.644 23.562 173.524 22.747 173.524 21.807C173.524 20.827 173.659 19.997 173.929 19.317C174.199 18.627 174.564 18.067 175.024 17.637C175.484 17.197 176.019 16.877 176.629 16.677C177.239 16.477 177.879 16.377 178.549 16.377C179.209 16.377 179.764 16.422 180.214 16.512C180.664 16.592 181.059 16.717 181.399 16.887C181.399 17.047 181.394 17.237 181.384 17.457C181.374 17.667 181.359 17.892 181.339 18.132C181.319 18.372 181.294 18.607 181.264 18.837C181.234 19.067 181.204 19.277 181.174 19.467H180.784L180.004 17.307C179.894 17.247 179.709 17.207 179.449 17.187C179.199 17.167 178.949 17.157 178.699 17.157C178.199 17.157 177.724 17.252 177.274 17.442C176.834 17.622 176.444 17.907 176.104 18.297C175.774 18.677 175.509 19.162 175.309 19.752C175.109 20.332 175.009 21.017 175.009 21.807C175.009 22.517 175.099 23.162 175.279 23.742C175.459 24.312 175.719 24.802 176.059 25.212C176.399 25.612 176.814 25.922 177.304 26.142C177.794 26.352 178.349 26.457 178.969 26.457C179.299 26.457 179.574 26.432 179.794 26.382C180.014 26.332 180.159 26.267 180.229 26.187L180.934 24.327Z" fill="#003988"/>
<path d="M183.477 21.807C183.477 21.027 183.582 20.307 183.792 19.647C184.012 18.977 184.322 18.402 184.722 17.922C185.132 17.432 185.632 17.052 186.222 16.782C186.812 16.512 187.482 16.377 188.232 16.377C188.982 16.377 189.652 16.512 190.242 16.782C190.832 17.052 191.327 17.432 191.727 17.922C192.137 18.402 192.447 18.977 192.657 19.647C192.877 20.307 192.987 21.027 192.987 21.807C192.987 22.587 192.877 23.312 192.657 23.982C192.447 24.642 192.137 25.217 191.727 25.707C191.327 26.187 190.832 26.562 190.242 26.832C189.652 27.102 188.982 27.237 188.232 27.237C187.482 27.237 186.812 27.102 186.222 26.832C185.632 26.562 185.132 26.187 184.722 25.707C184.322 25.217 184.012 24.642 183.792 23.982C183.582 23.312 183.477 22.587 183.477 21.807ZM185.082 21.807C185.082 22.447 185.147 23.052 185.277 23.622C185.417 24.182 185.622 24.672 185.892 25.092C186.162 25.512 186.502 25.847 186.912 26.097C187.322 26.337 187.807 26.457 188.367 26.457C188.877 26.457 189.322 26.337 189.702 26.097C190.082 25.847 190.392 25.512 190.632 25.092C190.882 24.672 191.067 24.182 191.187 23.622C191.317 23.052 191.382 22.447 191.382 21.807C191.382 21.167 191.317 20.567 191.187 20.007C191.057 19.437 190.857 18.942 190.587 18.522C190.317 18.102 189.977 17.772 189.567 17.532C189.157 17.282 188.672 17.157 188.112 17.157C187.562 17.157 187.092 17.282 186.702 17.532C186.322 17.772 186.012 18.102 185.772 18.522C185.532 18.942 185.357 19.437 185.247 20.007C185.137 20.567 185.082 21.167 185.082 21.807Z" fill="#003988"/>
<path d="M206.641 27.057H202.921V26.622C203.121 26.542 203.321 26.477 203.521 26.427C203.721 26.367 203.926 26.312 204.136 26.262V19.512L204.196 17.757H204.076L203.581 19.362L200.506 27.057H200.116L197.191 19.362L196.651 17.607H196.516L196.531 19.512V26.262C196.721 26.302 196.911 26.352 197.101 26.412C197.291 26.472 197.481 26.542 197.671 26.622V27.057H194.536V26.622C194.726 26.542 194.921 26.472 195.121 26.412C195.331 26.342 195.541 26.287 195.751 26.247V17.367C195.541 17.327 195.331 17.277 195.121 17.217C194.921 17.147 194.721 17.072 194.521 16.992V16.557H197.596L200.206 23.412L200.716 24.957H200.731L201.241 23.382L203.941 16.557H206.656V16.992C206.476 17.072 206.291 17.147 206.101 17.217C205.911 17.277 205.716 17.327 205.516 17.367V26.277C205.726 26.317 205.921 26.367 206.101 26.427C206.291 26.477 206.471 26.542 206.641 26.622V27.057Z" fill="#003988"/>
</svg>
