<svg width="161" height="42" viewBox="0 0 161 42" fill="none" xmlns="http://www.w3.org/2000/svg">
<path d="M15.4919 3.91513H19.0063C21.1465 3.59983 23.3322 3.87704 25.3259 4.71665C27.8273 6.22153 29.6415 8.64423 30.3817 11.4679C30.9058 12.9477 30.9058 12.9477 32.1697 12.4236H33.1562V0.709039H0.0779947V2.7745H1.43442C2.02386 2.77042 2.60673 2.89845 3.1402 3.14918C3.67367 3.39991 4.14419 3.76698 4.5172 4.22341C5.78114 6.25804 5.99693 8.5393 5.99693 20.408C5.99693 33.0166 5.71948 36.0993 4.5172 37.6716C4.22039 38.0757 3.83611 38.4077 3.39305 38.6425C2.94999 38.8774 2.4596 39.0092 1.95849 39.028C0.0779947 39.3671 0.0779947 39.3363 0.0779947 40.1686C-0.0259982 40.4469 -0.0259982 40.7534 0.0779947 41.0318H20.9484C21.0865 40.7595 21.1585 40.4585 21.1585 40.1532C21.1585 39.8479 21.0865 39.5469 20.9484 39.2746C20.4429 39.134 19.9277 39.0309 19.407 38.9663C18.8437 38.8993 18.2869 38.7859 17.7423 38.6272C16.9624 38.0578 16.3446 37.2948 15.9499 36.4135C15.5552 35.5323 15.3974 34.5633 15.4919 33.6023C15.1836 31.5676 15.0295 27.8375 15.0295 24.7547V22.3193H16.2626C17.7989 22.2723 19.3343 22.4383 20.8251 22.8126C21.5393 23.2539 22.1472 23.8475 22.6055 24.5509C23.0638 25.2543 23.3611 26.0502 23.4763 26.8818L23.7537 27.8375H25.6342V14.1808H23.9079L23.6304 15.5064C23.5137 16.3568 23.1991 17.168 22.7119 17.8747C22.2246 18.5815 21.5784 19.1641 20.8251 19.5756C20.0956 19.7927 19.327 19.8454 18.5747 19.7298H15.0295V16.4004C15.0295 12.9477 15.2144 5.67231 15.3377 4.53168L15.4919 3.91513ZM159.766 28.3616C158.309 26.0162 156.036 24.2924 153.385 23.5216C151.352 22.8862 149.473 21.8366 147.866 20.4388C147.505 20.0891 147.234 19.6563 147.079 19.178C146.923 18.6998 146.886 18.1907 146.972 17.6951C146.975 16.7231 147.363 15.7918 148.051 15.1056C148.518 14.6169 149.109 14.2641 149.76 14.0849C150.412 13.9057 151.1 13.9069 151.751 14.0883C153.098 14.4724 154.317 15.2138 155.278 16.2341C156.238 17.2544 156.905 18.5156 157.207 19.8839C157.7 21.2712 157.762 21.2712 158.656 20.9012L159.211 20.6854V13.0093L158.81 12.8244C155.775 11.7584 152.556 11.318 149.346 11.5296C146.582 11.5996 143.944 12.699 141.947 14.6124C141.042 15.4598 140.333 16.4949 139.87 17.6451C139.407 18.7953 139.2 20.0329 139.265 21.2712C139.283 23.1644 140.034 24.9769 141.362 26.3269C142.829 27.7697 144.629 28.8285 146.602 29.4097C151.381 31.2902 152.768 32.4925 152.768 34.6813C152.788 35.6043 152.495 36.5068 151.934 37.2407C151.374 37.9746 150.581 38.4961 149.685 38.7197C148.609 38.9562 147.494 38.9562 146.417 38.7197C145.008 38.1727 143.75 37.2971 142.747 36.1657C141.744 35.0343 141.026 33.6799 140.653 32.215L140.252 31.2285H139.697C139.432 31.2482 139.172 31.3107 138.926 31.4135H138.618V40.1686H139.142C141.225 40.8614 143.374 41.3367 145.554 41.5867H148.637C149.974 41.6848 151.318 41.5598 152.614 41.2167C154.259 40.9132 155.796 40.1843 157.073 39.1027C158.349 38.0211 159.32 36.6243 159.889 35.0512C160.257 34.1725 160.446 33.2292 160.444 32.2767C160.566 30.9347 160.332 29.5845 159.766 28.3616ZM130.726 12.4236C128.879 11.648 126.888 11.2718 124.885 11.3196C122.882 11.3674 120.912 11.8382 119.104 12.701C117.404 13.5324 115.898 14.711 114.682 16.1606C113.466 17.6102 112.568 19.2987 112.045 21.117C111.378 23.1006 111.095 25.1932 111.212 27.2826C111.19 28.4194 111.283 29.5555 111.49 30.6736C111.987 33.4229 113.315 35.9539 115.293 37.9268C117.271 39.8996 119.806 41.2198 122.557 41.71C124.348 41.9357 126.16 41.9357 127.952 41.71C129.81 41.3824 131.589 40.7022 133.192 39.7062C134.518 38.9628 135.641 37.904 136.46 36.6234C136.408 36.4225 136.315 36.2343 136.188 36.07C136.061 35.9058 135.902 35.769 135.72 35.6677C135.368 35.7952 135.036 35.9716 134.734 36.1918C133.2 37.2024 131.39 37.7089 129.555 37.6407C128.337 37.7231 127.116 37.5334 125.98 37.0855C124.844 36.6377 123.822 35.9428 122.988 35.0512C122.343 34.452 121.811 33.742 121.416 32.9549C120.458 31.0384 119.942 28.9316 119.906 26.7893V25.5871H136.984V24.9705C137.022 24.3545 137.022 23.7368 136.984 23.1208C136.978 20.9441 136.396 18.8078 135.297 16.9289C134.198 15.0501 132.621 13.4956 130.726 12.4236ZM122.125 23.09H119.967V21.2712C120.676 16.6162 122.433 13.8417 124.591 13.8417C126.749 13.8417 127.674 16.5853 128.075 21.6103V23.0284H126.225L122.125 23.09ZM77.7948 11.4063C76.7296 11.365 75.6707 11.5873 74.7121 12.0537C72.6285 13.0655 70.9456 14.7484 69.9338 16.832L69.533 17.5718V11.4063H69.3789C69.0089 11.4063 57.6026 13.6875 57.2327 13.8417C56.8628 13.9958 56.9861 14.0266 56.9861 14.5815C56.9861 15.1364 56.9861 15.2289 57.2327 15.2598L58.435 15.5064C58.7717 15.5146 59.1022 15.5994 59.4013 15.7543C59.7004 15.9092 59.9603 16.1301 60.1614 16.4004C60.932 17.4177 61.0862 19.2057 61.0862 26.8202C61.2385 30.2481 61.0941 33.6828 60.6546 37.0858C60.5511 37.599 60.2909 38.0673 59.9099 38.4262C59.5289 38.7852 59.0459 39.017 58.5275 39.0896L57.4793 39.3054H57.0786V40.1686C56.9667 40.4561 56.9667 40.7751 57.0786 41.0626H74.3113V40.1686C74.3711 39.8736 74.3711 39.5696 74.3113 39.2746C73.2737 39.2342 72.2419 39.1 71.2285 38.8738C70.6767 38.5852 70.2252 38.1361 69.9335 37.5858C69.6419 37.0355 69.5237 36.4098 69.5947 35.7911C69.348 34.003 69.2247 28.7623 69.2864 24.7547C69.348 20.7471 69.2864 20.5005 69.6255 20.223C70.6571 19.4321 71.9336 19.0284 73.2323 19.0824C74.4566 19.1091 75.6585 19.4149 76.7467 19.9764C77.1239 20.1859 77.5286 20.3415 77.949 20.4388C77.949 20.4388 81.0318 12.9785 81.0318 12.6394C80.6373 12.181 80.1347 11.8281 79.5695 11.6128C79.0043 11.3975 78.3944 11.3265 77.7948 11.4063ZM57.0169 24.354C56.9093 22.151 56.2769 20.0057 55.1722 18.0967C54.0676 16.1877 52.5227 14.5703 50.6664 13.3793C48.4604 12.1891 46.006 11.5329 43.5003 11.4633C40.9947 11.3937 38.5077 11.9127 36.239 12.9785C33.0313 14.67 30.6094 17.5453 29.4877 20.9937C28.3291 24.8546 28.3291 28.9707 29.4877 32.8316C30.0951 34.9417 31.2304 36.8621 32.7863 38.4114C34.7241 40.3023 37.2228 41.5137 39.9075 41.8641C41.6308 42.0082 43.3632 42.0082 45.0866 41.8641C45.7207 41.7676 46.3487 41.6338 46.9671 41.4634C49.4763 40.7614 51.7338 39.3594 53.4753 37.4213C55.2169 35.4832 56.3705 33.0893 56.8011 30.5195C57.1089 28.4794 57.1813 26.4106 57.0169 24.354ZM44.1926 39.7678C41.1098 40.6927 38.7977 37.7024 38.027 31.4135C37.744 28.121 37.744 24.8103 38.027 21.5178C38.6436 16.462 40.2158 13.9033 42.6512 13.9033C43.1425 13.8729 43.634 13.9605 44.0845 14.159C44.535 14.3574 44.9315 14.6609 45.2407 15.044C47.3062 17.1094 48.3235 21.2095 48.3235 27.3751C48.58 30.8644 48.0315 34.3661 46.7204 37.6099C46.1415 38.556 45.2458 39.266 44.1926 39.6137V39.7678ZM99.6826 12.0228C98.8127 11.9109 97.9321 11.9109 97.0622 12.0228C95.3924 12.0214 93.7418 12.3789 92.2222 13.071L91.2666 13.4717V6.78211C91.4336 4.52449 91.4336 2.25762 91.2666 0C90.8967 0 79.1204 2.25043 78.9355 2.34291C78.8446 2.57051 78.8446 2.82435 78.9355 3.05195C78.9355 3.69933 78.9355 3.66851 80.3227 3.97678C80.7122 4.06413 81.0863 4.20963 81.4325 4.40837C82.0343 4.97425 82.4348 5.72114 82.5732 6.53549C82.9241 8.88155 83.0378 11.257 82.9123 13.6259V40.6927L83.7446 40.8776C84.9777 41.1551 88.4613 41.7408 89.6019 41.8641C91.8795 42.0453 94.168 42.0453 96.4457 41.8641C98.9737 41.6059 101.383 40.6627 103.415 39.1362C105.447 37.6098 107.023 35.5578 107.975 33.2015C108.543 31.6892 108.936 30.1171 109.147 28.5157C109.33 26.3465 109.258 24.1633 108.931 22.011C108.6 19.5985 107.535 17.3461 105.881 15.5593C104.227 13.7725 102.063 12.5379 99.6826 12.0228ZM91.6057 39.2438C91.6057 38.843 91.2974 25.3404 91.3591 19.9456V15.7222L92.2531 15.5064C92.8563 15.42 93.4687 15.42 94.0719 15.5064C94.739 15.4385 95.41 15.5901 95.9832 15.938C97.1345 16.7325 98.0905 17.7779 98.7793 18.9953C99.4682 20.2128 99.8719 21.5707 99.96 22.9667C100.185 25.2115 100.185 27.4732 99.96 29.718C99.7755 32.9807 98.5184 36.091 96.384 38.5656C95.7782 39.141 95.0174 39.5267 94.1952 39.6754C93.5731 39.7836 92.9369 39.7836 92.3147 39.6754C91.729 39.6754 91.729 39.4904 91.729 39.2438H91.6057Z" fill="#33629A"/>
</svg>
