<svg width="248" height="49" viewBox="0 0 248 49" fill="none" xmlns="http://www.w3.org/2000/svg">
<g clip-path="url(#clip0_1559_16099)">
<path d="M176.024 40.0716C175.714 40.5861 175.405 41.1007 175.095 41.641C174.759 42.207 174.449 42.7987 174.14 43.3647C174.036 43.5705 173.933 43.8278 173.752 43.9307C173.443 44.1108 173.081 44.2395 172.72 44.2137C172.616 44.2137 172.436 43.6477 172.462 43.3647C172.565 42.2842 172.746 41.2036 172.875 40.123C172.926 39.7114 172.926 39.2997 172.952 38.8881C172.9 38.8624 172.849 38.8366 172.771 38.8109C172.384 39.4027 171.971 39.9944 171.635 40.6119C171.145 41.538 170.68 42.5157 170.216 43.4676C170.087 43.7249 170.009 44.0594 169.803 44.1623C169.467 44.3424 169.028 44.4453 168.641 44.4195C168.512 44.4195 168.279 43.905 168.331 43.6477C168.563 41.9754 168.847 40.3288 169.131 38.6823C169.209 38.2449 169.364 37.859 169.932 38.0391C170.474 38.1935 170.603 38.6051 170.422 39.1711C170.19 39.8915 169.983 40.6376 169.88 41.3837C170.345 40.5347 170.784 39.6857 171.274 38.8624C171.506 38.4765 171.79 38.142 172.1 37.8075C172.436 37.4216 172.875 37.1643 173.417 37.3702C173.985 37.576 174.14 38.0905 174.114 38.6308C174.114 39.4027 174.036 40.2002 173.985 41.075C174.243 40.6376 174.424 40.2259 174.682 39.8658C174.94 39.4798 175.224 39.0939 175.585 38.8109C176.36 38.2449 177.237 38.6308 177.289 39.5827C177.341 40.5089 177.237 41.4609 177.212 42.3871C177.212 42.9273 177.212 43.4419 177.237 43.9822C177.263 44.3938 177.496 44.5739 177.883 44.471C178.786 44.2395 179.561 43.7506 179.974 42.9273C180.103 42.6958 180.025 42.3099 179.896 42.0526C179.69 41.6152 179.509 41.1521 179.974 40.8691C180.439 40.5861 180.929 40.8691 181.136 41.255C181.342 41.6924 181.497 42.2842 181.419 42.7472C181.136 44.3166 179.044 45.8088 177.444 45.7059C176.411 45.6287 175.843 45.1142 175.843 44.0851C175.843 43.1846 175.947 42.2584 176.024 41.358C176.05 40.9463 176.076 40.5347 176.102 40.123C176.127 40.123 176.076 40.0973 176.024 40.0716Z" fill="#F66871"/>
<path d="M124.316 41.6926C123.903 42.2586 123.67 42.7474 123.283 43.1076C122.793 43.5964 122.25 44.0853 121.631 44.3683C120.469 44.8828 119.488 44.2396 119.411 42.979C119.385 42.3615 119.411 41.6926 119.54 41.0751C119.746 40.0203 120.056 38.9655 120.314 37.9106C120.418 37.499 120.598 37.1903 121.14 37.3704C121.708 37.5762 121.889 37.9106 121.708 38.4252C121.373 39.5315 121.063 40.6635 120.753 41.7955C120.701 42.0013 120.701 42.2072 120.701 42.4387C120.701 43.0562 120.96 43.262 121.502 42.979C122.018 42.696 122.586 42.2843 122.87 41.7955C123.412 40.8179 123.799 39.7373 124.212 38.7082C124.419 38.2194 124.6 37.8077 125.271 37.9621C125.916 38.1165 125.994 38.5281 125.916 39.0684C125.632 41.0237 125.426 42.979 125.09 44.9343C124.909 46.0406 124.316 46.9925 123.567 47.8415C122.896 48.5619 122.096 48.9993 121.063 48.9478C120.263 48.9221 119.566 48.459 119.411 47.7643C119.359 47.507 119.437 47.0697 119.617 46.941C119.798 46.8124 120.263 46.8639 120.469 47.0182C121.424 47.7129 121.889 47.6871 122.689 46.8124C123.515 45.9119 123.903 44.8056 124.057 43.6222C124.135 43.0819 124.212 42.4644 124.316 41.6926Z" fill="#F66871"/>
<path d="M102.321 37.6279C102.554 36.8046 102.838 35.8012 103.122 34.7978C103.173 34.6435 103.199 34.4634 103.251 34.309C103.431 33.8459 103.896 33.6401 104.361 33.8459C104.825 34.0517 104.825 34.4119 104.67 34.7978C104.361 35.6211 104.025 36.4187 103.741 37.2419C103.147 39.0686 102.657 40.921 102.605 42.8506C102.605 43.185 102.605 43.5195 102.605 43.9054C102.967 43.7768 103.199 43.6224 103.431 43.5967C103.612 43.5709 103.87 43.6481 103.999 43.7768C104.077 43.8797 104.051 44.137 103.973 44.2913C103.689 44.8831 102.941 45.2947 102.347 45.1918C101.624 45.0889 101.392 44.5486 101.289 43.9311C101.237 43.5967 101.237 43.2622 101.237 43.0307C100.772 43.4423 100.308 43.8539 99.7913 44.2913C99.1718 44.8059 98.4748 45.2947 97.6487 44.8573C96.8484 44.42 96.7193 43.5967 96.7968 42.7991C97.0291 40.4579 98.3973 38.8628 100.437 37.8337C100.927 37.6021 101.598 37.705 102.321 37.6279ZM101.753 39.5574C101.418 39.223 101.082 38.9657 100.617 39.2487C99.2234 40.1234 98.3715 41.3584 98.1392 42.9792C98.1133 43.2108 98.1908 43.468 98.2166 43.7253C99.3525 43.4166 101.211 41.204 101.753 39.5574Z" fill="#F66871"/>
<path d="M146.181 37.8334C147.653 37.8591 147.911 38.1936 148.143 40.6635C148.711 40.4834 149.279 40.3805 149.744 40.0974C150.002 39.9431 150.131 39.48 150.157 39.1455C150.183 38.6824 150.157 38.1679 150.673 38.0392C151.267 37.9106 151.499 38.3994 151.628 38.8625C151.835 39.6858 151.499 40.329 150.88 40.8435C150.105 41.461 149.227 41.7697 148.246 41.6926C147.782 41.6668 147.575 41.8212 147.395 42.2328C146.904 43.2877 146.207 44.2139 145.174 44.8056C144.374 45.243 143.548 45.4231 142.722 44.9342C141.896 44.4454 141.741 43.5964 141.844 42.7474C142.077 40.5605 143.006 38.7082 144.865 37.396C145.51 36.9329 145.82 37.0359 146.181 37.8334ZM144.942 38.9912C143.884 40.1489 143.238 41.2552 143.135 42.6445C143.083 43.0819 143.083 43.5707 143.574 43.8022C144.064 44.0338 144.555 43.8794 144.865 43.5192C145.458 42.8503 146 42.1042 146.594 41.3324C145.613 40.7921 144.89 40.2518 144.942 38.9912ZM146.594 40.0974C146.775 39.2999 146.723 39.197 145.975 39.0941C146.233 39.48 146.414 39.7887 146.594 40.0974Z" fill="#F66871"/>
<path d="M110.376 39.0171C111.176 39.5317 111.176 39.5574 110.815 40.4064C110.376 41.5384 109.911 42.6962 109.988 43.9568C110.066 44.0083 110.118 44.034 110.143 44.034C110.505 43.9568 110.892 43.7767 111.021 44.2913C111.15 44.7544 110.918 45.0631 110.505 45.2947C109.679 45.7063 108.878 45.3204 108.749 44.3685C108.698 43.9311 108.749 43.4937 108.749 42.9534C108.259 43.4165 107.846 43.8282 107.433 44.1884C106.865 44.6772 106.194 45.0374 105.445 44.6515C104.722 44.2913 104.593 43.5709 104.593 42.8505C104.567 40.921 106.374 38.1681 108.13 37.422C109.498 36.8303 110.531 37.5506 110.376 39.0171ZM109.73 39.2487C109.575 39.1715 109.446 39.1458 109.395 39.0686C108.878 38.3997 108.414 38.7341 107.949 39.12C107.02 39.9176 106.297 40.8438 106.013 42.053C105.91 42.4903 105.961 42.9792 105.935 43.4423C106.013 43.468 106.09 43.4937 106.168 43.5195C108.026 42.6962 108.594 40.7923 109.73 39.2487Z" fill="#F66871"/>
<path d="M85.7992 42.9535C85.8508 43.6996 86.2639 44.0083 87.0125 43.8282C87.8128 43.6224 88.4324 43.185 88.8971 42.4904C89.181 42.053 89.5424 41.5642 90.0587 41.8987C90.6009 42.2588 90.2136 42.7991 89.9555 43.185C89.3617 44.1112 88.5098 44.7802 87.4256 45.0374C85.825 45.4233 84.6633 44.5743 84.5084 42.9535C84.3019 40.8181 85.9283 38.2453 87.9677 37.525C88.6131 37.2934 89.2326 37.242 89.749 37.7822C90.2653 38.3225 90.3427 38.9914 90.0329 39.6346C89.4392 40.8953 88.5615 41.9501 87.2965 42.5676C86.8318 42.7991 86.2897 42.8249 85.7992 42.9535ZM88.8196 38.9143C87.7612 38.9657 86.2381 40.2521 86.1606 41.0754C86.1348 41.4613 86.393 41.5385 86.7027 41.4098C87.8128 40.9467 88.4066 40.072 88.8196 38.9143Z" fill="#F66871"/>
<path d="M71.8849 38.6823C72.3496 38.6051 72.6594 38.5794 72.995 38.5279C73.4855 38.4507 73.8469 38.6566 73.8727 39.1197C73.8727 39.274 73.4855 39.557 73.2273 39.6342C71.5235 40.0201 71.4977 40.0201 71.2137 41.7696C70.9814 43.0817 70.8007 44.4196 70.5942 45.7317C70.5683 45.9375 70.4909 46.1433 70.4134 46.3491C70.2327 46.7093 69.9746 46.9409 69.5357 46.7865C69.1227 46.6321 68.9936 46.3491 69.0969 45.9375C69.4325 44.2652 69.7681 42.5929 70.0778 40.9206C70.1037 40.792 70.1295 40.6633 70.0004 40.6633C69.6906 40.3803 69.1743 40.1488 69.1227 39.84C69.0452 39.274 69.6648 39.1968 70.0778 39.0167C70.3102 38.9138 70.5425 38.6823 70.62 38.4507C70.9298 37.4731 71.1621 36.4697 71.4719 35.5178C71.8075 34.4372 72.5819 33.7683 73.692 33.511C74.5697 33.3052 75.3958 33.6911 75.654 34.4372C75.8089 34.9003 75.8347 35.3634 75.3184 35.595C74.8537 35.8008 74.4665 35.6722 74.2599 35.1061C74.2083 34.9775 73.7694 34.8231 73.6662 34.9003C73.3306 35.1576 72.9434 35.4663 72.7885 35.8522C72.427 36.7013 72.1947 37.6275 71.8849 38.6823Z" fill="#F66871"/>
<path d="M138.463 40.5092C138.256 40.4834 138.075 40.5092 137.972 40.432C137.766 40.2776 137.43 40.0718 137.43 39.8917C137.43 39.6602 137.688 39.2485 137.895 39.2485C138.901 39.1199 139.005 38.3738 139.16 37.6277C139.314 36.9073 139.547 36.1869 139.779 35.4923C140.141 34.4374 140.915 33.7428 142.025 33.4855C142.98 33.254 143.884 33.7943 144.013 34.6175C144.09 35.0549 144.013 35.4665 143.522 35.5952C143.084 35.7238 142.722 35.5952 142.567 35.1064C142.464 34.6947 142.128 34.7204 141.922 34.8748C141.586 35.1321 141.225 35.4408 141.096 35.801C140.734 36.7015 140.502 37.6534 140.192 38.7082C140.631 38.6568 140.941 38.5539 141.251 38.5796C141.509 38.5796 141.819 38.631 141.999 38.7854C142.361 39.0941 142.257 39.4543 141.793 39.583C141.354 39.7116 140.915 39.7888 140.476 39.8402C140.037 39.9174 139.805 40.0718 139.753 40.5606C139.521 42.1043 139.263 43.6222 139.005 45.1659C138.927 45.5518 138.85 45.9634 138.721 46.3493C138.566 46.761 138.282 46.9668 137.817 46.8124C137.404 46.6581 137.327 46.3493 137.404 45.9377C137.766 44.111 138.101 42.3358 138.463 40.5092Z" fill="#F66871"/>
<path d="M134.874 40.0718C134.513 40.612 134.126 41.1266 133.79 41.6926C133.3 42.4902 132.835 43.3134 132.396 44.1367C132.112 44.677 131.673 44.5998 131.234 44.5226C130.796 44.4197 130.563 44.1367 130.641 43.6994C130.925 41.8727 131.234 40.046 131.57 38.2451C131.622 37.9878 131.931 37.7048 132.164 37.6276C132.345 37.5762 132.706 37.782 132.835 37.9878C132.964 38.1422 132.938 38.4509 132.887 38.6825C132.603 39.763 132.293 40.8436 131.983 41.9241C132.035 41.9499 132.086 41.9756 132.164 42.0013C132.267 41.8212 132.37 41.6411 132.499 41.4868C133.016 40.7149 133.532 39.9174 134.1 39.1713C134.461 38.6825 135.004 38.4252 135.623 38.6825C136.217 38.914 136.32 39.4543 136.32 39.9946C136.32 40.7407 136.268 41.4868 136.243 42.2329C136.217 42.9275 136.243 43.5707 136.656 44.1882C136.785 44.3683 136.707 44.8571 136.552 45.0629C136.32 45.3974 135.83 45.3974 135.623 45.0629C135.313 44.5484 135.029 43.9824 134.926 43.3906C134.823 42.7989 134.926 42.1557 134.978 41.5382C135.004 41.0751 135.055 40.612 135.081 40.1747C135.004 40.1232 134.952 40.0975 134.874 40.0718Z" fill="#F66871"/>
<path d="M77.3317 37.8593C78.6741 37.9365 79.3195 38.5539 79.1905 39.8918C79.0097 42.0272 78.0288 43.7766 76.1442 44.8572C74.4662 45.8349 72.8141 44.8572 72.9431 42.9534C73.0722 40.7151 74.0532 38.8884 75.8861 37.5248C76.6089 37.0103 76.9445 37.0875 77.3317 37.8593ZM76.2991 38.9399C75.06 40.0204 74.3114 41.3325 74.2597 42.9276C74.2339 43.6995 74.6986 44.0597 75.473 43.8281C75.7054 43.7509 75.9893 43.648 76.1184 43.4422C76.7122 42.516 77.3317 41.6155 77.8222 40.6379C78.0029 40.2777 77.8481 39.7631 77.8481 39.2229C77.1769 39.583 76.6864 39.4801 76.2991 38.9399Z" fill="#F66871"/>
<path d="M167.427 40.1746C167.143 41.9756 166.266 43.7765 164.355 44.8828C162.651 45.8605 161.025 44.8571 161.154 42.9275C161.309 40.6892 162.29 38.8625 164.123 37.499C164.768 37.0359 164.975 37.0873 165.465 37.7048C165.517 37.782 165.646 37.8334 165.775 37.8592C166.963 38.065 167.427 38.631 167.427 40.1746ZM164.484 38.9397C163.297 40.046 162.522 41.3324 162.445 42.9532C162.419 43.7251 162.884 44.0852 163.658 43.8537C163.891 43.7765 164.175 43.6736 164.304 43.4678C164.897 42.5416 165.517 41.6411 166.007 40.6635C166.188 40.3033 166.033 39.7887 166.033 39.1713C165.336 39.6601 164.897 39.4285 164.484 38.9397Z" fill="#F66871"/>
<path d="M158.934 37.3706C160.354 37.3706 161.206 38.4254 160.844 39.6089C160.689 40.072 160.405 40.2521 159.915 40.1749C159.45 40.0977 159.295 39.8405 159.347 39.3516C159.424 38.8371 159.115 38.5283 158.624 38.6827C158.108 38.8371 157.566 39.1201 157.23 39.506C156.456 40.355 156.12 41.4098 156.068 42.5419C156.017 43.6739 156.662 44.1112 157.643 43.5452C158.134 43.2622 158.495 42.7991 158.882 42.3875C159.14 42.1045 159.321 41.7443 159.631 41.5128C159.786 41.3841 160.147 41.3841 160.302 41.487C160.431 41.5642 160.535 41.8987 160.483 42.1045C160.173 43.4938 158.082 45.0889 156.636 45.0632C155.784 45.0374 155.165 44.5743 154.829 43.6739C154.003 41.3841 156.068 37.8594 158.469 37.4221C158.676 37.3706 158.857 37.3706 158.934 37.3706Z" fill="#F66871"/>
<path d="M93.518 40.1745C94.2925 39.3255 94.9637 38.5794 95.6349 37.8333C96.0737 37.3445 96.4351 37.2673 96.7707 37.6018C97.158 38.0134 96.9773 38.3479 96.6158 38.6823C95.8156 39.4542 95.0411 40.2517 94.2408 41.0235C94.0085 41.2551 93.9569 41.4609 94.1634 41.7439C94.5764 42.3356 94.9637 42.9531 95.4025 43.5448C95.7381 44.0079 95.7123 44.4196 95.2993 44.6769C94.8088 44.9856 94.5248 44.7798 94.2666 44.3167C93.9052 43.6735 93.518 43.0817 93.0791 42.3614C92.6661 43.056 92.3047 43.6478 91.9433 44.2909C91.6077 44.857 91.2204 45.0628 90.8332 44.7798C90.3169 44.4196 90.5492 44.0079 90.8074 43.622C91.2979 42.9017 91.84 42.207 92.3305 41.4866C92.4596 41.3065 92.5112 40.9721 92.4338 40.7663C92.253 40.0716 91.9691 39.4027 91.7884 38.708C91.6335 38.1678 91.8658 37.8076 92.3821 37.7047C92.9759 37.6018 93.105 37.9362 93.1566 38.425C93.2082 38.9911 93.3631 39.5056 93.518 40.1745Z" fill="#F66871"/>
<path d="M115.978 42.6189C116.158 40.4578 116.778 38.4253 117.449 36.3928C117.681 35.6982 117.914 35.0293 118.172 34.3603C118.353 33.8972 118.688 33.5371 119.256 33.7429C119.824 33.9744 119.747 34.4375 119.592 34.8749C119.101 36.2642 118.482 37.6535 118.094 39.0685C117.733 40.4063 117.552 41.8214 117.397 43.2107C117.32 43.9053 117.475 43.931 118.12 43.6737C118.327 43.5966 118.791 43.6995 118.817 43.8281C118.895 44.0854 118.895 44.4713 118.74 44.6771C118.146 45.4747 116.752 45.2946 116.339 44.3427C116.132 43.8024 116.081 43.1849 115.978 42.6189Z" fill="#F66871"/>
<path d="M81.7464 40.5605C82.1079 39.9173 82.4435 39.2484 82.8307 38.631C83.2179 38.0392 83.76 37.7048 84.5087 37.7562C85.025 37.8077 85.4897 38.1936 85.4897 38.6052C85.4639 38.9911 84.9217 39.3256 84.3796 39.2227C83.7859 39.1198 83.5019 39.5314 83.2437 39.8916C82.3144 41.2552 81.6948 42.7988 81.4108 44.4197C81.3076 44.96 81.0494 45.1143 80.5848 45.0371C80.1201 44.96 79.8361 44.7541 79.9136 44.2139C80.1717 42.2586 80.3782 40.2775 80.6364 38.3222C80.688 37.8849 81.1269 37.6018 81.5916 37.7048C82.1079 37.8334 82.2886 38.1679 82.1595 38.6567C82.0046 39.2999 81.8239 39.9173 81.6432 40.5605C81.669 40.5605 81.7206 40.5605 81.7464 40.5605Z" fill="#F66871"/>
<path d="M113.551 43.6479C113.757 43.5964 113.809 43.5964 113.861 43.5707C114.274 43.262 114.764 43.1848 114.997 43.6993C115.229 44.1882 114.764 44.4712 114.377 44.677C113.422 45.1658 112.338 44.677 112.157 43.6222C112.079 43.0561 112.079 42.4644 112.208 41.9241C112.492 40.7149 112.828 39.5572 113.215 38.3737C113.422 37.7563 113.757 37.6276 114.274 37.8592C114.842 38.1422 114.713 38.5281 114.506 38.9655C113.861 40.2261 113.525 41.5897 113.473 43.0047C113.499 43.1848 113.525 43.3906 113.551 43.6479Z" fill="#F66871"/>
<path d="M128.601 43.6223C128.704 43.5965 128.782 43.5965 128.833 43.5708C129.272 43.2621 129.737 43.1849 129.969 43.6994C130.201 44.1883 129.737 44.4713 129.35 44.6514C128.394 45.1402 127.259 44.6514 127.155 43.5708C127.078 42.799 127.181 42.0014 127.336 41.2553C127.542 40.3034 127.852 39.3772 128.162 38.451C128.394 37.7306 128.73 37.5763 129.272 37.8335C129.763 38.0651 129.763 38.3481 129.453 39.017C128.833 40.3034 128.498 41.6412 128.446 43.0563C128.446 43.1849 128.446 43.3135 128.472 43.4422C128.498 43.4936 128.549 43.5451 128.601 43.6223Z" fill="#F66871"/>
<path d="M153.874 43.9564C153.874 44.5739 153.358 45.2171 152.893 45.1656C152.377 45.0885 152.274 44.7025 152.274 44.2652C152.274 43.6477 152.739 43.1074 153.229 43.1074C153.642 43.1074 153.9 43.4162 153.874 43.9564Z" fill="#F66871"/>
<path d="M115.616 35.9041C115.642 36.5987 115.048 37.3448 114.506 37.3706C114.041 37.3963 113.86 37.1133 113.86 36.7017C113.86 36.0585 114.377 35.4925 114.996 35.4667C115.383 35.4153 115.616 35.5696 115.616 35.9041Z" fill="#F66871"/>
<path d="M130.563 36.0068C130.563 36.6242 129.969 37.3446 129.427 37.3446C128.963 37.3446 128.808 37.0616 128.808 36.6242C128.833 35.981 129.35 35.4408 129.969 35.415C130.382 35.4408 130.589 35.6209 130.563 36.0068Z" fill="#F66871"/>
</g>
<path d="M28.1305 47.8906H34.6863C32.2159 45.7325 30.5843 42.7735 30.0773 39.5327L25.8268 12.3573C25.1875 8.26987 23.5382 4.40664 21.0284 1.11777H14.4727C17.3388 4.76936 19.2251 9.09233 19.9527 13.677L24.119 39.9272C24.5962 42.934 25.9983 45.7175 28.1305 47.8906Z" fill="url(#paint0_linear_1559_16099)"/>
<path d="M36.8727 47.8906H43.4284C40.9581 45.7325 39.3264 42.7735 38.8195 39.5327L34.569 12.3573C33.9296 8.26987 32.2804 4.40664 29.7706 1.11777H23.2148C26.081 4.76936 27.9673 9.09233 28.6949 13.677L32.8611 39.9272C33.3384 42.934 34.7405 45.7175 36.8727 47.8906Z" fill="url(#paint1_linear_1559_16099)"/>
<path d="M52.8971 1.11133H59.5789C57.7499 3.30613 56.4779 5.9101 55.871 8.70189L49.6603 37.2708C48.8528 40.9854 47.5045 44.5613 45.6584 47.8842H38.9766C41.1892 44.1964 42.7899 40.1745 43.7163 35.9749L49.8048 8.37326C50.3765 5.78185 51.425 3.31935 52.8971 1.11133Z" fill="url(#paint2_linear_1559_16099)"/>
<path d="M43.9889 1.11133H50.6707C48.8417 3.30613 47.5697 5.9101 46.9628 8.70189L40.7521 37.2708C39.9446 40.9854 38.5963 44.5613 36.7502 47.8842H30.0684C32.281 44.1964 33.8817 40.1745 34.8081 35.9749L40.8966 8.37326C41.4683 5.78185 42.5168 3.31935 43.9889 1.11133Z" fill="url(#paint3_linear_1559_16099)"/>
<path d="M22.8287 1.11133H29.5105C27.6815 3.30613 26.4095 5.9101 25.8026 8.70189L19.592 37.2708C18.7844 40.9854 17.4361 44.5613 15.59 47.8842H8.9082C11.1209 44.1964 12.7215 40.1745 13.6479 35.9749L19.7365 8.37326C20.3081 5.78185 21.3567 3.31935 22.8287 1.11133Z" fill="url(#paint4_linear_1559_16099)"/>
<path d="M13.9205 1.11133H20.6023C18.7733 3.30613 17.5013 5.9101 16.8944 8.70189L10.6838 37.2708C9.87625 40.9854 8.5279 44.5613 6.68184 47.8842H0C2.21266 44.1964 3.8133 40.1745 4.7397 35.9749L10.8283 8.37326C11.3999 5.78185 12.4485 3.31935 13.9205 1.11133Z" fill="url(#paint5_linear_1559_16099)"/>
<path d="M73.9644 1.14619L79.0126 1.38333L81.6655 1.30428C81.717 1.69952 81.7427 2.2265 81.7427 2.88523C81.7427 3.54396 81.6741 4.01825 81.5367 4.30809C81.4165 4.59793 81.2019 4.74285 80.8928 4.74285C80.5837 4.74285 79.9226 4.67698 78.9096 4.54523C77.9136 4.41348 77.1753 4.34761 76.6945 4.34761L75.7673 4.42666C75.6986 5.42793 75.2865 8.62935 74.531 14.0309C75.836 13.8465 76.9263 13.7543 77.802 13.7543C78.6777 13.7543 79.356 13.8597 79.8368 14.0705C79.8024 15.1771 79.6479 16.1257 79.3732 16.9162C78.6348 16.679 77.7591 16.5604 76.746 16.5604C75.733 16.5604 74.8744 16.6395 74.1704 16.7976C73.5351 21.5668 73.2174 25.1898 73.2174 27.6666V28.3385C72.5993 28.8655 71.2943 29.129 69.3025 29.129H69.0449C69.0449 27.3373 69.4399 23.6089 70.2297 17.9438C71.0367 12.2787 71.5261 8.20776 71.6978 5.73094C71.6978 5.30935 71.612 4.80872 71.4402 4.22904C71.2685 3.62301 71.0882 3.13555 70.8994 2.76666L70.6418 2.21333L70.7191 1.62047C71.6463 1.33063 72.7281 1.17254 73.9644 1.14619Z" fill="url(#paint6_linear_1559_16099)"/>
<path d="M95.1989 4.42666C95.6626 5.48062 96.006 6.60046 96.2292 7.78618C96.4524 8.94554 96.564 10.2366 96.564 11.6595C96.564 13.0824 96.461 14.5974 96.255 16.2047C96.0489 17.812 95.7055 19.4193 95.2247 21.0266C94.7439 22.6339 94.1601 24.0568 93.4733 25.2952C92.7865 26.5336 91.9193 27.548 90.8719 28.3385C89.8245 29.1026 88.674 29.4847 87.4206 29.4847C85.5833 29.4847 84.1581 28.4834 83.145 26.4809C82.132 24.452 81.6254 21.8566 81.6254 18.6947C81.6254 15.5065 81.986 12.5949 82.7072 9.95998C83.4455 7.29872 84.493 5.13809 85.8494 3.47809C87.2231 1.79174 88.7427 0.948569 90.4083 0.948569C91.5072 0.948569 92.4688 1.26476 93.293 1.89714C94.1172 2.52952 94.7525 3.37269 95.1989 4.42666ZM88.1933 26.7971C89.0003 26.7971 89.6785 26.2569 90.228 25.1766C90.7946 24.0963 91.2239 22.6866 91.5158 20.9476C92.0996 17.5222 92.3915 14.0046 92.3915 10.3947C92.3915 5.88904 91.6017 3.63618 90.022 3.63618C89.1291 3.63618 88.3478 4.45301 87.6781 6.08666C86.4247 9.16951 85.7979 13.4381 85.7979 18.8923C85.7979 21.8698 85.9095 23.7142 86.1328 24.4257C86.2358 24.8209 86.3732 25.2293 86.5449 25.6509C86.8539 26.415 87.4034 26.7971 88.1933 26.7971Z" fill="url(#paint7_linear_1559_16099)"/>
<path d="M98.4891 29.208C98.1629 29.208 97.9396 29.1949 97.8194 29.1685C97.9396 27.6403 98.4634 23.7669 99.3906 17.5485C100.335 11.3038 100.807 7.35142 100.807 5.69142C100.807 5.37523 100.687 4.96682 100.447 4.46618C100.206 3.9392 99.9658 3.50444 99.7254 3.1619L99.3906 2.60857L99.4678 1.97619C101.82 1.29111 104.31 0.948569 106.937 0.948569C110.097 0.948569 111.676 2.85888 111.676 6.67951C111.676 8.5503 111.367 10.263 110.749 11.8176C110.148 13.3458 109.204 14.5447 107.916 15.4143C108.877 20.3416 109.702 23.5298 110.388 24.979C110.698 25.585 110.938 25.8881 111.11 25.8881C111.419 25.8881 111.9 25.6509 112.552 25.1766L112.861 24.9395L113.453 26.4019C112.818 27.2977 112.08 28.0355 111.238 28.6152C110.414 29.1949 109.633 29.4847 108.895 29.4847C108.173 29.4847 107.572 29.0104 107.092 28.0619C106.628 27.0869 106.199 25.6641 105.804 23.7933C105.426 21.9225 105.04 19.5247 104.645 16.6C104.095 16.6527 103.675 16.679 103.383 16.679C102.507 22.4495 102.026 26.3492 101.94 28.378C101.202 28.9314 100.052 29.208 98.4891 29.208ZM104.387 13.9914C105.418 13.9914 106.225 13.2932 106.808 11.8966C107.409 10.4738 107.71 8.78745 107.71 6.83761C107.71 5.80999 107.59 4.97999 107.349 4.34761C107.109 3.71523 106.748 3.39904 106.267 3.39904C106.061 3.39904 105.812 3.45174 105.521 3.55714C105.246 3.63618 105.108 3.68888 105.108 3.71523C104.834 6.4292 104.387 9.85459 103.769 13.9914H104.387Z" fill="url(#paint8_linear_1559_16099)"/>
<path d="M119.398 29.4847C118.196 29.4847 117.046 28.9577 115.947 27.9038C115.398 27.3768 114.942 26.639 114.582 25.6904C114.238 24.7419 114.067 23.6484 114.067 22.41C114.067 20.0649 114.573 18.1546 115.586 16.679C116.599 15.2035 117.819 14.3471 119.244 14.11C118.282 13.7147 117.51 13.0297 116.926 12.0547C116.359 11.0798 116.076 9.84141 116.076 8.33951C116.076 6.07348 116.651 4.28174 117.801 2.96428C118.969 1.62047 120.3 0.948569 121.794 0.948569C123.288 0.948569 124.532 1.43603 125.528 2.41095C126.524 3.38587 127.022 4.70332 127.022 6.36332C127.022 6.943 126.953 7.50951 126.816 8.06284C126.696 8.61617 126.567 9.01141 126.43 9.24856L126.249 9.64379C125.7 9.64379 125.09 9.49887 124.421 9.20903C123.768 8.91919 123.288 8.5503 122.978 8.10237L123.288 4.03142C123.03 3.63618 122.592 3.43857 121.974 3.43857C121.373 3.43857 120.892 3.92603 120.532 4.90094C120.188 5.84951 120.016 6.943 120.016 8.18141C120.016 9.41982 120.111 10.3552 120.3 10.9876C120.489 11.62 120.755 12.1074 121.098 12.45C121.631 12.977 122.257 13.3458 122.978 13.5566L122.772 15.7304C121.536 15.7304 120.463 16.297 119.553 17.43C118.643 18.5366 118.188 20.0122 118.188 21.8566C118.188 23.016 118.428 23.9777 118.909 24.7419C119.407 25.4796 120.042 25.8485 120.815 25.8485C122.223 25.8485 123.665 24.755 125.142 22.5681L126.172 24.0304C124.18 27.6666 121.922 29.4847 119.398 29.4847Z" fill="url(#paint9_linear_1559_16099)"/>
<path d="M139.943 0.948569C140.372 0.948569 140.904 1.47555 141.54 2.52952C140.87 4.40031 139.685 6.79808 137.985 9.72284C137.419 10.6978 136.577 12.1206 135.461 13.9914C135.856 15.7041 136.354 17.7593 136.955 20.1571C137.848 23.7669 138.56 25.5719 139.093 25.5719C139.264 25.5719 139.711 25.2688 140.432 24.6628L140.793 24.3861L141.334 26.1252C140.801 26.942 140.072 27.7061 139.144 28.4176C138.234 29.129 137.444 29.4847 136.775 29.4847C136.122 29.4847 135.599 29.2212 135.204 28.6942C134.809 28.1409 134.422 27.1133 134.045 25.6114C133.667 24.1095 133.169 21.9225 132.551 19.0504C130.628 22.5022 129.014 25.7827 127.709 28.8919C127.537 29.3398 127.271 29.5638 126.91 29.5638C126.549 29.5638 126.094 29.0104 125.545 27.9038C126.335 25.8222 127.588 23.2927 129.305 20.3152C129.906 19.2876 130.765 17.8384 131.881 15.9676C130.628 10.2762 129.735 6.85078 129.202 5.69142C128.687 4.53206 128.164 3.54396 127.631 2.72714L127.734 2.13428C127.7 2.10793 127.915 2.00254 128.378 1.81809C129.683 1.34381 131.014 1.05397 132.37 0.948569C132.8 1.52825 133.152 2.54269 133.426 3.9919C134.165 7.81253 134.62 10.1444 134.791 10.9876C136.989 7.14062 138.509 4.01825 139.35 1.62047C139.505 1.17254 139.702 0.948569 139.943 0.948569Z" fill="url(#paint10_linear_1559_16099)"/>
<path d="M153.842 29.4847C152.846 29.4847 151.816 29.2344 150.751 28.7338C149.858 29.0763 149.077 29.2476 148.407 29.2476C147.755 29.2476 147.309 29.2212 147.068 29.1685C147.188 27.6139 147.703 23.6747 148.614 17.3509C149.541 11.0008 150.004 7.40412 150.004 6.56094C150.004 5.69142 149.884 4.94047 149.644 4.30809C149.421 3.67571 149.197 3.2146 148.974 2.92476L148.614 2.49L148.691 1.89714C149.137 1.7127 150.047 1.51508 151.421 1.30428C152.812 1.06714 154.022 0.948569 155.053 0.948569C157.439 0.948569 159.242 1.76539 160.461 3.39904C161.698 5.00634 162.316 7.62808 162.316 11.2643C162.316 14.2417 161.99 17.1006 161.337 19.8409C160.702 22.5549 159.723 24.8473 158.401 26.718C157.079 28.5625 155.559 29.4847 153.842 29.4847ZM155.671 3.43857C155.224 3.43857 154.718 3.51761 154.151 3.67571C153.979 6.46872 153.49 10.5528 152.683 15.9281C151.893 21.2769 151.43 24.6892 151.292 26.1647C151.704 26.4809 152.271 26.639 152.992 26.639C153.713 26.639 154.391 26.2042 155.027 25.3347C155.679 24.4388 156.203 23.3322 156.598 22.0147C156.993 20.6973 157.336 19.2217 157.628 17.5881C158.126 14.6633 158.375 12.002 158.375 9.60427C158.375 7.2065 158.169 5.58602 157.757 4.74285C157.345 3.87333 156.649 3.43857 155.671 3.43857Z" fill="url(#paint11_linear_1559_16099)"/>
<path d="M170.883 12.6476C170.917 12.5949 171.012 12.2524 171.166 11.62C171.973 11.62 173.055 11.9889 174.412 12.7266C173.982 14.9136 173.639 17.206 173.381 19.6038C173.124 21.9752 172.995 23.6747 172.995 24.7023C172.995 25.7036 173.064 26.2042 173.201 26.2042C173.304 26.2042 173.682 25.9539 174.334 25.4533L174.643 25.2161L175.107 26.5995C174.952 26.8103 174.746 27.0738 174.489 27.39C174.248 27.7061 173.785 28.1409 173.098 28.6942C172.411 29.2212 171.793 29.4847 171.244 29.4847C170.179 29.4847 169.561 28.7469 169.389 27.2714C168.29 28.7469 167.294 29.4847 166.401 29.4847C165.526 29.4847 164.779 28.9577 164.161 27.9038C163.56 26.8498 163.259 25.1898 163.259 22.9238C163.259 19.393 163.731 16.6131 164.676 14.5843C165.62 12.529 166.762 11.5014 168.101 11.5014C169.063 11.5014 169.99 11.8835 170.883 12.6476ZM167.947 26.1252C168.359 26.1252 168.822 25.8749 169.338 25.3742C169.458 21.659 169.861 17.9833 170.548 14.3471C170.033 14.0046 169.595 13.8333 169.235 13.8333C168.616 13.8333 168.084 14.7687 167.638 16.6395C167.208 18.4839 166.994 20.526 166.994 22.7657C166.994 25.0054 167.311 26.1252 167.947 26.1252Z" fill="url(#paint12_linear_1559_16099)"/>
<path d="M180.914 13.9519C180.914 15.0585 180.682 16.9689 180.219 19.6828C179.755 22.3704 179.523 24.1358 179.523 24.979C179.523 25.7958 179.601 26.2042 179.755 26.2042C179.858 26.2042 180.253 25.9539 180.94 25.4533L181.249 25.2161L181.687 26.5995C181.532 26.8103 181.326 27.0738 181.069 27.39C180.811 27.7061 180.33 28.1409 179.626 28.6942C178.922 29.2212 178.27 29.4847 177.669 29.4847C177.068 29.4847 176.596 29.208 176.252 28.6547C175.909 28.075 175.737 27.3109 175.737 26.3623C175.737 25.3874 175.952 23.6747 176.381 21.2242C176.81 18.7474 177.025 17.1401 177.025 16.4024C177.025 15.2957 176.802 14.2549 176.355 13.28L176.124 12.8057L176.149 12.2919C177.059 11.8966 178.536 11.699 180.579 11.699C180.803 12.0943 180.914 12.8452 180.914 13.9519ZM177.978 7.39094C177.635 6.86396 177.463 6.1657 177.463 5.29618C177.463 4.42666 177.695 3.66253 178.158 3.0038C178.639 2.34507 179.189 2.01571 179.807 2.01571C180.425 2.01571 180.906 2.2792 181.249 2.80619C181.592 3.33317 181.764 4.03142 181.764 4.90094C181.764 5.74412 181.515 6.49507 181.017 7.1538C180.536 7.81253 179.996 8.14189 179.395 8.14189C178.794 8.14189 178.321 7.89157 177.978 7.39094Z" fill="url(#paint13_linear_1559_16099)"/>
<path d="M184.583 29.4847C184 29.4847 183.51 29.1817 183.115 28.5757C182.738 27.9696 182.549 27.1265 182.549 26.0461C182.549 24.9395 182.969 21.4482 183.811 15.5724C184.669 9.67014 185.099 5.41475 185.099 2.80619L184.944 1.06714C186.283 0.355714 187.537 0 188.704 0C188.876 0.368888 188.962 1.01444 188.962 1.93666C188.962 4.0446 188.524 8.12871 187.648 14.189C186.79 20.223 186.361 23.7406 186.361 24.7419C186.361 25.7168 186.438 26.2042 186.592 26.2042L188.395 25.2161L188.859 26.5995C188.275 27.3109 187.563 27.9696 186.721 28.5757C185.897 29.1817 185.184 29.4847 184.583 29.4847Z" fill="url(#paint14_linear_1559_16099)"/>
<path d="M192.945 33.279C192.378 33.806 192.095 34.3198 192.095 34.8204C192.095 35.321 192.275 35.5714 192.636 35.5714C193.013 35.5714 193.434 35.2947 193.898 34.7414C194.361 34.2144 194.748 33.3449 195.057 32.1328C194.232 32.3699 193.528 32.752 192.945 33.279ZM191.708 29.1685C190.266 29.1685 189.545 27.9565 189.545 25.5323C189.545 24.9527 189.716 23.2795 190.06 20.5128C190.403 17.7462 190.575 15.4406 190.575 13.5962C190.575 13.2009 190.541 12.832 190.472 12.4895C191.399 11.9362 192.67 11.6595 194.284 11.6595C194.37 12.0284 194.413 12.6608 194.413 13.5566C194.413 14.4525 194.224 16.3101 193.846 19.1295C193.468 21.9489 193.279 23.7669 193.279 24.5838C193.279 25.4006 193.503 25.809 193.949 25.809C194.481 25.809 195.125 25.4006 195.881 24.5838C195.967 23.0292 196.31 18.9319 196.911 12.2919C197.512 11.923 198.594 11.7386 200.156 11.7386H200.646C200.319 13.7147 200.002 16.5604 199.693 20.2757C199.384 23.9909 199.135 26.5731 198.946 28.0223C198.585 30.9207 197.916 33.279 196.937 35.0971C195.975 36.9415 194.713 37.8637 193.151 37.8637C192.533 37.8637 191.966 37.6134 191.451 37.1128C190.953 36.6122 190.704 35.9666 190.704 35.1761C190.704 34.1222 191.124 33.1604 191.966 32.2909C192.807 31.4214 193.94 30.7495 195.366 30.2752C195.52 29.1158 195.64 27.996 195.726 26.9157C194.335 28.4176 192.996 29.1685 191.708 29.1685Z" fill="url(#paint15_linear_1559_16099)"/>
<path d="M210.98 24.979C210.98 25.5587 211.074 25.8485 211.263 25.8485C211.366 25.8485 211.864 25.506 212.757 24.8209L213.246 26.2833C211.701 28.4176 210.336 29.4847 209.151 29.4847C208.413 29.4847 207.846 29.1026 207.451 28.3385C207.073 27.5744 206.885 26.6258 206.885 25.4928C206.885 24.3598 207.297 21.2638 208.121 16.2047C208.962 11.1193 209.426 7.62808 209.512 5.73094C209.512 5.30935 209.417 4.80872 209.228 4.22904C209.057 3.62301 208.876 3.13555 208.687 2.76666L208.43 2.21333L208.507 1.62047C209.486 1.17254 211.1 0.948569 213.349 0.948569C213.555 1.5546 213.658 2.4373 213.658 3.59666C213.658 4.72967 213.212 8.03649 212.319 13.5171C211.426 18.9977 210.98 22.8184 210.98 24.979Z" fill="url(#paint16_linear_1559_16099)"/>
<path d="M215.441 29.129H214.951C214.951 27.8906 215.192 25.5192 215.672 22.0147C216.17 18.5103 216.419 16.5209 216.419 16.0466C216.419 15.1771 216.179 14.2549 215.698 13.28L215.466 12.8057L215.492 12.2919C216.419 11.8966 217.905 11.699 219.948 11.699C220.171 12.147 220.291 12.9638 220.309 14.1495C221.802 12.3841 223.064 11.5014 224.095 11.5014C224.713 11.5014 225.202 11.8308 225.563 12.4895C225.941 13.1482 226.129 13.9782 226.129 14.9795C226.129 15.9544 225.932 17.6539 225.537 20.0781C225.142 22.5022 224.945 24.1358 224.945 24.979C224.945 25.7958 225.013 26.2042 225.151 26.2042C225.254 26.2042 225.614 25.9539 226.232 25.4533L226.542 25.2161L227.005 26.5995C226.851 26.8103 226.645 27.0738 226.387 27.39C226.129 27.7061 225.649 28.1409 224.945 28.6942C224.258 29.2212 223.64 29.4847 223.09 29.4847C221.837 29.4847 221.21 28.3912 221.21 26.2042C221.21 25.282 221.399 23.5825 221.777 21.1057C222.172 18.6289 222.369 17.0347 222.369 16.3233C222.369 15.6119 222.223 15.2562 221.931 15.2562C221.433 15.2562 220.824 15.5855 220.103 16.2443C220.051 16.6922 219.879 17.8779 219.587 19.8014C218.986 23.9382 218.686 26.863 218.686 28.5757C218.085 28.9446 217.003 29.129 215.441 29.129Z" fill="url(#paint17_linear_1559_16099)"/>
<path d="M235.345 11.9757C235.311 12.5554 235.156 13.3195 234.882 14.2681C234.229 14.1627 233.585 14.11 232.95 14.11H232.847C232.486 20.6182 232.152 25.4269 231.843 28.5361C231.533 31.6453 231.13 33.8191 230.632 35.0576C230.014 35.0312 229.37 34.8995 228.7 34.6623C228.048 34.4515 227.601 34.2276 227.361 33.9904C227.773 32.0406 228.185 29.1026 228.597 25.1766C229.027 21.2506 229.301 17.6276 229.421 14.3076C228.941 14.3603 228.408 14.4525 227.825 14.5843C227.773 14.2417 227.747 13.8992 227.747 13.5566C227.747 13.1878 227.782 12.6608 227.85 11.9757H229.499C229.533 9.68332 229.61 7.94427 229.731 6.75856C229.937 4.65063 230.409 3.0038 231.147 1.81809C231.903 0.606031 232.873 0 234.058 0C234.813 0 235.405 0.263491 235.835 0.790474C236.281 1.29111 236.504 2.09476 236.504 3.20142C236.504 4.30809 236.178 5.74412 235.526 7.50951C234.873 9.24856 234.015 10.7373 232.95 11.9757H235.345ZM233.002 9.4857C233.671 8.61617 234.195 7.65443 234.573 6.60046C234.95 5.5465 235.139 4.59793 235.139 3.75475C235.139 2.88523 234.959 2.45047 234.598 2.45047C233.843 2.45047 233.362 3.7811 233.156 6.44237C233.087 7.33824 233.036 8.35268 233.002 9.4857Z" fill="url(#paint18_linear_1559_16099)"/>
<path d="M238.599 29.4847C237.414 29.4847 236.487 28.8523 235.817 27.5876C235.148 26.2965 234.813 24.5047 234.813 22.2123C234.813 19.2876 235.319 16.7712 236.332 14.6633C237.363 12.5554 238.779 11.5014 240.582 11.5014L241.509 11.5805C241.801 11.3433 242.127 11.2247 242.488 11.2247C243.845 11.2247 244.523 13.1878 244.523 17.1138C245.227 17.0611 245.939 16.9162 246.661 16.679L247.073 16.5209L247.227 18.0623C246.661 18.4312 245.896 18.7606 244.935 19.0504L244.42 19.2085C244.094 21.9752 243.432 24.3862 242.437 26.4414C241.441 28.4703 240.161 29.4847 238.599 29.4847ZM239.99 26.0857C240.711 26.0857 241.355 25.3742 241.921 23.9514C242.505 22.5285 242.909 21.0266 243.132 19.4457C241.295 19.4457 240.376 18.3917 240.376 16.2838C240.376 15.4406 240.488 14.6501 240.711 13.9124L240.84 13.5171C240.771 13.4644 240.685 13.4381 240.582 13.4381C240.479 13.4381 240.402 13.4644 240.35 13.5171C239.921 13.9387 239.518 14.9268 239.14 16.4814C238.762 18.036 238.573 19.8146 238.573 21.8171C238.573 24.6628 239.045 26.0857 239.99 26.0857Z" fill="url(#paint19_linear_1559_16099)"/>
<defs>
<linearGradient id="paint0_linear_1559_16099" x1="24.5795" y1="47.8906" x2="24.5795" y2="1.11777" gradientUnits="userSpaceOnUse">
<stop stop-color="#12497D"/>
<stop offset="1" stop-color="#245C94"/>
</linearGradient>
<linearGradient id="paint1_linear_1559_16099" x1="33.3216" y1="47.8906" x2="33.3216" y2="1.11777" gradientUnits="userSpaceOnUse">
<stop stop-color="#12497D"/>
<stop offset="1" stop-color="#245C94"/>
</linearGradient>
<linearGradient id="paint2_linear_1559_16099" x1="49.2777" y1="1.11133" x2="49.2777" y2="47.8842" gradientUnits="userSpaceOnUse">
<stop stop-color="#EA1B28"/>
<stop offset="1" stop-color="#852F74"/>
</linearGradient>
<linearGradient id="paint3_linear_1559_16099" x1="40.3695" y1="1.11133" x2="40.3695" y2="47.8842" gradientUnits="userSpaceOnUse">
<stop stop-color="#EA1B28"/>
<stop offset="1" stop-color="#852F74"/>
</linearGradient>
<linearGradient id="paint4_linear_1559_16099" x1="19.2094" y1="1.11133" x2="19.2094" y2="47.8842" gradientUnits="userSpaceOnUse">
<stop stop-color="#EA1B28"/>
<stop offset="1" stop-color="#852F74"/>
</linearGradient>
<linearGradient id="paint5_linear_1559_16099" x1="10.3012" y1="1.11133" x2="10.3012" y2="47.8842" gradientUnits="userSpaceOnUse">
<stop stop-color="#EA1B28"/>
<stop offset="1" stop-color="#852F74"/>
</linearGradient>
<linearGradient id="paint6_linear_1559_16099" x1="68.0174" y1="5.61781" x2="242.051" y2="16.4821" gradientUnits="userSpaceOnUse">
<stop stop-color="#D71CD2"/>
<stop offset="1" stop-color="#18CDF0"/>
</linearGradient>
<linearGradient id="paint7_linear_1559_16099" x1="68.0174" y1="5.61781" x2="242.051" y2="16.4821" gradientUnits="userSpaceOnUse">
<stop stop-color="#D71CD2"/>
<stop offset="1" stop-color="#18CDF0"/>
</linearGradient>
<linearGradient id="paint8_linear_1559_16099" x1="68.0174" y1="5.61781" x2="242.051" y2="16.4821" gradientUnits="userSpaceOnUse">
<stop stop-color="#D71CD2"/>
<stop offset="1" stop-color="#18CDF0"/>
</linearGradient>
<linearGradient id="paint9_linear_1559_16099" x1="68.0174" y1="5.61781" x2="242.051" y2="16.4821" gradientUnits="userSpaceOnUse">
<stop stop-color="#D71CD2"/>
<stop offset="1" stop-color="#18CDF0"/>
</linearGradient>
<linearGradient id="paint10_linear_1559_16099" x1="68.0174" y1="5.61781" x2="242.051" y2="16.4821" gradientUnits="userSpaceOnUse">
<stop stop-color="#D71CD2"/>
<stop offset="1" stop-color="#18CDF0"/>
</linearGradient>
<linearGradient id="paint11_linear_1559_16099" x1="68.0174" y1="5.61781" x2="242.051" y2="16.4821" gradientUnits="userSpaceOnUse">
<stop stop-color="#D71CD2"/>
<stop offset="1" stop-color="#18CDF0"/>
</linearGradient>
<linearGradient id="paint12_linear_1559_16099" x1="68.0174" y1="5.61781" x2="242.051" y2="16.4821" gradientUnits="userSpaceOnUse">
<stop stop-color="#D71CD2"/>
<stop offset="1" stop-color="#18CDF0"/>
</linearGradient>
<linearGradient id="paint13_linear_1559_16099" x1="68.0174" y1="5.61781" x2="242.051" y2="16.4821" gradientUnits="userSpaceOnUse">
<stop stop-color="#D71CD2"/>
<stop offset="1" stop-color="#18CDF0"/>
</linearGradient>
<linearGradient id="paint14_linear_1559_16099" x1="68.0174" y1="5.61781" x2="242.051" y2="16.4821" gradientUnits="userSpaceOnUse">
<stop stop-color="#D71CD2"/>
<stop offset="1" stop-color="#18CDF0"/>
</linearGradient>
<linearGradient id="paint15_linear_1559_16099" x1="68.0174" y1="5.61781" x2="242.051" y2="16.4821" gradientUnits="userSpaceOnUse">
<stop stop-color="#D71CD2"/>
<stop offset="1" stop-color="#18CDF0"/>
</linearGradient>
<linearGradient id="paint16_linear_1559_16099" x1="68.0174" y1="5.61781" x2="242.051" y2="16.4821" gradientUnits="userSpaceOnUse">
<stop stop-color="#D71CD2"/>
<stop offset="1" stop-color="#18CDF0"/>
</linearGradient>
<linearGradient id="paint17_linear_1559_16099" x1="68.0174" y1="5.61781" x2="242.051" y2="16.4821" gradientUnits="userSpaceOnUse">
<stop stop-color="#D71CD2"/>
<stop offset="1" stop-color="#18CDF0"/>
</linearGradient>
<linearGradient id="paint18_linear_1559_16099" x1="68.0174" y1="5.61781" x2="242.051" y2="16.4821" gradientUnits="userSpaceOnUse">
<stop stop-color="#D71CD2"/>
<stop offset="1" stop-color="#18CDF0"/>
</linearGradient>
<linearGradient id="paint19_linear_1559_16099" x1="68.0174" y1="5.61781" x2="242.051" y2="16.4821" gradientUnits="userSpaceOnUse">
<stop stop-color="#D71CD2"/>
<stop offset="1" stop-color="#18CDF0"/>
</linearGradient>
<clipPath id="clip0_1559_16099">
<rect width="112.478" height="15.591" fill="white" transform="translate(69.0449 33.4082)"/>
</clipPath>
</defs>
</svg>
