<svg width="180" height="35" viewBox="0 0 180 35" fill="none" xmlns="http://www.w3.org/2000/svg">
<path d="M126.283 7.70873C126.283 7.70873 123.386 7.29102 121.478 7.29102C118.44 7.29102 116.108 8.3353 114.554 10.3542C113.07 12.3036 112.293 14.7402 112.293 17.6642C112.293 20.6579 113.141 23.1641 114.766 25.1135C116.462 27.0628 118.581 28.0375 121.196 28.0375C123.033 28.0375 124.516 27.6197 125.788 26.7843C125.718 28.1071 125.364 29.0817 124.799 29.7083C124.092 30.4045 122.821 30.7526 120.984 30.7526C118.793 30.7526 116.744 30.3349 114.978 29.4995L114.059 29.0817L113.706 33.3285L114.13 33.5374C116.108 34.512 118.44 34.9994 120.984 34.9994C122.75 34.9994 124.304 34.7905 125.506 34.3032C126.777 33.8158 127.837 33.1196 128.544 32.2842C129.25 31.4488 129.745 30.4741 130.028 29.4298C130.31 28.3856 130.451 27.2717 130.451 25.9489V8.68339L126.283 7.70873ZM121.902 23.7907C120.418 23.7907 119.288 23.2338 118.369 22.1895C117.451 21.0756 116.956 19.5439 116.956 17.6642C116.956 15.7149 117.38 14.1833 118.228 13.0694C119.005 12.0251 120.206 11.5378 121.761 11.5378C123.457 11.5378 124.728 12.0251 125.788 12.9998V22.3983C124.799 23.3034 123.527 23.7907 121.902 23.7907Z" fill="#444445"/>
<path d="M4.73958 7.4375V6.5625C4.73958 5.6875 4.88542 5.03125 5.25 4.66667C5.46875 4.44792 6.05208 4.22917 7.29167 4.22917C8.09375 4.22917 8.89583 4.30208 9.77083 4.52083L10.5729 4.66667L10.9375 0.583333L10.3542 0.4375C9.26042 0.145833 8.23958 0 7.21875 0C2.47917 0 0 2.33333 0 6.70833V27.6354H4.73958V11.6667H10.2813L10.6458 7.4375H4.73958Z" fill="#434444"/>
<path d="M20.054 6.99805C17.1374 6.99805 14.7311 8.01888 13.054 9.91471C11.377 11.8105 10.502 14.3626 10.502 17.498C10.502 20.6335 11.377 23.1855 13.054 25.0814C14.804 27.0501 17.1374 27.998 20.054 27.998C22.9707 27.998 25.304 27.0501 27.054 25.1543C28.7311 23.2585 29.6061 20.7064 29.6061 17.498C29.6061 14.3626 28.7311 11.8105 27.054 9.91471C25.304 8.01888 22.9707 6.99805 20.054 6.99805ZM23.554 22.2376C22.752 23.2585 21.5853 23.696 20.054 23.696C18.4499 23.696 17.2832 23.1855 16.4811 22.2376C15.679 21.2168 15.2415 19.6126 15.2415 17.571C15.2415 15.5293 15.679 13.9251 16.4811 12.9043C17.2832 11.8835 18.4499 11.446 20.054 11.446C22.0957 11.446 24.8665 12.1022 24.8665 17.6439C24.7936 19.6126 24.3561 21.2168 23.554 22.2376Z" fill="#434444"/>
<path d="M77.4362 7.36523H82.832L68.4675 27.5632H63.1445L77.4362 7.36523Z" fill="#434444"/>
<path d="M68.6133 7.36523H63.1445L69.1237 15.9694L71.8945 12.0319L68.6133 7.36523Z" fill="#0560A3"/>
<path d="M74.4473 22.3138L78.0931 27.5638H83.6348L77.1452 18.4492L74.4473 22.3138Z" fill="#0560A3"/>
<path d="M90.9277 7.4375H85.459V27.6354H90.9277V7.4375Z" fill="#434444"/>
<path d="M90.9277 0.439453H85.459V5.32487H90.9277V0.439453Z" fill="#434444"/>
<path d="M103.105 7.00195C100.991 7.00195 99.2409 8.38737 97.9284 9.62695L96.9805 7.43945H93.4805V27.6374H98.2201V13.4915C99.2409 12.0332 100.48 11.377 102.012 11.377C104.418 11.377 105.512 12.5436 105.512 15.1686V27.6374H110.251V14.7311C110.251 12.252 109.595 10.3561 108.283 9.04362C107.043 7.6582 105.293 7.00195 103.105 7.00195Z" fill="#434444"/>
<path d="M148.969 17.4297H146.271C143.063 17.5026 141.312 20.2005 141.312 23.4089C141.312 26.8359 143.208 29.3151 146.198 29.388H149.115V28.2943H146.271C143.938 28.2214 142.479 26.0339 142.479 23.4089C142.479 20.7109 143.719 18.5234 146.271 18.5234H148.969C149.042 18.5234 149.115 18.4505 149.115 18.3776V17.6484C149.187 17.5026 149.115 17.4297 148.969 17.4297Z" fill="#434444"/>
<path d="M156.188 17.4297C152.907 17.4297 151.084 20.1276 151.084 23.4089C151.084 26.8359 152.98 29.388 156.042 29.388C159.469 29.388 161.219 26.5443 161.219 23.4089C161.219 19.8359 159.251 17.4297 156.188 17.4297ZM156.188 28.3672C153.782 28.3672 152.324 26.1797 152.324 23.4818C152.324 20.7109 153.563 18.5964 156.188 18.5964C158.74 18.5964 160.053 20.7839 160.053 23.4818C159.98 26.3255 158.594 28.3672 156.188 28.3672Z" fill="#434444"/>
<path d="M175.658 17.4297C173.617 17.4297 172.523 18.5234 171.939 19.6901C171.502 18.2318 170.262 17.4297 168.658 17.4297C166.762 17.4297 165.742 18.5964 165.231 19.763C165.231 19.1068 165.231 18.0859 165.158 17.7214H164.064C164.064 18.5964 164.064 19.6901 164.064 20.638V29.0964H165.231V22.8255C165.231 20.4922 166.325 18.5234 168.512 18.5234C170.627 18.5234 171.137 20.0547 171.137 21.7318V29.0964H172.231V22.5339C172.231 20.3464 173.252 18.5234 175.439 18.5234C177.554 18.5234 178.137 20.2005 178.137 21.7318V29.0964H179.304V21.6589C179.231 18.4505 177.408 17.4297 175.658 17.4297Z" fill="#434444"/>
<path d="M135.624 23.7012C134.385 23.7012 133.291 24.722 133.291 26.0345C133.291 27.347 134.312 28.3678 135.624 28.3678C136.937 28.3678 137.958 27.347 137.958 26.0345C137.958 24.722 136.937 23.7012 135.624 23.7012Z" fill="#F6941F"/>
<path d="M40.6868 6.85352C39.2285 6.85352 38.0618 7.2181 37.1868 7.87435C36.8952 8.0931 36.4577 8.89518 36.3848 9.4056L35.8743 7.43685H32.0098V27.6348H36.7493V14.1452C37.041 13.2702 37.4785 12.541 38.1348 12.0306C38.791 11.5202 39.666 11.2285 40.6868 11.2285C40.9056 11.2285 41.0514 11.2285 41.2702 11.2285V6.85352C40.9785 6.85352 40.8327 6.85352 40.6868 6.85352Z" fill="#434444"/>
<path d="M59.7917 9.11458C58.1875 7.36458 55.8542 6.5625 52.7188 6.5625C49.6563 6.5625 47.1771 7.51042 45.2812 9.33333C43.3854 11.1562 42.4375 13.7812 42.4375 16.9896C42.4375 20.2708 43.3854 22.8958 45.2812 24.7188C47.0312 26.3958 49.5104 27.3438 52.5729 27.4896H61.6146V23.1146H52.8646C50.0208 22.8229 48.4167 21.4375 47.9062 18.7396H61.8333L61.9062 18.0833C62.0521 17.3542 62.0521 16.625 62.0521 16.0417C62.125 13.125 61.3229 10.7917 59.7917 9.11458ZM47.9792 14.5104C48.4896 12.0312 50.0208 10.7917 52.6458 10.7917C54.1771 10.7917 55.1979 11.1563 55.8542 11.8125C56.4375 12.3958 56.8021 13.2708 56.9479 14.5104H47.9792Z" fill="#434444"/>
</svg>
