<svg width="244" height="55" viewBox="0 0 244 55" fill="none" xmlns="http://www.w3.org/2000/svg">
<mask id="mask0_1559_16154" style="mask-type:luminance" maskUnits="userSpaceOnUse" x="16" y="0" width="27" height="47">
<path d="M16.1992 0H42.8659V46.7552H16.1992V0Z" fill="white"/>
</mask>
<g mask="url(#mask0_1559_16154)">
<path d="M17.0788 36.6777C17.0527 36.709 17.0319 36.735 17.0059 36.7611V45.7298H23.0475V31.2923C20.7923 32.9694 18.7767 34.7767 17.0788 36.6777ZM26.3913 45.7298H32.4329V25.7767C30.3132 26.7507 28.2871 27.8392 26.3913 29.0215V45.7298ZM17.0059 20.1413C18.9277 19.2663 20.9486 18.4746 23.0475 17.7819V0.00585938H17.0059V20.1413ZM35.7767 45.7298H41.8184V22.4069C39.8184 22.9277 37.7975 23.5788 35.7767 24.36V45.7298ZM35.7767 8.43294V14.9746C37.8132 14.7402 39.8288 14.61 41.8184 14.5892V8.43294H35.7767ZM26.3913 16.7819C27.2819 16.5423 28.1882 16.3132 29.0996 16.11C30.2142 15.86 31.3236 15.6413 32.4329 15.4538V4.5319H26.3913V16.7819Z" fill="#3F51B5"/>
</g>
<mask id="mask1_1559_16154" style="mask-type:luminance" maskUnits="userSpaceOnUse" x="4" y="17" width="55" height="38">
<path d="M4.19922 17.4219H58.8346V54.7448H4.19922V17.4219Z" fill="white"/>
</mask>
<g mask="url(#mask1_1559_16154)">
<path d="M32.8759 20.73C15.5269 25.5425 3.31336 37.0373 5.5842 46.407C6.49565 50.157 9.59461 52.9956 14.0894 54.7456C12.5217 53.5216 11.4071 51.9695 10.8707 50.1102C8.36545 41.4695 19.1207 29.4175 34.8967 23.1935C43.8811 19.6466 52.5582 18.7612 58.8238 20.2508C52.1363 18.006 42.7404 17.9904 32.8759 20.73Z" fill="#E07DD1"/>
</g>
<path d="M2.30778 45.2286C-0.0567981 35.5046 12.6099 23.5515 30.6099 18.5306C37.0317 16.739 43.2661 16.0723 48.7349 16.4004C43.0109 15.6296 36.339 15.9213 29.412 17.4786C11.1984 21.5723 -1.8693 32.8275 0.219243 42.6244C0.69841 44.8744 1.93799 46.8484 3.78174 48.5098C3.09945 47.5098 2.59945 46.4109 2.30778 45.2286Z" fill="#E07DD1"/>
<path d="M53.1471 34.3431V31.4941H46.043V45.7285H48.8867V40.0358H52.5117V37.1868H48.8867V34.3431H53.1471Z" fill="#3F51B5"/>
<path d="M54.4219 45.7279H57.8854L60.6302 40.8529L63.3594 45.7279H66.724L62.2448 38.1445L66.125 31.4727H62.7604L60.6302 35.4362L58.4844 31.4727H55.0365L58.901 38.1445L54.4219 45.7279Z" fill="#3F51B5"/>
<path d="M73.0931 31.4941H68.8535V45.7285H73.0931C82.5671 45.7285 82.5671 31.4941 73.0931 31.4941ZM73.0931 34.3431C78.6244 34.3431 78.6244 42.8796 73.0931 42.8796H71.6973V34.3431H73.0931Z" fill="#3F51B5"/>
<path d="M81.9902 45.7285H85.2142L85.7715 44.1973H90.4902L91.0684 45.7285H94.2715L88.2819 30.9785H87.985L81.9902 45.7285ZM86.8079 41.5306L88.1413 37.8275L89.4382 41.5306H86.8079Z" fill="#3F51B5"/>
<path d="M99.5059 45.7285V31.4941H96.6621V45.7285H99.5059Z" fill="#3F51B5"/>
<path d="M103.111 31.4941V45.7285H110.476V42.8796H105.955V31.4941H103.111Z" fill="#3F51B5"/>
<path d="M116.808 45.7285H119.631V39.3171L124.61 31.4941H121.126L118.219 36.3952L115.313 31.4941H111.85L116.808 39.3171V45.7285Z" fill="#3F51B5"/>
<path d="M126.641 45.7279H132.271C134.583 45.7279 136.474 43.8372 136.474 41.4466C136.474 40.332 135.938 39.2383 135 38.6029C135.896 37.9831 136.276 36.8685 136.313 35.7956C136.375 33.2852 134.802 31.4727 132.271 31.4727H126.641V45.7279ZM129.505 34.3216H132.031C132.849 34.3216 133.349 34.957 133.349 35.7539C133.349 36.5299 132.849 37.1862 132.031 37.1862H129.505V34.3216ZM129.505 40.0352H132.031C132.849 40.0352 133.469 40.6497 133.469 41.4466C133.469 42.2435 132.849 42.8789 132.031 42.8789H129.505V40.0352Z" fill="#3F51B5"/>
<path d="M146.244 45.9258C156.041 45.9258 156.041 31.2539 146.244 31.2539C136.452 31.2539 136.452 45.9258 146.244 45.9258ZM146.244 42.9831C140.551 42.9831 140.551 34.181 146.244 34.181C151.942 34.181 151.942 42.9831 146.244 42.9831Z" fill="#3F51B5"/>
<path d="M159.502 37.9837L166.71 46.0254H167.465V31.515H164.601V39.5566L157.413 31.1973H156.658V45.7285H159.502V37.9837Z" fill="#3F51B5"/>
<path d="M181.28 40.7702V31.4941H178.457V40.7546C178.457 43.7389 173.837 43.7389 173.837 40.7546V31.4941H170.988V40.7702C170.988 47.541 181.28 47.541 181.28 40.7702Z" fill="#3F51B5"/>
<path d="M184.17 44.8103C186.097 45.805 187.873 45.904 188.665 45.8467C191.337 45.7061 192.967 43.8936 192.967 41.529C192.967 39.2582 191.055 37.9821 188.847 37.1696C188.029 36.8884 187.331 36.529 187.253 35.7321C187.196 34.9405 187.649 34.2009 188.665 34.1436C189.102 34.1228 189.998 34.1019 191.571 34.7373L191.93 31.9925C190.102 31.3571 189.123 31.3571 188.389 31.3936C186.019 31.5134 184.368 33.3467 184.368 35.7321C184.368 38.1228 186.357 39.2582 188.587 40.0759C189.383 40.3519 189.998 40.7113 190.061 41.529C190.139 42.305 189.425 42.8988 188.587 42.9613C187.93 43.0186 186.16 42.9821 184.524 41.8259L184.17 44.8103Z" fill="#3F51B5"/>
<path d="M196.348 42.6602C194.202 42.6602 194.202 45.8685 196.348 45.8685C198.478 45.8685 198.54 42.6602 196.348 42.6602Z" fill="#3F51B5"/>
<path d="M210.066 34.8008L210.405 31.8737C209.546 31.4935 208.592 31.3164 207.598 31.3164C197.962 31.3164 197.941 45.7695 207.598 45.7695C208.592 45.7695 209.848 45.5299 210.723 45.1706L210.342 42.2227C209.806 42.5039 208.832 42.8633 207.598 42.8633C201.962 42.8633 201.962 34.181 207.598 34.181C208.832 34.181 209.53 34.5195 210.066 34.8008Z" fill="#3F51B5"/>
<path d="M220.234 45.9258C230.031 45.9258 230.031 31.2539 220.234 31.2539C210.443 31.2539 210.443 45.9258 220.234 45.9258ZM220.234 42.9831C214.542 42.9831 214.542 34.181 220.234 34.181C225.932 34.181 225.932 42.9831 220.234 42.9831Z" fill="#3F51B5"/>
<path d="M237.174 37.5254L231.565 31.2754H230.648V45.7285H233.534V37.7858L237.174 41.6087L240.82 37.7858L240.799 45.7285H243.685V31.2754H242.789L237.174 37.5254Z" fill="#3F51B5"/>
<path d="M62.8047 16.4388V14.7305H58.5391V23.2721H60.2474V19.8555H62.4245V18.1471H60.2474V16.4388H62.8047Z" fill="#E07DD1"/>
<path d="M69.7188 23.3919C75.599 23.3919 75.599 14.5898 69.7188 14.5898C63.8438 14.5898 63.8438 23.3919 69.7188 23.3919ZM69.7188 21.6263C66.3021 21.6263 66.3021 16.3451 69.7188 16.3451C73.1354 16.3451 73.1354 21.6263 69.7188 21.6263Z" fill="#E07DD1"/>
<path d="M81.3783 23.2721H83.3105L81.3314 19.7513C83.8366 19.0221 83.5397 14.7305 80.4928 14.7305H77.123V23.2721H78.8314V20.0117H79.6595L81.3783 23.2721ZM78.8314 18.3503V16.4388H80.3366C81.498 16.4388 81.498 18.3503 80.3366 18.3503H78.8314Z" fill="#E07DD1"/>
<path d="M90.2637 23.2721V21.5638H87.5501V19.8555H89.7949V18.1471H87.5501V16.4388H90.1178V14.7305H85.8418V23.2721H90.2637Z" fill="#E07DD1"/>
<path d="M92.3789 23.2728H94.457L96.1029 20.3457L97.7383 23.2728H99.7591L97.0716 18.7207L99.3997 14.7207H97.3841L96.1029 17.0957L94.8164 14.7207H92.7487L95.0664 18.7207L92.3789 23.2728Z" fill="#E07DD1"/>
<path d="M106.982 23.2728H110.363C111.748 23.2728 112.883 22.1374 112.883 20.7051C112.883 20.0384 112.561 19.377 112.003 18.9967C112.54 18.627 112.764 17.9603 112.79 17.3145C112.826 15.8092 111.883 14.7207 110.363 14.7207H106.982V23.2728ZM108.706 16.429H110.222C110.712 16.429 111.008 16.8092 111.008 17.2884C111.008 17.7572 110.712 18.1478 110.222 18.1478H108.706V16.429ZM108.706 19.8561H110.222C110.712 19.8561 111.081 20.2259 111.081 20.7051C111.081 21.1842 110.712 21.5645 110.222 21.5645H108.706V19.8561Z" fill="#E07DD1"/>
<path d="M119.906 23.3919C125.786 23.3919 125.786 14.5898 119.906 14.5898C114.031 14.5898 114.031 23.3919 119.906 23.3919ZM119.906 21.6263C116.49 21.6263 116.49 16.3451 119.906 16.3451C123.323 16.3451 123.323 21.6263 119.906 21.6263Z" fill="#E07DD1"/>
<path d="M129.019 18.6257L133.342 23.4486H133.8V14.7454H132.076V19.5684L127.769 14.5527H127.311V23.2715H129.019V18.6257Z" fill="#E07DD1"/>
<path d="M143.247 20.2982V14.7305H141.549V20.2878C141.549 22.0794 138.779 22.0794 138.779 20.2878V14.7305H137.07V20.2982C137.07 24.3607 143.247 24.3607 143.247 20.2982Z" fill="#E07DD1"/>
<path d="M146.137 22.7258C147.293 23.3195 148.355 23.382 148.835 23.3456C150.434 23.2622 151.413 22.1737 151.413 20.7518C151.413 19.3925 150.267 18.6268 148.944 18.1372C148.454 17.9706 148.033 17.757 147.986 17.2779C147.949 16.7987 148.225 16.356 148.835 16.3195C149.095 16.3091 149.637 16.2987 150.579 16.6789L150.793 15.0331C149.694 14.6477 149.111 14.6477 148.668 14.6737C147.246 14.7466 146.257 15.8456 146.257 17.2779C146.257 18.7102 147.449 19.3925 148.788 19.882C149.267 20.0487 149.637 20.2622 149.673 20.7518C149.72 21.2206 149.288 21.5747 148.788 21.6112C148.392 21.6477 147.329 21.6268 146.35 20.9341L146.137 22.7258Z" fill="#E07DD1"/>
<path d="M160.742 23.2721V20.0117H162.393C165.7 20.0117 165.71 14.7461 162.393 14.7461H159.033V23.2721H160.742ZM160.742 18.3503V16.4388H162.247C163.393 16.4388 163.393 18.3503 162.247 18.3503H160.742Z" fill="#E07DD1"/>
<path d="M171.888 23.2721H173.82L171.841 19.7513C174.346 19.0221 174.049 14.7305 171.003 14.7305H167.633V23.2721H169.341V20.0117H170.169L171.888 23.2721ZM169.341 18.3503V16.4388H170.846C172.008 16.4388 172.008 18.3503 170.846 18.3503H169.341Z" fill="#E07DD1"/>
<path d="M180.461 23.3919C186.341 23.3919 186.341 14.5898 180.461 14.5898C174.586 14.5898 174.586 23.3919 180.461 23.3919ZM180.461 21.6263C177.044 21.6263 177.044 16.3451 180.461 16.3451C183.878 16.3451 183.878 21.6263 180.461 21.6263Z" fill="#E07DD1"/>
<path d="M191.787 18.3496L188.417 14.5996H187.865V23.2715H189.6V18.5059L191.787 20.7975L193.969 18.5059L193.959 23.2715H195.688V14.5996H195.152L191.787 18.3496Z" fill="#E07DD1"/>
<path d="M203.117 23.3919C208.997 23.3919 208.997 14.5898 203.117 14.5898C197.242 14.5898 197.242 23.3919 203.117 23.3919ZM203.117 21.6263C199.701 21.6263 199.701 16.3451 203.117 16.3451C206.534 16.3451 206.534 21.6263 203.117 21.6263Z" fill="#E07DD1"/>
<path d="M213.642 23.2721V16.4388H215.767V14.7461H209.809V16.4388H211.934V23.2721H213.642Z" fill="#E07DD1"/>
<path d="M220.161 23.2721V14.7305H218.453V23.2721H220.161Z" fill="#E07DD1"/>
<path d="M227.59 23.3919C233.47 23.3919 233.47 14.5898 227.59 14.5898C221.715 14.5898 221.715 23.3919 227.59 23.3919ZM227.59 21.6263C224.173 21.6263 224.173 16.3451 227.59 16.3451C231.007 16.3451 231.007 21.6263 227.59 21.6263Z" fill="#E07DD1"/>
<path d="M236.702 18.6257L241.025 23.4486H241.484V14.7454H239.76V19.5684L235.452 14.5527H234.994V23.2715H236.702V18.6257Z" fill="#E07DD1"/>
</svg>
