<svg width="178" height="25" viewBox="0 0 178 25" fill="none" xmlns="http://www.w3.org/2000/svg">
<path fill-rule="evenodd" clip-rule="evenodd" d="M96.67 0H95.134L84.046 18.771L72.848 0H71.308L67 25H71.228L73.812 9.265L83.215 25H84.845L94.135 9.394L96.728 25H101L96.67 0ZM118.737 6.936C118.739 7.62106 118.508 8.28642 118.082 8.823C117.645 9.382 117.077 9.767 116.305 10.026C115.568 10.273 114.208 10.43 112.319 10.427L108.25 10.387V3.52H112.533C114.396 3.518 115.716 3.668 116.388 3.897C117.094 4.135 117.64 4.511 118.082 5.077C118.52 5.648 118.734 6.248 118.737 6.936ZM121.379 2.631C120.263 1.495 118.789 0.731 117.043 0.373C115.779 0.113 113.599 0.003 110.341 0H104V24.94H108.25V13.9H109.555C113.089 13.9 115.493 13.779 116.906 13.497C118.778 13.12 120.318 12.358 121.422 11.221C122.539 10.073 123.083 8.609 123.08 6.927C123.085 5.248 122.521 3.784 121.379 2.631ZM127 25H131V0H127V25ZM47 0V25H64.882V21.468H51.345V13.925H64.987V10.394H51.35V9.788H51.343V3.529L65 3.531V0H47ZM160 0V25H177.885V21.468H164.342V13.925H177.987V10.394H164.35V9.788H164.343V3.529H178V0H160ZM139.249 10.386V3.522H143.532C145.396 3.519 146.715 3.67 147.388 3.9C148.094 4.137 148.639 4.514 149.083 5.08C149.52 5.65 149.733 6.25 149.735 6.936C149.739 7.62177 149.509 8.28834 149.083 8.826C148.644 9.384 148.076 9.77 147.305 10.027C146.567 10.275 145.208 10.431 143.317 10.428L139.249 10.386ZM157.724 24.929L149.077 13.151L149.341 13.101C150.571 12.675 151.615 12.051 152.422 11.221C153.539 10.074 154.082 8.611 154.079 6.928C154.084 5.25 153.52 3.786 152.379 2.631C151.263 1.495 149.789 0.732 148.043 0.373C146.779 0.114 144.598 0.003 141.341 0L135 0.001V24.941H139.249V13.901H140.555C141.806 13.9033 143.058 13.882 144.308 13.837L152.454 24.929H157.724Z" fill="#273665"/>
<path fill-rule="evenodd" clip-rule="evenodd" d="M5.538 14.405H21.136L23 11.956L21.384 9.833H5.538V7.95H5.551V4.64H17.284L16.795 3.8L13.902 0H0V25H5.551V16.72H5.538V14.405ZM40.014 17.602L39.986 17.619L36.265 13L33 17.052L39.43 25H46L40.014 17.602ZM44 0H37.659L32 7.034L35.17 11L44 0Z" fill="#5CAE45"/>
<path fill-rule="evenodd" clip-rule="evenodd" d="M28.105 5.67L23.81 0H17.61L26.79 12.11L17 25H23.238L29.898 16.21L29.918 16.238L33 12.154L28.105 5.67Z" fill="#5CAE45"/>
</svg>
