<svg width="271" height="47" viewBox="0 0 271 47" fill="none" xmlns="http://www.w3.org/2000/svg">
<path d="M177.162 46.1C172.943 46.1 169.846 45.2872 167.795 43.6615C166.014 42.3068 165.085 40.2553 165.085 38.0877H173.485C173.872 39.7134 174.568 40.6811 177.278 40.6811C180.258 40.6811 181.497 39.0554 181.497 35.3782V32.1268H181.342C180.258 34.8363 177.549 36.462 174.685 36.1911C167.756 36.1911 164.234 32.2429 164.234 24.5403C164.118 21.2889 165.201 18.0375 167.369 15.5989C169.266 13.5475 171.975 12.4637 174.839 12.4637C177.549 12.1927 180.142 13.5475 181.497 15.986H181.613V13.0056H189.896V34.5654C189.896 38.5135 188.929 41.3391 186.916 43.1196C184.748 45.1324 181.613 46.1 177.162 46.1ZM177.433 18.3084C174.723 18.3084 173.098 20.6308 173.098 24.5403C173.098 28.6045 174.607 30.7721 177.317 30.7721C179.639 30.7721 181.536 28.8754 181.536 26.553V26.1272V23.4177C181.497 20.2051 179.987 18.3084 177.433 18.3084ZM98.277 37.9329C95.2966 38.2038 92.3161 37.391 89.8776 35.7653C88.2519 34.4105 87.2842 32.3591 87.1681 30.1915H94.9095C95.0643 31.8172 96.1481 32.63 98.1609 32.63C100.058 32.63 101.296 31.9333 101.296 30.5785C101.296 29.4947 100.599 28.9528 98.8576 28.6819L94.9095 28.14C90.1485 27.5981 87.5939 24.8886 87.5939 20.6696C87.5939 18.502 88.4067 16.4505 90.0324 14.9796C94.7934 11.7282 101.025 11.5734 105.747 14.5539C107.373 15.9086 108.341 17.9601 108.341 19.9728H100.754C100.754 18.6181 99.5156 17.5343 98.1609 17.5343H98.006C95.8385 17.5343 95.4127 18.502 95.4127 19.4309C95.4127 20.3986 95.8385 21.0566 97.7351 21.3276L101.954 21.8695C103.851 22.0243 105.631 22.6823 106.986 23.9209C108.341 25.2757 109.038 27.0562 108.883 28.9528C109.115 34.5654 104.896 37.9329 98.277 37.9329ZM73.8529 37.8167C65.9954 37.8167 61.5054 33.2106 61.5054 24.9273C61.3505 21.5211 62.5892 18.2697 64.7568 15.8312C67.1953 13.5088 70.4467 12.154 73.8529 12.425C78.072 12.425 81.3233 13.6636 83.3361 15.9473C85.3876 18.5407 86.4714 21.9082 86.3165 25.1596V27.0949H70.1757C70.4467 30.6172 71.5305 32.2429 74.1238 32.2429C75.7495 32.5139 77.2591 31.4301 77.5301 29.9205H86.0843C85.5424 34.9524 81.3233 37.8167 73.8529 37.8167ZM73.8529 17.6117C71.5305 17.6117 70.4467 19.2374 70.1757 22.4888H77.4914V22.2178C77.2591 19.1213 76.0205 17.6117 73.8529 17.6117ZM229.339 37.6619C226.745 37.8167 224.191 36.8491 222.294 34.9524C220.514 32.901 219.585 30.1915 219.701 27.482C219.546 24.7725 220.514 22.063 222.294 20.1664C224.191 18.3858 226.784 17.302 229.339 17.4569C235.3 17.4569 238.977 21.2502 238.977 27.482C238.977 33.7525 235.184 37.6619 229.339 37.6619ZM229.339 21.405C226.204 21.405 225.546 24.8112 225.546 27.6368C225.546 31.8559 226.9 33.8686 229.339 33.8686C231.777 33.8686 233.132 31.701 233.132 27.6368C233.132 23.5726 231.777 21.405 229.339 21.405ZM209.947 37.6619C207.353 37.8167 204.799 36.8491 202.902 34.9524C201.121 32.901 200.309 30.1915 200.463 27.6368C200.463 21.405 204.141 17.6117 210.101 17.6117C215.52 17.6117 218.772 20.3212 218.927 24.9273H213.353C213.198 23.3016 212.54 21.405 210.101 21.405C206.695 21.405 206.308 25.3531 206.308 27.6368C206.308 31.8559 207.547 33.8686 210.101 33.8686C211.998 33.8686 213.508 32.3591 213.508 30.4624V30.0366H218.927C218.927 32.2042 217.959 34.3718 216.333 35.7266C214.437 37.12 212.114 37.6619 209.947 37.6619ZM118.869 37.5458C116.818 37.7006 114.65 37.12 113.024 35.7653C111.399 34.1396 110.586 31.701 110.702 29.3786V6.38668H119.101V13.0443H124.133V18.9664H119.256V27.7916C119.256 30.385 120.069 31.314 122.391 31.314C122.933 31.314 123.475 31.314 124.017 31.1591V37.2748C122.275 37.391 120.65 37.5458 118.869 37.5458ZM258.872 37.12H253.182V25.895C253.337 24.8112 253.027 23.7274 252.64 22.7597C252.099 21.9469 251.131 21.5211 250.202 21.6759C247.879 21.6759 246.525 23.3016 246.525 26.0111V37.12H240.835V18.0375H246.254V21.1727C247.492 18.8503 249.776 17.4956 252.215 17.6504C255.466 17.6504 257.363 19.0052 258.175 21.5985H258.33C259.414 19.16 261.853 17.5343 264.562 17.6504C268.897 17.6504 270.949 19.9728 270.949 24.6951V37.1587H265.259V25.895C265.375 24.8112 265.104 23.7274 264.717 22.7597C264.175 21.9469 263.207 21.5211 262.278 21.6759C259.956 21.6759 258.601 23.3016 258.601 26.0111L258.872 37.12ZM146.39 37.12H137.719V13.0056H146.119V16.9537H146.274C147.783 14.0894 150.88 12.3476 154.131 12.6185C157.266 12.6185 159.434 13.4314 160.789 15.057C162.143 17.1085 162.84 19.6632 162.569 22.1017V37.1587H153.899V23.4565C154.054 22.2178 153.783 21.0179 153.202 19.9341C152.505 19.1213 151.576 18.5794 150.493 18.6955C147.899 18.6955 146.545 20.3212 146.545 23.5726L146.39 37.12ZM20.8631 37.12H12.1927V13.0056H20.5921V16.9537H20.7469C22.2565 14.0894 25.3531 12.3476 28.6045 12.6185C31.7397 12.6185 33.9073 13.4314 35.262 15.057C36.6168 17.1085 37.3135 19.6632 37.0426 22.1017V37.1587H28.3335V23.4565C28.4883 22.2178 28.1787 21.0179 27.6368 19.9341C26.9401 19.1213 26.0111 18.5794 24.9273 18.6955C22.3339 18.6955 20.9792 20.3212 20.9792 23.5726L20.8631 37.12ZM198.722 37.12H192.761V31.4301H198.722V37.12ZM134.855 37.12H126.185V13.0056H134.855V37.12ZM54.0736 37.12H45.1323L36.5781 13.0056H45.2872L48.4224 23.4565C49.2353 26.4369 49.932 29.5722 49.932 29.6883H50.0868C50.5126 27.6368 50.8997 25.624 51.4416 23.5726L54.5768 13.1217H62.9762L54.0736 37.12ZM8.94131 37.12H0V2.98047H8.94131V37.12Z" fill="#060606"/>
<path d="M125.914 10.4509L134.855 8.82519V0L125.914 1.62569V10.4509Z" fill="#FF883D"/>
</svg>
