<svg width="252" height="45" viewBox="0 0 252 45" fill="none" xmlns="http://www.w3.org/2000/svg">
<path d="M86.435 7.00381C86.435 5.74566 86.2253 4.11005 84.8833 2.93578L84.9672 2.80997C86.477 3.22935 87.6512 4.61332 87.9868 5.70372C89.0352 2.09701 93.0613 0.796924 96.2486 1.21631V1.38406C93.9001 1.84538 92.1806 3.48099 92.1806 7.50708V28.9376C92.1806 28.9376 93.1871 29.8603 93.4807 30.07C94.1098 30.6571 94.4872 30.9507 95.1163 30.9507C95.6615 30.9507 96.1228 30.6571 96.3744 30.4894C96.4583 30.4055 96.5841 30.3216 96.5841 30.3216L96.7938 30.6152L91.1321 35.1865L86.435 30.741V7.00381Z" fill="black"/>
<path d="M66.3047 30.6151L66.095 30.3215C65.8014 30.5312 65.2981 30.9506 64.6271 30.9506C63.8722 30.9506 63.4109 30.6151 62.9076 30.1957C62.0269 29.4828 61.3979 28.9376 61.3979 28.9376V15.3914L57.8331 10.8621L51.081 15.4334V7.7167C51.081 3.77448 52.5908 1.97112 55.149 1.46785V1.25816C50.4938 0.7549 47.5582 3.27121 46.8871 5.74558C46.2581 3.90029 44.6644 2.97765 43.8676 2.85183L43.7837 2.97764C44.5386 3.6906 45.3354 4.781 45.3354 7.00374V30.8248L50.0325 35.3122L54.2264 31.6216L51.039 28.8537V16.0625L53.3037 14.5107L55.6103 17.7819V30.8248L60.643 35.3122L66.3047 30.6151Z" fill="black"/>
<path d="M137.013 5.78749L133.028 9.68777L129.044 5.78749L133.028 1.88721L137.013 5.78749ZM119.147 36.78C118.308 35.6058 116.756 34.096 113.485 34.096C110.675 34.096 108.327 36.1509 108.327 38.7931C108.327 42.232 111.388 45 117.427 45C127.828 45 130.68 37.3252 136.677 37.3252V15.4333L133.028 10.8201L128.499 14.5946L130.973 17.74V35.3541C130.973 40.6803 124.683 43.4063 120.824 43.4063C116.714 43.4063 113.653 41.2255 113.653 38.5834C113.653 36.9058 115.037 35.8993 116.463 35.8993C117.763 35.8993 118.476 36.4445 118.937 36.9058L119.147 36.78Z" fill="black"/>
<path d="M28.4762 30.657L30.8667 28.5182C30.7828 28.2665 30.4473 27.302 30.0699 26.0857C29.2731 23.192 28.0149 18.7884 28.0149 18.7884L26.1277 17.069V19.0401C26.1277 23.2339 23.1081 25.3728 18.9981 27.0923C24.7437 27.4278 27.8891 30.1118 28.4762 30.657ZM27.4697 0.503267C26.5471 2.01305 26.1277 4.06803 26.1277 6.71016V13.63L35.1445 0.377457C36.2349 1.04847 37.3672 1.8453 39.4641 1.8453C41.9385 1.8453 42.9869 1.13234 43.8257 0.629077L43.9515 0.671018C43.4483 2.26468 40.9739 6.29077 36.9897 6.29077C34.8928 6.29077 33.2992 5.36813 32.5862 4.94875L28.2665 11.3234L33.1733 15.2237C33.1733 15.2237 35.2703 22.2274 36.109 24.9534C37.0317 27.973 37.9124 28.3504 39.6738 29.1472C40.3868 29.4828 41.0997 29.7763 42.1062 30.2376C43.1966 30.699 43.5321 30.699 44.0773 30.699C44.7484 30.699 45.2097 30.3635 45.2936 30.3215L45.5033 30.5732L40.5965 35.2703C40.5965 35.2703 37.5349 33.8863 35.3541 32.9217C33.5089 32.0829 32.0829 31.0764 31.0764 29.0214C28.9376 30.8248 26.2954 33.2572 24.1566 35.2283C22.479 34.1379 19.4175 32.4185 14.3849 32.4185C7.04566 32.4185 0.5452 35.8993 0.5452 39.9674C0.5452 42.5676 2.47437 43.9515 4.78099 43.9515L4.73905 44.329C1.6356 44.329 0 42.2321 0 39.7996C0 32.8798 8.84902 27.6794 16.6076 27.1761C17.4045 26.1277 18.5368 24.8276 18.5368 21.2209C18.5368 21.2209 18.5368 11.4912 18.5368 11.0718C18.5368 9.43617 19.082 8.76515 19.2917 8.47158C19.2078 8.72321 18.9981 9.39423 18.9981 11.1976C18.9981 14.7624 18.9981 21.6403 18.9981 21.6403C18.9981 24.8695 17.8658 26.1277 17.069 27.1761C17.3625 27.1761 17.6142 27.1342 17.9077 27.1342C18.0755 27.1342 18.2432 27.1342 18.3691 27.1342C20.0885 25.205 20.2563 23.0662 20.2563 21.0531C20.2563 21.0531 20.2563 13.7978 20.2563 10.8621C20.2982 7.46506 21.3886 6.16496 23.5275 4.10998C24.0308 3.60672 24.576 3.10345 24.9534 2.726L24.8695 2.64213C22.2693 4.5713 20.1305 6.12302 16.7754 6.12302C14.0913 6.12302 11.7847 4.94875 9.2684 4.94875C7.33923 4.94875 6.37465 5.82945 5.9972 6.08108L5.91333 6.03915C7.00373 4.2358 9.93942 0 14.301 0C17.5722 0 19.082 1.38398 22.3113 1.38398C24.1985 1.38398 25.8341 1.13234 27.26 0.419385L27.4697 0.503267Z" fill="black"/>
<path d="M102.288 25.0793L107.321 21.892L102.288 15.3077V25.0793ZM96.5425 17.0691L106.104 10.7783L112.521 19.166L102.288 25.5826V28.2247C102.288 28.2247 106.44 30.2378 107.908 30.9507C108.579 31.2862 109.25 31.5798 110.172 31.5798C111.179 31.5798 112.144 31.2024 112.647 30.9927C113.15 30.741 113.611 30.5313 113.611 30.5313V31.0765L105.224 35.3123L96.5425 30.8669V17.0691Z" fill="black"/>
<path d="M223.826 25.0793L228.858 21.892L223.826 15.3077V25.0793ZM218.038 17.0691L227.642 10.7783L234.059 19.166L223.826 25.5826V28.2247C223.826 28.2247 227.977 30.2378 229.445 30.9507C230.116 31.2862 230.787 31.5798 231.71 31.5798C232.717 31.5798 233.681 31.2024 234.184 30.9927C234.352 30.9088 234.981 30.6152 234.981 30.6152L235.149 31.0346L226.761 35.2704L218.08 30.8249V17.0691H218.038Z" fill="black"/>
<path d="M119.357 25.0793L124.389 21.892L119.357 15.3077V25.0793ZM113.569 17.0691L123.173 10.7783L129.59 19.166L119.357 25.5826V28.2247C119.357 28.2247 123.509 30.2378 124.977 30.9507C125.648 31.2862 126.444 31.454 127.241 31.454C128.29 31.454 129.212 30.9927 129.674 30.783C130.135 30.5314 131.016 30.112 131.016 30.112V30.6152L122.251 35.3123L113.569 31.1185V17.0691Z" fill="black"/>
<path d="M66.0532 17.0687L75.4055 10.8198L81.7802 16.7332V28.8534C81.7802 28.8534 82.7447 29.6083 83.6254 30.3212C84.3803 30.9503 84.7997 31.0342 85.0933 31.0342C85.6385 31.0342 86.1418 30.6148 86.4773 30.3212L86.7289 30.6567L81.1091 35.3119L76.2023 30.9503L71.8827 35.3119L66.0532 30.7825V17.0687ZM71.7988 28.6437C71.7988 28.6437 73.5602 29.9857 73.8957 30.2793C74.4829 30.7406 74.8184 30.8245 75.1539 30.8245C75.6571 30.8245 75.9926 30.489 75.9926 30.489V19.543L71.7569 15.4331V28.6437H71.7988Z" fill="black"/>
<path d="M202.437 15.4333L198.83 10.8201L191.785 15.4333L188.178 10.8201L183.774 14.1752L186.081 17.0689V30.7828L191.449 35.2702L195.182 31.7893L191.827 28.8117V15.9366L194.511 14.1752L196.733 16.985V30.6989L202.102 35.1864L205.834 31.7055L202.479 28.7278V15.8527L205.289 14.0494L207.554 16.9012V30.6151L212.922 35.1025L218.248 30.7828L218.08 30.5312C218.08 30.5312 217.996 30.5731 217.912 30.6151C217.703 30.7828 217.409 30.9086 216.864 30.9086C216.151 30.9086 215.48 30.6151 214.851 30.0279C214.431 29.6505 213.299 28.644 213.299 28.644V15.2656L209.692 10.6523L202.437 15.4333Z" fill="black"/>
<path d="M251.673 11.03L245.298 19.6273L250.498 23.3599V29.6506L242.95 35.3543C242.488 35.0188 240.727 33.8025 238.001 33.8025C235.736 33.8025 234.352 34.851 233.555 35.3543L233.304 35.1446L240.014 26.0859L235.233 23.4437V16.44L242.656 10.7783C243.327 11.2396 244.669 12.2042 247.227 12.2042C249.492 12.2042 250.834 11.1977 251.379 10.7783L251.673 11.03ZM249.702 12.8752L249.576 12.7914C249.073 13.3785 246.892 15.6432 244.166 15.6432C242.32 15.6432 241.314 14.9722 240.895 14.7205V19.9628L243.411 21.3888L249.702 12.8752ZM244.753 26.7149L241.649 24.5761L235.149 33.2993L235.275 33.4251C236.197 32.5025 238.252 30.4894 241.104 30.4894C243.159 30.4894 244.334 31.2024 244.753 31.4121V26.7149Z" fill="black"/>
<path d="M173.5 14.1332L177.945 10.7782L181.552 15.3914V28.7698C181.552 28.7698 182.307 29.4408 182.852 29.9441C183.523 30.5312 184.152 30.7409 184.739 30.7409C185.41 30.7409 185.913 30.4473 186.081 30.3215C186.123 30.3634 186.249 30.5312 186.249 30.5312L181.132 35.1864C180.377 34.5154 175.806 30.7409 175.806 30.7409V17.027L173.5 14.1332ZM177.903 1.88721L173.919 5.78749L177.903 9.68777L181.887 5.78749L177.903 1.88721Z" fill="black"/>
<path d="M162.176 30.2377C163.812 30.2377 164.986 29.9441 165.447 29.8183V7.50705C164.608 7.46511 163.56 7.3393 163.057 7.29736V19.4176C163.057 25.289 156.934 27.302 155.214 28.1827C157.101 29.3989 159.534 30.2377 162.176 30.2377ZM154.963 27.973C156.095 26.9246 157.101 25.0793 157.101 22.1436V5.99726C156.766 5.91338 156.095 5.74562 155.801 5.66175V22.1855C155.801 25.3728 154.711 26.631 154.166 27.3859C154.375 27.5536 154.753 27.8053 154.963 27.973ZM175.387 0.629128C175.303 1.38402 174.338 7.54898 167.209 7.54898C166.789 7.54898 166.244 7.54899 165.909 7.50705V29.6925C169.641 28.5602 172.703 25.5406 174.045 21.3048L174.212 21.3467C173.709 29.1054 167.334 35.2703 159.66 35.2703C151.356 35.2703 145.191 28.9376 145.191 20.2983C145.191 14.6366 148.127 9.47815 152.656 6.96184L152.782 7.08766C150.601 9.60397 149.427 12.5397 149.427 16.3141C149.427 21.0112 151.272 24.7857 153.956 27.2181C154.543 26.3794 155.424 24.9954 155.424 22.0178V5.61982C155.172 5.57788 154.166 5.32624 153.117 5.32624C150.14 5.32624 147.623 6.12307 145.401 8.68132L145.275 8.59744C145.988 3.60676 149.594 0.0419922 156.179 0.0419922C162.092 0.0419922 165.154 2.2228 169.767 2.2228C172.828 2.2228 174.674 1.04852 175.303 0.5872L175.387 0.629128Z" fill="black"/>
</svg>
