<svg width="232" height="56" viewBox="0 0 232 56" fill="none" xmlns="http://www.w3.org/2000/svg">
<path d="M123.084 16.378V14.82H114.496V16.378H117.422V24.548C116.206 25.308 114.458 25.726 112.976 25.726C108.226 25.726 104.084 21.242 104.084 14.288C104.084 6.992 107.656 2.622 113.28 2.622C115.218 2.622 116.852 3.116 118.79 4.446L119.322 7.6H120.652V2.812C118.714 1.482 115.484 0.987999 113.166 0.987999C105.3 0.987999 100.246 6.954 100.246 14.25C100.246 21.432 105.338 27.322 112.786 27.322C115.484 27.322 118.182 26.942 120.766 25.536V16.378H123.084Z" fill="#003C7C"/>
<path d="M140.46 24.89L139.738 23.56C138.408 24.358 135.9 25.232 134.342 25.232C129.82 25.232 128.186 21.394 128.186 17.328V16.91H140.27C140.27 16.758 140.308 16.606 140.308 16.454V15.732C140.308 11.362 137.838 8.246 133.316 8.246C127.768 8.246 124.69 12.844 124.69 17.898C124.69 23.028 127.692 27.322 133.164 27.322C135.748 27.322 138.332 26.372 140.46 24.89ZM136.926 15.314H128.376C128.566 12.692 130.01 9.804 132.936 9.804C135.824 9.804 136.926 12.084 136.926 14.706V15.314Z" fill="#003C7C"/>
<path d="M161.491 26.904V25.346H158.793V11.438C157.501 8.74 155.449 8.208 153.549 8.208C151.611 8.208 149.369 9.234 147.545 10.336V8.132L141.693 9.12V10.298H144.391V25.346H141.693V26.904H150.015V25.346H147.545V11.818C148.647 11.248 150.319 10.526 151.801 10.526C154.575 10.526 155.639 12.084 155.639 14.858V25.346H153.169V26.904H161.491Z" fill="#003C7C"/>
<path d="M182.12 25.878V24.7H179.422V8.208L173.57 9.234V10.412H176.268V22.8C174.786 24.13 172.696 24.814 171.176 24.814C169.466 24.814 168.174 23.56 168.174 20.824V8.208L162.322 9.234V10.412H165.02V21.47C165.02 25.422 167.11 27.208 169.732 27.208C171.822 27.208 174.292 26.144 176.268 24.282V26.904L182.12 25.878Z" fill="#003C7C"/>
<path d="M188.672 0C187.456 0 186.468 0.987999 186.468 2.204C186.468 3.458 187.456 4.37 188.672 4.37C189.926 4.37 190.876 3.458 190.876 2.204C190.876 0.987999 189.888 0 188.672 0ZM192.662 26.904V25.346H189.964V8.056L184.188 9.044V10.222H186.848V25.346H184.188V26.904H192.662Z" fill="#003C7C"/>
<path d="M214.197 26.904V25.346H211.499V11.438C210.207 8.74 208.155 8.208 206.255 8.208C204.317 8.208 202.075 9.234 200.251 10.336V8.132L194.399 9.12V10.298H197.097V25.346H194.399V26.904H202.721V25.346H200.251V11.818C201.353 11.248 203.025 10.526 204.507 10.526C207.281 10.526 208.345 12.084 208.345 14.858V25.346H205.875V26.904H214.197Z" fill="#003C7C"/>
<path d="M231.481 24.89L230.759 23.56C229.429 24.358 226.921 25.232 225.363 25.232C220.841 25.232 219.207 21.394 219.207 17.328V16.91H231.291C231.291 16.758 231.329 16.606 231.329 16.454V15.732C231.329 11.362 228.859 8.246 224.337 8.246C218.789 8.246 215.711 12.844 215.711 17.898C215.711 23.028 218.713 27.322 224.185 27.322C226.769 27.322 229.353 26.372 231.481 24.89ZM227.947 15.314H219.397C219.587 12.692 221.031 9.804 223.957 9.804C226.845 9.804 227.947 12.084 227.947 14.706V15.314Z" fill="#003C7C"/>
<path fill-rule="evenodd" clip-rule="evenodd" d="M176.364 47.6003L179.962 43.9039H181.562V42.8789H176.812V43.9039H178.487L174.647 47.9043H174.012V36.7539L170.012 37.4039V38.1789H171.937V53.8789H170.162V54.9039H175.637V53.8789H174.012V48.9043H175.65V48.8871L179.869 53.9043H177.65V54.9043H182.65V53.9043H181.725L176.364 47.6003ZM110.775 39.1539V41.6289H111.8V38.1289H100V39.1539H101.85V53.8789H100V54.9039H106.275V53.8789H104.1V46.7539H108.975V48.6789H109.975V43.6789H108.975V45.6039H104.1V39.1539H110.775ZM125.99 53.8789V54.9039H120.665V53.8789H121.99L119.515 49.8789L116.79 53.8789H118.515V54.9039H113.79V53.8789H115.215L118.815 48.9539L115.34 43.9039H113.94V42.8789H119.315V43.9039H117.84L120.14 47.4789L122.715 43.9039H121.015V42.8789H125.515V43.9039H124.265L120.815 48.4289L124.49 53.8789H125.99ZM146.606 49.5789C146.406 47.9789 145.206 46.1539 142.531 45.9539C144.431 45.6289 145.806 43.9789 145.806 42.1789C145.806 38.7789 142.356 38.1289 139.956 38.1289H133.906V39.1789H135.706V53.8789H133.906V54.9039H141.256C143.581 54.9039 147.081 53.5539 146.606 49.5789ZM143.356 42.1539C143.356 44.8539 141.181 45.6539 139.556 45.6539H138.006V39.1789H139.506C141.456 39.1789 143.356 39.9039 143.356 42.1539ZM144.206 50.2039C144.206 52.4039 143.181 53.8789 140.131 53.8789H138.006V46.7289H140.381C143.081 46.7289 144.206 48.3039 144.206 50.2039ZM155.184 42.6039C156.159 42.6039 156.434 42.8039 157.109 43.3289L156.384 45.0539C155.909 44.7789 155.559 44.6039 154.934 44.6039C153.859 44.6039 152.909 45.5039 152.209 46.6789V53.8789H154.209V54.9039H148.409V53.8789H150.159V43.9289H148.409V43.1539L152.209 42.5039V45.1289L152.287 45.0261C153.301 43.6971 154.136 42.6039 155.184 42.6039ZM163.133 55.1789C159.583 55.1789 157.358 52.2789 157.358 48.9289C157.358 45.5289 159.733 42.6039 163.308 42.6039C166.883 42.6039 169.008 45.7039 169.008 48.9289C169.008 52.2789 166.633 55.1789 163.133 55.1789ZM163.183 43.6289C161.058 43.6289 159.758 45.9039 159.758 48.9289C159.758 51.9539 161.058 54.1539 163.183 54.1539C165.308 54.1539 166.608 51.8789 166.608 48.9289C166.608 45.9789 165.308 43.6289 163.183 43.6289ZM193.309 53.5789L192.834 52.7039C191.959 53.2289 190.309 53.8039 189.284 53.8039C186.309 53.8039 185.234 51.2789 185.234 48.6039V48.3289H193.184C193.184 48.279 193.19 48.229 193.196 48.1791L193.196 48.1789C193.202 48.1289 193.209 48.0789 193.209 48.0289V47.5539C193.209 44.6789 191.584 42.6289 188.609 42.6289C184.959 42.6289 182.934 45.6539 182.934 48.9789C182.934 52.3539 184.909 55.1789 188.509 55.1789C190.209 55.1789 191.909 54.5539 193.309 53.5789ZM190.984 47.2789H185.359C185.484 45.5539 186.434 43.6539 188.359 43.6539C190.259 43.6539 190.984 45.1539 190.984 46.8789V47.2789ZM201.62 42.6039C202.595 42.6039 202.87 42.8039 203.545 43.3289L202.82 45.0539C202.345 44.7789 201.995 44.6039 201.37 44.6039C200.295 44.6039 199.345 45.5039 198.645 46.6789V53.8789H200.645V54.9039H194.845V53.8789H196.595V43.9289H194.845V43.1539L198.645 42.5039V45.1289L198.724 45.0261C199.738 43.6971 200.572 42.6039 201.62 42.6039Z" fill="#E21328"/>
<path d="M53 0H65V38L53 33V0Z" fill="#8EC73D"/>
<path d="M38 6H50V31L38 26V6Z" fill="#E21328"/>
<path d="M23 11H35V24L23 19V11Z" fill="#8EC73D"/>
<ellipse cx="51.5" cy="50.5" rx="42.5" ry="4.5" fill="#E7E8E9"/>
<path fill-rule="evenodd" clip-rule="evenodd" d="M23 23L0 40V51L23 34L64.5 52L86.1972 35.6066L88 40.5L93.5 24L77 27L81.115 29.1946L64.5 41L23 23Z" fill="#003C7C"/>
</svg>
