<svg width="193" height="48" viewBox="0 0 193 48" fill="none" xmlns="http://www.w3.org/2000/svg">
<path d="M192.477 0H0V47.42H192.477V0Z" fill="#2C3567"/>
<path d="M7.02441 37.8687V6.80407C7.02441 6.25385 7.46918 5.80908 8.0194 5.80908H12.0085C12.3707 5.80908 12.7055 6.00625 12.8797 6.32721L21.6649 22.4029C22.0409 23.0952 23.0359 23.0907 23.4119 22.4029L32.1467 6.32721C32.3209 6.00625 32.6556 5.80908 33.0224 5.80908H36.6264C37.1766 5.80908 37.6214 6.25385 37.6214 6.80407V37.8687C37.6214 38.4189 37.1766 38.8637 36.6264 38.8637H32.2246C31.6744 38.8637 31.2296 38.4189 31.2296 37.8687V20.3625C31.2296 20.2708 31.1058 20.2387 31.0645 20.3212L23.5311 34.5078C23.3568 34.8333 23.0221 35.0351 22.6507 35.0351H21.7199C21.3485 35.0351 21.0092 34.8287 20.8396 34.4986L13.2007 19.7847C13.1594 19.7022 13.0356 19.7343 13.0356 19.826V37.8687C13.0356 38.4189 12.5908 38.8637 12.0406 38.8637H8.0194C7.46918 38.8637 7.02441 38.4189 7.02441 37.8687Z" fill="white"/>
<path d="M44.2236 5.80908H65.6318C66.4021 5.80908 67.0211 6.43267 67.0211 7.19839V11.8524C67.0211 12.6227 66.3976 13.2417 65.6318 13.2417H49.8313V18.1753H58.5019C59.2722 18.1753 59.8912 18.7989 59.8912 19.5646V24.1131C59.8912 24.8835 59.2676 25.5025 58.5019 25.5025H49.5653V31.3669H65.6364C66.4067 31.3669 67.0257 31.9905 67.0257 32.7562V37.4652C67.0257 38.2355 66.4021 38.8545 65.6364 38.8545H44.2282C43.4579 38.8545 42.8389 38.2309 42.8389 37.4652V7.19839C42.8389 6.42808 43.4625 5.80908 44.2282 5.80908H44.2236Z" fill="white"/>
<path d="M75.4858 5.80908H72.6934C71.9919 5.80908 71.4233 6.37764 71.4233 7.07918V37.5936C71.4233 38.2951 71.9919 38.8637 72.6934 38.8637H75.8251C76.5266 38.8637 77.0952 38.2951 77.0952 37.5936V18.776L93.8357 38.4143C94.0787 38.6986 94.4318 38.8591 94.8032 38.8591H97.4122C98.1137 38.8591 98.6823 38.2905 98.6823 37.589V7.07918C98.6823 6.37764 98.1137 5.80908 97.4122 5.80908H93.8908C93.1892 5.80908 92.6207 6.37764 92.6207 7.07918V25.906L76.467 6.27219C76.224 5.97873 75.8664 5.80908 75.4858 5.80908Z" fill="white"/>
<path d="M131.489 37.4056L119.476 7.00123C119.191 6.28136 118.494 5.80908 117.72 5.80908H114.409C113.639 5.80908 112.946 6.27677 112.662 6.98747L100.401 37.3964C100.117 38.098 100.635 38.8591 101.392 38.8591H106.279C106.559 38.8591 106.811 38.6895 106.912 38.4281L109.475 31.9034H122.273L124.772 38.4235C124.872 38.6849 125.125 38.8591 125.409 38.8591H130.503C131.255 38.8591 131.773 38.1026 131.493 37.401L131.489 37.4056ZM111.938 24.7092L115.94 14.5118L119.865 24.7092H111.933H111.938Z" fill="white"/>
<path d="M140.132 38.2218V27.1027H148.757C149.11 27.1027 149.394 26.8184 149.394 26.4653V20.2432C149.394 19.8902 149.11 19.6059 148.757 19.6059H140.132V13.0399H156.689C157.042 13.0399 157.326 12.7556 157.326 12.4026V6.44642C157.326 6.09336 157.042 5.80908 156.689 5.80908H134.038C133.685 5.80908 133.401 6.09336 133.401 6.44642V38.2218C133.401 38.5748 133.685 38.8591 134.038 38.8591H139.495C139.848 38.8591 140.132 38.5748 140.132 38.2218Z" fill="#72A548"/>
<path d="M159.215 38.8637H163.227C163.796 38.8637 164.254 38.4052 164.254 37.8366V18.9777L180.541 38.4969C180.738 38.7307 181.023 38.8637 181.33 38.8637H184.957C185.525 38.8637 185.984 38.4052 185.984 37.8366V6.98289C185.984 6.33638 185.456 5.80908 184.81 5.80908H180.761C180.115 5.80908 179.587 6.33638 179.587 6.98289V25.507L163.548 6.54271C163.154 6.07961 162.576 5.80908 161.966 5.80908H159.367C158.72 5.80908 158.193 6.33638 158.193 6.98289V37.8366C158.193 38.4052 158.651 38.8637 159.22 38.8637H159.215Z" fill="#72A548"/>
</svg>
