<svg width="250" height="46" viewBox="0 0 250 46" fill="none" xmlns="http://www.w3.org/2000/svg">
<path d="M0 0H18.3022C21.7884 0 24.403 0.871535 26.3397 2.32409C28.4701 4.06716 29.6322 6.58493 29.6322 9.68372C29.6322 13.2667 28.1796 15.4939 25.2745 16.8497V17.0433C29.148 18.3022 31.3752 21.7884 31.3752 25.9524C31.3752 29.9227 29.8258 33.0215 27.3081 34.9582C25.1777 36.5076 22.4662 37.1855 18.7864 37.1855H0V0ZM16.4623 14.5256C18.3991 14.5256 19.8516 13.4604 19.8516 11.2331C19.8516 9.10269 18.3991 8.03748 16.3655 8.03748H10.0711V14.4287H16.4623V14.5256ZM17.3338 28.9543C19.5611 28.9543 21.2073 27.5986 21.2073 25.1777C21.2073 22.5631 19.4643 21.401 17.3338 21.401H10.1679V29.0511H17.3338V28.9543Z" fill="black"/>
<path d="M33.022 0H42.6088V37.2823H33.022V0Z" fill="black"/>
<path d="M44.5454 24.015C44.5454 15.5902 49.9683 9.97363 58.3931 9.97363C66.818 9.97363 72.144 15.687 72.144 24.015C72.144 32.4399 66.818 38.0564 58.3931 38.0564C49.9683 38.0564 44.5454 32.4399 44.5454 24.015ZM62.5571 24.015C62.5571 19.3668 61.1046 16.4617 58.1995 16.4617C55.2943 16.4617 53.9386 19.3668 53.9386 24.015C53.9386 28.6632 55.2943 31.6652 58.1995 31.6652C61.1046 31.5683 62.5571 28.6632 62.5571 24.015Z" fill="black"/>
<path d="M73.209 24.015C73.209 15.5902 78.6319 9.97363 87.0567 9.97363C95.4815 9.97363 100.711 15.5902 100.711 24.015C100.711 32.4399 95.3847 38.0564 86.9599 38.0564C78.6319 38.0564 73.209 32.4399 73.209 24.015ZM91.2207 24.015C91.2207 19.3668 89.7681 16.4617 86.863 16.4617C83.9579 16.4617 82.6022 19.3668 82.6022 24.015C82.6022 28.6632 83.9579 31.6652 86.863 31.6652C89.7681 31.5683 91.2207 28.6632 91.2207 24.015Z" fill="black"/>
<path d="M102.647 10.6521H111.556V14.6225H111.75C113.493 11.5237 115.914 9.87744 119.788 9.87744C123.177 9.87744 125.695 11.5237 126.954 14.4288H127.147C129.278 10.9427 132.086 9.87744 135.378 9.87744C141.576 9.87744 144.191 14.4288 144.191 20.5295V37.1855H134.894V22.1758C134.894 19.4643 134.023 17.7213 131.699 17.7213C129.375 17.7213 128.212 19.8517 128.212 22.7568V37.1855H118.916V22.1758C118.916 19.4643 118.045 17.7213 115.72 17.7213C113.396 17.7213 112.234 19.8517 112.234 22.7568V37.1855H102.647V10.6521Z" fill="black"/>
<path d="M155.908 33.6993H155.811V37.1855H146.902V0H156.199V13.3635H156.392C158.135 11.0394 160.556 9.78055 163.946 9.78055C170.627 9.78055 174.501 15.7845 174.501 23.8219C174.501 32.8278 170.337 38.057 163.365 38.057C160.46 38.057 157.458 36.7013 155.908 33.6993ZM164.914 23.7251C164.914 19.4643 163.365 16.656 160.556 16.656C157.651 16.656 155.908 19.4643 155.908 23.7251C155.908 27.9859 157.748 30.7942 160.556 30.7942C163.365 30.7942 164.914 28.0828 164.914 23.7251Z" fill="black"/>
<path d="M175.566 23.9188C175.566 15.5908 181.086 9.87744 189.026 9.87744C192.997 9.87744 195.999 11.1363 198.323 13.3636C201.421 16.3655 202.777 21.0137 202.68 26.4366H184.862C185.25 29.7291 186.799 31.4721 189.607 31.4721C191.254 31.4721 192.706 30.6974 193.287 28.9544H202.293C200.744 35.0551 195.999 38.0571 189.317 38.0571C181.086 37.9602 175.566 32.3437 175.566 23.9188ZM184.862 21.1106H193.384C193.19 17.9149 191.447 16.2687 189.22 16.2687C186.605 16.1719 185.153 18.0118 184.862 21.1106Z" fill="black"/>
<path d="M213.236 15.2037H213.43C215.367 11.5238 217.884 10.0713 221.08 10.0713C221.855 10.0713 222.339 10.1681 222.629 10.3618V18.4961H222.436C216.916 17.5278 213.72 20.1424 213.72 26.1463V37.2825H204.327V10.6523H213.236V15.2037Z" fill="black"/>
<path d="M223.597 37.282H232.603C232.991 38.4441 234.153 39.5093 236.38 39.5093C239.382 39.5093 240.447 37.6694 240.447 34.8611V32.9244H240.253C238.801 34.6674 236.767 35.9263 233.862 35.9263C228.149 35.9263 223.113 31.6655 223.113 23.3375C223.113 15.6873 227.18 9.78027 233.378 9.78027C236.961 9.78027 239.091 11.2328 240.544 13.4601H240.738V10.555H249.647V33.6022C249.647 37.863 248.194 41.1555 245.967 43.0923C243.643 45.1258 240.35 45.9974 236.574 45.9974C229.408 46.0942 224.469 43.1891 223.597 37.282ZM240.834 22.9501C240.834 19.6577 239.285 16.9462 236.574 16.9462C233.959 16.9462 232.313 19.2703 232.313 22.9501C232.313 26.5331 233.959 29.0509 236.574 29.0509C239.188 29.0509 240.834 26.4363 240.834 22.9501Z" fill="black"/>
</svg>
