<svg width="211" height="77" viewBox="0 0 211 77" fill="none" xmlns="http://www.w3.org/2000/svg">
<path fill-rule="evenodd" clip-rule="evenodd" d="M75.3958 23.1713V46.3426H81.0995H86.8032V37.4306C86.8032 31.5486 86.8032 28.3403 86.8032 27.9838C86.9815 27.0926 87.1597 26.2014 87.6944 25.4884C88.4074 24.2407 89.6551 23.706 91.081 23.8843C93.0417 24.0625 94.2894 25.1319 94.6458 27.4491C94.6458 27.8056 94.6458 31.3704 94.6458 37.0741V46.1644H100.35H106.053V35.4699C106.053 26.3796 106.053 24.5972 105.875 23.706C105.519 20.4977 104.449 18.0023 102.488 16.2199C100.884 14.6157 98.9236 13.7245 96.6065 13.3681C95.7153 13.1898 93.2199 13.3681 92.507 13.5463C90.3681 14.081 88.7639 14.794 87.338 16.3982L86.4468 17.1111V8.55555V0H80.7431H75.0394V23.1713H75.3958ZM196.6 0.356483C196.243 1.06945 184.657 29.0532 184.657 29.0532C184.657 29.0532 187.688 29.0532 191.431 29.0532H198.204L204.264 14.6157C207.65 6.59491 210.324 0 210.324 0C210.324 0 207.294 0 203.551 0H196.778L196.6 0.356483ZM50.4421 13.5463C47.9468 13.9028 45.9861 14.6157 44.0255 15.8634C40.1042 18.3588 37.6088 22.6366 36.8958 27.6273C36.5394 29.9444 36.7176 32.7963 37.2523 34.9352C38.6782 40.4606 42.4213 44.7384 47.2338 46.3426C49.0162 46.8773 49.7292 47.0556 51.8681 47.0556C53.4722 47.0556 54.0069 47.0556 54.5417 46.8773C56.8588 46.3426 58.463 45.4514 59.8889 44.0255L60.6019 43.3125V44.7384V46.1644H66.1273H71.6528V30.1227V14.081H66.1273H60.6019V15.5069V16.9329L60.0671 16.3982C58.8195 14.9722 57.037 14.081 54.7199 13.5463C54.007 13.3681 53.6505 13.3681 52.2245 13.3681C51.3333 13.5463 50.6204 13.5463 50.4421 13.5463ZM123.164 13.5463C120.134 13.9028 116.926 15.3287 114.609 17.1111C110.153 20.8542 107.836 26.7361 108.727 32.7963C109.618 39.5695 114.431 44.7384 121.204 46.5208C122.63 46.8773 124.056 47.0556 125.838 47.0556C129.046 47.0556 131.363 46.5208 133.859 45.2732C138.85 42.7778 142.058 38.3218 142.771 32.7963C142.949 31.3704 142.949 29.0532 142.771 27.8056C142.414 25.1319 141.345 22.4583 139.741 20.3194C139.028 19.4282 137.602 17.8241 136.711 17.1111C134.215 15.1505 131.363 13.9028 128.155 13.5463C126.907 13.3681 124.412 13.3681 123.164 13.5463ZM159.525 13.5463C156.495 13.9028 153.465 15.1505 151.148 17.1111C150.257 17.8241 148.653 19.4282 148.118 20.3194C146.514 22.4583 145.623 25.1319 145.088 27.8056C144.91 29.0532 144.91 31.5486 145.088 32.7963C146.157 39.9259 151.326 45.4514 158.456 46.8773C159.882 47.2338 160.595 47.2338 162.199 47.2338C165.229 47.2338 167.903 46.6991 170.398 45.2732C176.993 41.8866 180.558 34.4005 178.954 26.7361C177.528 19.6065 171.824 14.4375 164.516 13.5463C163.269 13.3681 160.773 13.3681 159.525 13.5463ZM0 14.2593C0 14.2593 3.03009 21.5671 6.77315 30.4792C10.5162 39.3912 13.5463 46.6991 13.5463 46.6991C13.5463 46.6991 12.4769 49.3727 11.0509 52.581C9.625 55.7894 8.55555 58.2847 8.55555 58.463C8.55555 58.6412 11.2292 58.463 14.6157 58.463H20.6759L29.7662 36.5394C34.7569 24.419 38.8565 14.6157 38.8565 14.4375C38.8565 14.4375 37.6088 14.2593 32.7963 14.4375H26.7361L22.9931 23.706C21.3889 28.6968 19.7847 32.9745 19.7847 32.9745C19.7847 32.9745 18.1806 28.6968 16.0417 23.706L12.4769 14.4375H6.23843C2.85185 14.2593 0 14.2593 0 14.2593ZM55.9676 23.8843C58.2847 24.419 60.0671 26.2014 60.7801 28.5185C60.9583 29.4097 60.9583 31.0139 60.7801 31.9051C60.2454 34.2222 58.463 36.0046 56.1458 36.5394C55.2546 36.7176 53.6505 36.7176 52.7593 36.5394C50.7986 36.0046 49.0162 34.5787 48.3032 32.7963C47.412 30.8357 47.7685 28.3403 48.838 26.5579C50.4421 24.2407 53.1157 23.3495 55.9676 23.8843ZM127.086 24.0625C129.581 24.419 131.542 26.3796 132.076 28.875C132.255 29.7662 132.255 31.1921 132.076 32.0833C131.542 34.4005 129.759 36.0046 127.62 36.7176C126.907 36.8958 124.947 36.8958 124.234 36.7176C122.451 36.1829 121.025 34.9352 120.134 33.331C119.6 32.2616 119.6 31.7269 119.6 30.4792C119.6 29.4097 119.778 28.875 120.134 27.9838C120.669 26.9144 121.382 25.8449 122.451 25.1319C123.521 24.0625 125.303 23.706 127.086 24.0625ZM163.269 24.0625C165.407 24.419 167.19 25.8449 167.903 27.8056C168.259 28.6968 168.438 29.2315 168.438 30.3009C168.438 31.5486 168.259 32.0833 167.903 33.1528C167.19 34.7569 165.586 36.0046 163.803 36.5394C163.09 36.7176 161.13 36.7176 160.417 36.5394C158.278 36.0046 156.495 34.2222 155.961 31.9051C155.782 31.0139 155.782 29.4097 155.961 28.5185C156.674 25.6667 159.169 23.706 162.021 23.706C162.377 23.8843 162.912 23.8843 163.269 24.0625ZM187.509 31.9051C184.123 32.2616 181.627 34.7569 180.914 37.9653C180.736 38.8565 180.736 40.4607 180.914 41.3519C181.627 44.2037 183.766 46.1644 186.618 46.8773C186.975 46.8773 187.688 47.0556 188.222 47.0556C190.361 47.0556 192.144 46.3426 193.569 44.9167C195.174 43.3125 195.708 41.7083 195.708 39.5694C195.708 36.8958 194.461 34.5787 192.322 33.331C190.896 32.0833 188.935 31.7269 187.509 31.9051ZM93.5764 49.3727C91.2593 50.0857 90.1898 52.7593 91.4375 54.7199C91.794 55.2546 92.5069 55.9676 93.0417 56.1458C93.5764 56.3241 93.5764 56.3241 94.6458 56.3241C95.537 56.3241 95.7153 56.3241 96.25 56.1458C96.963 55.7894 97.6759 55.0764 98.0324 54.3634C98.9236 52.581 98.0324 50.4421 96.25 49.5509C95.7153 49.1944 95.537 49.1944 94.8241 49.1944C94.1111 49.1944 93.9329 49.1945 93.5764 49.3727ZM83.9514 49.5509C80.9213 50.0857 78.9607 52.0463 78.0695 55.2546C77.8912 55.7894 77.8912 56.3241 77.8912 57.037V58.2847H76.6435H75.3958V60.9583V63.6319H76.6435H77.8912V70.0486V76.4653H81.2778H84.6644V70.0486V63.6319H86.9815H89.2986V60.9583V58.2847H86.9815H84.6644V57.75C84.8426 56.5023 85.3773 55.6111 86.4468 55.4329C87.1597 55.2546 88.2292 55.2546 88.9421 55.6111C89.2986 55.7894 89.4769 55.7894 89.4769 55.7894C89.4769 55.7894 89.4769 54.5417 89.4769 52.9375V50.0856L88.9421 49.9074C88.2292 49.5509 87.338 49.5509 86.0903 49.5509C85.1991 49.3727 84.4861 49.5509 83.9514 49.5509ZM111.044 57.9282C109.618 58.2847 108.549 58.9977 107.836 59.8889L107.479 60.4236V59.3542V58.2847H104.093H100.706V67.375V76.4653H104.093H107.479V71.4745C107.479 68.6227 107.479 66.3056 107.479 65.9491C107.657 65.2361 108.014 64.5232 108.37 64.1667C109.262 63.4537 110.866 63.6319 111.579 64.5231C112.113 65.2361 112.113 65.2361 112.113 70.9398V76.287H115.5H118.887V70.2269C118.887 63.8102 118.887 63.0972 118.53 61.8495C118.174 60.7801 117.817 59.8889 116.926 59.1759C116.213 58.463 115.5 57.9282 114.431 57.75C113.539 57.75 111.757 57.75 111.044 57.9282ZM127.977 57.75C126.907 57.9282 125.303 58.463 124.412 59.1759C122.451 60.6018 121.204 62.7407 120.669 65.4144C120.491 66.4838 120.491 68.4445 120.669 69.5139C121.025 71.1181 121.56 72.7222 122.451 73.7917C123.699 75.3958 125.303 76.4653 127.264 76.8218C128.333 77 130.116 77 131.007 76.6435C132.076 76.287 132.789 75.9306 133.681 75.2176L134.394 74.5046V75.3958V76.287H137.78H141.167V67.1968V58.1065H137.78H134.394V58.9977V59.8889L133.859 59.7107C132.968 58.8194 131.72 58.1065 130.294 57.9282C129.759 57.75 128.512 57.75 127.977 57.75ZM153.822 57.9282C152.574 58.1065 151.326 58.9977 150.613 59.8889L150.257 60.2454V59.1759V58.1065H146.87H143.484V67.1968V76.287H146.87H150.257V71.1181C150.257 65.5926 150.257 65.5926 150.613 64.7014C150.97 63.9884 151.683 63.6319 152.396 63.6319C153.109 63.6319 153.465 63.8102 154 64.1667C154.713 64.8796 154.713 64.7014 154.713 70.7616V76.1088H158.1H161.486V69.5139C161.486 62.919 161.486 62.919 161.308 62.206C161.13 61.8495 160.951 61.1366 160.773 60.6019C160.417 59.8889 160.238 59.7106 159.704 59.1759C158.991 58.463 158.456 58.1065 157.743 57.75C156.495 57.75 155.069 57.5718 153.822 57.9282ZM171.468 57.9282C168.438 58.463 166.12 59.8889 164.694 62.3843C164.338 63.0972 163.981 63.9884 163.625 64.8796C163.447 65.7708 163.447 65.9491 163.447 67.375C163.447 68.9792 163.447 69.5139 163.981 70.7616C165.051 73.7917 167.546 76.1088 170.933 76.8218C171.468 77 172.002 77 173.25 77C175.032 77 175.745 76.8218 176.993 76.287L177.706 75.9306V72.9005V69.8704L177.171 70.2269C176.28 70.7616 175.745 70.9398 174.676 70.9398C173.606 70.9398 173.072 70.9398 172.359 70.5833C171.646 70.2269 171.111 69.6921 170.755 68.9792C170.576 68.4444 170.576 68.4445 170.576 67.5532C170.576 66.8403 170.576 66.662 170.755 66.1273C171.289 64.7014 172.537 63.9884 174.319 63.8102C175.567 63.8102 176.102 63.8102 177.884 64.7014C177.884 64.7014 177.884 63.2755 177.884 61.6713V58.6412L177.35 58.463C175.389 57.75 173.25 57.5718 171.468 57.9282ZM186.796 57.9282C181.627 58.8194 178.419 63.2755 178.775 68.4445C178.954 70.2269 179.488 71.831 180.38 73.0787C181.627 75.0394 183.588 76.287 186.083 76.8218C187.153 77 190.005 77 191.252 76.8218C193.035 76.4653 194.639 75.5741 195.887 74.3264C196.421 73.7917 197.312 72.544 197.312 72.544C197.312 72.544 196.065 72.0093 194.461 71.4745L191.609 70.4051L191.252 70.7616C190.718 71.2963 190.361 71.4745 189.648 71.6528C187.688 72.1875 185.727 71.1181 185.37 69.3357V68.9792H191.609H197.847V67.375C197.847 66.3056 197.847 65.5926 197.669 65.2361C197.312 63.0972 196.421 61.6713 195.174 60.2454C193.926 58.9977 192.5 58.2847 190.539 57.9282C189.826 57.75 187.688 57.75 186.796 57.9282ZM91.2593 67.375V76.4653H94.6458H98.0324V67.375V58.2847H94.6458H91.2593V67.375ZM189.47 62.919C190.005 63.0972 190.183 63.2755 190.718 63.6319C191.074 63.9884 191.431 64.3449 191.431 64.8796V65.2361H188.4C185.014 65.2361 185.192 65.2361 185.549 64.5231C186.083 63.2755 187.688 62.5625 189.47 62.919ZM131.898 63.8102C132.789 63.9884 133.859 64.8796 134.215 65.7708C135.106 67.7315 134.215 70.0486 132.076 70.7616C131.363 70.9398 130.294 70.9398 129.581 70.7616C128.512 70.4051 127.442 69.5139 127.264 68.4445C127.086 67.9097 127.086 67.7315 127.086 67.1968C127.086 66.4838 127.086 66.3056 127.442 65.7708C128.155 64.1667 129.938 63.4537 131.898 63.8102Z" fill="#310479"/>
</svg>
