<svg width="1454" height="900" viewBox="0 0 1454 900" fill="none" xmlns="http://www.w3.org/2000/svg">
<path d="M1381.56 615.736C1371.67 654.806 1343.98 687.445 1302.31 712.999C1260.63 738.556 1204.99 757.009 1139.25 767.705C1007.79 789.096 836.064 779.444 655.25 733.656C474.437 687.868 318.816 614.625 213.378 533.242C160.658 492.55 120.504 449.838 96.0118 407.525C71.5216 365.214 62.7072 323.333 72.601 284.264C82.4948 245.194 110.18 212.556 151.856 187.001C193.535 161.444 249.178 142.991 314.911 132.295C446.375 110.904 618.099 120.556 798.913 166.344C979.726 212.132 1135.35 285.375 1240.79 366.758C1293.51 407.45 1333.66 450.162 1358.15 492.475C1382.64 534.786 1391.46 576.667 1381.56 615.736Z" stroke="url(#paint0_linear_16_1896)"/>
<path d="M1053.41 532.639C1048.5 552.053 1034.74 568.291 1013.98 581.02C993.219 593.75 965.488 602.949 932.708 608.283C867.15 618.95 781.498 614.139 691.299 591.298C601.101 568.456 523.482 531.922 470.902 491.338C444.612 471.046 424.602 449.757 412.402 428.68C400.204 407.606 395.83 386.776 400.747 367.361C405.663 347.947 419.424 331.709 440.182 318.981C460.942 306.251 488.674 297.051 521.453 291.717C587.011 281.05 672.664 285.861 762.862 308.702C853.06 331.544 930.68 368.078 983.259 408.662C1009.55 428.954 1029.56 450.244 1041.76 471.32C1053.96 492.394 1058.33 513.225 1053.41 532.639Z" stroke="url(#paint1_linear_16_1896)"/>
<path d="M1201.44 570.124C1194.28 598.405 1174.24 622.041 1144.04 640.555C1113.85 659.071 1073.53 672.445 1025.88 680.198C930.592 695.703 806.113 688.708 675.038 655.515C543.963 622.323 431.158 569.229 354.734 510.241C316.521 480.746 287.424 449.793 269.679 419.137C251.936 388.483 245.559 358.157 252.721 329.876C259.883 301.595 279.925 277.959 310.119 259.445C340.315 240.929 380.638 227.555 428.282 219.802C523.57 204.297 648.05 211.292 779.125 244.485C910.199 277.677 1023.01 330.771 1099.43 389.759C1137.64 419.254 1166.74 450.207 1184.48 480.863C1202.23 511.517 1208.6 541.843 1201.44 570.124Z" stroke="url(#paint2_linear_16_1896)"/>
<defs>
<linearGradient id="paint0_linear_16_1896" x1="117.993" y1="261.667" x2="1251.83" y2="732.055" gradientUnits="userSpaceOnUse">
<stop stop-color="white" stop-opacity="0.1"/>
<stop offset="0.491388" stop-color="white" stop-opacity="0.36"/>
<stop offset="1" stop-color="white" stop-opacity="0.26"/>
</linearGradient>
<linearGradient id="paint1_linear_16_1896" x1="423.154" y1="356.024" x2="988.922" y2="590.741" gradientUnits="userSpaceOnUse">
<stop stop-color="white" stop-opacity="0.1"/>
<stop offset="0.491388" stop-color="white" stop-opacity="0.36"/>
<stop offset="1" stop-color="white" stop-opacity="0.26"/>
</linearGradient>
<linearGradient id="paint2_linear_16_1896" x1="285.496" y1="313.46" x2="1107.52" y2="654.488" gradientUnits="userSpaceOnUse">
<stop stop-color="white" stop-opacity="0.1"/>
<stop offset="0.491388" stop-color="white" stop-opacity="0.36"/>
<stop offset="1" stop-color="white" stop-opacity="0.26"/>
</linearGradient>
</defs>
</svg>
