<svg width="427" height="4" viewBox="0 0 427 4" fill="none" xmlns="http://www.w3.org/2000/svg">
<path d="M1.91602 0.619141C1.08759 0.619141 0.416016 1.29071 0.416016 2.11914C0.416016 2.94757 1.08759 3.61914 1.91602 3.61914V0.619141ZM425.191 3.61914C426.02 3.61914 426.691 2.94757 426.691 2.11914C426.691 1.29071 426.02 0.619141 425.191 0.619141V3.61914ZM4.96848 3.61914C5.79691 3.61914 6.46848 2.94757 6.46848 2.11914C6.46848 1.29071 5.79691 0.619141 4.96848 0.619141V3.61914ZM15.1434 0.619141C14.3149 0.619141 13.6434 1.29071 13.6434 2.11914C13.6434 2.94757 14.3149 3.61914 15.1434 3.61914V0.619141ZM21.2483 3.61914C22.0767 3.61914 22.7483 2.94757 22.7483 2.11914C22.7483 1.29071 22.0767 0.619141 21.2483 0.619141V3.61914ZM31.4232 0.619141C30.5948 0.619141 29.9232 1.29071 29.9232 2.11914C29.9232 2.94757 30.5948 3.61914 31.4232 3.61914V0.619141ZM37.5281 3.61914C38.3565 3.61914 39.0281 2.94757 39.0281 2.11914C39.0281 1.29071 38.3565 0.619141 37.5281 0.619141V3.61914ZM47.703 0.619141C46.8746 0.619141 46.203 1.29071 46.203 2.11914C46.203 2.94757 46.8746 3.61914 47.703 3.61914V0.619141ZM53.8079 3.61914C54.6364 3.61914 55.3079 2.94757 55.3079 2.11914C55.3079 1.29071 54.6364 0.619141 53.8079 0.619141V3.61914ZM63.9828 0.619141C63.1544 0.619141 62.4828 1.29071 62.4828 2.11914C62.4828 2.94757 63.1544 3.61914 63.9828 3.61914V0.619141ZM70.0877 3.61914C70.9162 3.61914 71.5877 2.94757 71.5877 2.11914C71.5877 1.29071 70.9162 0.619141 70.0877 0.619141V3.61914ZM80.2626 0.619141C79.4342 0.619141 78.7626 1.29071 78.7626 2.11914C78.7626 2.94757 79.4342 3.61914 80.2626 3.61914V0.619141ZM86.3675 3.61914C87.196 3.61914 87.8675 2.94757 87.8675 2.11914C87.8675 1.29071 87.196 0.619141 86.3675 0.619141V3.61914ZM96.5424 0.619141C95.714 0.619141 95.0424 1.29071 95.0424 2.11914C95.0424 2.94757 95.714 3.61914 96.5424 3.61914V0.619141ZM102.647 3.61914C103.476 3.61914 104.147 2.94757 104.147 2.11914C104.147 1.29071 103.476 0.619141 102.647 0.619141V3.61914ZM112.822 0.619141C111.994 0.619141 111.322 1.29071 111.322 2.11914C111.322 2.94757 111.994 3.61914 112.822 3.61914V0.619141ZM118.927 3.61914C119.756 3.61914 120.427 2.94757 120.427 2.11914C120.427 1.29071 119.756 0.619141 118.927 0.619141V3.61914ZM129.102 0.619141C128.274 0.619141 127.602 1.29071 127.602 2.11914C127.602 2.94757 128.274 3.61914 129.102 3.61914V0.619141ZM135.207 3.61914C136.035 3.61914 136.707 2.94757 136.707 2.11914C136.707 1.29071 136.035 0.619141 135.207 0.619141V3.61914ZM145.382 0.619141C144.553 0.619141 143.882 1.29071 143.882 2.11914C143.882 2.94757 144.553 3.61914 145.382 3.61914V0.619141ZM151.487 3.61914C152.315 3.61914 152.987 2.94757 152.987 2.11914C152.987 1.29071 152.315 0.619141 151.487 0.619141V3.61914ZM161.662 0.619141C160.833 0.619141 160.162 1.29071 160.162 2.11914C160.162 2.94757 160.833 3.61914 161.662 3.61914V0.619141ZM167.767 3.61914C168.595 3.61914 169.267 2.94757 169.267 2.11914C169.267 1.29071 168.595 0.619141 167.767 0.619141V3.61914ZM177.941 0.619141C177.113 0.619141 176.441 1.29071 176.441 2.11914C176.441 2.94757 177.113 3.61914 177.941 3.61914V0.619141ZM184.046 3.61914C184.875 3.61914 185.546 2.94757 185.546 2.11914C185.546 1.29071 184.875 0.619141 184.046 0.619141V3.61914ZM194.221 0.619141C193.393 0.619141 192.721 1.29071 192.721 2.11914C192.721 2.94757 193.393 3.61914 194.221 3.61914V0.619141ZM200.326 3.61914C201.155 3.61914 201.826 2.94757 201.826 2.11914C201.826 1.29071 201.155 0.619141 200.326 0.619141V3.61914ZM210.501 0.619141C209.673 0.619141 209.001 1.29071 209.001 2.11914C209.001 2.94757 209.673 3.61914 210.501 3.61914V0.619141ZM216.606 3.61914C217.434 3.61914 218.106 2.94757 218.106 2.11914C218.106 1.29071 217.434 0.619141 216.606 0.619141V3.61914ZM226.781 0.619141C225.952 0.619141 225.281 1.29071 225.281 2.11914C225.281 2.94757 225.952 3.61914 226.781 3.61914V0.619141ZM232.886 3.61914C233.714 3.61914 234.386 2.94757 234.386 2.11914C234.386 1.29071 233.714 0.619141 232.886 0.619141V3.61914ZM243.061 0.619141C242.232 0.619141 241.561 1.29071 241.561 2.11914C241.561 2.94757 242.232 3.61914 243.061 3.61914V0.619141ZM249.166 3.61914C249.994 3.61914 250.666 2.94757 250.666 2.11914C250.666 1.29071 249.994 0.619141 249.166 0.619141V3.61914ZM259.341 0.619141C258.512 0.619141 257.841 1.29071 257.841 2.11914C257.841 2.94757 258.512 3.61914 259.341 3.61914V0.619141ZM265.445 3.61914C266.274 3.61914 266.945 2.94757 266.945 2.11914C266.945 1.29071 266.274 0.619141 265.445 0.619141V3.61914ZM275.62 0.619141C274.792 0.619141 274.12 1.29071 274.12 2.11914C274.12 2.94757 274.792 3.61914 275.62 3.61914V0.619141ZM281.725 3.61914C282.554 3.61914 283.225 2.94757 283.225 2.11914C283.225 1.29071 282.554 0.619141 281.725 0.619141V3.61914ZM291.9 0.619141C291.072 0.619141 290.4 1.29071 290.4 2.11914C290.4 2.94757 291.072 3.61914 291.9 3.61914V0.619141ZM298.005 3.61914C298.834 3.61914 299.505 2.94757 299.505 2.11914C299.505 1.29071 298.834 0.619141 298.005 0.619141V3.61914ZM308.18 0.619141C307.352 0.619141 306.68 1.29071 306.68 2.11914C306.68 2.94757 307.352 3.61914 308.18 3.61914V0.619141ZM314.285 3.61914C315.113 3.61914 315.785 2.94757 315.785 2.11914C315.785 1.29071 315.113 0.619141 314.285 0.619141V3.61914ZM324.46 0.619141C323.631 0.619141 322.96 1.29071 322.96 2.11914C322.96 2.94757 323.631 3.61914 324.46 3.61914V0.619141ZM330.565 3.61914C331.393 3.61914 332.065 2.94757 332.065 2.11914C332.065 1.29071 331.393 0.619141 330.565 0.619141V3.61914ZM340.74 0.619141C339.911 0.619141 339.24 1.29071 339.24 2.11914C339.24 2.94757 339.911 3.61914 340.74 3.61914V0.619141ZM346.845 3.61914C347.673 3.61914 348.345 2.94757 348.345 2.11914C348.345 1.29071 347.673 0.619141 346.845 0.619141V3.61914ZM357.019 0.619141C356.191 0.619141 355.519 1.29071 355.519 2.11914C355.519 2.94757 356.191 3.61914 357.019 3.61914V0.619141ZM363.124 3.61914C363.953 3.61914 364.624 2.94757 364.624 2.11914C364.624 1.29071 363.953 0.619141 363.124 0.619141V3.61914ZM373.299 0.619141C372.471 0.619141 371.799 1.29071 371.799 2.11914C371.799 2.94757 372.471 3.61914 373.299 3.61914V0.619141ZM379.404 3.61914C380.233 3.61914 380.904 2.94757 380.904 2.11914C380.904 1.29071 380.233 0.619141 379.404 0.619141V3.61914ZM389.579 0.619141C388.751 0.619141 388.079 1.29071 388.079 2.11914C388.079 2.94757 388.751 3.61914 389.579 3.61914V0.619141ZM395.684 3.61914C396.512 3.61914 397.184 2.94757 397.184 2.11914C397.184 1.29071 396.512 0.619141 395.684 0.619141V3.61914ZM405.859 0.619141C405.03 0.619141 404.359 1.29071 404.359 2.11914C404.359 2.94757 405.03 3.61914 405.859 3.61914V0.619141ZM411.964 3.61914C412.792 3.61914 413.464 2.94757 413.464 2.11914C413.464 1.29071 412.792 0.619141 411.964 0.619141V3.61914ZM422.139 0.619141C421.31 0.619141 420.639 1.29071 420.639 2.11914C420.639 2.94757 421.31 3.61914 422.139 3.61914V0.619141ZM1.91602 3.61914H4.96848V0.619141H1.91602V3.61914ZM15.1434 3.61914H21.2483V0.619141H15.1434V3.61914ZM31.4232 3.61914H37.5281V0.619141H31.4232V3.61914ZM47.703 3.61914H53.8079V0.619141H47.703V3.61914ZM63.9828 3.61914H70.0877V0.619141H63.9828V3.61914ZM80.2626 3.61914H86.3675V0.619141H80.2626V3.61914ZM96.5424 3.61914H102.647V0.619141H96.5424V3.61914ZM112.822 3.61914H118.927V0.619141H112.822V3.61914ZM129.102 3.61914H135.207V0.619141H129.102V3.61914ZM145.382 3.61914H151.487V0.619141H145.382V3.61914ZM161.662 3.61914H167.767V0.619141H161.662V3.61914ZM177.941 3.61914H184.046V0.619141H177.941V3.61914ZM194.221 3.61914H200.326V0.619141H194.221V3.61914ZM210.501 3.61914H216.606V0.619141H210.501V3.61914ZM226.781 3.61914H232.886V0.619141H226.781V3.61914ZM243.061 3.61914H249.166V0.619141H243.061V3.61914ZM259.341 3.61914H265.445V0.619141H259.341V3.61914ZM275.62 3.61914H281.725V0.619141H275.62V3.61914ZM291.9 3.61914H298.005V0.619141H291.9V3.61914ZM308.18 3.61914H314.285V0.619141H308.18V3.61914ZM324.46 3.61914H330.565V0.619141H324.46V3.61914ZM340.74 3.61914H346.845V0.619141H340.74V3.61914ZM357.019 3.61914H363.124V0.619141H357.019V3.61914ZM373.299 3.61914H379.404V0.619141H373.299V3.61914ZM389.579 3.61914H395.684V0.619141H389.579V3.61914ZM405.859 3.61914H411.964V0.619141H405.859V3.61914ZM422.139 3.61914H425.191V0.619141H422.139V3.61914Z" fill="url(#paint0_linear_16_6051)"/>
<defs>
<linearGradient id="paint0_linear_16_6051" x1="412.668" y1="-44.8808" x2="412.878" y2="-42.0152" gradientUnits="userSpaceOnUse">
<stop offset="0.00129175" stop-color="#FAF4FF"/>
<stop offset="1" stop-color="#BB93FB"/>
</linearGradient>
</defs>
</svg>
