<svg width="60" height="60" viewBox="0 0 60 60" fill="none" xmlns="http://www.w3.org/2000/svg">
<path d="M6 56.7209C6 43.6201 16.6202 32.9999 29.7209 32.9999H30.2791C43.3798 32.9999 54 43.6201 54 56.7209V56.7209C54 57.7034 53.2035 58.4999 52.2209 58.4999H7.77907C6.79651 58.4999 6 57.7034 6 56.7209V56.7209Z" fill="url(#paint0_linear_16_6296)"/>
<circle cx="30" cy="15" r="15" fill="url(#paint1_linear_16_6296)"/>
<path d="M24.651 36.2461C23.9652 35.6346 24.3977 34.4996 25.3165 34.4996H34.6919C35.6107 34.4996 36.0432 35.6346 35.3574 36.2461L30.6697 40.4256C30.2904 40.7638 29.7179 40.7638 29.3387 40.4256L24.651 36.2461Z" fill="url(#paint2_linear_16_6296)"/>
<path d="M22.5 58.4999L29.0455 37.5542C29.3379 36.6186 30.6621 36.6186 30.9545 37.5542L37.5 58.4999H22.5Z" fill="url(#paint3_linear_16_6296)"/>
<defs>
<linearGradient id="paint0_linear_16_6296" x1="6" y1="45.745" x2="54.0081" y2="45.745" gradientUnits="userSpaceOnUse">
<stop stop-color="#8F4DED"/>
<stop offset="1" stop-color="#6D43E1"/>
</linearGradient>
<linearGradient id="paint1_linear_16_6296" x1="15" y1="14.9942" x2="45.0051" y2="14.9942" gradientUnits="userSpaceOnUse">
<stop stop-color="#8F4DED"/>
<stop offset="1" stop-color="#6D43E1"/>
</linearGradient>
<linearGradient id="paint2_linear_16_6296" x1="35.6939" y1="34.4996" x2="24.3145" y2="34.4996" gradientUnits="userSpaceOnUse">
<stop stop-color="white"/>
<stop offset="1" stop-color="#EBE0FC"/>
</linearGradient>
<linearGradient id="paint3_linear_16_6296" x1="37.5" y1="34.4999" x2="22.5" y2="34.4999" gradientUnits="userSpaceOnUse">
<stop stop-color="white"/>
<stop offset="1" stop-color="#EBE0FC"/>
</linearGradient>
</defs>
</svg>
