<?xml version="1.0" encoding="utf-8"?><svg viewBox="0 0 61 61" xmlns="http://www.w3.org/2000/svg" xmlns:xlink="http://www.w3.org/1999/xlink"><style>:root>svg{display:none}:root>svg:target{display:block}</style><svg viewBox="0 0 60 60" id="android" xmlns="http://www.w3.org/2000/svg"><path fill-rule="evenodd" clip-rule="evenodd" d="M13.622 1.026a3.173 3.173 0 014.334 1.16l2.695 4.664c2.109-1.293 4.6-2.146 7.298-2.406h3.5c2.698.26 5.19 1.113 7.298 2.407l2.695-4.665a3.173 3.173 0 115.494 3.175l-3.491 6.041c1.217 1.91 1.922 4.1 1.954 6.43H13.998c.033-2.33.738-4.521 1.955-6.43l-3.49-6.041a3.173 3.173 0 011.159-4.335zm20.45 45.69h-8.745v8.943a3.48 3.48 0 01-3.482 3.478 3.48 3.48 0 01-3.482-3.478v-8.943h-.17c-2.392 0-4.318-1.959-4.318-4.39V19.718c0-.135.01-.269.021-.4h31.61c.012.13.017.265.017.4v22.608c0 2.431-1.927 4.39-4.318 4.39h-.17v8.943a3.48 3.48 0 01-3.482 3.478 3.48 3.48 0 01-3.482-3.478v-8.943zm-22.31-21.908a3.48 3.48 0 00-3.481-3.479 3.48 3.48 0 00-3.482 3.48V39.73a3.48 3.48 0 003.481 3.48 3.48 3.48 0 003.481-3.479V24.808zm42.837 0a3.48 3.48 0 00-3.482-3.479 3.48 3.48 0 00-3.481 3.48V39.73a3.48 3.48 0 003.481 3.479A3.48 3.48 0 0054.6 39.73V24.808zM23.225 13.371c.995-.002 1.8-.792 1.797-1.762v-.01c-.003-.971-.812-1.755-1.807-1.753-.994.003-1.799.792-1.796 1.763v.01c.003.97.812 1.755 1.806 1.752zm13.446 0c.995-.002 1.8-.792 1.797-1.762v-.01c-.003-.971-.812-1.755-1.807-1.753-.995.003-1.799.792-1.796 1.763v.01c.003.97.812 1.755 1.806 1.752z"/><defs><linearGradient id="aa" x1="4.799" y1="29.857" x2="54.607" y2="29.857" gradientUnits="userSpaceOnUse"><stop stop-color="#8F4DED"/><stop offset="1" stop-color="#6D43E1"/></linearGradient></defs></svg><svg viewBox="0 0 61 60" id="facebook" xmlns="http://www.w3.org/2000/svg"><path fill-rule="evenodd" clip-rule="evenodd" d="M.25 30c0-16.569 13.431-30 30-30 16.569 0 30 13.431 30 30 0 16.569-13.431 30-30 30-16.569 0-30-13.431-30-30zm33.127 17.64V31.317h4.505l.598-5.625h-5.103l.008-2.815c0-1.467.139-2.253 2.246-2.253h2.817V15H33.94c-5.412 0-7.317 2.729-7.317 7.317v3.377H23.25v5.624h3.374V47.64h6.753z"/><defs><linearGradient id="ba" x1=".25" y1="29.988" x2="60.26" y2="29.988" gradientUnits="userSpaceOnUse"><stop stop-color="#8F4DED"/><stop offset="1" stop-color="#6D43E1"/></linearGradient></defs></svg><svg viewBox="0 0 61 60" id="instagram" xmlns="http://www.w3.org/2000/svg"><path fill-rule="evenodd" clip-rule="evenodd" d="M.25 30c0-16.569 13.431-30 30-30 16.569 0 30 13.431 30 30 0 16.569-13.431 30-30 30-16.569 0-30-13.431-30-30zm30.002-16c-4.346 0-4.891.019-6.598.097-1.703.078-2.866.347-3.883.743a7.835 7.835 0 00-2.835 1.845 7.855 7.855 0 00-1.846 2.834c-.397 1.018-.667 2.18-.744 3.883-.076 1.707-.096 2.253-.096 6.598 0 4.346.02 4.89.097 6.596.078 1.703.348 2.866.743 3.883a7.838 7.838 0 001.845 2.835 7.836 7.836 0 002.834 1.846c1.018.396 2.18.666 3.884.744 1.707.077 2.252.096 6.597.096 4.345 0 4.889-.019 6.596-.096 1.703-.078 2.867-.348 3.885-.744a7.83 7.83 0 002.832-1.846 7.854 7.854 0 001.847-2.834c.393-1.018.663-2.181.743-3.884.077-1.706.097-2.25.097-6.596 0-4.345-.02-4.89-.097-6.597-.08-1.704-.35-2.866-.743-3.884a7.853 7.853 0 00-1.847-2.834 7.822 7.822 0 00-2.833-1.845c-1.02-.396-2.183-.665-3.887-.743-1.707-.078-2.25-.097-6.597-.097h.006z"/><path fill-rule="evenodd" clip-rule="evenodd" d="M28.816 16.884h1.436c4.271 0 4.778.015 6.465.092 1.56.071 2.407.332 2.97.55.747.29 1.28.637 1.84 1.198.56.56.906 1.093 1.197 1.84.219.563.48 1.41.55 2.97.077 1.686.094 2.193.094 6.463s-.017 4.777-.093 6.463c-.072 1.56-.332 2.407-.551 2.97a4.947 4.947 0 01-1.198 1.839c-.56.56-1.091.906-1.838 1.196-.564.22-1.411.48-2.971.551-1.687.077-2.194.094-6.465.094-4.273 0-4.78-.017-6.466-.093-1.56-.073-2.407-.333-2.97-.552a4.956 4.956 0 01-1.841-1.197 4.958 4.958 0 01-1.197-1.839c-.22-.563-.48-1.41-.551-2.97-.077-1.687-.092-2.193-.092-6.466s.015-4.777.092-6.463c.071-1.56.332-2.407.55-2.971.29-.747.638-1.28 1.198-1.84a4.967 4.967 0 011.84-1.198c.564-.22 1.411-.48 2.971-.551 1.476-.067 2.048-.087 5.03-.09v.004zm9.976 2.657a1.92 1.92 0 100 3.84 1.92 1.92 0 000-3.84zm-8.54 2.243a8.217 8.217 0 100 16.434 8.217 8.217 0 000-16.434z"/><path fill-rule="evenodd" clip-rule="evenodd" d="M30.251 24.667a5.333 5.333 0 110 10.667 5.333 5.333 0 010-10.667z"/><defs><linearGradient id="ca" x1=".25" y1="29.988" x2="60.26" y2="29.988" gradientUnits="userSpaceOnUse"><stop stop-color="#8F4DED"/><stop offset="1" stop-color="#6D43E1"/></linearGradient><linearGradient id="cb" x1="17.135" y1="29.99" x2="43.373" y2="29.99" gradientUnits="userSpaceOnUse"><stop stop-color="#8F4DED"/><stop offset="1" stop-color="#6D43E1"/></linearGradient><linearGradient id="cc" x1="24.918" y1="29.998" x2="35.587" y2="29.998" gradientUnits="userSpaceOnUse"><stop stop-color="#8F4DED"/><stop offset="1" stop-color="#6D43E1"/></linearGradient></defs></svg><svg viewBox="0 0 61 60" id="iphone" xmlns="http://www.w3.org/2000/svg"><path d="M46.96 31.883c-.026-4.737 2.117-8.312 6.456-10.945-2.428-3.472-6.095-5.382-10.937-5.756-4.584-.362-9.593 2.671-11.427 2.671-1.936 0-6.378-2.542-9.864-2.542-7.205.116-14.862 5.743-14.862 17.191 0 3.382.62 6.875 1.86 10.48 1.652 4.737 7.617 16.353 13.84 16.16 3.255-.078 5.553-2.311 9.788-2.311 4.106 0 6.236 2.31 9.865 2.31 6.275-.09 11.672-10.648 13.247-15.397-8.418-3.963-7.966-11.616-7.966-11.861zM39.65 10.69c3.525-4.182 3.203-7.99 3.1-9.357-3.112.18-6.715 2.116-8.768 4.504-2.26 2.556-3.59 5.718-3.305 9.28 3.37.258 6.443-1.471 8.973-4.427z"/><defs><linearGradient id="da" x1="6.326" y1="30.227" x2="54.934" y2="30.227" gradientUnits="userSpaceOnUse"><stop stop-color="#8F4DED"/><stop offset="1" stop-color="#6D43E1"/></linearGradient></defs></svg><svg viewBox="0 0 61 60" id="linkedin" xmlns="http://www.w3.org/2000/svg"><path fill-rule="evenodd" clip-rule="evenodd" d="M.25 30c0-16.569 13.431-30 30-30 16.569 0 30 13.431 30 30 0 16.569-13.431 30-30 30-16.569 0-30-13.431-30-30zm21.2-5.153h-6.798v20.428h6.799V24.847zm.448-6.319C21.854 16.526 20.422 15 18.096 15c-2.325 0-3.846 1.526-3.846 3.528 0 1.962 1.476 3.531 3.758 3.531h.044c2.37 0 3.846-1.57 3.846-3.53zM45.97 33.562c0-6.274-3.354-9.194-7.828-9.194-3.61 0-5.225 1.982-6.128 3.373v-2.893h-6.8c.09 1.917 0 20.427 0 20.427h6.8V33.867c0-.61.044-1.22.224-1.657.492-1.22 1.61-2.482 3.489-2.482 2.46 0 3.445 1.873 3.445 4.618v10.929h6.798V33.562z"/><defs><linearGradient id="ea" x1=".25" y1="29.988" x2="60.26" y2="29.988" gradientUnits="userSpaceOnUse"><stop stop-color="#8F4DED"/><stop offset="1" stop-color="#6D43E1"/></linearGradient></defs></svg><svg viewBox="0 0 60 60" id="macos" xmlns="http://www.w3.org/2000/svg"><path d="M40.35 49.51H19.478a2 2 0 00-1.492.668l-4.01 4.49C12.826 55.957 13.74 58 15.468 58H44.46c1.74 0 2.65-2.067 1.475-3.35l-4.108-4.49a2 2 0 00-1.475-.65z"/><rect x="1" y="5" width="58" height="41.388" rx="5"/><defs><linearGradient id="fa" x1="11" y1="53.754" x2="49.006" y2="53.754" gradientUnits="userSpaceOnUse"><stop stop-color="#8F4DED"/><stop offset="1" stop-color="#6D43E1"/></linearGradient><linearGradient id="fb" x1="1" y1="25.686" x2="59.01" y2="25.686" gradientUnits="userSpaceOnUse"><stop stop-color="#8F4DED"/><stop offset="1" stop-color="#6D43E1"/></linearGradient></defs></svg><svg viewBox="0 0 61 60" id="quora" xmlns="http://www.w3.org/2000/svg"><path fill-rule="evenodd" clip-rule="evenodd" d="M.25 30c0-16.569 13.431-30 30-30 16.569 0 30 13.431 30 30 0 16.569-13.431 30-30 30-16.569 0-30-13.431-30-30zm32.538 13.807l-.005.003c1.616 2.77 3.775 5.135 7.85 5.135 6.735 0 7.481-6.204 7.343-7.698h-2.41c-.126 1.122-.874 2.549-2.72 2.549-1.695 0-2.915-1.178-4.092-2.949 3.66-2.835 6.176-7.22 6.176-12.616C44.93 18.53 36.941 12 28.56 12c-8.243 0-16.31 6.58-16.31 16.232 0 9.563 8.07 16.139 16.312 16.139 1.427 0 2.868-.201 4.226-.564z"/><path fill-rule="evenodd" clip-rule="evenodd" d="M31.252 40.806c-1.28-2.517-2.78-5.063-5.71-5.063-.559 0-1.12.092-1.633.323l-.992-1.986c1.21-1.044 3.17-1.87 5.689-1.87 3.918 0 5.929 1.893 7.527 4.3.946-2.056 1.394-4.836 1.394-8.278 0-8.599-2.687-13.013-8.968-13.013-6.187 0-8.866 4.414-8.866 13.013 0 8.552 2.679 12.92 8.866 12.92.984 0 1.875-.106 2.693-.346z"/><defs><linearGradient id="ga" x1=".25" y1="29.988" x2="60.26" y2="29.988" gradientUnits="userSpaceOnUse"><stop stop-color="#8F4DED"/><stop offset="1" stop-color="#6D43E1"/></linearGradient><linearGradient id="gb" x1="19.693" y1="28.18" x2="37.53" y2="28.18" gradientUnits="userSpaceOnUse"><stop stop-color="#8F4DED"/><stop offset="1" stop-color="#6D43E1"/></linearGradient></defs></svg><svg viewBox="0 0 60 61" id="windows" xmlns="http://www.w3.org/2000/svg"><path d="M1.2 9.325l23.294-3.183.01 22.54-23.284.133-.02-19.49zm23.282 21.954l.018 22.559-23.283-3.211-.001-19.5 23.266.152zm2.824-25.553l30.886-4.522v27.191l-30.886.246V5.726zM58.2 31.49l-.007 27.069-30.886-4.373-.043-22.747 30.936.05z"/><defs><linearGradient id="ha" x1="1.199" y1="29.871" x2="58.209" y2="29.871" gradientUnits="userSpaceOnUse"><stop stop-color="#8F4DED"/><stop offset="1" stop-color="#6D43E1"/></linearGradient></defs></svg><svg id="twitter" width="55" height="55" viewBox="0 0 55 55" xmlns="http://www.w3.org/2000/svg"><path fill-rule="evenodd" clip-rule="evenodd" d="M27.5 55C42.6878 55 55 42.6878 55 27.5C55 12.3122 42.6878 0 27.5 0C12.3122 0 0 12.3122 0 27.5C0 42.6878 12.3122 55 27.5 55ZM39.9472 22.3638C39.9472 30.4974 33.7552 39.8766 22.4344 39.8766V39.8718C19.0899 39.8762 15.8148 38.918 13 37.1118C14.6115 37.3061 16.2455 37.1808 17.8086 36.7431C19.3716 36.3053 20.833 35.5637 22.1092 34.5606C20.8248 34.5363 19.5801 34.1112 18.549 33.3448C17.518 32.5785 16.7523 31.5091 16.3588 30.2862C17.2811 30.4639 18.2319 30.4277 19.138 30.1806C17.7451 29.8992 16.4924 29.1446 15.5923 28.0449C14.6923 26.9452 14.2004 25.568 14.2 24.147V24.069C15.0558 24.5464 16.014 24.8107 16.9936 24.8394C15.6904 23.9692 14.7679 22.635 14.4139 21.1085C14.0598 19.582 14.3009 17.978 15.088 16.623C16.6335 18.5242 18.5614 20.0793 20.7468 21.1872C22.9322 22.295 25.3261 22.931 27.7732 23.0538C27.4669 21.7342 27.6041 20.3506 28.1634 19.1168C28.7228 17.8831 29.6731 16.8682 30.8675 16.229C32.0618 15.5898 33.4335 15.3621 34.7702 15.581C36.107 15.8 37.3344 16.4534 38.2624 17.4402C39.6408 17.1684 40.9626 16.6632 42.1708 15.9462C41.7114 17.3715 40.7498 18.5814 39.4648 19.3506C40.685 19.2066 41.8767 18.8802 43 18.3822C42.1736 19.618 41.1338 20.6969 39.9292 21.5682C39.9472 21.8322 39.9472 22.0974 39.9472 22.3638Z" /></svg><svg id="youtube" xmlns="http://www.w3.org/2000/svg" width="55" height="55" viewBox="0 0 55 55"> <path fill-rule="evenodd" clip-rule="evenodd" d="M27.5 55C42.6878 55 55 42.6878 55 27.5C55 12.3122 42.6878 0 27.5 0C12.3122 0 0 12.3122 0 27.5C0 42.6878 12.3122 55 27.5 55ZM42.3827 20.4896C42.2074 19.8301 41.862 19.2281 41.3811 18.7441C40.9001 18.26 40.3004 17.9107 39.642 17.7313C37.2184 17.0796 27.5309 17.0796 27.5309 17.0796C27.5309 17.0796 17.8434 17.0796 15.4197 17.7313C14.7614 17.9107 14.1617 18.26 13.6807 18.7441C13.1997 19.2281 12.8543 19.8301 12.6791 20.4896C12.0309 22.9238 12.0309 28 12.0309 28C12.0309 28 12.0309 33.0763 12.6791 35.5105C12.8543 36.17 13.1997 36.7719 13.6807 37.256C14.1617 37.74 14.7614 38.0893 15.4197 38.2688C17.8434 38.9205 27.5309 38.9205 27.5309 38.9205C27.5309 38.9205 37.2184 38.9205 39.642 38.2688C40.3004 38.0893 40.9001 37.74 41.3811 37.256C41.862 36.7719 42.2074 36.17 42.3827 35.5105C43.0309 33.0763 43.0309 28 43.0309 28C43.0309 28 43.0309 22.9238 42.3827 20.4896ZM24.3604 23.3905L32.4626 28L24.3604 32.6095V23.3905Z"/></svg></svg>