<svg xmlns="http://www.w3.org/2000/svg" xmlns:xlink="http://www.w3.org/1999/xlink" width="168" zoomAndPan="magnify" viewBox="0 0 126 30.000001" height="40" preserveAspectRatio="xMidYMid meet" version="1.0"><defs><clipPath id="6eb816c087"><path d="M 36 0 L 78.492188 0 L 78.492188 29.03125 L 36 29.03125 Z M 36 0 " clip-rule="nonzero"/></clipPath></defs><path fill="#ffcf03" d="M 41.632812 18.285156 L 40.589844 18.285156 L 40.589844 26.597656 C 40.589844 26.714844 40.507812 26.820312 40.394531 26.847656 C 39.214844 27.15625 38.019531 27.414062 36.828125 27.621094 C 36.671875 27.648438 36.523438 27.523438 36.523438 27.363281 L 36.523438 18.285156 L 35.480469 18.285156 C 35.144531 18.285156 34.945312 17.910156 35.128906 17.632812 L 38.203125 13.015625 C 38.375 12.761719 38.742188 12.761719 38.910156 13.015625 L 41.984375 17.632812 C 42.171875 17.910156 41.96875 18.285156 41.632812 18.285156 " fill-opacity="1" fill-rule="nonzero"/><path fill="#ffcf03" d="M 50.199219 14.1875 L 49.15625 14.1875 L 49.15625 23.421875 C 49.15625 23.523438 49.101562 23.617188 49.007812 23.660156 C 48.046875 24.125 47.0625 24.5625 46.078125 24.96875 C 45.851562 25.0625 45.640625 25.148438 45.449219 25.222656 C 45.277344 25.292969 45.09375 25.164062 45.09375 24.980469 L 45.09375 14.1875 L 44.050781 14.1875 C 43.710938 14.1875 43.511719 13.8125 43.699219 13.535156 L 46.773438 8.917969 C 46.941406 8.664062 47.308594 8.664062 47.476562 8.917969 L 50.550781 13.535156 C 50.738281 13.8125 50.539062 14.1875 50.199219 14.1875 " fill-opacity="1" fill-rule="nonzero"/><path fill="#ffcf03" d="M 58.769531 10.089844 L 57.726562 10.089844 L 57.726562 18.253906 C 57.726562 18.335938 57.6875 18.414062 57.621094 18.460938 C 57.046875 18.890625 56.472656 19.300781 55.898438 19.691406 C 55.285156 20.117188 54.664062 20.523438 54.0625 20.898438 C 54.0625 20.898438 54.058594 20.898438 54.058594 20.902344 C 53.882812 21.007812 53.660156 20.882812 53.660156 20.679688 L 53.660156 10.089844 L 52.617188 10.089844 C 52.28125 10.089844 52.082031 9.714844 52.265625 9.433594 L 55.339844 4.816406 C 55.507812 4.566406 55.878906 4.566406 56.046875 4.816406 L 59.121094 9.433594 C 59.304688 9.714844 59.105469 10.089844 58.769531 10.089844 " fill-opacity="1" fill-rule="nonzero"/><path fill="#ffcf03" d="M 67.335938 5.808594 L 66.40625 5.808594 C 66.34375 5.808594 66.292969 5.855469 66.292969 5.917969 C 66.292969 6.582031 66.289062 9.957031 66.285156 10.523438 C 66.285156 10.578125 66.265625 10.625 66.230469 10.664062 C 65.121094 11.851562 63.996094 12.984375 62.859375 14.054688 C 62.621094 14.277344 62.230469 14.109375 62.230469 13.78125 L 62.230469 5.921875 C 62.230469 5.859375 62.179688 5.808594 62.117188 5.808594 L 61.1875 5.808594 C 60.847656 5.808594 60.648438 5.429688 60.835938 5.152344 L 63.910156 0.535156 C 64.078125 0.28125 64.445312 0.28125 64.613281 0.535156 L 67.6875 5.152344 C 67.875 5.429688 67.675781 5.808594 67.335938 5.808594 " fill-opacity="1" fill-rule="nonzero"/><g clip-path="url(#6eb816c087)"><path fill="#ffcf03" d="M 78.230469 0.308594 L 78.230469 7.230469 C 78.230469 7.390625 78.042969 7.492188 77.894531 7.410156 L 76.554688 6.679688 C 76.449219 6.621094 76.316406 6.652344 76.253906 6.746094 C 75.121094 8.480469 73.714844 10.453125 72.023438 12.492188 C 70.644531 14.15625 69.070312 15.871094 67.308594 17.539062 C 66.976562 17.855469 66.636719 18.167969 66.292969 18.476562 C 65.03125 19.617188 63.675781 20.71875 62.230469 21.765625 C 62.015625 21.921875 61.800781 22.074219 61.582031 22.226562 C 60.359375 23.078125 59.074219 23.886719 57.726562 24.636719 C 57.386719 24.824219 57.042969 25.007812 56.695312 25.191406 C 55.714844 25.699219 54.703125 26.171875 53.660156 26.605469 C 52.953125 26.902344 52.230469 27.179688 51.492188 27.441406 C 50.820312 27.675781 50.132812 27.898438 49.433594 28.101562 C 49.339844 28.128906 49.25 28.152344 49.15625 28.175781 C 48.316406 28.417969 47.464844 28.621094 46.609375 28.800781 C 46.105469 28.90625 45.601562 29 45.09375 29.085938 C 43.871094 29.289062 42.644531 29.433594 41.40625 29.515625 C 41.136719 29.535156 40.863281 29.550781 40.589844 29.5625 C 39.996094 29.589844 39.402344 29.605469 38.808594 29.605469 C 38.046875 29.605469 37.285156 29.582031 36.523438 29.539062 C 36.523438 29.539062 36.523438 29.539062 36.519531 29.539062 C 36.480469 29.535156 36.441406 29.53125 36.402344 29.53125 C 36.140625 29.511719 36.121094 29.152344 36.382812 29.113281 C 36.429688 29.105469 36.476562 29.097656 36.519531 29.089844 C 36.523438 29.089844 36.523438 29.089844 36.523438 29.089844 C 37.773438 28.886719 39.136719 28.613281 40.589844 28.242188 C 40.859375 28.175781 41.132812 28.101562 41.40625 28.027344 C 42.441406 27.742188 43.515625 27.410156 44.632812 27.019531 C 44.714844 26.992188 44.871094 26.9375 45.09375 26.855469 C 45.449219 26.722656 45.964844 26.527344 46.609375 26.261719 C 47.320312 25.96875 48.1875 25.59375 49.15625 25.136719 C 49.882812 24.796875 50.671875 24.40625 51.492188 23.972656 C 52.191406 23.605469 52.917969 23.203125 53.660156 22.769531 C 54.039062 22.550781 54.417969 22.320312 54.800781 22.085938 C 55.445312 21.683594 56.074219 21.269531 56.695312 20.84375 C 57.042969 20.605469 57.386719 20.363281 57.726562 20.117188 C 59.074219 19.148438 60.359375 18.125 61.582031 17.078125 C 61.800781 16.890625 62.015625 16.703125 62.230469 16.511719 C 63.6875 15.230469 65.042969 13.921875 66.292969 12.625 C 66.640625 12.269531 66.980469 11.910156 67.308594 11.554688 C 69.203125 9.519531 70.828125 7.550781 72.152344 5.84375 C 72.394531 5.53125 72.628906 5.222656 72.851562 4.929688 C 72.925781 4.828125 72.894531 4.691406 72.78125 4.628906 L 71.535156 3.949219 C 71.386719 3.867188 71.386719 3.664062 71.535156 3.585938 L 77.894531 0.125 C 78.042969 0.0429688 78.230469 0.144531 78.230469 0.308594 " fill-opacity="1" fill-rule="nonzero"/></g></svg>