<svg xmlns="http://www.w3.org/2000/svg" xmlns:xlink="http://www.w3.org/1999/xlink" width="168" zoomAndPan="magnify" viewBox="0 0 126 30.000001" height="40" preserveAspectRatio="xMidYMid meet" version="1.0"><defs><g/><clipPath id="8105b40467"><path d="M 112 7 L 123.964844 7 L 123.964844 19 L 112 19 Z M 112 7 " clip-rule="nonzero"/></clipPath><clipPath id="a3927f3354"><path d="M 2.03125 12 L 8 12 L 8 24 L 2.03125 24 Z M 2.03125 12 " clip-rule="nonzero"/></clipPath><clipPath id="785ae22e76"><path d="M 2.03125 2.902344 L 33.96875 2.902344 L 33.96875 24.675781 L 2.03125 24.675781 Z M 2.03125 2.902344 " clip-rule="nonzero"/></clipPath></defs><g fill="#100f0d" fill-opacity="1"><g transform="translate(41.485959, 18.581253)"><g><path d="M 7.828125 -1.109375 C 7.597656 -0.617188 7.265625 -0.253906 6.828125 -0.015625 C 6.390625 0.222656 5.820312 0.34375 5.125 0.34375 C 3.945312 0.34375 2.976562 -0.015625 2.21875 -0.734375 C 1.46875 -1.460938 1.09375 -2.535156 1.09375 -3.953125 L 1.09375 -10.46875 L 4.21875 -10.46875 L 4.21875 -4.609375 C 4.21875 -3.910156 4.347656 -3.394531 4.609375 -3.0625 C 4.878906 -2.738281 5.3125 -2.578125 5.90625 -2.578125 C 6.476562 -2.578125 6.914062 -2.757812 7.21875 -3.125 C 7.53125 -3.488281 7.6875 -4 7.6875 -4.65625 L 7.6875 -10.46875 L 10.828125 -10.46875 L 10.828125 0 L 7.859375 0 L 7.859375 -1.109375 Z M 7.828125 -1.109375 "/></g></g></g><g fill="#100f0d" fill-opacity="1"><g transform="translate(53.058656, 18.581253)"><g><path d="M 4.078125 -10.46875 L 4.078125 -9.3125 L 4.125 -9.3125 C 4.9375 -10.320312 6.03125 -10.828125 7.40625 -10.828125 C 8.382812 -10.828125 9.257812 -10.578125 10.03125 -10.078125 C 10.8125 -9.578125 11.414062 -8.894531 11.84375 -8.03125 C 12.28125 -7.175781 12.5 -6.207031 12.5 -5.125 C 12.5 -4.132812 12.28125 -3.21875 11.84375 -2.375 C 11.414062 -1.539062 10.8125 -0.875 10.03125 -0.375 C 9.257812 0.113281 8.382812 0.359375 7.40625 0.359375 C 6.101562 0.359375 5.054688 -0.0703125 4.265625 -0.9375 L 4.265625 3.484375 L 1.125 3.484375 L 1.125 -10.46875 Z M 9.375 -5.21875 C 9.375 -5.707031 9.253906 -6.15625 9.015625 -6.5625 C 8.785156 -6.976562 8.46875 -7.304688 8.0625 -7.546875 C 7.664062 -7.785156 7.222656 -7.90625 6.734375 -7.90625 C 6.253906 -7.90625 5.816406 -7.785156 5.421875 -7.546875 C 5.023438 -7.304688 4.707031 -6.976562 4.46875 -6.5625 C 4.238281 -6.15625 4.125 -5.707031 4.125 -5.21875 C 4.125 -4.726562 4.238281 -4.28125 4.46875 -3.875 C 4.707031 -3.476562 5.023438 -3.160156 5.421875 -2.921875 C 5.816406 -2.679688 6.257812 -2.5625 6.75 -2.5625 C 7.238281 -2.5625 7.679688 -2.679688 8.078125 -2.921875 C 8.472656 -3.160156 8.785156 -3.484375 9.015625 -3.890625 C 9.253906 -4.296875 9.375 -4.738281 9.375 -5.21875 Z M 9.375 -5.21875 "/></g></g></g><g fill="#100f0d" fill-opacity="1"><g transform="translate(65.818797, 18.581253)"><g><path d="M 4.625 -8.3125 C 4.351562 -8.3125 4.132812 -8.242188 3.96875 -8.109375 C 3.800781 -7.984375 3.71875 -7.820312 3.71875 -7.625 C 3.71875 -7.34375 3.859375 -7.113281 4.140625 -6.9375 C 4.421875 -6.757812 4.929688 -6.578125 5.671875 -6.390625 C 6.878906 -6.078125 7.734375 -5.664062 8.234375 -5.15625 C 8.734375 -4.644531 8.984375 -3.992188 8.984375 -3.203125 C 8.984375 -2.484375 8.789062 -1.859375 8.40625 -1.328125 C 8.03125 -0.796875 7.519531 -0.378906 6.875 -0.078125 C 6.226562 0.210938 5.507812 0.359375 4.71875 0.359375 C 3.53125 0.359375 2.550781 0.046875 1.78125 -0.578125 C 1.007812 -1.210938 0.566406 -2.054688 0.453125 -3.109375 L 3.5625 -3.109375 C 3.613281 -2.796875 3.742188 -2.554688 3.953125 -2.390625 C 4.160156 -2.234375 4.425781 -2.15625 4.75 -2.15625 C 5.039062 -2.15625 5.296875 -2.226562 5.515625 -2.375 C 5.734375 -2.53125 5.84375 -2.722656 5.84375 -2.953125 C 5.84375 -3.253906 5.710938 -3.5 5.453125 -3.6875 C 5.203125 -3.882812 4.691406 -4.101562 3.921875 -4.34375 C 2.679688 -4.71875 1.8125 -5.15625 1.3125 -5.65625 C 0.820312 -6.15625 0.578125 -6.738281 0.578125 -7.40625 C 0.578125 -8.070312 0.765625 -8.664062 1.140625 -9.1875 C 1.523438 -9.71875 2.023438 -10.125 2.640625 -10.40625 C 3.265625 -10.6875 3.929688 -10.828125 4.640625 -10.828125 C 5.785156 -10.828125 6.722656 -10.53125 7.453125 -9.9375 C 8.179688 -9.34375 8.582031 -8.539062 8.65625 -7.53125 L 5.578125 -7.53125 C 5.566406 -8.050781 5.25 -8.3125 4.625 -8.3125 Z M 4.625 -8.3125 "/></g></g></g><g fill="#100f0d" fill-opacity="1"><g transform="translate(74.846961, 18.581253)"><g><path d="M 0.203125 -8.09375 L 0.203125 -10.46875 L 1.75 -10.46875 L 1.75 -13.953125 L 4.890625 -13.953125 L 4.890625 -10.46875 L 6.390625 -10.46875 L 6.390625 -8.09375 L 4.890625 -8.09375 L 4.890625 0 L 1.75 0 L 1.75 -8.09375 Z M 0.203125 -8.09375 "/></g></g></g><g fill="#100f0d" fill-opacity="1"><g transform="translate(81.085584, 18.581253)"><g><path d="M 8.953125 -1.125 C 8.734375 -0.675781 8.335938 -0.316406 7.765625 -0.046875 C 7.203125 0.222656 6.578125 0.359375 5.890625 0.359375 C 4.878906 0.359375 3.972656 0.113281 3.171875 -0.375 C 2.378906 -0.863281 1.757812 -1.535156 1.3125 -2.390625 C 0.863281 -3.242188 0.640625 -4.195312 0.640625 -5.25 C 0.640625 -6.257812 0.867188 -7.191406 1.328125 -8.046875 C 1.785156 -8.898438 2.410156 -9.578125 3.203125 -10.078125 C 4.003906 -10.578125 4.898438 -10.828125 5.890625 -10.828125 C 6.535156 -10.828125 7.132812 -10.695312 7.6875 -10.4375 C 8.25 -10.175781 8.671875 -9.816406 8.953125 -9.359375 L 9 -9.359375 L 9 -10.46875 L 12.125 -10.46875 L 12.125 0 L 9 0 L 9 -1.125 Z M 9 -5.25 C 9 -5.71875 8.878906 -6.15625 8.640625 -6.5625 C 8.398438 -6.976562 8.070312 -7.304688 7.65625 -7.546875 C 7.25 -7.785156 6.8125 -7.90625 6.34375 -7.90625 C 5.875 -7.90625 5.441406 -7.785156 5.046875 -7.546875 C 4.648438 -7.304688 4.335938 -6.976562 4.109375 -6.5625 C 3.878906 -6.144531 3.765625 -5.691406 3.765625 -5.203125 C 3.765625 -4.722656 3.878906 -4.28125 4.109375 -3.875 C 4.347656 -3.476562 4.664062 -3.160156 5.0625 -2.921875 C 5.457031 -2.679688 5.894531 -2.5625 6.375 -2.5625 C 6.851562 -2.5625 7.289062 -2.679688 7.6875 -2.921875 C 8.09375 -3.160156 8.410156 -3.484375 8.640625 -3.890625 C 8.878906 -4.296875 9 -4.75 9 -5.25 Z M 9 -5.25 "/></g></g></g><g fill="#100f0d" fill-opacity="1"><g transform="translate(93.977661, 18.581253)"><g><path d="M 4.265625 -13.953125 L 4.265625 -9.640625 C 5.003906 -10.429688 5.992188 -10.828125 7.234375 -10.828125 C 8.160156 -10.828125 9.019531 -10.601562 9.8125 -10.15625 C 10.613281 -9.707031 11.253906 -9.066406 11.734375 -8.234375 C 12.210938 -7.398438 12.453125 -6.421875 12.453125 -5.296875 C 12.453125 -4.234375 12.234375 -3.269531 11.796875 -2.40625 C 11.359375 -1.539062 10.738281 -0.863281 9.9375 -0.375 C 9.144531 0.113281 8.222656 0.359375 7.171875 0.359375 C 6.523438 0.359375 5.921875 0.222656 5.359375 -0.046875 C 4.804688 -0.316406 4.410156 -0.671875 4.171875 -1.109375 L 4.125 -1.109375 L 4.125 0 L 1.125 0 L 1.125 -13.953125 Z M 9.3125 -5.25 C 9.3125 -5.707031 9.203125 -6.140625 8.984375 -6.546875 C 8.765625 -6.960938 8.457031 -7.289062 8.0625 -7.53125 C 7.664062 -7.78125 7.222656 -7.90625 6.734375 -7.90625 C 6.253906 -7.90625 5.816406 -7.785156 5.421875 -7.546875 C 5.023438 -7.304688 4.710938 -6.984375 4.484375 -6.578125 C 4.265625 -6.179688 4.15625 -5.742188 4.15625 -5.265625 C 4.15625 -4.492188 4.394531 -3.847656 4.875 -3.328125 C 5.351562 -2.816406 5.957031 -2.5625 6.6875 -2.5625 C 7.164062 -2.5625 7.609375 -2.679688 8.015625 -2.921875 C 8.421875 -3.160156 8.738281 -3.484375 8.96875 -3.890625 C 9.195312 -4.296875 9.3125 -4.75 9.3125 -5.25 Z M 9.3125 -5.25 "/></g></g></g><g fill="#100f0d" fill-opacity="1"><g transform="translate(106.662401, 18.581253)"><g><path d="M 4.265625 -13.953125 L 4.265625 0 L 1.125 0 L 1.125 -13.953125 Z M 4.265625 -13.953125 "/></g></g></g><g clip-path="url(#8105b40467)"><g fill="#100f0d" fill-opacity="1"><g transform="translate(111.675882, 18.581253)"><g><path d="M 6.109375 -2.296875 C 6.523438 -2.296875 6.878906 -2.375 7.171875 -2.53125 C 7.472656 -2.6875 7.753906 -2.9375 8.015625 -3.28125 L 11.21875 -3.28125 C 10.71875 -2.132812 10.015625 -1.242188 9.109375 -0.609375 C 8.210938 0.0234375 7.210938 0.34375 6.109375 0.34375 C 5.117188 0.34375 4.195312 0.0976562 3.34375 -0.390625 C 2.5 -0.878906 1.820312 -1.546875 1.3125 -2.390625 C 0.8125 -3.242188 0.5625 -4.179688 0.5625 -5.203125 C 0.5625 -6.191406 0.804688 -7.117188 1.296875 -7.984375 C 1.785156 -8.847656 2.445312 -9.535156 3.28125 -10.046875 C 4.125 -10.566406 5.046875 -10.828125 6.046875 -10.828125 C 7.078125 -10.828125 8.015625 -10.570312 8.859375 -10.0625 C 9.703125 -9.5625 10.363281 -8.878906 10.84375 -8.015625 C 11.332031 -7.148438 11.578125 -6.179688 11.578125 -5.109375 C 11.578125 -4.804688 11.550781 -4.53125 11.5 -4.28125 L 3.65625 -4.28125 C 3.75 -3.6875 4.019531 -3.207031 4.46875 -2.84375 C 4.925781 -2.476562 5.472656 -2.296875 6.109375 -2.296875 Z M 6.046875 -8.1875 C 5.472656 -8.1875 4.96875 -8.023438 4.53125 -7.703125 C 4.101562 -7.378906 3.828125 -6.941406 3.703125 -6.390625 L 8.453125 -6.390625 C 8.328125 -6.929688 8.046875 -7.363281 7.609375 -7.6875 C 7.171875 -8.019531 6.648438 -8.1875 6.046875 -8.1875 Z M 6.046875 -8.1875 "/></g></g></g></g><g clip-path="url(#a3927f3354)"><path fill="#ffcf03" d="M 6.957031 16.375 L 6.191406 16.375 L 6.191406 22.496094 C 6.191406 22.585938 6.132812 22.664062 6.046875 22.683594 C 5.175781 22.910156 4.296875 23.101562 3.421875 23.253906 C 3.304688 23.273438 3.195312 23.183594 3.195312 23.0625 L 3.195312 16.375 L 2.429688 16.375 C 2.179688 16.375 2.03125 16.097656 2.167969 15.894531 L 4.433594 12.492188 C 4.558594 12.304688 4.828125 12.304688 4.953125 12.492188 L 7.21875 15.894531 C 7.355469 16.097656 7.207031 16.375 6.957031 16.375 " fill-opacity="1" fill-rule="nonzero"/></g><path fill="#ffcf03" d="M 13.269531 13.359375 L 12.503906 13.359375 L 12.503906 20.160156 C 12.503906 20.234375 12.460938 20.304688 12.394531 20.335938 C 11.683594 20.675781 10.960938 21 10.234375 21.300781 C 10.066406 21.367188 9.910156 21.429688 9.769531 21.488281 C 9.644531 21.535156 9.507812 21.445312 9.507812 21.308594 L 9.507812 13.359375 L 8.738281 13.359375 C 8.492188 13.359375 8.34375 13.082031 8.480469 12.875 L 10.746094 9.472656 C 10.871094 9.289062 11.140625 9.289062 11.265625 9.472656 L 13.53125 12.875 C 13.667969 13.082031 13.519531 13.359375 13.269531 13.359375 " fill-opacity="1" fill-rule="nonzero"/><path fill="#ffcf03" d="M 19.582031 10.339844 L 18.816406 10.339844 L 18.816406 16.351562 C 18.816406 16.414062 18.785156 16.46875 18.738281 16.507812 C 18.316406 16.820312 17.890625 17.125 17.46875 17.414062 C 17.015625 17.726562 16.558594 18.023438 16.117188 18.300781 C 16.113281 18.300781 16.113281 18.300781 16.113281 18.300781 C 15.984375 18.382812 15.820312 18.289062 15.820312 18.140625 L 15.820312 10.339844 L 15.050781 10.339844 C 14.804688 10.339844 14.65625 10.0625 14.792969 9.855469 L 17.058594 6.453125 C 17.183594 6.269531 17.453125 6.269531 17.578125 6.453125 L 19.84375 9.855469 C 19.980469 10.0625 19.832031 10.339844 19.582031 10.339844 " fill-opacity="1" fill-rule="nonzero"/><path fill="#ffcf03" d="M 25.894531 7.183594 L 25.210938 7.183594 C 25.164062 7.183594 25.125 7.21875 25.125 7.265625 C 25.125 7.753906 25.121094 10.238281 25.121094 10.660156 C 25.121094 10.695312 25.105469 10.734375 25.078125 10.761719 C 24.265625 11.636719 23.433594 12.472656 22.597656 13.257812 C 22.421875 13.421875 22.132812 13.300781 22.132812 13.058594 L 22.132812 7.265625 C 22.132812 7.21875 22.09375 7.183594 22.046875 7.183594 L 21.363281 7.183594 C 21.117188 7.183594 20.96875 6.90625 21.105469 6.699219 L 23.371094 3.296875 C 23.492188 3.113281 23.765625 3.113281 23.890625 3.296875 L 26.152344 6.699219 C 26.292969 6.90625 26.144531 7.183594 25.894531 7.183594 " fill-opacity="1" fill-rule="nonzero"/><g clip-path="url(#785ae22e76)"><path fill="#ffcf03" d="M 33.921875 3.132812 L 33.921875 8.230469 C 33.921875 8.347656 33.785156 8.421875 33.675781 8.363281 L 32.683594 7.824219 C 32.609375 7.78125 32.511719 7.804688 32.464844 7.875 C 31.628906 9.152344 30.59375 10.605469 29.347656 12.105469 C 28.332031 13.335938 27.171875 14.597656 25.875 15.828125 C 25.628906 16.058594 25.378906 16.289062 25.125 16.515625 C 24.195312 17.355469 23.199219 18.167969 22.132812 18.941406 C 21.976562 19.054688 21.816406 19.167969 21.65625 19.277344 C 20.753906 19.90625 19.808594 20.503906 18.816406 21.054688 C 18.566406 21.191406 18.3125 21.328125 18.054688 21.460938 C 17.335938 21.835938 16.589844 22.1875 15.820312 22.507812 C 15.296875 22.726562 14.765625 22.929688 14.222656 23.121094 C 13.726562 23.292969 13.222656 23.457031 12.707031 23.605469 C 12.636719 23.625 12.570312 23.644531 12.503906 23.664062 C 11.882812 23.839844 11.253906 23.992188 10.625 24.121094 C 10.253906 24.199219 9.882812 24.269531 9.507812 24.332031 C 8.609375 24.480469 7.703125 24.585938 6.792969 24.648438 C 6.59375 24.664062 6.390625 24.675781 6.191406 24.683594 C 5.753906 24.703125 5.316406 24.714844 4.875 24.714844 C 4.316406 24.714844 3.757812 24.699219 3.195312 24.664062 C 3.195312 24.664062 3.195312 24.664062 3.191406 24.664062 C 3.164062 24.664062 3.136719 24.660156 3.105469 24.660156 C 2.910156 24.648438 2.898438 24.382812 3.089844 24.355469 C 3.125 24.347656 3.160156 24.34375 3.191406 24.335938 C 3.195312 24.335938 3.195312 24.335938 3.195312 24.335938 C 4.117188 24.1875 5.121094 23.984375 6.191406 23.710938 C 6.386719 23.660156 6.589844 23.609375 6.792969 23.550781 C 7.554688 23.34375 8.347656 23.097656 9.167969 22.8125 C 9.226562 22.789062 9.34375 22.75 9.507812 22.6875 C 9.769531 22.59375 10.148438 22.449219 10.625 22.253906 C 11.148438 22.035156 11.789062 21.761719 12.503906 21.421875 C 13.039062 21.171875 13.617188 20.886719 14.222656 20.566406 C 14.738281 20.292969 15.273438 20 15.820312 19.679688 C 16.097656 19.519531 16.378906 19.347656 16.660156 19.175781 C 17.132812 18.878906 17.597656 18.574219 18.054688 18.257812 C 18.3125 18.082031 18.5625 17.90625 18.816406 17.722656 C 19.808594 17.011719 20.757812 16.257812 21.65625 15.484375 C 21.816406 15.347656 21.976562 15.210938 22.132812 15.070312 C 23.207031 14.125 24.207031 13.160156 25.125 12.207031 C 25.382812 11.941406 25.632812 11.679688 25.875 11.417969 C 27.269531 9.917969 28.46875 8.46875 29.445312 7.210938 C 29.621094 6.980469 29.792969 6.753906 29.957031 6.535156 C 30.011719 6.460938 29.988281 6.359375 29.90625 6.3125 L 28.988281 5.816406 C 28.878906 5.753906 28.878906 5.605469 28.988281 5.546875 L 33.675781 2.996094 C 33.785156 2.9375 33.921875 3.011719 33.921875 3.132812 " fill-opacity="1" fill-rule="nonzero"/></g></svg>