<svg xmlns="http://www.w3.org/2000/svg" xmlns:xlink="http://www.w3.org/1999/xlink" width="35" zoomAndPan="magnify" viewBox="0 0 26.25 43.499999" height="58" preserveAspectRatio="xMidYMid meet" version="1.0"><defs><clipPath id="969cce6785"><path d="M 0 0.535156 L 25.351562 0.535156 L 25.351562 42.652344 L 0 42.652344 Z M 0 0.535156 " clip-rule="nonzero"/></clipPath><clipPath id="56c6f7e24c"><path d="M 25.351562 0.535156 L 25.351562 42.652344 L 12.675781 36.097656 L 0 42.652344 L 0 0.535156 Z M 25.351562 0.535156 " clip-rule="nonzero"/></clipPath><clipPath id="84c4ecd1f0"><path d="M 5.015625 21 L 17.414062 21 L 17.414062 35.953125 L 5.015625 35.953125 Z M 5.015625 21 " clip-rule="nonzero"/></clipPath><clipPath id="9b5dd419fb"><path d="M 5.015625 7 L 17.414062 7 L 17.414062 26 L 5.015625 26 Z M 5.015625 7 " clip-rule="nonzero"/></clipPath></defs><g clip-path="url(#969cce6785)"><g clip-path="url(#56c6f7e24c)"><path fill="#6d43e1" d="M 0 0.535156 L 25.351562 0.535156 L 25.351562 42.652344 L 0 42.652344 Z M 0 0.535156 " fill-opacity="1" fill-rule="nonzero"/></g></g><g clip-path="url(#84c4ecd1f0)"><path fill="#ffffff" d="M 15.433594 35.707031 L 5.03125 25.304688 L 8.964844 21.371094 L 15.433594 27.839844 C 17.605469 30.011719 17.605469 33.535156 15.433594 35.707031 Z M 15.433594 35.707031 " fill-opacity="1" fill-rule="nonzero"/></g><g clip-path="url(#9b5dd419fb)"><path fill="#ffffff" d="M 15.433594 14.898438 L 5.03125 25.304688 L 5.03125 17.4375 L 15.433594 7.035156 C 17.613281 9.203125 17.613281 12.730469 15.433594 14.898438 Z M 15.433594 14.898438 " fill-opacity="1" fill-rule="nonzero"/></g></svg>