<svg xmlns="http://www.w3.org/2000/svg" xmlns:xlink="http://www.w3.org/1999/xlink" width="216" zoomAndPan="magnify" viewBox="0 0 162 54" height="72" preserveAspectRatio="xMidYMid meet" version="1.0"><defs><g/><clipPath id="f02bdaeade"><path d="M 1.472656 10.484375 L 27.078125 10.484375 L 27.078125 53.019531 L 1.472656 53.019531 Z M 1.472656 10.484375 " clip-rule="nonzero"/></clipPath><clipPath id="73b4de9766"><path d="M 27.078125 10.484375 L 27.078125 53.019531 L 14.273438 46.398438 L 1.472656 53.019531 L 1.472656 10.484375 Z M 27.078125 10.484375 " clip-rule="nonzero"/></clipPath><clipPath id="5d6d9ac790"><path d="M 6.539062 31 L 19 31 L 19 46.253906 L 6.539062 46.253906 Z M 6.539062 31 " clip-rule="nonzero"/></clipPath><clipPath id="957cc1ac4e"><path d="M 6.539062 17 L 19 17 L 19 36 L 6.539062 36 Z M 6.539062 17 " clip-rule="nonzero"/></clipPath></defs><g fill="#ffffff" fill-opacity="1"><g transform="translate(31.874181, 36.927059)"><g><path d="M 13.300781 0 L 13.300781 -3.535156 L 6.226562 -3.535156 L 13.269531 -21.160156 L 0.96875 -21.160156 L 0.96875 -17.621094 L 8.070312 -17.621094 L 0.996094 0 Z M 13.300781 0 "/></g></g></g><g fill="#ffffff" fill-opacity="1"><g transform="translate(45.021875, 36.927059)"><g><path d="M 5.925781 -17.621094 L 16.503906 -17.621094 L 16.503906 -21.160156 L 2.386719 -21.160156 L 2.386719 0 L 16.503906 0 L 16.503906 -3.535156 L 5.925781 -3.535156 L 5.925781 -8.828125 L 14.722656 -8.828125 L 14.722656 -12.332031 L 5.925781 -12.332031 Z M 5.925781 -17.621094 "/></g></g></g><g fill="#ffffff" fill-opacity="1"><g transform="translate(61.585047, 36.927059)"><g><path d="M 13.480469 0 L 17.621094 0 L 11.878906 -9.1875 C 13.933594 -9.761719 16.535156 -11.246094 16.535156 -14.992188 C 16.535156 -21.160156 9.460938 -21.160156 9.460938 -21.160156 L 2.417969 -21.160156 L 2.417969 -17.621094 L 5.773438 -12.332031 L 2.417969 -12.332031 L 2.417969 0 L 5.953125 0 L 5.953125 -8.828125 L 7.980469 -8.828125 Z M 9.914062 -12.363281 L 6.621094 -17.621094 L 9.460938 -17.621094 C 9.460938 -17.621094 12.996094 -17.621094 12.996094 -14.992188 C 12.996094 -12.90625 10.851562 -12.453125 9.914062 -12.363281 Z M 9.914062 -12.363281 "/></g></g></g><g fill="#ffffff" fill-opacity="1"><g transform="translate(78.873629, 36.927059)"><g><path d="M 12.152344 -2.449219 L 13.089844 0 L 16.898438 0 L 8.433594 -21.765625 L 0 0 L 3.808594 0 L 4.714844 -2.449219 Z M 5.863281 -5.5 L 8.433594 -12.847656 L 11.003906 -5.5 Z M 5.863281 -5.5 "/></g></g></g><g fill="#ffffff" fill-opacity="1"><g transform="translate(94.560258, 36.927059)"><g><path d="M 18.316406 -21.160156 L 14.78125 -21.160156 L 14.78125 -12.394531 L 5.984375 -12.394531 L 5.984375 -21.160156 L 2.449219 -21.160156 L 2.449219 0 L 5.984375 0 L 5.984375 -8.828125 L 14.78125 -8.828125 L 14.78125 0 L 18.316406 0 Z M 18.316406 -21.160156 "/></g></g></g><g fill="#030d40" fill-opacity="1"><g transform="translate(114.093781, 36.927059)"><g/></g></g><g fill="#8f4ded" fill-opacity="1"><g transform="translate(123.321337, 36.927059)"><g><path d="M 5.925781 -17.621094 L 16.503906 -17.621094 L 16.503906 -21.160156 L 2.386719 -21.160156 L 2.386719 0 L 5.925781 0 L 5.925781 -8.828125 L 14.722656 -8.828125 L 14.722656 -12.332031 L 5.925781 -12.332031 Z M 5.925781 -17.621094 "/></g></g></g><g fill="#8f4ded" fill-opacity="1"><g transform="translate(139.6427, 36.927059)"><g><path d="M 8.070312 -10.578125 L 0.515625 0 L 4.835938 0 L 10.246094 -7.558594 L 15.628906 0 L 19.949219 0 L 12.394531 -10.578125 L 19.949219 -21.160156 L 15.628906 -21.160156 L 10.246094 -13.601562 L 4.835938 -21.160156 L 0.515625 -21.160156 Z M 8.070312 -10.578125 "/></g></g></g><g clip-path="url(#f02bdaeade)"><g clip-path="url(#73b4de9766)"><path fill="#6d43e1" d="M 1.472656 10.484375 L 27.078125 10.484375 L 27.078125 53.019531 L 1.472656 53.019531 Z M 1.472656 10.484375 " fill-opacity="1" fill-rule="nonzero"/></g></g><g clip-path="url(#5d6d9ac790)"><path fill="#ffffff" d="M 17.0625 46.003906 L 6.554688 35.496094 L 10.527344 31.527344 L 17.0625 38.058594 C 19.25 40.25 19.25 43.8125 17.0625 46.003906 Z M 17.0625 46.003906 " fill-opacity="1" fill-rule="nonzero"/></g><g clip-path="url(#957cc1ac4e)"><path fill="#ffffff" d="M 17.0625 24.992188 L 6.554688 35.496094 L 6.554688 27.554688 L 17.0625 17.046875 C 19.261719 19.238281 19.261719 22.800781 17.0625 24.992188 Z M 17.0625 24.992188 " fill-opacity="1" fill-rule="nonzero"/></g></svg>