<svg width="46" height="18" viewBox="0 0 46 18" fill="none" xmlns="http://www.w3.org/2000/svg">
<path d="M15.1453 0.0268524C16.0448 0.0268524 16.743 0.214824 17.2666 0.590763C17.7768 0.966703 18.0319 1.54404 18.0454 2.30934C18.0454 2.68528 17.9648 3.06122 17.7903 3.39688C17.6426 3.70569 17.3875 3.96079 17.0787 4.10848V4.16219C17.4278 4.3233 17.7231 4.57841 17.938 4.91407C18.0722 5.11546 18.1662 5.33029 18.2333 5.55853C18.3139 5.82706 18.3542 6.12244 18.3408 6.4044C18.3542 6.83404 18.2602 7.25026 18.0856 7.6262C17.9245 7.97529 17.6694 8.27067 17.3741 8.49892C17.0652 8.74059 16.7162 8.91513 16.3402 9.02255C15.9509 9.14338 15.5346 9.19709 15.1318 9.19709H10.2178V0H15.1453V0.0268524ZM12.5808 3.41031H14.7425C15.011 3.43716 15.2661 3.3566 15.4675 3.18206C15.6018 3.03437 15.6823 2.83297 15.6689 2.63158C15.6689 2.44361 15.6018 2.25564 15.4675 2.10795C15.2661 1.9334 14.9976 1.85284 14.7425 1.8797H12.5808V3.41031ZM12.5808 7.35767H14.7693C15.105 7.38452 15.4406 7.29054 15.6957 7.07572C15.8837 6.87432 15.9777 6.61922 15.9643 6.33726C15.9911 6.02846 15.8703 5.73308 15.642 5.53168C15.3869 5.34371 15.0781 5.24973 14.7693 5.26315H12.5808V7.35767Z" fill="#010202"/>
<path d="M20.5823 9.22272H18.085L21.3342 0.0390625H23.7509L27.0807 9.22272H24.4491L24.006 7.62498H21.0388L20.5823 9.22272ZM22.5291 2.44239H22.4754L21.5221 5.8527H23.469L22.5291 2.44239Z" fill="#010202"/>
<path d="M29.8464 3.78674H29.7927V9.22443H27.4297V0.0273438H30.0478L33.1762 5.15623H33.2299V0.0273438H35.5929V9.22443H33.2165L29.8464 3.78674Z" fill="#010202"/>
<path d="M38.8823 0.0273438V3.24968L41.9033 0.0273438H45.0182L41.3125 3.53164L45.233 9.22443H42.2658L39.5537 5.14281L38.8689 5.8007V9.22443H36.5059V0.0273438H38.8823Z" fill="#010202"/>
<path d="M4.96655 10.6328V12.1768H3.35539V17.5877H1.65023V12.1768H0.0390625V10.6328H4.96655Z" fill="#010202"/>
<path d="M9.06333 10.6328C9.305 10.6328 9.5601 10.6865 9.77493 10.7805C9.98975 10.8745 10.1911 11.0222 10.3388 11.2101C10.5 11.3981 10.6208 11.6129 10.7013 11.8546C10.7953 12.1097 10.8356 12.3782 10.8356 12.6468C10.849 13.0496 10.7416 13.4389 10.5402 13.788C10.3388 14.1103 10.0569 14.3519 9.72122 14.513L10.9833 17.5877H9.17074L8.12348 14.7547H6.75398V17.5877H5.04883V10.6328H9.06333ZM8.55312 13.3047C8.71424 13.3181 8.87536 13.251 8.96934 13.1167C9.06333 12.9959 9.10361 12.8482 9.10361 12.7005C9.10361 12.6333 9.09018 12.5528 9.07675 12.4857C9.06332 12.4185 9.02305 12.3514 8.98277 12.2843C8.94249 12.2306 8.87535 12.1769 8.80822 12.1366C8.72766 12.0963 8.64711 12.0694 8.55312 12.0829H6.76741V13.3047H8.55312Z" fill="#010202"/>
<path d="M12.3392 17.5877H10.54L12.8762 10.6328H14.6217L17.0116 17.5877H15.1184L14.7962 16.3793H12.6614L12.3392 17.5877ZM13.7489 12.4588H13.7221L13.0373 15.0367H14.4337L13.7489 12.4588Z" fill="#010202"/>
<path d="M18.7572 13.4792H18.7169V17.5877H17.0117V10.6328H18.8914L21.1471 14.513H21.1873V10.6328H22.8925V17.5877H21.1739L18.7572 13.4792Z" fill="#010202"/>
<path d="M25.8069 17.7627C25.4309 17.7761 25.055 17.7224 24.6925 17.615C24.3971 17.521 24.1286 17.3868 23.8869 17.2122C23.6721 17.0377 23.4841 16.8363 23.3498 16.5812C23.2156 16.3261 23.1081 16.0575 23.041 15.789L24.6656 15.1311C24.679 15.4802 24.8133 15.8025 25.055 16.0441C25.3101 16.2589 25.6323 16.3664 25.9545 16.3529C26.0485 16.3529 26.1425 16.3395 26.2365 16.3261C26.3305 16.3127 26.411 16.2858 26.4916 16.2321C26.5722 16.1918 26.6259 16.1247 26.6796 16.0441C26.7333 15.9636 26.7601 15.8562 26.7601 15.7622C26.7601 15.6682 26.7467 15.5742 26.7199 15.4802C26.6796 15.3862 26.6259 15.3057 26.5587 15.252C26.4648 15.1714 26.3573 15.1043 26.2365 15.0506C26.062 14.97 25.8874 14.9163 25.7129 14.8626C25.3369 14.7552 24.9744 14.6209 24.6253 14.4732C24.3434 14.3524 24.0883 14.1913 23.8466 13.9899C23.6452 13.8153 23.4841 13.6005 23.3767 13.3588C23.2693 13.0903 23.2156 12.8084 23.2156 12.5264C23.2156 12.2176 23.2827 11.9088 23.417 11.6403C23.5512 11.3852 23.7392 11.1569 23.9809 10.9824C24.236 10.7944 24.5179 10.6601 24.8267 10.5796C25.1758 10.4856 25.5383 10.4453 25.9008 10.4453C26.2231 10.4453 26.5587 10.4722 26.8675 10.5527C27.1226 10.6199 27.3643 10.7273 27.5791 10.875C27.7805 11.0092 27.9551 11.1838 28.0893 11.3852C28.237 11.6134 28.3444 11.8417 28.4384 12.0968L26.975 12.7412C26.9213 12.4727 26.787 12.231 26.599 12.0431C26.1962 11.7745 25.686 11.7611 25.2698 12.0028C25.149 12.0968 25.0818 12.231 25.0684 12.3787C25.0684 12.4727 25.0818 12.5533 25.1221 12.6338C25.1624 12.7144 25.2295 12.7949 25.3101 12.8486C25.4175 12.9292 25.5383 12.9963 25.6726 13.0366C25.874 13.1172 26.062 13.1709 26.2634 13.2246C26.5856 13.3186 26.9078 13.4125 27.1898 13.5065C27.4583 13.6005 27.7134 13.7348 27.9417 13.9093C28.1565 14.0839 28.331 14.2987 28.4519 14.5404C28.5861 14.8492 28.6533 15.1983 28.6398 15.5339C28.6533 15.8696 28.5727 16.1918 28.425 16.5006C28.2773 16.7692 28.0759 17.0108 27.8208 17.1854C27.5523 17.3733 27.2435 17.521 26.9212 17.6016C26.5453 17.7224 26.1694 17.7761 25.8069 17.7627Z" fill="#010202"/>
<path d="M30.4639 13.2107H33.1089V14.7547H30.4639V17.5877H28.7588V10.6328H33.9145V12.1768H30.4639V13.2107Z" fill="#010202"/>
<path d="M34.0498 10.6328H39.2055V12.1768H35.755V13.1167H38.7759V14.6607H35.755V16.0571H39.2995V17.6011H34.0498V10.6328Z" fill="#010202"/>
<path d="M43.4354 10.6328C43.6771 10.6328 43.9322 10.6865 44.147 10.7805C44.3618 10.8745 44.5632 11.0222 44.7109 11.2101C44.872 11.3981 44.9929 11.6129 45.0734 11.8546C45.1674 12.1097 45.2077 12.3782 45.2077 12.6468C45.2211 13.0496 45.1137 13.4389 44.9123 13.788C44.7109 14.1103 44.429 14.3519 44.0933 14.513L45.3554 17.5877H43.5428L42.4955 14.7547H41.1261V17.5877H39.4209V10.6328H43.4354ZM42.9252 13.3047C43.0863 13.3181 43.2474 13.251 43.3414 13.1167C43.4354 12.9959 43.4757 12.8482 43.4757 12.7005C43.4757 12.6333 43.4622 12.5528 43.4488 12.4857C43.4354 12.4185 43.3951 12.3514 43.3548 12.2843C43.3146 12.2306 43.2474 12.1769 43.1803 12.1366C43.0997 12.0963 43.0192 12.0694 42.9252 12.0829H41.1395V13.3047H42.9252Z" fill="#010202"/>
<path d="M9.3045 0.0273438H0V1.89362H9.3045V0.0273438Z" fill="#010202"/>
<path d="M9.3045 3.53125H0V5.39752H9.3045V3.53125Z" fill="#010202"/>
<path d="M9.3045 7.37109H0V9.23736H9.3045V7.37109Z" fill="#010202"/>
</svg>
