<svg width="83" height="39" viewBox="0 0 83 39" fill="none" xmlns="http://www.w3.org/2000/svg">
<path d="M13.8449 33.7464C21.4912 33.7464 27.6898 27.5478 27.6898 19.9015C27.6898 12.2552 21.4912 6.05664 13.8449 6.05664C6.19857 6.05664 0 12.2552 0 19.9015C0 27.5478 6.19857 33.7464 13.8449 33.7464Z" fill="#627EEA"/>
<path d="M14.2754 9.51758V17.1928L20.7626 20.0916L14.2754 9.51758Z" fill="white" fill-opacity="0.602"/>
<path d="M14.2761 9.51758L7.78809 20.0916L14.2761 17.1928V9.51758Z" fill="white"/>
<path d="M14.2754 25.0666V30.2818L20.7669 21.3008L14.2754 25.0666Z" fill="white" fill-opacity="0.602"/>
<path d="M14.2761 30.2817V25.0656L7.78809 21.3007L14.2761 30.2817Z" fill="white"/>
<path d="M14.2754 23.859L20.7626 20.0924L14.2754 17.1953V23.859Z" fill="white" fill-opacity="0.2"/>
<path d="M7.78809 20.0924L14.2761 23.8591V17.1954L7.78809 20.0924Z" fill="white" fill-opacity="0.602"/>
<path d="M68.3576 33.7464C76.0039 33.7464 82.2025 27.5478 82.2025 19.9015C82.2025 12.2552 76.0039 6.05664 68.3576 6.05664C60.7113 6.05664 54.5127 12.2552 54.5127 19.9015C54.5127 27.5478 60.7113 33.7464 68.3576 33.7464Z" fill="#26A17B"/>
<path fill-rule="evenodd" clip-rule="evenodd" d="M70.0204 21.098V21.0963C69.9253 21.1032 69.4346 21.1327 68.34 21.1327C67.4661 21.1327 66.8508 21.1067 66.6345 21.0963V21.0989C63.2702 20.9509 60.7591 20.3651 60.7591 19.6642C60.7591 18.9642 63.2702 18.3784 66.6345 18.2278V20.5157C66.8543 20.5313 67.4842 20.5685 68.3547 20.5685C69.3992 20.5685 69.9227 20.5252 70.0204 20.5166V18.2296C73.3778 18.3793 75.8829 18.9651 75.8829 19.6642C75.8829 20.3651 73.3778 20.9492 70.0204 21.098ZM70.0204 17.9916V15.9443H74.7052V12.8223H61.9497V15.9443H66.6345V17.9907C62.8272 18.1655 59.9639 18.9201 59.9639 19.8234C59.9639 20.7268 62.8272 21.4805 66.6345 21.6562V28.2169H70.0204V21.6544C73.8217 21.4796 76.6781 20.726 76.6781 19.8234C76.6781 18.9209 73.8217 18.1673 70.0204 17.9916Z" fill="white"/>
<path d="M59.1382 19.4694C59.1382 29.6697 50.8692 37.9387 40.6688 37.9387C30.4685 37.9387 22.1995 29.6697 22.1995 19.4694C22.1995 9.26902 30.4685 1 40.6688 1C50.8692 1 59.1382 9.26902 59.1382 19.4694Z" fill="#F7931A" stroke="white" stroke-width="2"/>
<path d="M49.4167 17.0608C49.7988 14.5103 47.8555 13.1389 45.2004 12.2239L46.0619 8.76804L43.9592 8.24481L43.1196 11.6094C42.5671 11.4706 42.0001 11.3417 41.4343 11.2127L42.28 7.82621L40.1773 7.30176L39.3158 10.7564C38.8582 10.6517 38.408 10.5495 37.9724 10.44L37.9748 10.429L35.0739 9.70501L34.5141 11.9513C34.5141 11.9513 36.0753 12.309 36.0425 12.3309C36.8943 12.5439 37.0476 13.1073 37.022 13.5551L36.0413 17.4915C36.0997 17.5061 36.1751 17.528 36.2603 17.5609L36.0376 17.5061L34.6626 23.0208C34.5579 23.2788 34.2939 23.667 33.6976 23.5197C33.7195 23.5502 32.1693 23.1389 32.1693 23.1389L31.1252 25.5458L33.8631 26.2284C34.3718 26.3562 34.8707 26.49 35.361 26.6154L34.491 30.1101L36.5925 30.6334L37.454 27.1776C38.0284 27.3321 38.5857 27.4757 39.1308 27.612L38.2717 31.0532L40.3744 31.5764L41.2444 28.089C44.8317 28.768 47.5282 28.4942 48.6635 25.2501C49.5786 22.6388 48.6185 21.1311 46.7312 20.1491C48.1062 19.8327 49.1405 18.9286 49.4167 17.0608ZM44.6102 23.7996C43.9616 26.4122 39.5628 24.9994 38.1366 24.6453L39.2926 20.0153C40.7188 20.3718 45.2904 21.0763 44.6102 23.7996ZM45.2612 17.0231C44.6686 19.3995 41.0084 18.1912 39.822 17.8955L40.8684 13.6974C42.0549 13.9931 45.8794 14.5444 45.2612 17.0231Z" fill="white"/>
</svg>
