<svg width="108" height="22" viewBox="0 0 108 22" fill="none" xmlns="http://www.w3.org/2000/svg">
<path d="M18.1237 16.557L22.5432 7.98166H24.8355L26.5011 4.86486H24.3573L25.759 2.72102H28.2492L30.0961 0H7.70132L21.3889 1.6491L21.0426 2.24278L2.72102 2.3912L19.6243 4.28767L19.278 4.91433L17.2991 4.86486L16.6559 6.18414L6.90975 6.13467L17.2991 8.03114L16.8868 8.90516L0 8.77323L16.0293 10.9171L13.3413 15.4356L3.74347 15.3367L18.1237 16.557Z" fill="#EE993C"/>
<path d="M34.9614 4.17188C27.2931 4.20486 25.3966 8.03078 25.3966 8.03078L29.7667 8.27814C29.7667 8.27814 30.245 7.05781 32.4548 6.8929C34.6481 6.72799 34.1369 7.88236 34.1369 7.88236C34.2028 8.60797 32.4548 9.59743 27.7713 9.94374C23.0879 10.2901 21.6531 13.209 21.6531 13.209C21.6531 13.209 20.4823 15.1054 22.7251 16.5566C24.9678 18.0079 30.2615 15.1384 30.2615 15.1384L30.113 16.5566H34.9614L34.8625 15.3858L38.5729 8.27814C40.9477 4.27082 34.9614 4.17188 34.9614 4.17188ZM27.5404 14.3468C27.1612 14.2974 26.8313 14.0665 26.7159 13.7037C26.6005 13.3409 26.6829 12.8297 27.5734 12.3349C27.9197 12.137 28.3155 12.0051 28.7113 11.9227L32.5537 11.0816C32.5372 11.0981 30.6573 14.6932 27.5404 14.3468Z" fill="#EE993C"/>
<path d="M36.626 13.1109L41.7712 12.7317C41.7712 12.7317 41.7877 14.859 44.5417 14.1004C44.5417 14.1004 46.3227 13.7211 45.9269 12.3853C45.795 11.9401 45.2013 11.6762 43.3378 11.8741C42.167 12.006 41.0786 11.5938 41.0786 11.5938C41.0786 11.5938 38.6709 10.5713 39.8417 8.21311C40.9961 5.85489 44.014 4.76648 44.014 4.76648C47.8234 3.4472 50.8413 4.12333 52.3419 4.93139C53.8261 5.73945 52.8202 7.32259 52.8202 7.32259L48.1037 7.63592C48.1037 7.63592 48.1367 6.30015 46.2403 6.76189C44.0634 7.28961 44.4427 8.62538 46.3392 8.67485C47.5925 8.70784 50.5774 8.80678 51.3525 10.5713C52.1276 12.3359 49.3736 15.6506 44.6901 16.6565C40.0066 17.646 37.2361 16.2772 36.6425 14.9085V13.1109H36.626Z" fill="#EE993C"/>
<path d="M74.5562 4.23775H72.7751C70.5653 4.1388 69.5264 6.24965 69.5264 6.24965H69.1636V4.5016H67.1682L64.0184 15.4022L62.6826 21.0916H68.6194L69.9552 15.0889C71.225 17.1008 74.1439 16.9688 74.1439 16.9688C78.4975 16.2762 78.8109 12.038 78.8109 12.038V8.62436C78.0358 4.73248 74.5562 4.23775 74.5562 4.23775ZM74.1109 10.2735C74.1109 11.0321 73.913 11.7906 73.5337 12.4668C73.4513 12.5987 73.4018 12.6647 73.4018 12.6647C73.4018 12.6647 72.7586 13.4562 71.4394 13.3903C70.9941 13.3738 70.6478 13.1924 70.3674 12.9615C69.8727 12.5327 69.5924 11.8731 69.5924 11.2135V9.36646C69.5924 8.7398 69.8562 8.14612 70.3345 7.75034C70.7302 7.43701 71.2415 7.2721 72.033 7.2721C72.4948 7.2721 72.8906 7.4535 73.2039 7.70087C73.7976 8.17911 74.1109 8.9212 74.1109 9.67979V10.2735Z" fill="#5075AA"/>
<path d="M67.1517 4.50229C65.0079 3.52932 60.1265 4.17247 60.1265 4.17247C60.1265 4.17247 55.7729 4.79913 54.9318 7.96541C54.8659 8.22926 54.9813 8.5261 55.2287 8.64154C55.476 8.77347 55.8718 8.87241 56.548 8.87241C57.6034 8.87241 57.7848 8.13032 57.7848 8.13032C57.7848 8.13032 58.0651 6.08543 61.8911 6.23385C65.717 6.38227 65.7335 6.92647 65.651 7.40471C65.5521 7.88295 64.4472 9.16925 64.4472 9.16925L56.9932 9.72995C55.6574 9.82889 54.3547 10.2247 53.2168 10.9338C52.0129 11.6759 50.8091 12.8468 50.6277 14.5948C50.5452 15.4358 50.9905 16.2439 51.7656 16.5902C51.914 16.6562 52.0624 16.7057 52.2438 16.7716C52.788 16.9365 53.3487 17.0025 53.9259 16.986L63.6721 16.6232L67.8278 8.19628C67.8278 8.17979 69.2955 5.47526 67.1517 4.50229ZM60.4069 11.9397C60.2584 12.1541 60.077 12.319 59.8792 12.4345L59.6813 15.7657H56.1357L58.329 12.1047C58.1476 11.6924 58.2136 11.1152 58.5599 10.637C59.0216 9.97731 59.8132 9.72995 60.3244 10.0928C60.8356 10.4556 60.8686 11.2801 60.4069 11.9397Z" fill="#EE993C"/>
<path d="M93.6032 14.4954V7.98147C93.6362 6.67868 92.7292 5.5408 92.7292 5.5408C92.7292 5.5408 90.9647 3.59486 85.9184 3.66082C80.8722 3.72678 79.7013 7.53621 79.7013 7.53621L84.3847 7.99796C84.8135 6.95903 85.4237 6.29939 86.9903 6.39833C88.557 6.49728 88.8373 7.66814 88.7549 8.27831C88.6559 8.88848 84.2693 9.31725 81.5978 9.91092C78.9262 10.5046 79.289 13.3905 79.289 13.3905C79.289 13.3905 80.0311 16.4249 83.5767 16.4909C87.1223 16.5568 88.9693 14.7263 88.9693 14.7263C89.1012 15.32 89.6784 15.7982 89.6784 15.7982H94.2299L93.6032 14.4954ZM88.8538 11.1478C88.8538 13.0442 87.1223 14.5119 85.2588 14.1161C85.1928 14.0996 85.1433 14.0832 85.0774 14.0667C85.0774 14.0667 83.857 13.6049 84.3518 12.4011C84.5826 11.8404 85.0774 11.4281 85.671 11.2632C85.9514 11.1972 86.2977 11.1148 86.6935 11.0983C87.2377 11.0653 87.7819 10.9664 88.2766 10.752C88.59 10.62 88.8373 10.4716 88.8373 10.3397V11.1478H88.8538Z" fill="#5075AA"/>
<path d="M92.9106 4.23828H98.0723L100.678 12.0056L103.201 4.23828H108L102.492 18.2062C102.492 18.2062 101.75 21.0756 96.7365 20.8448H69.0811L69.7572 18.1237L96.1593 18.0908C96.1593 18.0908 98.6825 17.9423 98.3197 15.6666L92.9106 4.23828Z" fill="#5075AA"/>
</svg>
