<svg width="55" height="43" viewBox="0 0 55 43" fill="none" xmlns="http://www.w3.org/2000/svg">
<path d="M53.5673 27.0689V26.4199H53.405L53.2157 26.8526L53.0264 26.4199H52.8642V27.0689H52.9724V26.5822L53.1616 27.0148H53.2968L53.4861 26.5822V27.0689H53.5673ZM52.4856 27.0689V26.5281H52.7019V26.4199H52.1611V26.5281H52.3775V27.0689H52.4856Z" fill="#00A2E5"/>
<path d="M34.342 29.854H19.7129V3.57031H34.342V29.854Z" fill="#7375CF"/>
<path d="M20.6592 16.7112C20.6592 11.3842 23.1469 6.62499 27.0408 3.56938C24.2015 1.325 20.6051 0 16.7112 0C7.4903 0 0 7.4903 0 16.7112C0 25.9321 7.4903 33.4224 16.7112 33.4224C20.6051 33.4224 24.2015 32.0974 27.0408 29.853C23.1469 26.7974 20.6592 22.0382 20.6592 16.7112Z" fill="#EB001B"/>
<path d="M54.0816 16.7113C54.0816 25.9322 46.5913 33.4225 37.3704 33.4225C33.4765 33.4225 29.8801 32.0975 27.0408 29.8531C30.9346 26.7975 33.4224 22.0383 33.4224 16.7113C33.4224 11.3842 30.9346 6.62505 27.0408 3.56944C29.8801 1.32506 33.4765 6.10352e-05 37.3704 6.10352e-05C46.5913 6.10352e-05 54.0816 7.49036 54.0816 16.7113Z" fill="#00A2E5"/>
<path d="M39.2626 37.2887C39.4519 37.2887 39.7494 37.3157 39.9386 37.3968L39.6412 38.3162C39.4249 38.2351 39.2356 38.2081 39.0463 38.2081C38.4244 38.2081 38.0999 38.6137 38.0999 39.3438V41.8315H37.1264V37.3968H38.0728V37.9377C38.3432 37.532 38.7218 37.2887 39.2626 37.2887ZM35.6932 38.2621H34.1249V40.2632C34.1249 40.6958 34.2871 40.9933 34.7739 40.9933C35.0172 40.9933 35.3417 40.9121 35.6392 40.7499L35.9096 41.5882C35.6121 41.8045 35.1254 41.9397 34.6927 41.9397C33.557 41.9397 33.1514 41.3178 33.1514 40.2902V38.2621H32.2591V37.3698H33.1514V36.0178H34.1249V37.3698H35.6932V38.2621ZM23.3356 39.2086C23.4438 38.5596 23.8223 38.1269 24.5254 38.1269C25.1473 38.1269 25.5529 38.5055 25.6611 39.2086H23.3356ZM26.6616 39.6142C26.6616 38.2351 25.7963 37.2887 24.5524 37.2887C23.2545 37.2887 22.3351 38.2351 22.3351 39.6142C22.3351 41.0203 23.2815 41.9397 24.6065 41.9397C25.2825 41.9397 25.8774 41.7774 26.4182 41.3178L25.9315 40.6147C25.5529 40.9121 25.0933 41.0744 24.6336 41.0744C24.0116 41.0744 23.4438 40.7769 23.3086 39.9928H26.6075C26.6346 39.8576 26.6616 39.7494 26.6616 39.6142ZM30.907 38.5326C30.6366 38.3703 30.0958 38.154 29.5279 38.154C28.9871 38.154 28.6897 38.3433 28.6897 38.6678C28.6897 38.9652 29.0142 39.0463 29.4468 39.1004L29.9065 39.1545C30.88 39.2897 31.4478 39.6953 31.4478 40.4795C31.4478 41.3178 30.7177 41.9397 29.4198 41.9397C28.6897 41.9397 28.0137 41.7504 27.4999 41.3718L27.9596 40.6147C28.2841 40.8581 28.7708 41.0744 29.4468 41.0744C30.0958 41.0744 30.4473 40.8851 30.4473 40.5336C30.4473 40.2902 30.204 40.155 29.6631 40.0739L29.2034 40.0198C28.2029 39.8846 27.6621 39.4249 27.6621 38.7218C27.6621 37.8295 28.3922 37.2887 29.5009 37.2887C30.204 37.2887 30.8529 37.4509 31.3126 37.7484L30.907 38.5326ZM42.805 38.181C42.6157 38.181 42.4264 38.2081 42.2641 38.2892C42.1019 38.3703 41.9397 38.4514 41.8315 38.5866C41.7233 38.7218 41.6152 38.857 41.534 39.0463C41.4529 39.2086 41.4259 39.4249 41.4259 39.6142C41.4259 39.8305 41.4529 40.0198 41.534 40.182C41.6152 40.3443 41.6963 40.5065 41.8315 40.6417C41.9667 40.7769 42.1019 40.8581 42.2641 40.9392C42.4264 41.0203 42.6157 41.0473 42.805 41.0473C42.9943 41.0473 43.1835 41.0203 43.3458 40.9392C43.508 40.8581 43.6703 40.7769 43.7784 40.6417C43.9136 40.5065 43.9948 40.3713 44.0759 40.182C44.157 40.0198 44.184 39.8035 44.184 39.6142C44.184 39.3979 44.157 39.2086 44.0759 39.0463C43.9948 38.8841 43.9136 38.7218 43.7784 38.5866C43.6432 38.4514 43.508 38.3703 43.3458 38.2892C43.1835 38.2351 42.9943 38.181 42.805 38.181ZM42.805 37.2887C43.1565 37.2887 43.481 37.3428 43.7514 37.478C44.0488 37.5861 44.2922 37.7484 44.5085 37.9647C44.7249 38.181 44.8871 38.4244 45.0223 38.6948C45.1305 38.9922 45.2116 39.2897 45.2116 39.6142C45.2116 39.9387 45.1575 40.2632 45.0223 40.5336C44.9141 40.831 44.7249 41.0744 44.5085 41.2637C44.2922 41.48 44.0488 41.6422 43.7514 41.7504C43.4539 41.8586 43.1295 41.9397 42.805 41.9397C42.4534 41.9397 42.1289 41.8856 41.8585 41.7504C41.5611 41.6422 41.3177 41.48 41.1014 41.2637C40.8851 41.0473 40.7228 40.804 40.5876 40.5336C40.4795 40.2361 40.3983 39.9387 40.3983 39.6142C40.3983 39.2897 40.4524 38.9652 40.5876 38.6948C40.6958 38.3974 40.8851 38.154 41.1014 37.9647C41.3177 37.7484 41.5611 37.5861 41.8585 37.478C42.1289 37.3428 42.4534 37.2887 42.805 37.2887ZM17.7111 39.6142C17.7111 38.83 18.2249 38.181 19.0632 38.181C19.8744 38.181 20.3882 38.803 20.3882 39.6142C20.3882 40.4254 19.8473 41.0203 19.0632 41.0203C18.2249 41.0203 17.7111 40.3984 17.7111 39.6142ZM21.3075 39.6142V37.3968H20.3341V37.9377C20.0366 37.532 19.5769 37.2887 18.928 37.2887C17.6841 37.2887 16.7106 38.2621 16.7106 39.6142C16.7106 40.9662 17.6841 41.9397 18.928 41.9397C19.5499 41.9397 20.0096 41.6963 20.3341 41.2907V41.8315H21.3075V39.6142ZM15.8723 41.8315V39.0463C15.8723 37.9917 15.1963 37.2887 14.1147 37.2887C13.5468 37.2887 12.9519 37.4509 12.5463 38.0729C12.2489 37.5861 11.7621 37.2887 11.0861 37.2887C10.6264 37.2887 10.1397 37.4239 9.78817 37.9377V37.3968H8.8147V41.8315H9.78817V39.3708C9.78817 38.6137 10.2208 38.181 10.8698 38.181C11.5188 38.181 11.8433 38.5866 11.8433 39.3438V41.8045H12.8167V39.3438C12.8167 38.5866 13.2764 38.154 13.8984 38.154C14.5473 38.154 14.8718 38.5596 14.8718 39.3167V41.7774H15.8723V41.8315Z" fill="black"/>
<path d="M46.2392 41.4793V41.5874H46.3473C46.3744 41.5874 46.4014 41.5874 46.4014 41.5604C46.4285 41.5604 46.4284 41.5334 46.4284 41.5063C46.4284 41.4793 46.4285 41.4793 46.4014 41.4793C46.4014 41.4793 46.3744 41.4522 46.3473 41.4522H46.2392V41.4793ZM46.3473 41.4252C46.4014 41.4252 46.4285 41.4252 46.4555 41.4522C46.4825 41.4793 46.5096 41.5063 46.5096 41.5604C46.5096 41.5874 46.5096 41.6145 46.4825 41.6415C46.4555 41.6686 46.4285 41.6686 46.3744 41.6686L46.5096 41.8308H46.4014L46.2662 41.6686H46.2392V41.8308H46.158V41.4252H46.3473ZM46.3203 41.966C46.3744 41.966 46.4014 41.966 46.4555 41.939C46.5096 41.9119 46.5366 41.8849 46.5637 41.8578C46.5907 41.8308 46.6177 41.8038 46.6448 41.7497C46.6718 41.6956 46.6718 41.6686 46.6718 41.6145C46.6718 41.5604 46.6718 41.5334 46.6448 41.4793C46.6177 41.4252 46.5907 41.3981 46.5637 41.3711C46.5366 41.3441 46.5096 41.317 46.4555 41.29C46.4285 41.2629 46.3744 41.2629 46.3203 41.2629C46.2662 41.2629 46.2392 41.2629 46.1851 41.29C46.131 41.317 46.104 41.3441 46.0769 41.3711C46.0499 41.3981 46.0228 41.4522 45.9958 41.4793C45.9688 41.5334 45.9688 41.5604 45.9688 41.6145C45.9688 41.6686 45.9688 41.6956 45.9958 41.7497C46.0228 41.8038 46.0499 41.8308 46.0769 41.8578C46.104 41.8849 46.158 41.9119 46.1851 41.939C46.2392 41.966 46.2662 41.966 46.3203 41.966ZM46.3203 41.1818C46.3744 41.1818 46.4284 41.1818 46.4825 41.2089C46.5366 41.2359 46.5907 41.2629 46.6177 41.29C46.6448 41.317 46.6989 41.3711 46.7259 41.4252C46.7529 41.4793 46.7529 41.5334 46.7529 41.5874C46.7529 41.6415 46.7529 41.6956 46.7259 41.7497C46.6989 41.8038 46.6718 41.8578 46.6177 41.8849C46.5637 41.9119 46.5366 41.966 46.4825 41.993C46.4284 42.0201 46.3744 42.0201 46.3203 42.0201C46.2662 42.0201 46.1851 42.0201 46.131 41.993C46.0769 41.966 46.0228 41.939 45.9958 41.8849C45.9688 41.8578 45.9147 41.8038 45.8876 41.7497C45.8606 41.6956 45.8606 41.6415 45.8606 41.5874C45.8606 41.5334 45.8606 41.4793 45.8876 41.4252C45.9147 41.3711 45.9417 41.317 45.9958 41.29C46.0228 41.2629 46.0769 41.2089 46.131 41.2089C46.1851 41.1818 46.2662 41.1818 46.3203 41.1818Z" fill="black"/>
</svg>
