<svg width="55" height="42" viewBox="0 0 55 42" fill="none" xmlns="http://www.w3.org/2000/svg">
<path d="M9.80191 41.9089V39.1215C9.80191 38.0552 9.15241 37.357 8.03744 37.357C7.47995 37.357 6.87375 37.5411 6.45699 38.1473C6.13224 37.6385 5.66677 37.357 4.96856 37.357C4.50308 37.357 4.03761 37.4978 3.66956 38.0065V37.449H2.69531V41.9089H3.66956V39.4462C3.66956 38.656 4.08632 38.2826 4.73582 38.2826C5.38532 38.2826 5.71007 38.6993 5.71007 39.4462V41.9089H6.68432V39.4462C6.68432 38.656 7.14979 38.2826 7.75058 38.2826C8.40007 38.2826 8.72482 38.6993 8.72482 39.4462V41.9089H9.80191ZM24.2532 37.449H22.6728V36.1013H21.6986V37.449H20.8163V38.3313H21.6986V40.3772C21.6986 41.4002 22.1153 42.0009 23.2303 42.0009C23.6471 42.0009 24.1125 41.8602 24.4373 41.6762L24.1558 40.8373C23.8744 41.0213 23.5496 41.07 23.3169 41.07C22.8514 41.07 22.6674 40.7885 22.6674 40.3285V38.3313H24.2478V37.449H24.2532ZM32.5235 37.3516C31.966 37.3516 31.5926 37.6331 31.3598 38.0011V37.4436H30.3856V41.9035H31.3598V39.3921C31.3598 38.6506 31.6846 38.2284 32.2908 38.2284C32.4748 38.2284 32.7076 38.2772 32.897 38.3205L33.1784 37.3895C32.9836 37.3516 32.7076 37.3516 32.5235 37.3516ZM20.0261 37.8171C19.5606 37.4923 18.9111 37.3516 18.2129 37.3516C17.0979 37.3516 16.3564 37.9091 16.3564 38.7913C16.3564 39.5328 16.9139 39.955 17.8882 40.0903L18.3536 40.139C18.8624 40.2311 19.1439 40.3718 19.1439 40.6045C19.1439 40.9293 18.7704 41.162 18.1209 41.162C17.4714 41.162 16.9572 40.9293 16.6325 40.6965L16.167 41.438C16.6758 41.8115 17.374 41.9955 18.0722 41.9955C19.3712 41.9955 20.1181 41.3893 20.1181 40.5558C20.1181 39.7656 19.5119 39.3488 18.5864 39.2081L18.1209 39.1594C17.7041 39.1107 17.3794 39.0187 17.3794 38.7426C17.3794 38.4179 17.7041 38.2339 18.2183 38.2339C18.7758 38.2339 19.3333 38.4666 19.6147 38.6073L20.0261 37.8171ZM45.9465 37.3516C45.389 37.3516 45.0155 37.6331 44.7828 38.0011V37.4436H43.8086V41.9035H44.7828V39.3921C44.7828 38.6506 45.1076 38.2284 45.7138 38.2284C45.8978 38.2284 46.1305 38.2772 46.32 38.3205L46.6014 37.4003C46.412 37.3516 46.1359 37.3516 45.9465 37.3516ZM33.4978 39.679C33.4978 41.0267 34.4287 42.0009 35.8684 42.0009C36.5179 42.0009 36.9834 41.8602 37.4489 41.4922L36.9834 40.7019C36.61 40.9834 36.2419 41.1187 35.8197 41.1187C35.0295 41.1187 34.472 40.5612 34.472 39.679C34.472 38.84 35.0295 38.2826 35.8197 38.2393C36.2365 38.2393 36.61 38.38 36.9834 38.656L37.4489 37.8658C36.9834 37.4923 36.5179 37.357 35.8684 37.357C34.4287 37.3516 33.4978 38.3313 33.4978 39.679ZM42.5096 39.679V37.449H41.5353V38.0065C41.2106 37.5898 40.7451 37.357 40.1389 37.357C38.8832 37.357 37.909 38.3313 37.909 39.679C37.909 41.0267 38.8832 42.0009 40.1389 42.0009C40.7884 42.0009 41.2539 41.7682 41.5353 41.3514V41.9089H42.5096V39.679ZM38.9319 39.679C38.9319 38.8888 39.4407 38.2393 40.2796 38.2393C41.0698 38.2393 41.6273 38.8455 41.6273 39.679C41.6273 40.4692 41.0698 41.1187 40.2796 41.1187C39.4461 41.07 38.9319 40.4638 38.9319 39.679ZM27.2734 37.3516C25.9744 37.3516 25.0435 38.2826 25.0435 39.6736C25.0435 41.07 25.9744 41.9955 27.3221 41.9955C27.9716 41.9955 28.6211 41.8115 29.1353 41.3893L28.6698 40.6911C28.2964 40.9726 27.8309 41.1566 27.3708 41.1566C26.7646 41.1566 26.1639 40.8751 26.0231 40.0903H29.3193C29.3193 39.9496 29.3193 39.8576 29.3193 39.7169C29.3626 38.2826 28.5237 37.3516 27.2734 37.3516ZM27.2734 38.1906C27.8796 38.1906 28.2964 38.564 28.3884 39.2568H26.0664C26.1584 38.656 26.5752 38.1906 27.2734 38.1906ZM51.4781 39.679V35.6846H50.5038V38.0065C50.1791 37.5898 49.7136 37.357 49.1074 37.357C47.8517 37.357 46.8774 38.3313 46.8774 39.679C46.8774 41.0267 47.8517 42.0009 49.1074 42.0009C49.7569 42.0009 50.2224 41.7682 50.5038 41.3514V41.9089H51.4781V39.679ZM47.9004 39.679C47.9004 38.8888 48.4092 38.2393 49.2481 38.2393C50.0383 38.2393 50.5958 38.8455 50.5958 39.679C50.5958 40.4692 50.0383 41.1187 49.2481 41.1187C48.4092 41.07 47.9004 40.4638 47.9004 39.679ZM15.2848 39.679V37.449H14.3105V38.0065C13.9858 37.5898 13.5203 37.357 12.9141 37.357C11.6584 37.357 10.6841 38.3313 10.6841 39.679C10.6841 41.0267 11.6584 42.0009 12.9141 42.0009C13.5636 42.0009 14.0291 41.7682 14.3105 41.3514V41.9089H15.2848V39.679ZM11.6638 39.679C11.6638 38.8888 12.1726 38.2393 13.0115 38.2393C13.8017 38.2393 14.3592 38.8455 14.3592 39.679C14.3592 40.4692 13.8017 41.1187 13.0115 41.1187C12.1726 41.07 11.6638 40.4638 11.6638 39.679Z" fill="black"/>
<path d="M34.3365 3.57812H19.7012V29.872H34.3365V3.57812Z" fill="#FF5A00"/>
<path d="M20.6757 16.7246C20.6757 11.3825 23.1871 6.64112 27.0408 3.57765C24.2046 1.34771 20.627 0 16.7246 0C7.48006 0 0 7.48006 0 16.7246C0 25.9691 7.48006 33.4492 16.7246 33.4492C20.627 33.4492 24.2046 32.1015 27.0408 29.8715C23.1817 26.8513 20.6757 22.0667 20.6757 16.7246Z" fill="#EB001B"/>
<path d="M54.0816 16.7244C54.0816 25.9689 46.6015 33.449 37.357 33.449C33.4546 33.449 29.8769 32.1013 27.0408 29.8713C30.9432 26.8025 33.4059 22.0665 33.4059 16.7244C33.4059 11.3823 30.8945 6.64094 27.0408 3.57747C29.8715 1.34753 33.4492 -0.000183105 37.3516 -0.000183105C46.6015 -0.000183105 54.0816 7.52859 54.0816 16.7244Z" fill="#F79E1B"/>
</svg>
