<svg width="245" height="44" viewBox="0 0 245 44" fill="none" xmlns="http://www.w3.org/2000/svg">
<path d="M240.077 4.15919C236.962 2.02506 232.247 0.948756 226.068 0.948756H209.883L203.867 33.6129H182.665L184.028 26.2021H196.799L198.313 17.8786L185.548 17.8969L186.915 10.5192H200.07L201.82 0.950662H175.105L169.393 31.9346H159.589L165.339 0.949033H151.374L145.662 31.933H136.111L141.867 0.949033H127.909L121.885 33.6131H100.531L101.881 26.2023H114.704L116.219 17.9261L103.408 17.9133L104.767 10.5209H118.07L119.81 0.948242H36.5584L31.8199 26.8321L22.3834 0.948242H7.89404L0.0957031 43.1907H13.9332L18.6533 16.593L27.8104 43.1907H77.4026L83.4322 10.5168H91.1883L85.1587 43.1907H215.646L219.429 22.5657L225.549 43.1907H239.393L233.052 26.3375L234.503 26.0253C237.698 25.3403 240.191 23.8691 241.926 21.6634C243.66 19.4374 244.543 16.5796 244.543 13.1468C244.543 9.15026 243.081 6.20986 240.073 4.15673L240.077 4.15919ZM65.3611 33.6129H44.1796L45.5478 26.2021H58.8336L60.3397 17.8549H47.1818L48.4491 10.5213H69.5997L65.3571 33.6128L65.3611 33.6129ZM228.669 19.3843C227.277 20.3577 225.259 20.8315 222.498 20.8315H219.762L221.861 9.49559H223.874C226.166 9.49559 227.837 9.86292 228.991 10.6122C229.891 11.2 230.961 12.3626 230.961 14.561C230.958 17.2204 229.713 18.6493 228.666 19.384L228.669 19.3843Z" fill="#83BA3B"/>
</svg>