<svg width="197" height="51" viewBox="0 0 197 51" fill="none" xmlns="http://www.w3.org/2000/svg">
<mask id="mask0_1335_4935" style="mask-type:luminance" maskUnits="userSpaceOnUse" x="0" y="0" width="197" height="51">
<path d="M196.222 0.902344H0.0898438V50.9023H196.222V0.902344Z" fill="white"/>
</mask>
<g mask="url(#mask0_1335_4935)">
<path fill-rule="evenodd" clip-rule="evenodd" d="M106.525 1.7207V18.2446C106.529 20.0382 106.14 21.8107 105.383 23.4368C104.724 24.9315 103.664 26.2144 102.319 27.1425C100.919 28.0324 99.2855 28.4843 97.627 28.4407C94.7842 28.4407 92.688 27.5385 91.2796 25.7992C89.8713 24.0597 89.0731 21.6585 89.0731 18.7055V1.7207H81.5508V19.0364C81.4853 21.9897 82.0333 24.9247 83.1605 27.6554C84.2466 30.0596 86.0161 32.0909 88.2487 33.4964C90.8386 34.9966 93.7987 35.7366 96.7897 35.6317C99.0234 35.6974 101.235 35.1738 103.202 34.1131C104.501 33.3454 105.633 32.3259 106.531 31.1146V32.1464C106.577 34.2105 106.185 36.2607 105.383 38.1628C104.71 39.8419 103.553 41.2833 102.06 42.3036C100.435 43.3529 98.5274 43.8763 96.5951 43.8028C94.6367 43.8481 92.7007 43.3782 90.981 42.4399C89.3569 41.5347 88.0259 40.1836 87.1455 38.5458L86.9052 38.0785L80.5645 41.5118L80.7851 41.9531C82.1745 44.8066 84.4271 47.15 87.2233 48.651C90.1675 50.1657 93.4401 50.9302 96.7509 50.8771C100.007 50.961 103.221 50.1267 106.025 48.4692C108.651 46.8925 110.746 44.5669 112.042 41.7909C113.502 38.7577 114.22 35.4211 114.138 32.0556V1.7207H106.525Z" fill="#3042E0"/>
<path fill-rule="evenodd" clip-rule="evenodd" d="M73.7379 9.45722C72.22 6.84857 70.0304 4.69474 67.3969 3.22018C63.2846 0.859629 58.4094 0.208959 53.8218 1.40835C49.2343 2.60774 45.3014 5.56119 42.8706 9.63245C41.3178 12.2671 40.5186 15.2777 40.5601 18.3358C40.5278 21.4255 41.278 24.473 42.7409 27.1947C43.449 28.4914 44.3216 29.6911 45.3369 30.7643C46.3407 31.8162 47.4648 32.7463 48.6859 33.5357C51.2829 35.1485 54.2867 35.9862 57.3438 35.9501C60.0374 36.0191 62.6982 35.3454 65.0345 34.0029C66.5159 33.1136 67.8243 31.9637 68.8961 30.6086V35.9501H76.1262V18.4266C76.1734 15.2889 75.3489 12.1995 73.7443 9.50265L73.7379 9.45722ZM67.2153 23.6187C65.8259 25.974 63.5637 27.6864 60.9196 28.3839C58.2754 29.0813 55.4629 28.7077 53.0926 27.344C51.5879 26.4161 50.3297 25.1381 49.4257 23.6187C48.5523 22.0408 48.105 20.2624 48.1277 18.459C48.0993 16.6446 48.5468 14.8545 49.4257 13.267C50.315 11.7407 51.571 10.4603 53.0797 9.5416C54.6505 8.6067 56.4437 8.11131 58.2719 8.10727C60.0988 8.1185 61.8903 8.61341 63.4639 9.5416C64.9861 10.434 66.2482 11.7094 67.1243 13.2409C68.0085 14.8264 68.4562 16.6181 68.4223 18.4331C68.4401 20.2462 67.9934 22.0337 67.1243 23.6251L67.2153 23.6187Z" fill="#3042E0"/>
<path fill-rule="evenodd" clip-rule="evenodd" d="M33.3021 9.65059C31.7887 7.00774 29.5977 4.81659 26.9549 3.30323C24.21 1.69187 21.0772 0.861485 17.8946 0.901869C14.7225 0.861015 11.597 1.66759 8.84081 3.23831C6.19424 4.71148 3.98258 6.85599 2.42854 9.45588C0.849477 12.1614 0.0414384 15.2476 0.0920866 18.3798V42.8348H7.67257V31.8598C8.59086 32.6924 9.59614 33.4234 10.671 34.0406C11.7944 34.6843 13.0025 35.167 14.2601 35.4749C15.5321 35.8021 16.8407 35.9656 18.1542 35.9617C21.3051 36.0149 24.4136 35.2309 27.1626 33.6901C29.7617 32.1924 31.9094 30.0222 33.38 27.4076C34.9051 24.6255 35.679 21.4938 35.6257 18.3214C35.671 15.2631 34.8715 12.2514 33.3152 9.61814L33.3021 9.65059ZM26.7017 23.6173C25.8163 25.1621 24.5607 26.4624 23.0477 27.4011C21.4792 28.3367 19.6816 28.8176 17.8556 28.7901C16.031 28.8062 14.2363 28.3261 12.6635 27.4011C11.1686 26.4424 9.91932 25.1464 9.01604 23.6173C8.13834 22.0434 7.69065 20.266 7.71801 18.4642C7.68761 16.6682 8.1356 14.8963 9.01604 13.3306C9.89889 11.7972 11.1589 10.5148 12.6765 9.60516C14.2505 8.68289 16.0444 8.20301 17.8686 8.21627C19.6973 8.1669 21.501 8.64939 23.0607 9.60516C24.5768 10.4905 25.8326 11.7598 26.7017 13.2851C27.5805 14.8726 28.0281 16.6629 27.9997 18.4771C28.0236 20.2747 27.576 22.0469 26.7017 23.6173Z" fill="#3042E0"/>
<path fill-rule="evenodd" clip-rule="evenodd" d="M193.861 9.65067C192.349 7.00647 190.158 4.81489 187.513 3.3033C184.771 1.69125 181.64 0.860768 178.46 0.901936C175.288 0.86014 172.162 1.66679 169.406 3.2384C166.757 4.70782 164.544 6.85318 162.994 9.45595C161.421 12.1632 160.619 15.2494 160.677 18.3799V42.8348H168.257V31.886C169.177 32.7246 170.19 33.4562 171.275 34.0666C172.4 34.7054 173.608 35.1859 174.864 35.4944C176.136 35.8212 177.445 35.9847 178.758 35.9812C181.901 36.0463 185.004 35.271 187.747 33.7357C190.346 32.238 192.494 30.0678 193.965 27.4532C195.491 24.6706 196.272 21.5404 196.229 18.3669C196.241 15.2987 195.427 12.2839 193.874 9.63769L193.861 9.65067ZM187.273 23.6174C186.386 25.1625 185.128 26.4627 183.613 27.4012C182.04 28.3111 180.254 28.7902 178.437 28.7902C176.62 28.7902 174.834 28.3111 173.261 27.4012C171.762 26.4441 170.508 25.148 169.601 23.6174C168.726 22.0423 168.279 20.2659 168.303 18.4642C168.276 16.6686 168.723 14.8976 169.601 13.3307C170.487 11.7998 171.746 10.5183 173.261 9.60523C174.835 8.68237 176.629 8.20245 178.453 8.21634C180.271 8.17329 182.062 8.65554 183.613 9.60523C185.132 10.4997 186.391 11.7748 187.267 13.3046C188.142 14.8872 188.601 16.6657 188.601 18.474C188.601 20.2824 188.142 22.0609 187.267 23.6435L187.273 23.6174Z" fill="#3042E0"/>
<path fill-rule="evenodd" clip-rule="evenodd" d="M151.422 30.7562C149.432 33.1656 146.851 35.0171 143.932 36.13C140.968 37.2301 137.754 37.4753 134.658 36.8374C131.503 36.2918 128.559 34.8883 126.149 32.7812C123.877 30.653 122.14 28.0178 121.08 25.0903C120.416 23.1392 120.089 21.0894 120.113 19.0284L118.166 18.5222C118.075 18.4889 117.993 18.4357 117.926 18.3665C117.888 18.3216 117.861 18.2674 117.85 18.2096C117.839 18.1515 117.843 18.0917 117.861 18.0356C117.872 17.9854 117.893 17.9381 117.923 17.8967C117.953 17.8554 117.992 17.8208 118.036 17.7953L125.085 13.6546C125.18 13.6034 125.29 13.5873 125.396 13.6093C125.446 13.6199 125.493 13.6411 125.535 13.6711C125.576 13.7013 125.611 13.7399 125.636 13.7844L127.772 17.3996L129.803 20.8328C129.803 20.8328 129.803 20.8328 129.803 20.8782C129.812 20.9429 129.812 21.0082 129.803 21.0729C129.792 21.1241 129.77 21.1724 129.739 21.2147C129.709 21.2573 129.67 21.293 129.625 21.3196C129.58 21.3465 129.529 21.3638 129.478 21.3704C129.426 21.3771 129.373 21.373 129.323 21.3585L127.778 20.9625C127.778 20.9625 128.018 22.001 128.174 22.5072C128.779 24.1814 129.768 25.6907 131.062 26.9141C132.44 28.1192 134.125 28.919 135.93 29.2246C137.703 29.5956 139.545 29.4515 141.239 28.8092C142.921 28.1792 144.407 27.113 145.542 25.7199C146.675 24.313 147.44 22.6455 147.766 20.8685C148.093 19.0916 147.97 17.2611 147.411 15.5434C146.836 13.8749 145.833 12.3867 144.503 11.2273C143.124 10.0495 141.46 9.2549 139.677 8.9234C137.895 8.5919 136.056 8.73513 134.346 9.33871C132.705 9.96237 131.244 10.9838 130.095 12.3112C129.739 12.7351 129.413 13.1841 129.121 13.6546L126.941 9.92933C126.839 9.79776 126.702 9.69854 126.545 9.64376C126.374 9.60165 126.193 9.62479 126.039 9.70866L121.392 12.4215C122.079 10.5874 123.078 8.88576 124.345 7.39167C126.353 5.07485 128.904 3.29113 131.769 2.19956C134.757 1.14621 137.97 0.898767 141.084 1.48212C144.198 2.0655 147.103 3.45906 149.507 5.52251C150.66 6.53684 151.68 7.69255 152.544 8.9623C153.412 10.2366 154.102 11.623 154.595 13.0835C155.627 16.0723 155.851 19.2809 155.244 22.3839C154.736 25.4647 153.417 28.3545 151.422 30.7562Z" fill="#3042E0"/>
</g>
</svg>