<svg width="38" height="38" viewBox="0 0 38 38" fill="none" xmlns="http://www.w3.org/2000/svg">
<path fill-rule="evenodd" clip-rule="evenodd" d="M18.9261 0C29.3789 0 37.8526 8.47337 37.8526 18.9262C37.8526 29.3789 29.3789 37.8523 18.9261 37.8523C8.47367 37.8523 0 29.3789 0 18.9262C0 8.47337 8.47367 0 18.9261 0Z" fill="#F01010"/>
<path fill-rule="evenodd" clip-rule="evenodd" d="M18.1205 12.789H16.5171C16.2546 12.7591 15.934 12.7591 15.6137 12.7305C15.5266 12.7591 15.4965 12.8478 15.4672 12.9641C15.4383 13.081 15.4672 13.1684 15.5266 13.2555L15.8762 13.285C16.3125 13.3715 16.6331 13.4592 16.8383 13.5475C17.0417 13.6635 17.1869 13.8678 17.246 14.1302C17.3042 14.3927 17.3331 14.7419 17.3042 15.1798C17.2743 15.7918 17.246 16.5201 17.2168 17.3657C17.1869 18.2122 17.1291 19.0863 17.0703 19.9906C17.0128 21.3885 16.8873 24.7944 16.5072 25.8027C16.4192 26.036 16.274 26.1821 16.0989 26.2707C15.8943 26.3569 15.6602 26.4446 15.3688 26.4747L14.9011 26.5329C14.814 26.5904 14.7844 26.6791 14.814 26.8249C14.814 26.9126 14.8429 26.9994 14.9306 27.0874C15.3097 27.0584 15.6602 27.0289 16.0399 26.9994H18.347C18.7842 27.0289 19.1642 27.0584 19.5144 27.0874C19.6024 27.0289 19.6605 26.9415 19.6605 26.8249C19.6605 26.7074 19.6316 26.6203 19.5433 26.5329L18.7264 26.4747C18.463 26.4446 18.2587 26.3867 18.1131 26.2707C18.0399 26.2114 17.9811 26.1301 17.9374 26.031C17.7651 25.6166 17.7614 24.9153 17.7703 24.4799C17.7891 23.5762 17.8002 22.6728 17.8288 21.7688C17.858 20.8651 17.8873 20.0771 17.9159 19.4069C17.9442 18.7949 18.0042 18.1528 18.0325 17.5115C18.0617 16.8709 18.0903 16.2287 18.1205 15.5875H18.1784C18.4119 16.0829 18.6454 16.5786 18.8494 17.1324C19.083 17.6577 19.3159 18.1826 19.5485 18.6786L21.5021 22.8464C21.6781 23.1975 21.8815 23.6347 22.1141 24.1593C22.3772 24.7132 22.6387 25.2375 22.8726 25.7621C22.996 26.04 23.1027 26.3003 23.1932 26.5452C23.2166 26.5452 23.38 27.0824 23.3981 27.1449C23.5104 27.2588 23.6944 27.256 23.8071 27.1449C23.9883 26.7104 24.1775 26.2707 24.3883 25.8504C24.9406 24.611 25.5166 23.4273 26.1671 22.2353L28.0622 18.4743C28.2084 18.1528 28.3536 17.8029 28.5576 17.4244C28.7619 17.0164 28.9656 16.6374 29.141 16.3167C29.2865 15.9666 29.4028 15.7337 29.4607 15.646H29.4902L29.5493 24.6556C29.5776 25.1215 29.5493 25.4698 29.5201 25.7326C29.4967 25.9412 29.4379 26.1394 29.2376 26.2412C29.1201 26.3867 28.8868 26.4446 28.5074 26.4747L27.865 26.5329C27.8065 26.5904 27.7776 26.6791 27.8065 26.8249C27.8065 26.9126 27.836 26.9994 27.924 27.0874C28.3613 27.0584 28.8278 27.0289 29.2659 26.9994H31.7776C32.2149 27.0289 32.6527 27.0584 33.0918 27.0874C33.1795 27.0289 33.2081 26.9415 33.2081 26.8249C33.2371 26.7074 33.2081 26.6203 33.15 26.5329L32.449 26.4747C32.1278 26.4446 31.8943 26.3569 31.7475 26.2111C31.6032 26.0655 31.4859 25.8901 31.4567 25.6566C31.4269 25.3944 31.3976 25.0723 31.3976 24.7224C31.3379 23.6378 31.2973 22.5356 31.269 21.4485C31.2395 20.2808 31.181 19.174 31.1524 18.1254V15.3546C31.1524 14.8589 31.181 14.4801 31.2395 14.1881C31.2989 13.9262 31.4444 13.6933 31.6478 13.5475C31.8524 13.4308 32.2017 13.3425 32.6681 13.285L33.106 13.2555C33.1647 13.197 33.1934 13.1096 33.1647 12.9641C33.1647 12.8761 33.1352 12.789 33.0771 12.7305C32.7269 12.7591 32.3767 12.7591 32.0564 12.789H30.4822C30.2192 12.7591 29.9272 12.7591 29.5493 12.7305C29.5201 13.2253 29.345 13.7804 29.0825 14.4219C28.7619 15.0912 28.3834 15.909 27.917 16.8709L25.8754 20.9811C25.3462 22.1002 24.864 23.1652 24.2154 24.2261H24.1572C23.6412 23.2525 23.1655 22.2424 22.6975 21.2442L20.2199 16.2872C19.8996 15.5875 19.6076 14.9176 19.3744 14.3053C19.1701 13.6933 19.083 13.1684 19.1119 12.7305C18.7624 12.7591 18.4411 12.7591 18.1205 12.789ZM6.15754 23.8716C6.15754 24.6141 6.12831 25.1793 6.06892 25.5664C6.01015 26.316 5.51538 26.5615 4.81783 26.6095L4.37105 26.6689C4.22736 26.8132 4.23843 27.1258 4.40213 27.2338C5.32337 27.1766 6.15631 27.1443 7.08063 27.1443C8.06619 27.1443 8.98497 27.1877 9.96745 27.2338C10.0268 27.1745 10.0576 27.0852 10.0871 26.9664C10.0871 26.8178 10.0576 26.7277 9.9976 26.6689L9.40221 26.6095C8.92589 26.5787 8.59881 26.4895 8.42035 26.3406C8.40958 26.3329 8.39881 26.3249 8.38835 26.3166C8.20834 26.1671 8.07942 25.9387 8.02526 25.5849C7.96619 25.1984 7.93634 24.6341 7.96619 23.8926V21.8104C7.31202 21.8405 6.71786 21.8104 6.18247 21.7214L6.15754 23.8716ZM4.25013 13.0136C4.2209 13.1321 4.28059 13.221 4.36982 13.3108L5.14276 13.3988C5.46922 13.4296 5.70738 13.5182 5.85569 13.6672C6.004 13.7856 6.09385 13.9942 6.12308 14.3207C6.15323 14.6475 6.18247 15.1241 6.18247 15.7472V20.146C6.77694 20.1759 7.3711 20.1759 7.96619 20.146V14.0829C7.93634 13.8453 7.96619 13.6672 8.02526 13.5182C8.0548 13.4296 8.17388 13.3392 8.32219 13.3108C8.50066 13.281 8.79851 13.281 9.18467 13.281C10.3136 13.3108 11.1758 13.6075 11.7998 14.2318C12.3943 14.8552 12.6912 15.7177 12.6912 16.7884C12.722 17.7389 12.4838 18.5414 11.9786 19.1946C11.5327 19.7605 10.8788 20.1759 9.98683 20.3839C9.12528 20.5922 7.9068 20.6814 6.2717 20.651C4.84491 20.623 3.29965 20.5331 1.60547 20.355C3.47842 20.7411 4.87475 21.0082 5.76707 21.0971C7.22248 21.2765 8.64927 21.2457 9.98683 21.0387C10.6702 20.9485 11.2945 20.771 11.8595 20.563C12.3943 20.3254 12.9297 19.9983 13.4943 19.6113C13.821 19.374 14.1183 18.9863 14.3863 18.482C14.5946 18.0063 14.7131 17.4417 14.7423 16.7577C14.7131 16.0143 14.5346 15.362 14.2081 14.7964C13.8807 14.2318 13.4943 13.7856 12.9887 13.4598C12.4838 13.1619 11.8595 12.9235 11.1462 12.7748C10.4625 12.6564 9.65975 12.5967 8.73881 12.5967C7.8468 12.5967 7.04433 12.5967 6.33139 12.6262C5.61784 12.6564 4.96398 12.6859 4.39874 12.7453C4.31013 12.8053 4.25013 12.8942 4.25013 13.0136Z" fill="white"/>
</svg>
