<svg width="121" height="42" viewBox="0 0 121 42" fill="none" xmlns="http://www.w3.org/2000/svg">
<path d="M95.4586 4.92566L105.453 3.14693V41.4955H95.4586V4.92566ZM110.048 4.92566V41.4743H120.043V3.14693L110.048 4.92566ZM81.2499 41.4743H91.2447V13.4382H81.2499V41.4743ZM15.2039 17.398C13.9334 17.3133 11.0112 17.1227 11.0112 14.4969C11.0112 11.3206 15.2251 11.3206 16.7921 11.3206C19.566 11.3206 23.1659 12.1465 25.7281 12.9088C25.7281 12.9088 27.168 13.417 28.375 13.9252L28.4809 13.9464V5.26447L28.3326 5.22212C25.3046 4.16335 21.7895 3.14693 15.2463 3.14693C3.98097 3.14693 0 9.7113 0 15.3228C0 18.5626 1.39757 26.1857 14.2934 27.0751C15.3945 27.1386 18.2955 27.308 18.2955 30.0396C18.2955 32.2842 15.9239 33.6183 11.9217 33.6183C7.53843 33.6183 3.30336 32.496 0.719962 31.4372V40.3944C4.57388 41.4108 8.936 41.919 14.0393 41.919C25.0505 41.919 29.9843 35.7146 29.9843 29.5526C29.9843 22.5647 24.4787 18.0332 15.2039 17.398ZM75.6172 13.0358C66.3848 13.3323 61.705 17.4827 61.705 25.7199V41.4955H71.7845V28.6209C71.7845 23.687 72.4198 21.5695 78.2853 21.3789V13.1629C77.2689 12.9723 75.6172 13.0358 75.6172 13.0358ZM48.5128 13.417C48.301 13.9675 46.6917 18.4991 42.8166 23.1788V3.14693L32.5042 5.17977V41.4743H42.8166V30.2514C45.8023 34.7406 47.2846 41.4743 47.2846 41.4743H59.6298C58.4017 36.3923 53.0655 27.0327 53.0655 27.0327C57.8511 20.9554 59.9686 14.4758 60.3074 13.3958H48.5128V13.417ZM86.2261 10.7489C88.9365 10.7489 91.16 8.54665 91.16 5.8362C91.16 3.12576 88.9577 0.902344 86.2261 0.902344C83.5156 0.902344 81.3134 3.10458 81.3134 5.8362C81.3134 8.54665 83.5156 10.7489 86.2261 10.7489Z" fill="url(#paint0_linear_1335_4946)"/>
<defs>
<linearGradient id="paint0_linear_1335_4946" x1="0.0211819" y1="21.3974" x2="120.05" y2="21.3974" gradientUnits="userSpaceOnUse">
<stop stop-color="#872166"/>
<stop offset="1" stop-color="#4F2455"/>
</linearGradient>
</defs>
</svg>