<svg width="55" height="18" viewBox="0 0 55 18" fill="none" xmlns="http://www.w3.org/2000/svg">
<path d="M23.4357 17.2499H19.0547L21.7949 0.306641H26.1756L23.4357 17.2499Z" fill="#00579F"/>
<path d="M39.3166 0.721341C38.4524 0.378518 37.0819 0 35.3872 0C31.0608 0 28.0142 2.30704 27.9955 5.60542C27.9596 8.03895 30.1768 9.3906 31.8351 10.202C33.53 11.0312 34.1062 11.5723 34.1062 12.3114C34.0889 13.4465 32.7366 13.9697 31.4752 13.9697C29.7262 13.9697 28.789 13.7 27.3647 13.0685L26.7879 12.7977L26.1748 16.6011C27.2023 17.0692 29.0954 17.4847 31.0608 17.5029C35.6576 17.5029 38.6503 15.2315 38.6858 11.7166C38.7033 9.7878 37.5325 8.30991 35.0084 7.10224C33.4761 6.327 32.5377 5.80426 32.5377 5.01105C32.5557 4.28995 33.3314 3.55136 35.0611 3.55136C36.4853 3.51519 37.5318 3.85753 38.3245 4.20011L38.7207 4.38003L39.3166 0.721341Z" fill="#00579F"/>
<path d="M45.1394 11.2475C45.5002 10.2741 46.8885 6.50691 46.8885 6.50691C46.8703 6.54308 47.2486 5.51557 47.4649 4.88479L47.7711 6.34472C47.7711 6.34472 48.6007 10.4004 48.7809 11.2475C48.0962 11.2475 46.0048 11.2475 45.1394 11.2475ZM50.5472 0.306641H47.1585C46.1135 0.306641 45.3196 0.612809 44.8687 1.71243L38.3613 17.2496H42.9582C42.9582 17.2496 43.715 15.1584 43.8776 14.708C44.3819 14.708 48.8537 14.708 49.5024 14.708C49.6282 15.3029 50.0252 17.2496 50.0252 17.2496H54.0816L50.5472 0.306641Z" fill="#00579F"/>
<path d="M15.3954 0.306641L11.1049 11.8603L10.6361 9.51708C9.84289 6.81331 7.35522 3.87573 4.5791 2.41508L8.50898 17.2319H13.1417L20.0279 0.306641H15.3954Z" fill="#00579F"/>
<path d="M7.12069 0.306641H0.0721097L0 0.648983C5.49833 2.05501 9.13977 5.44418 10.6359 9.5178L9.10359 1.73087C8.85133 0.648744 8.07609 0.342336 7.12069 0.306641Z" fill="#FAA61A"/>
</svg>
