<svg width="231" height="140" viewBox="0 0 231 140" fill="none" xmlns="http://www.w3.org/2000/svg">
<path d="M0 15.394H25.9453V24.3884H10.897V31.1342H24.2157V40.3016H10.897V56.9066H0V15.394Z" fill="white"/>
<path d="M96.2566 56.9066L89.8567 45.8366H83.1109V56.8201H72.2139V15.394H89.6837C98.0727 15.394 104.905 22.1398 104.905 30.6153C104.905 34.8531 103.089 39.0043 99.9754 41.8583L108.71 56.9066H96.2566ZM83.1109 36.4963H89.8567C93.1431 36.5827 95.9106 34.0747 95.9971 30.7883C96.0836 27.5019 93.5755 24.7344 90.2891 24.6479C90.1162 24.6479 90.0297 24.6479 89.8567 24.6479H83.1109V36.4963Z" fill="white"/>
<path d="M47.2203 47.8257H44.7122C42.9825 47.8257 41.5988 46.4419 41.5988 44.7122V27.5018C41.5988 25.7721 42.9825 24.3884 44.7122 24.3884H47.2203V15.4805C35.8043 16.0859 26.9829 25.8586 27.6748 37.361C28.2802 47.8257 36.6692 56.2146 47.2203 56.82V47.8257Z" fill="white"/>
<path d="M48.4307 15.4805V24.4749H50.9387C52.6684 24.4749 54.0522 25.8586 54.0522 27.5883V44.7987C54.0522 46.5284 52.6684 47.9121 50.9387 47.9121H48.4307V56.9065C59.8466 56.2147 68.5815 46.3554 67.9762 34.9395C67.3708 24.4749 58.9818 15.9994 48.4307 15.4805Z" fill="white"/>
<path d="M112.17 15.394H137.942V24.3884H123.067V31.1342H136.299V40.3016H123.067V47.9987H137.942V56.9066H112.17V15.394Z" fill="white"/>
<path d="M171.585 33.1231L184.817 14.2695H171.844L165.099 23.8693L171.585 33.1231Z" fill="white"/>
<path d="M159.304 50.2475L170.288 34.7668L170.202 34.6803L146.159 0.0864845L146.072 0H133.1L157.229 34.6803L131.543 71.0902H144.516L159.304 50.2475Z" fill="white"/>
<path d="M151.347 39.9554L155.066 34.6798L146.936 23.0044H142.526L150.655 34.6798L142.007 46.9606H146.418L151.347 39.9554Z" fill="white"/>
<path d="M174.265 39.9556H174.179L171.671 36.3232L165.185 45.4906L173.141 56.9065H186.114L174.265 39.9556Z" fill="white"/>
<path d="M80.1709 63.0469H105.511V71.9548H90.895V78.6141H103.868V87.6085H90.895V95.1326H105.511V103.868H80.1709V63.0469Z" fill="white"/>
<path d="M150.224 63.0469L136.559 82.5924L151.521 103.868H138.462L130.073 91.9327L121.597 103.868H108.538L123.5 82.5924L109.835 63.0469H122.895L130.073 73.252L137.164 63.0469H150.224Z" fill="white"/>
<path d="M155.066 63.0469H172.277C180.579 63.1334 187.152 69.9656 187.066 78.2681C186.979 86.3112 180.493 92.884 172.45 93.057H165.79V103.868H155.066V63.0469ZM165.79 83.8031H172.45C175.65 83.8896 178.417 81.3816 178.504 78.1817C178.59 74.9817 176.082 72.2142 172.882 72.1277C172.709 72.1277 172.623 72.1277 172.45 72.1277H165.79V83.8031Z" fill="white"/>
<path d="M210.504 63.0469C221.747 63.0469 230.914 72.1277 231 83.3707C231 94.6137 221.919 103.781 210.677 103.868C199.434 103.868 190.266 94.7867 190.18 83.5437C190.18 72.3007 199.261 63.1334 210.504 63.0469ZM210.504 73.771C205.142 73.771 200.731 78.0952 200.731 83.5437C200.731 88.9057 205.055 93.3164 210.504 93.3164C215.866 93.3164 220.276 88.9922 220.276 83.5437C220.276 78.0952 215.952 73.771 210.504 73.771Z" fill="white"/>
<path d="M184.385 127.218H188.19L186.287 121.077L184.385 127.218Z" fill="white"/>
<path d="M106.117 119.348H104.646V130.504H106.117C107.328 130.504 108.279 130.072 108.971 129.207C109.663 128.342 109.922 127.045 109.922 125.315V124.537C109.922 122.807 109.576 121.51 108.971 120.645C108.365 119.78 107.414 119.348 106.117 119.348Z" fill="white"/>
<path d="M161.64 122.98C162.073 122.634 162.245 122.115 162.245 121.51C162.245 120.731 162.073 120.213 161.64 119.867C161.208 119.521 160.516 119.348 159.564 119.348H157.402V123.412H159.651C160.516 123.499 161.208 123.326 161.64 122.98Z" fill="white"/>
<path d="M160.343 126.266H157.402V130.504H160.17C160.948 130.504 161.554 130.331 161.986 129.985C162.418 129.639 162.591 129.12 162.591 128.515C162.591 127.044 161.813 126.266 160.343 126.266Z" fill="white"/>
<path d="M80.1709 109.661V139.844H230.913V109.661H80.1709ZM114.419 125.315C114.419 126.958 114.073 128.428 113.381 129.639C112.689 130.936 111.738 131.974 110.44 132.666C109.23 133.358 107.846 133.79 106.289 133.79H100.495V116.061H106.203C107.759 116.061 109.143 116.407 110.44 117.099C111.651 117.791 112.689 118.828 113.381 120.126C114.073 121.423 114.419 122.893 114.419 124.45V125.315ZM140.451 127.65C140.451 128.947 140.191 130.071 139.586 131.109C139.067 132.061 138.202 132.839 137.164 133.271C136.126 133.79 134.916 134.05 133.445 134.05C131.283 134.05 129.554 133.531 128.343 132.407C127.132 131.282 126.44 129.726 126.44 127.823V116.147H130.764V127.909C130.851 129.812 131.716 130.85 133.445 130.85C134.31 130.85 135.002 130.59 135.434 130.158C135.867 129.639 136.126 128.861 136.126 127.823V116.234H140.364V127.65H140.451ZM165.185 132.493C164.061 133.358 162.418 133.79 160.256 133.79H153.077V116.061H159.477C161.726 116.061 163.455 116.493 164.666 117.358C165.877 118.223 166.482 119.434 166.482 120.991C166.482 121.942 166.309 122.72 165.877 123.326C165.445 124.018 164.839 124.45 163.974 124.796C164.926 125.055 165.618 125.488 166.136 126.18C166.655 126.872 166.915 127.65 166.915 128.601C166.828 130.331 166.309 131.628 165.185 132.493ZM190.266 133.79L189.228 130.504H183.347L182.309 133.79H177.725L184.212 116.061H188.19L194.763 133.79H190.266ZM210.676 133.79H206.438V116.061H210.676V133.79Z" fill="white"/>
</svg>
